M48
;GenerationSoftware,Autodesk,EAGLE,9.2.2*%
;CreationDate,2018-11-28T19:10:15Z*%
FMAT,2
ICI,OFF
METRIC,TZ,000.000
T3C0.508
T2C1.000
T1C1.016
%
G90
M71
T1
X17780Y30480
X15240Y30480
X12700Y30480
X10160Y30480
X7620Y30480
X5080Y30480
X17780Y38100
X15240Y38100
X12700Y38100
X10160Y38100
X7620Y38100
X5080Y60960
X7620Y60960
X10160Y60960
X12700Y60960
X5080Y68580
X7620Y68580
X5080Y53340
X7620Y53340
X10160Y53340
X12700Y53340
X12700Y68580
X15240Y68580
X17780Y68580
X5080Y38100
X25400Y5080
X27940Y5080
X30480Y5080
X33020Y5080
X35560Y5080
X38100Y5080
X17780Y22860
X15240Y22860
X12700Y22860
X10160Y22860
X7620Y22860
X5080Y22860
X17780Y45720
X15240Y45720
X12700Y45720
X10160Y45720
X7620Y45720
X5080Y45720
X25400Y22860
X25400Y68580
X45720Y22860
X45720Y68580
X30480Y15240
X27940Y15240
X25400Y15240
X12700Y15240
X10160Y15240
X7620Y15240
X5080Y15240
X12700Y7620
X12700Y5080
X5080Y5080
X5080Y7620
X7620Y5080
X7620Y7620
X10160Y5080
X10160Y7620
T2
X55880Y43180
X55880Y40640
X104140Y52324
X104140Y49784
X55880Y38100
X55880Y35560
X55880Y33020
X55880Y30480
X55880Y27940
X55880Y25400
X55880Y7620
X55880Y10160
X55880Y12700
X55880Y15240
X55880Y17780
X104140Y47244
X104140Y44704
X104140Y42164
X104140Y39624
X104140Y37084
X104140Y34544
X104140Y32004
X104140Y29464
X104140Y25400
X104140Y22860
X104140Y20320
X104140Y7620
X104140Y10160
X104140Y12700
X104140Y15240
X55880Y20320
X104140Y17780
T3
X51000Y25000
X48000Y19000
X15000Y18000
X32500Y12500
X100500Y42000
X42500Y17000
X48500Y23000
X46500Y19000
X49500Y22000
X22000Y9000
X19500Y10000
M30