G04 EAGLE Gerber RS-274X export*
G75*
%MOMM*%
%FSLAX34Y34*%
%LPD*%
%INBottom Copper*%
%IPPOS*%
%AMOC8*
5,1,8,0,0,1.08239X$1,22.5*%
G01*
%ADD10C,1.879600*%
%ADD11P,1.814519X8X292.500000*%
%ADD12C,0.508000*%
%ADD13C,1.778000*%
%ADD14C,0.914400*%

G36*
X1589098Y10164D02*
X1589098Y10164D01*
X1589117Y10162D01*
X1589219Y10184D01*
X1589321Y10200D01*
X1589338Y10210D01*
X1589358Y10214D01*
X1589447Y10267D01*
X1589538Y10316D01*
X1589552Y10330D01*
X1589569Y10340D01*
X1589636Y10419D01*
X1589708Y10494D01*
X1589716Y10512D01*
X1589729Y10527D01*
X1589768Y10623D01*
X1589811Y10717D01*
X1589813Y10737D01*
X1589821Y10755D01*
X1589839Y10922D01*
X1589839Y1055878D01*
X1589836Y1055898D01*
X1589838Y1055917D01*
X1589816Y1056019D01*
X1589800Y1056121D01*
X1589790Y1056138D01*
X1589786Y1056158D01*
X1589733Y1056247D01*
X1589684Y1056338D01*
X1589670Y1056352D01*
X1589660Y1056369D01*
X1589581Y1056436D01*
X1589506Y1056508D01*
X1589488Y1056516D01*
X1589473Y1056529D01*
X1589377Y1056568D01*
X1589283Y1056611D01*
X1589263Y1056613D01*
X1589245Y1056621D01*
X1589078Y1056639D01*
X10922Y1056639D01*
X10902Y1056636D01*
X10883Y1056638D01*
X10781Y1056616D01*
X10679Y1056600D01*
X10662Y1056590D01*
X10642Y1056586D01*
X10553Y1056533D01*
X10462Y1056484D01*
X10448Y1056470D01*
X10431Y1056460D01*
X10364Y1056381D01*
X10292Y1056306D01*
X10284Y1056288D01*
X10271Y1056273D01*
X10232Y1056177D01*
X10189Y1056083D01*
X10187Y1056063D01*
X10179Y1056045D01*
X10161Y1055878D01*
X10161Y10922D01*
X10164Y10902D01*
X10162Y10883D01*
X10184Y10781D01*
X10200Y10679D01*
X10210Y10662D01*
X10214Y10642D01*
X10267Y10553D01*
X10316Y10462D01*
X10330Y10448D01*
X10340Y10431D01*
X10419Y10364D01*
X10494Y10292D01*
X10512Y10284D01*
X10527Y10271D01*
X10623Y10232D01*
X10717Y10189D01*
X10737Y10187D01*
X10755Y10179D01*
X10922Y10161D01*
X1589078Y10161D01*
X1589098Y10164D01*
G37*
%LPC*%
G36*
X124625Y115061D02*
X124625Y115061D01*
X120237Y116879D01*
X116879Y120237D01*
X115722Y123031D01*
X115687Y123087D01*
X115661Y123147D01*
X115609Y123212D01*
X115592Y123240D01*
X115577Y123252D01*
X115557Y123278D01*
X75310Y163525D01*
X73569Y167726D01*
X73569Y862274D01*
X75310Y866475D01*
X78525Y869690D01*
X82726Y871431D01*
X125566Y871431D01*
X125637Y871442D01*
X125708Y871444D01*
X125757Y871462D01*
X125809Y871470D01*
X125872Y871504D01*
X125939Y871529D01*
X125980Y871561D01*
X126026Y871586D01*
X126075Y871637D01*
X126131Y871682D01*
X126160Y871726D01*
X126195Y871764D01*
X126226Y871829D01*
X126264Y871889D01*
X126277Y871940D01*
X126299Y871987D01*
X126307Y872058D01*
X126325Y872128D01*
X126320Y872180D01*
X126326Y872231D01*
X126311Y872302D01*
X126305Y872373D01*
X126285Y872421D01*
X126274Y872472D01*
X126237Y872533D01*
X126209Y872599D01*
X126164Y872655D01*
X126148Y872683D01*
X126130Y872698D01*
X126104Y872730D01*
X123004Y875830D01*
X122995Y875837D01*
X122988Y875846D01*
X122854Y875947D01*
X122220Y876323D01*
X121375Y877448D01*
X121352Y877471D01*
X121305Y877530D01*
X120310Y878525D01*
X120168Y878866D01*
X120134Y878922D01*
X120108Y878982D01*
X120056Y879047D01*
X120039Y879075D01*
X120024Y879087D01*
X120003Y879113D01*
X116879Y882237D01*
X115061Y886625D01*
X115061Y891375D01*
X116879Y895763D01*
X120237Y899121D01*
X124625Y900939D01*
X129375Y900939D01*
X133763Y899121D01*
X137121Y895763D01*
X138201Y893157D01*
X138207Y893147D01*
X138210Y893136D01*
X138295Y892991D01*
X138625Y892552D01*
X138648Y892529D01*
X138695Y892470D01*
X156368Y874798D01*
X156368Y874797D01*
X159797Y871368D01*
X159798Y871368D01*
X174512Y856654D01*
X174586Y856601D01*
X174655Y856541D01*
X174685Y856529D01*
X174712Y856510D01*
X174798Y856483D01*
X174883Y856449D01*
X174924Y856445D01*
X174947Y856438D01*
X174979Y856439D01*
X175050Y856431D01*
X1274950Y856431D01*
X1275040Y856445D01*
X1275131Y856453D01*
X1275161Y856465D01*
X1275193Y856470D01*
X1275273Y856513D01*
X1275357Y856549D01*
X1275389Y856575D01*
X1275410Y856586D01*
X1275432Y856609D01*
X1275488Y856654D01*
X1283238Y864404D01*
X1283291Y864478D01*
X1283351Y864547D01*
X1283363Y864577D01*
X1283382Y864604D01*
X1283409Y864690D01*
X1283443Y864775D01*
X1283447Y864816D01*
X1283454Y864839D01*
X1283453Y864871D01*
X1283461Y864942D01*
X1283461Y865975D01*
X1285279Y870363D01*
X1288637Y873721D01*
X1293025Y875539D01*
X1297775Y875539D01*
X1302163Y873721D01*
X1305521Y870363D01*
X1307339Y865975D01*
X1307339Y861225D01*
X1306489Y859173D01*
X1306474Y859109D01*
X1306449Y859048D01*
X1306440Y858966D01*
X1306433Y858934D01*
X1306434Y858914D01*
X1306431Y858882D01*
X1306431Y857726D01*
X1306223Y857225D01*
X1306218Y857202D01*
X1306206Y857181D01*
X1306170Y857017D01*
X1306110Y856478D01*
X1305339Y855078D01*
X1305329Y855051D01*
X1305302Y855002D01*
X1304691Y853525D01*
X1304307Y853141D01*
X1304293Y853122D01*
X1304275Y853107D01*
X1304178Y852970D01*
X1303916Y852494D01*
X1302668Y851496D01*
X1302649Y851475D01*
X1302605Y851440D01*
X1289798Y838632D01*
X1286475Y835310D01*
X1282274Y833569D01*
X167726Y833569D01*
X163525Y835310D01*
X149749Y849086D01*
X149655Y849153D01*
X149560Y849224D01*
X149554Y849226D01*
X149549Y849229D01*
X149438Y849263D01*
X149326Y849300D01*
X149320Y849300D01*
X149314Y849302D01*
X149197Y849299D01*
X149080Y849298D01*
X149073Y849295D01*
X149068Y849295D01*
X149050Y849289D01*
X148919Y849251D01*
X147274Y848569D01*
X97192Y848569D01*
X97172Y848566D01*
X97153Y848568D01*
X97051Y848546D01*
X96949Y848530D01*
X96932Y848520D01*
X96912Y848516D01*
X96823Y848463D01*
X96732Y848414D01*
X96718Y848400D01*
X96701Y848390D01*
X96634Y848311D01*
X96562Y848236D01*
X96554Y848218D01*
X96541Y848203D01*
X96502Y848107D01*
X96459Y848013D01*
X96457Y847993D01*
X96449Y847975D01*
X96431Y847808D01*
X96431Y435454D01*
X96442Y435383D01*
X96444Y435311D01*
X96462Y435262D01*
X96470Y435211D01*
X96504Y435148D01*
X96529Y435080D01*
X96561Y435040D01*
X96586Y434994D01*
X96637Y434944D01*
X96682Y434888D01*
X96726Y434860D01*
X96764Y434824D01*
X96829Y434794D01*
X96889Y434755D01*
X96940Y434743D01*
X96987Y434721D01*
X97058Y434713D01*
X97128Y434695D01*
X97180Y434699D01*
X97231Y434694D01*
X97302Y434709D01*
X97373Y434714D01*
X97421Y434735D01*
X97472Y434746D01*
X97533Y434783D01*
X97599Y434811D01*
X97655Y434855D01*
X97683Y434872D01*
X97698Y434890D01*
X97730Y434916D01*
X98118Y435304D01*
X302895Y640081D01*
X1082105Y640081D01*
X1085304Y636882D01*
X1161588Y560597D01*
X1161646Y560556D01*
X1161698Y560506D01*
X1161745Y560484D01*
X1161787Y560454D01*
X1161856Y560433D01*
X1161921Y560403D01*
X1161973Y560397D01*
X1162023Y560382D01*
X1162094Y560383D01*
X1162165Y560376D01*
X1162216Y560387D01*
X1162268Y560388D01*
X1162336Y560413D01*
X1162406Y560428D01*
X1162450Y560454D01*
X1162499Y560472D01*
X1162555Y560517D01*
X1162617Y560554D01*
X1162651Y560594D01*
X1162691Y560626D01*
X1162730Y560686D01*
X1162777Y560741D01*
X1162796Y560789D01*
X1162824Y560833D01*
X1162842Y560902D01*
X1162869Y560969D01*
X1162877Y561040D01*
X1162885Y561072D01*
X1162883Y561095D01*
X1162887Y561136D01*
X1162887Y561415D01*
X1163970Y564029D01*
X1164696Y564755D01*
X1164749Y564829D01*
X1164809Y564899D01*
X1164821Y564929D01*
X1164840Y564955D01*
X1164867Y565042D01*
X1164901Y565127D01*
X1164905Y565168D01*
X1164912Y565190D01*
X1164911Y565222D01*
X1164919Y565294D01*
X1164919Y577105D01*
X1182654Y594840D01*
X1182707Y594913D01*
X1182767Y594983D01*
X1182779Y595013D01*
X1182798Y595039D01*
X1182825Y595126D01*
X1182859Y595211D01*
X1182863Y595252D01*
X1182870Y595274D01*
X1182869Y595307D01*
X1182877Y595378D01*
X1182877Y603964D01*
X1189276Y610363D01*
X1198324Y610363D01*
X1204723Y603964D01*
X1204723Y594916D01*
X1198324Y588517D01*
X1191018Y588517D01*
X1190928Y588503D01*
X1190837Y588495D01*
X1190807Y588483D01*
X1190775Y588478D01*
X1190695Y588435D01*
X1190611Y588399D01*
X1190578Y588373D01*
X1190558Y588362D01*
X1190536Y588339D01*
X1190480Y588294D01*
X1188447Y586262D01*
X1188406Y586204D01*
X1188356Y586152D01*
X1188334Y586105D01*
X1188304Y586063D01*
X1188283Y585994D01*
X1188253Y585929D01*
X1188247Y585877D01*
X1188232Y585827D01*
X1188233Y585756D01*
X1188226Y585685D01*
X1188237Y585634D01*
X1188238Y585582D01*
X1188263Y585514D01*
X1188278Y585444D01*
X1188305Y585399D01*
X1188322Y585351D01*
X1188367Y585295D01*
X1188404Y585233D01*
X1188444Y585199D01*
X1188476Y585159D01*
X1188536Y585120D01*
X1188591Y585073D01*
X1188639Y585054D01*
X1188683Y585026D01*
X1188752Y585008D01*
X1188819Y584981D01*
X1188890Y584973D01*
X1188922Y584965D01*
X1188945Y584967D01*
X1188986Y584963D01*
X1198324Y584963D01*
X1204723Y578564D01*
X1204723Y569516D01*
X1198324Y563117D01*
X1189276Y563117D01*
X1182877Y569516D01*
X1182877Y578854D01*
X1182866Y578925D01*
X1182864Y578997D01*
X1182846Y579046D01*
X1182838Y579097D01*
X1182804Y579160D01*
X1182779Y579228D01*
X1182747Y579268D01*
X1182722Y579314D01*
X1182670Y579364D01*
X1182626Y579420D01*
X1182582Y579448D01*
X1182544Y579484D01*
X1182479Y579514D01*
X1182419Y579553D01*
X1182368Y579565D01*
X1182321Y579587D01*
X1182250Y579595D01*
X1182180Y579613D01*
X1182128Y579609D01*
X1182077Y579614D01*
X1182006Y579599D01*
X1181935Y579594D01*
X1181887Y579573D01*
X1181836Y579562D01*
X1181775Y579525D01*
X1181709Y579497D01*
X1181653Y579453D01*
X1181625Y579436D01*
X1181610Y579418D01*
X1181578Y579393D01*
X1175304Y573118D01*
X1175251Y573045D01*
X1175191Y572975D01*
X1175179Y572945D01*
X1175160Y572919D01*
X1175133Y572832D01*
X1175099Y572747D01*
X1175095Y572706D01*
X1175088Y572684D01*
X1175089Y572651D01*
X1175081Y572580D01*
X1175081Y565294D01*
X1175095Y565203D01*
X1175103Y565113D01*
X1175115Y565083D01*
X1175120Y565051D01*
X1175163Y564970D01*
X1175199Y564886D01*
X1175225Y564854D01*
X1175236Y564833D01*
X1175259Y564811D01*
X1175304Y564755D01*
X1176030Y564029D01*
X1177113Y561415D01*
X1177113Y558585D01*
X1176030Y555971D01*
X1174029Y553970D01*
X1171415Y552887D01*
X1171136Y552887D01*
X1171065Y552876D01*
X1170993Y552874D01*
X1170944Y552856D01*
X1170893Y552848D01*
X1170830Y552814D01*
X1170762Y552789D01*
X1170722Y552757D01*
X1170676Y552732D01*
X1170626Y552681D01*
X1170570Y552636D01*
X1170542Y552592D01*
X1170506Y552554D01*
X1170476Y552489D01*
X1170437Y552429D01*
X1170425Y552378D01*
X1170403Y552331D01*
X1170395Y552260D01*
X1170377Y552190D01*
X1170381Y552138D01*
X1170376Y552087D01*
X1170391Y552016D01*
X1170396Y551945D01*
X1170417Y551897D01*
X1170428Y551846D01*
X1170465Y551785D01*
X1170493Y551719D01*
X1170537Y551663D01*
X1170554Y551635D01*
X1170572Y551620D01*
X1170597Y551588D01*
X1188111Y534074D01*
X1188127Y534063D01*
X1188139Y534047D01*
X1188227Y533991D01*
X1188311Y533931D01*
X1188330Y533925D01*
X1188346Y533914D01*
X1188447Y533889D01*
X1188546Y533859D01*
X1188566Y533859D01*
X1188585Y533854D01*
X1188688Y533862D01*
X1188792Y533865D01*
X1188810Y533872D01*
X1188830Y533873D01*
X1188925Y533914D01*
X1189023Y533949D01*
X1189038Y533962D01*
X1189056Y533970D01*
X1189187Y534074D01*
X1189276Y534163D01*
X1198324Y534163D01*
X1204723Y527764D01*
X1204723Y518716D01*
X1198324Y512317D01*
X1189276Y512317D01*
X1182877Y518716D01*
X1182877Y524622D01*
X1182863Y524712D01*
X1182855Y524803D01*
X1182843Y524833D01*
X1182838Y524865D01*
X1182795Y524946D01*
X1182759Y525030D01*
X1182733Y525062D01*
X1182722Y525082D01*
X1182699Y525105D01*
X1182654Y525160D01*
X1078118Y629696D01*
X1078045Y629749D01*
X1077975Y629809D01*
X1077945Y629821D01*
X1077919Y629840D01*
X1077832Y629867D01*
X1077747Y629901D01*
X1077706Y629905D01*
X1077684Y629912D01*
X1077651Y629911D01*
X1077580Y629919D01*
X1069104Y629919D01*
X1069033Y629908D01*
X1068961Y629906D01*
X1068912Y629888D01*
X1068861Y629880D01*
X1068798Y629846D01*
X1068730Y629821D01*
X1068690Y629789D01*
X1068644Y629764D01*
X1068594Y629712D01*
X1068538Y629668D01*
X1068510Y629624D01*
X1068474Y629586D01*
X1068444Y629521D01*
X1068405Y629461D01*
X1068393Y629410D01*
X1068371Y629363D01*
X1068363Y629292D01*
X1068345Y629222D01*
X1068349Y629170D01*
X1068344Y629119D01*
X1068359Y629048D01*
X1068364Y628977D01*
X1068385Y628929D01*
X1068396Y628878D01*
X1068433Y628817D01*
X1068461Y628751D01*
X1068505Y628695D01*
X1068522Y628667D01*
X1068540Y628652D01*
X1068565Y628620D01*
X1070304Y626882D01*
X1188311Y508874D01*
X1188327Y508863D01*
X1188340Y508847D01*
X1188427Y508791D01*
X1188511Y508731D01*
X1188530Y508725D01*
X1188546Y508714D01*
X1188647Y508689D01*
X1188746Y508659D01*
X1188766Y508659D01*
X1188785Y508654D01*
X1188888Y508662D01*
X1188992Y508665D01*
X1189010Y508672D01*
X1189030Y508673D01*
X1189125Y508714D01*
X1189223Y508749D01*
X1189238Y508762D01*
X1189240Y508763D01*
X1198324Y508763D01*
X1204723Y502364D01*
X1204723Y493316D01*
X1198324Y486917D01*
X1189276Y486917D01*
X1182877Y493316D01*
X1182877Y499622D01*
X1182863Y499712D01*
X1182855Y499803D01*
X1182843Y499833D01*
X1182838Y499865D01*
X1182795Y499946D01*
X1182759Y500030D01*
X1182733Y500062D01*
X1182722Y500082D01*
X1182699Y500105D01*
X1182679Y500130D01*
X1182675Y500135D01*
X1182672Y500138D01*
X1182654Y500160D01*
X1063118Y619696D01*
X1063045Y619749D01*
X1062975Y619809D01*
X1062945Y619821D01*
X1062919Y619840D01*
X1062832Y619867D01*
X1062747Y619901D01*
X1062706Y619905D01*
X1062684Y619912D01*
X1062651Y619911D01*
X1062580Y619919D01*
X718166Y619919D01*
X718095Y619908D01*
X718023Y619906D01*
X717974Y619888D01*
X717923Y619880D01*
X717860Y619846D01*
X717792Y619821D01*
X717752Y619789D01*
X717705Y619764D01*
X717656Y619712D01*
X717600Y619668D01*
X717572Y619624D01*
X717536Y619586D01*
X717506Y619521D01*
X717467Y619461D01*
X717454Y619410D01*
X717432Y619363D01*
X717425Y619292D01*
X717407Y619222D01*
X717411Y619170D01*
X717405Y619119D01*
X717421Y619048D01*
X717426Y618977D01*
X717447Y618929D01*
X717458Y618878D01*
X717494Y618817D01*
X717523Y618751D01*
X717567Y618695D01*
X717584Y618667D01*
X717602Y618652D01*
X717627Y618620D01*
X722123Y614124D01*
X722123Y605076D01*
X715724Y598677D01*
X706676Y598677D01*
X700277Y605076D01*
X700277Y614124D01*
X704773Y618620D01*
X704815Y618678D01*
X704864Y618730D01*
X704886Y618777D01*
X704916Y618819D01*
X704937Y618888D01*
X704968Y618953D01*
X704973Y619005D01*
X704989Y619055D01*
X704987Y619126D01*
X704995Y619197D01*
X704984Y619248D01*
X704982Y619300D01*
X704958Y619368D01*
X704942Y619438D01*
X704916Y619483D01*
X704898Y619531D01*
X704853Y619587D01*
X704816Y619649D01*
X704777Y619683D01*
X704744Y619723D01*
X704684Y619762D01*
X704629Y619809D01*
X704581Y619828D01*
X704537Y619856D01*
X704468Y619874D01*
X704401Y619901D01*
X704330Y619909D01*
X704299Y619917D01*
X704275Y619915D01*
X704234Y619919D01*
X632420Y619919D01*
X632330Y619905D01*
X632239Y619897D01*
X632209Y619885D01*
X632177Y619880D01*
X632096Y619837D01*
X632013Y619801D01*
X631980Y619775D01*
X631960Y619764D01*
X631938Y619741D01*
X631882Y619696D01*
X440304Y428118D01*
X438565Y426380D01*
X438524Y426322D01*
X438474Y426270D01*
X438452Y426223D01*
X438422Y426181D01*
X438401Y426112D01*
X438371Y426047D01*
X438365Y425995D01*
X438350Y425945D01*
X438351Y425874D01*
X438344Y425803D01*
X438355Y425752D01*
X438356Y425700D01*
X438381Y425632D01*
X438396Y425562D01*
X438423Y425517D01*
X438440Y425469D01*
X438485Y425413D01*
X438522Y425351D01*
X438562Y425317D01*
X438594Y425277D01*
X438654Y425238D01*
X438709Y425191D01*
X438757Y425172D01*
X438801Y425144D01*
X438870Y425126D01*
X438937Y425099D01*
X439008Y425091D01*
X439040Y425083D01*
X439063Y425085D01*
X439104Y425081D01*
X547580Y425081D01*
X547670Y425095D01*
X547761Y425103D01*
X547791Y425115D01*
X547823Y425120D01*
X547904Y425163D01*
X547987Y425199D01*
X548020Y425225D01*
X548040Y425236D01*
X548062Y425259D01*
X548118Y425304D01*
X700846Y578031D01*
X700857Y578047D01*
X700873Y578059D01*
X700929Y578147D01*
X700989Y578231D01*
X700995Y578250D01*
X701006Y578266D01*
X701031Y578367D01*
X701061Y578466D01*
X701061Y578486D01*
X701066Y578505D01*
X701058Y578608D01*
X701055Y578712D01*
X701048Y578730D01*
X701047Y578750D01*
X701006Y578845D01*
X700971Y578943D01*
X700958Y578958D01*
X700950Y578976D01*
X700846Y579107D01*
X700277Y579676D01*
X700277Y588724D01*
X706676Y595123D01*
X715724Y595123D01*
X722123Y588724D01*
X722123Y579676D01*
X715724Y573277D01*
X710778Y573277D01*
X710688Y573263D01*
X710597Y573255D01*
X710567Y573243D01*
X710535Y573238D01*
X710454Y573195D01*
X710370Y573159D01*
X710338Y573133D01*
X710318Y573122D01*
X710295Y573099D01*
X710240Y573054D01*
X708207Y571022D01*
X708166Y570964D01*
X708116Y570912D01*
X708094Y570865D01*
X708064Y570823D01*
X708043Y570754D01*
X708013Y570689D01*
X708007Y570637D01*
X707992Y570587D01*
X707993Y570516D01*
X707986Y570445D01*
X707997Y570394D01*
X707998Y570342D01*
X708023Y570274D01*
X708038Y570204D01*
X708064Y570160D01*
X708082Y570111D01*
X708127Y570055D01*
X708164Y569993D01*
X708204Y569959D01*
X708236Y569919D01*
X708296Y569880D01*
X708351Y569833D01*
X708399Y569814D01*
X708443Y569786D01*
X708512Y569768D01*
X708579Y569741D01*
X708650Y569733D01*
X708682Y569725D01*
X708705Y569727D01*
X708746Y569723D01*
X715724Y569723D01*
X722123Y563324D01*
X722123Y554276D01*
X715724Y547877D01*
X710378Y547877D01*
X710288Y547863D01*
X710197Y547855D01*
X710167Y547843D01*
X710135Y547838D01*
X710054Y547795D01*
X709970Y547759D01*
X709938Y547733D01*
X709918Y547722D01*
X709895Y547699D01*
X709840Y547654D01*
X707807Y545622D01*
X707766Y545564D01*
X707716Y545512D01*
X707694Y545465D01*
X707664Y545423D01*
X707643Y545354D01*
X707613Y545289D01*
X707607Y545237D01*
X707592Y545187D01*
X707593Y545116D01*
X707586Y545045D01*
X707597Y544994D01*
X707598Y544942D01*
X707623Y544874D01*
X707638Y544804D01*
X707664Y544760D01*
X707682Y544711D01*
X707727Y544655D01*
X707764Y544593D01*
X707804Y544559D01*
X707836Y544519D01*
X707896Y544480D01*
X707951Y544433D01*
X707999Y544414D01*
X708043Y544386D01*
X708112Y544368D01*
X708179Y544341D01*
X708250Y544333D01*
X708282Y544325D01*
X708305Y544327D01*
X708346Y544323D01*
X715724Y544323D01*
X722123Y537924D01*
X722123Y528876D01*
X715724Y522477D01*
X706676Y522477D01*
X700277Y528876D01*
X700277Y536254D01*
X700266Y536325D01*
X700264Y536397D01*
X700246Y536446D01*
X700238Y536497D01*
X700204Y536560D01*
X700179Y536628D01*
X700147Y536668D01*
X700122Y536714D01*
X700070Y536764D01*
X700026Y536820D01*
X699982Y536848D01*
X699944Y536884D01*
X699879Y536914D01*
X699819Y536953D01*
X699768Y536965D01*
X699721Y536987D01*
X699650Y536995D01*
X699580Y537013D01*
X699528Y537009D01*
X699477Y537014D01*
X699406Y536999D01*
X699335Y536994D01*
X699287Y536973D01*
X699236Y536962D01*
X699175Y536925D01*
X699109Y536897D01*
X699053Y536853D01*
X699025Y536836D01*
X699010Y536818D01*
X698978Y536793D01*
X697105Y534919D01*
X687420Y534919D01*
X687330Y534905D01*
X687239Y534897D01*
X687209Y534885D01*
X687177Y534880D01*
X687096Y534837D01*
X687013Y534801D01*
X686980Y534775D01*
X686960Y534764D01*
X686938Y534741D01*
X686882Y534696D01*
X587336Y435150D01*
X587283Y435077D01*
X587223Y435007D01*
X587211Y434977D01*
X587192Y434951D01*
X587165Y434864D01*
X587131Y434779D01*
X587127Y434738D01*
X587120Y434716D01*
X587121Y434683D01*
X587113Y434612D01*
X587113Y433585D01*
X586030Y430971D01*
X584029Y428970D01*
X581415Y427887D01*
X578585Y427887D01*
X575971Y428970D01*
X573970Y430971D01*
X572887Y433585D01*
X572887Y433864D01*
X572876Y433935D01*
X572874Y434007D01*
X572856Y434056D01*
X572848Y434107D01*
X572814Y434170D01*
X572789Y434238D01*
X572757Y434278D01*
X572732Y434324D01*
X572680Y434374D01*
X572636Y434430D01*
X572592Y434458D01*
X572554Y434494D01*
X572489Y434524D01*
X572429Y434563D01*
X572378Y434575D01*
X572331Y434597D01*
X572260Y434605D01*
X572190Y434623D01*
X572138Y434619D01*
X572087Y434624D01*
X572016Y434609D01*
X571945Y434604D01*
X571897Y434583D01*
X571846Y434572D01*
X571785Y434535D01*
X571719Y434507D01*
X571663Y434463D01*
X571635Y434446D01*
X571620Y434428D01*
X571588Y434403D01*
X555304Y418118D01*
X553565Y416380D01*
X553524Y416322D01*
X553474Y416270D01*
X553452Y416223D01*
X553422Y416181D01*
X553401Y416112D01*
X553371Y416047D01*
X553365Y415995D01*
X553350Y415945D01*
X553351Y415874D01*
X553344Y415803D01*
X553355Y415752D01*
X553356Y415700D01*
X553381Y415632D01*
X553396Y415562D01*
X553423Y415517D01*
X553440Y415469D01*
X553485Y415413D01*
X553522Y415351D01*
X553562Y415317D01*
X553594Y415277D01*
X553654Y415238D01*
X553709Y415191D01*
X553757Y415172D01*
X553801Y415144D01*
X553870Y415126D01*
X553937Y415099D01*
X554008Y415091D01*
X554040Y415083D01*
X554063Y415085D01*
X554104Y415081D01*
X727105Y415081D01*
X731882Y410304D01*
X731955Y410251D01*
X732025Y410191D01*
X732055Y410179D01*
X732081Y410160D01*
X732168Y410133D01*
X732253Y410099D01*
X732294Y410095D01*
X732316Y410088D01*
X732349Y410089D01*
X732420Y410081D01*
X908200Y410081D01*
X908245Y410088D01*
X908291Y410086D01*
X908366Y410108D01*
X908442Y410120D01*
X908483Y410142D01*
X908527Y410155D01*
X908591Y410199D01*
X908660Y410236D01*
X908691Y410269D01*
X908729Y410295D01*
X908776Y410358D01*
X908829Y410414D01*
X908848Y410456D01*
X908876Y410492D01*
X908900Y410566D01*
X908933Y410637D01*
X908938Y410683D01*
X908952Y410726D01*
X908951Y410804D01*
X908960Y410881D01*
X908950Y410926D01*
X908950Y410972D01*
X908912Y411104D01*
X908908Y411122D01*
X908905Y411126D01*
X908903Y411133D01*
X907887Y413585D01*
X907887Y416415D01*
X908970Y419029D01*
X910971Y421030D01*
X913585Y422113D01*
X916415Y422113D01*
X919029Y421030D01*
X919755Y420304D01*
X919829Y420251D01*
X919899Y420191D01*
X919929Y420179D01*
X919955Y420160D01*
X920042Y420133D01*
X920127Y420099D01*
X920168Y420095D01*
X920190Y420088D01*
X920222Y420089D01*
X920294Y420081D01*
X1172580Y420081D01*
X1172670Y420095D01*
X1172761Y420103D01*
X1172791Y420115D01*
X1172823Y420120D01*
X1172904Y420163D01*
X1172987Y420199D01*
X1173020Y420225D01*
X1173040Y420236D01*
X1173062Y420259D01*
X1173118Y420304D01*
X1182654Y429840D01*
X1182697Y429899D01*
X1182738Y429943D01*
X1182746Y429958D01*
X1182767Y429983D01*
X1182779Y430013D01*
X1182798Y430039D01*
X1182825Y430126D01*
X1182830Y430141D01*
X1182842Y430166D01*
X1182843Y430171D01*
X1182859Y430211D01*
X1182863Y430252D01*
X1182870Y430274D01*
X1182869Y430307D01*
X1182877Y430378D01*
X1182877Y436324D01*
X1189276Y442723D01*
X1198324Y442723D01*
X1204723Y436324D01*
X1204723Y427276D01*
X1198324Y420877D01*
X1189276Y420877D01*
X1189207Y420946D01*
X1189191Y420957D01*
X1189179Y420973D01*
X1189092Y421029D01*
X1189008Y421089D01*
X1188989Y421095D01*
X1188972Y421106D01*
X1188872Y421131D01*
X1188773Y421161D01*
X1188753Y421161D01*
X1188733Y421166D01*
X1188630Y421158D01*
X1188527Y421155D01*
X1188508Y421148D01*
X1188488Y421147D01*
X1188393Y421106D01*
X1188296Y421071D01*
X1188280Y421058D01*
X1188262Y421050D01*
X1188131Y420946D01*
X1180304Y413118D01*
X1178565Y411380D01*
X1178524Y411322D01*
X1178474Y411270D01*
X1178452Y411223D01*
X1178422Y411181D01*
X1178401Y411112D01*
X1178371Y411047D01*
X1178365Y410995D01*
X1178350Y410945D01*
X1178351Y410874D01*
X1178344Y410803D01*
X1178355Y410752D01*
X1178356Y410700D01*
X1178381Y410632D01*
X1178396Y410562D01*
X1178423Y410517D01*
X1178440Y410469D01*
X1178485Y410413D01*
X1178522Y410351D01*
X1178562Y410317D01*
X1178594Y410277D01*
X1178654Y410238D01*
X1178709Y410191D01*
X1178757Y410172D01*
X1178801Y410144D01*
X1178870Y410126D01*
X1178937Y410099D01*
X1179008Y410091D01*
X1179040Y410083D01*
X1179063Y410085D01*
X1179104Y410081D01*
X1182116Y410081D01*
X1182136Y410084D01*
X1182155Y410082D01*
X1182257Y410104D01*
X1182359Y410120D01*
X1182376Y410130D01*
X1182396Y410134D01*
X1182485Y410187D01*
X1182576Y410236D01*
X1182590Y410250D01*
X1182607Y410260D01*
X1182674Y410339D01*
X1182746Y410414D01*
X1182754Y410432D01*
X1182767Y410447D01*
X1182806Y410543D01*
X1182849Y410637D01*
X1182851Y410657D01*
X1182859Y410675D01*
X1182877Y410842D01*
X1182877Y410924D01*
X1189276Y417323D01*
X1198324Y417323D01*
X1204723Y410924D01*
X1204723Y401876D01*
X1198324Y395477D01*
X1189276Y395477D01*
X1185057Y399696D01*
X1184983Y399749D01*
X1184913Y399809D01*
X1184883Y399821D01*
X1184857Y399840D01*
X1184770Y399867D01*
X1184685Y399901D01*
X1184644Y399905D01*
X1184622Y399912D01*
X1184590Y399911D01*
X1184518Y399919D01*
X1184104Y399919D01*
X1184033Y399908D01*
X1183961Y399906D01*
X1183912Y399888D01*
X1183861Y399880D01*
X1183798Y399846D01*
X1183730Y399821D01*
X1183690Y399789D01*
X1183644Y399764D01*
X1183594Y399712D01*
X1183538Y399668D01*
X1183510Y399624D01*
X1183474Y399586D01*
X1183444Y399521D01*
X1183405Y399461D01*
X1183393Y399410D01*
X1183371Y399363D01*
X1183363Y399292D01*
X1183345Y399222D01*
X1183349Y399170D01*
X1183344Y399119D01*
X1183359Y399048D01*
X1183364Y398977D01*
X1183385Y398929D01*
X1183396Y398878D01*
X1183433Y398817D01*
X1183461Y398751D01*
X1183505Y398695D01*
X1183522Y398667D01*
X1183540Y398652D01*
X1183565Y398620D01*
X1185304Y396882D01*
X1190040Y392146D01*
X1190114Y392093D01*
X1190183Y392033D01*
X1190213Y392021D01*
X1190239Y392002D01*
X1190326Y391975D01*
X1190411Y391941D01*
X1190452Y391937D01*
X1190474Y391930D01*
X1190507Y391931D01*
X1190578Y391923D01*
X1198324Y391923D01*
X1204723Y385524D01*
X1204723Y376476D01*
X1198324Y370077D01*
X1189276Y370077D01*
X1182877Y376476D01*
X1182877Y384622D01*
X1182863Y384712D01*
X1182855Y384803D01*
X1182843Y384833D01*
X1182838Y384865D01*
X1182795Y384946D01*
X1182759Y385030D01*
X1182733Y385062D01*
X1182722Y385082D01*
X1182699Y385105D01*
X1182654Y385160D01*
X1178118Y389696D01*
X1178044Y389749D01*
X1177975Y389809D01*
X1177945Y389821D01*
X1177919Y389840D01*
X1177832Y389867D01*
X1177747Y389901D01*
X1177706Y389905D01*
X1177684Y389912D01*
X1177651Y389911D01*
X1177580Y389919D01*
X722895Y389919D01*
X718118Y394696D01*
X718045Y394749D01*
X717975Y394809D01*
X717945Y394821D01*
X717919Y394840D01*
X717832Y394867D01*
X717747Y394901D01*
X717706Y394905D01*
X717684Y394912D01*
X717651Y394911D01*
X717580Y394919D01*
X552420Y394919D01*
X552330Y394905D01*
X552239Y394897D01*
X552209Y394885D01*
X552177Y394880D01*
X552096Y394837D01*
X552013Y394801D01*
X551980Y394775D01*
X551960Y394764D01*
X551938Y394741D01*
X551882Y394696D01*
X544299Y387114D01*
X544230Y387018D01*
X544161Y386925D01*
X544159Y386919D01*
X544155Y386914D01*
X544121Y386803D01*
X544085Y386691D01*
X544085Y386685D01*
X544083Y386679D01*
X544086Y386562D01*
X544087Y386445D01*
X544089Y386438D01*
X544089Y386433D01*
X544096Y386415D01*
X544134Y386284D01*
X545339Y383375D01*
X545339Y378625D01*
X543521Y374237D01*
X540163Y370879D01*
X535739Y369046D01*
X535701Y369038D01*
X535599Y369022D01*
X535582Y369012D01*
X535562Y369008D01*
X535473Y368955D01*
X535382Y368906D01*
X535368Y368892D01*
X535351Y368882D01*
X535284Y368803D01*
X535212Y368728D01*
X535204Y368710D01*
X535191Y368695D01*
X535152Y368599D01*
X535109Y368505D01*
X535107Y368485D01*
X535099Y368467D01*
X535081Y368300D01*
X535081Y367895D01*
X522105Y354919D01*
X360842Y354919D01*
X360822Y354916D01*
X360803Y354918D01*
X360701Y354896D01*
X360599Y354880D01*
X360582Y354870D01*
X360562Y354866D01*
X360473Y354813D01*
X360382Y354764D01*
X360368Y354750D01*
X360351Y354740D01*
X360284Y354661D01*
X360212Y354586D01*
X360204Y354568D01*
X360191Y354553D01*
X360152Y354457D01*
X360109Y354363D01*
X360107Y354343D01*
X360099Y354325D01*
X360081Y354158D01*
X360081Y290975D01*
X360100Y290860D01*
X360117Y290744D01*
X360119Y290738D01*
X360120Y290732D01*
X360175Y290630D01*
X360228Y290525D01*
X360233Y290520D01*
X360236Y290515D01*
X360320Y290435D01*
X360404Y290353D01*
X360410Y290349D01*
X360414Y290346D01*
X360431Y290338D01*
X360551Y290272D01*
X362363Y289521D01*
X365721Y286163D01*
X367539Y281775D01*
X367539Y277025D01*
X365721Y272637D01*
X362363Y269279D01*
X357975Y267461D01*
X353225Y267461D01*
X348837Y269279D01*
X345479Y272637D01*
X343661Y277025D01*
X343661Y281775D01*
X345479Y286163D01*
X348837Y289521D01*
X349449Y289775D01*
X349549Y289836D01*
X349649Y289896D01*
X349653Y289901D01*
X349658Y289904D01*
X349733Y289994D01*
X349809Y290083D01*
X349811Y290089D01*
X349815Y290094D01*
X349857Y290202D01*
X349901Y290311D01*
X349902Y290319D01*
X349903Y290323D01*
X349904Y290342D01*
X349919Y290478D01*
X349919Y362105D01*
X352895Y365081D01*
X517580Y365081D01*
X517670Y365095D01*
X517761Y365103D01*
X517791Y365115D01*
X517823Y365120D01*
X517904Y365163D01*
X517987Y365199D01*
X518020Y365225D01*
X518040Y365236D01*
X518062Y365259D01*
X518118Y365304D01*
X524627Y371812D01*
X524639Y371829D01*
X524654Y371841D01*
X524710Y371928D01*
X524771Y372012D01*
X524777Y372031D01*
X524787Y372048D01*
X524813Y372148D01*
X524843Y372247D01*
X524843Y372267D01*
X524847Y372286D01*
X524839Y372389D01*
X524837Y372493D01*
X524830Y372512D01*
X524828Y372532D01*
X524788Y372626D01*
X524752Y372724D01*
X524740Y372740D01*
X524732Y372758D01*
X524627Y372889D01*
X523279Y374237D01*
X521461Y378625D01*
X521461Y383375D01*
X523279Y387763D01*
X526637Y391121D01*
X531025Y392939D01*
X535438Y392939D01*
X535528Y392953D01*
X535619Y392961D01*
X535649Y392973D01*
X535681Y392978D01*
X535762Y393021D01*
X535846Y393057D01*
X535878Y393083D01*
X535898Y393094D01*
X535921Y393117D01*
X535976Y393162D01*
X546435Y403620D01*
X546476Y403678D01*
X546526Y403730D01*
X546548Y403777D01*
X546578Y403819D01*
X546599Y403888D01*
X546629Y403953D01*
X546635Y404005D01*
X546650Y404055D01*
X546649Y404126D01*
X546656Y404197D01*
X546645Y404248D01*
X546644Y404300D01*
X546619Y404368D01*
X546604Y404438D01*
X546578Y404482D01*
X546560Y404531D01*
X546515Y404587D01*
X546478Y404649D01*
X546438Y404683D01*
X546406Y404723D01*
X546346Y404762D01*
X546291Y404809D01*
X546243Y404828D01*
X546199Y404856D01*
X546130Y404874D01*
X546063Y404901D01*
X545992Y404909D01*
X545960Y404917D01*
X545937Y404915D01*
X545896Y404919D01*
X537420Y404919D01*
X537330Y404905D01*
X537239Y404897D01*
X537209Y404885D01*
X537177Y404880D01*
X537096Y404837D01*
X537013Y404801D01*
X536980Y404775D01*
X536960Y404764D01*
X536938Y404741D01*
X536882Y404696D01*
X519016Y386831D01*
X518948Y386737D01*
X518878Y386642D01*
X518876Y386636D01*
X518872Y386631D01*
X518838Y386520D01*
X518802Y386408D01*
X518802Y386402D01*
X518800Y386396D01*
X518803Y386279D01*
X518804Y386162D01*
X518806Y386155D01*
X518806Y386150D01*
X518813Y386133D01*
X518851Y386001D01*
X519939Y383375D01*
X519939Y378625D01*
X518121Y374237D01*
X514763Y370879D01*
X510375Y369061D01*
X505625Y369061D01*
X501237Y370879D01*
X497879Y374237D01*
X496061Y378625D01*
X496061Y383375D01*
X497879Y387763D01*
X501237Y391121D01*
X505625Y392939D01*
X510438Y392939D01*
X510528Y392953D01*
X510619Y392961D01*
X510649Y392973D01*
X510681Y392978D01*
X510762Y393021D01*
X510845Y393057D01*
X510878Y393083D01*
X510898Y393094D01*
X510920Y393117D01*
X510976Y393162D01*
X531435Y413620D01*
X531476Y413678D01*
X531526Y413730D01*
X531548Y413777D01*
X531578Y413819D01*
X531599Y413888D01*
X531629Y413953D01*
X531635Y414005D01*
X531650Y414055D01*
X531649Y414126D01*
X531656Y414197D01*
X531645Y414248D01*
X531644Y414300D01*
X531619Y414368D01*
X531604Y414438D01*
X531577Y414483D01*
X531560Y414531D01*
X531515Y414587D01*
X531478Y414649D01*
X531438Y414683D01*
X531406Y414723D01*
X531346Y414762D01*
X531291Y414809D01*
X531243Y414828D01*
X531199Y414856D01*
X531130Y414874D01*
X531063Y414901D01*
X530992Y414909D01*
X530960Y414917D01*
X530937Y414915D01*
X530896Y414919D01*
X192420Y414919D01*
X192330Y414905D01*
X192239Y414897D01*
X192209Y414885D01*
X192177Y414880D01*
X192096Y414837D01*
X192013Y414801D01*
X191980Y414775D01*
X191960Y414764D01*
X191938Y414741D01*
X191882Y414696D01*
X160304Y383118D01*
X160251Y383045D01*
X160191Y382975D01*
X160179Y382945D01*
X160160Y382919D01*
X160133Y382832D01*
X160099Y382747D01*
X160095Y382706D01*
X160088Y382684D01*
X160089Y382651D01*
X160081Y382580D01*
X160081Y335842D01*
X160084Y335822D01*
X160082Y335803D01*
X160104Y335701D01*
X160120Y335599D01*
X160130Y335582D01*
X160134Y335562D01*
X160187Y335473D01*
X160236Y335382D01*
X160250Y335368D01*
X160260Y335351D01*
X160339Y335284D01*
X160414Y335212D01*
X160432Y335204D01*
X160447Y335191D01*
X160543Y335152D01*
X160637Y335109D01*
X160657Y335107D01*
X160675Y335099D01*
X160842Y335081D01*
X212105Y335081D01*
X255081Y292105D01*
X255081Y292100D01*
X255084Y292080D01*
X255082Y292061D01*
X255104Y291959D01*
X255120Y291857D01*
X255130Y291840D01*
X255134Y291820D01*
X255187Y291731D01*
X255236Y291640D01*
X255250Y291626D01*
X255260Y291609D01*
X255339Y291542D01*
X255414Y291470D01*
X255432Y291462D01*
X255447Y291449D01*
X255543Y291410D01*
X255637Y291367D01*
X255657Y291365D01*
X255675Y291357D01*
X255842Y291339D01*
X256375Y291339D01*
X260763Y289521D01*
X264121Y286163D01*
X265939Y281775D01*
X265939Y277025D01*
X264121Y272637D01*
X260763Y269279D01*
X256375Y267461D01*
X251625Y267461D01*
X247237Y269279D01*
X243879Y272637D01*
X242061Y277025D01*
X242061Y281775D01*
X243879Y286163D01*
X244696Y286980D01*
X244749Y287054D01*
X244809Y287124D01*
X244821Y287154D01*
X244840Y287180D01*
X244867Y287267D01*
X244901Y287352D01*
X244905Y287393D01*
X244912Y287415D01*
X244911Y287447D01*
X244919Y287519D01*
X244919Y287580D01*
X244905Y287670D01*
X244897Y287761D01*
X244885Y287791D01*
X244880Y287823D01*
X244837Y287904D01*
X244801Y287987D01*
X244775Y288020D01*
X244764Y288040D01*
X244741Y288062D01*
X244696Y288118D01*
X208118Y324696D01*
X208045Y324749D01*
X207975Y324809D01*
X207945Y324821D01*
X207919Y324840D01*
X207832Y324867D01*
X207747Y324901D01*
X207706Y324905D01*
X207684Y324912D01*
X207651Y324911D01*
X207580Y324919D01*
X154104Y324919D01*
X154033Y324908D01*
X153961Y324906D01*
X153912Y324888D01*
X153861Y324880D01*
X153798Y324846D01*
X153730Y324821D01*
X153690Y324789D01*
X153644Y324764D01*
X153594Y324712D01*
X153538Y324668D01*
X153510Y324624D01*
X153474Y324586D01*
X153444Y324521D01*
X153405Y324461D01*
X153393Y324410D01*
X153371Y324363D01*
X153363Y324292D01*
X153345Y324222D01*
X153349Y324170D01*
X153344Y324119D01*
X153359Y324048D01*
X153364Y323977D01*
X153385Y323929D01*
X153396Y323878D01*
X153433Y323817D01*
X153461Y323751D01*
X153505Y323695D01*
X153522Y323667D01*
X153540Y323652D01*
X153565Y323620D01*
X155081Y322105D01*
X155081Y232420D01*
X155082Y232411D01*
X155082Y232406D01*
X155087Y232384D01*
X155095Y232330D01*
X155103Y232239D01*
X155115Y232209D01*
X155120Y232177D01*
X155163Y232096D01*
X155199Y232013D01*
X155225Y231980D01*
X155236Y231960D01*
X155259Y231938D01*
X155304Y231882D01*
X231882Y155304D01*
X231955Y155251D01*
X232025Y155191D01*
X232055Y155179D01*
X232081Y155160D01*
X232168Y155133D01*
X232253Y155099D01*
X232294Y155095D01*
X232316Y155088D01*
X232349Y155089D01*
X232420Y155081D01*
X240896Y155081D01*
X240967Y155092D01*
X241039Y155094D01*
X241088Y155112D01*
X241139Y155120D01*
X241202Y155154D01*
X241270Y155179D01*
X241310Y155211D01*
X241356Y155236D01*
X241406Y155287D01*
X241462Y155332D01*
X241490Y155376D01*
X241526Y155414D01*
X241556Y155479D01*
X241595Y155539D01*
X241607Y155590D01*
X241629Y155637D01*
X241637Y155708D01*
X241655Y155778D01*
X241651Y155830D01*
X241656Y155881D01*
X241641Y155952D01*
X241636Y156023D01*
X241615Y156071D01*
X241604Y156122D01*
X241567Y156183D01*
X241539Y156249D01*
X241495Y156305D01*
X241478Y156333D01*
X241460Y156348D01*
X241435Y156380D01*
X206627Y191188D01*
X206532Y191256D01*
X206438Y191326D01*
X206432Y191328D01*
X206427Y191332D01*
X206315Y191366D01*
X206204Y191402D01*
X206198Y191402D01*
X206192Y191404D01*
X206075Y191401D01*
X205958Y191400D01*
X205951Y191398D01*
X205946Y191398D01*
X205928Y191391D01*
X205797Y191353D01*
X205575Y191261D01*
X200825Y191261D01*
X196437Y193079D01*
X193079Y196437D01*
X191261Y200825D01*
X191261Y205575D01*
X193079Y209963D01*
X196437Y213321D01*
X200825Y215139D01*
X205575Y215139D01*
X209963Y213321D01*
X213321Y209963D01*
X215139Y205575D01*
X215139Y200825D01*
X214227Y198623D01*
X214200Y198510D01*
X214171Y198396D01*
X214172Y198390D01*
X214170Y198384D01*
X214181Y198267D01*
X214191Y198151D01*
X214193Y198145D01*
X214194Y198139D01*
X214241Y198031D01*
X214287Y197925D01*
X214291Y197919D01*
X214294Y197914D01*
X214306Y197900D01*
X214392Y197794D01*
X246882Y165304D01*
X246955Y165251D01*
X247025Y165191D01*
X247055Y165179D01*
X247081Y165160D01*
X247168Y165133D01*
X247253Y165099D01*
X247294Y165095D01*
X247316Y165088D01*
X247349Y165089D01*
X247420Y165081D01*
X253200Y165081D01*
X253245Y165088D01*
X253291Y165086D01*
X253366Y165108D01*
X253442Y165120D01*
X253483Y165142D01*
X253527Y165155D01*
X253591Y165199D01*
X253660Y165236D01*
X253691Y165269D01*
X253729Y165295D01*
X253776Y165358D01*
X253829Y165414D01*
X253848Y165456D01*
X253876Y165492D01*
X253900Y165566D01*
X253933Y165637D01*
X253938Y165683D01*
X253952Y165726D01*
X253951Y165804D01*
X253960Y165881D01*
X253950Y165926D01*
X253950Y165972D01*
X253912Y166104D01*
X253908Y166122D01*
X253905Y166126D01*
X253903Y166133D01*
X252887Y168585D01*
X252887Y169612D01*
X252873Y169702D01*
X252865Y169793D01*
X252853Y169823D01*
X252848Y169855D01*
X252805Y169936D01*
X252769Y170019D01*
X252743Y170052D01*
X252732Y170072D01*
X252709Y170094D01*
X252664Y170150D01*
X231744Y191071D01*
X231649Y191139D01*
X231555Y191209D01*
X231549Y191211D01*
X231544Y191215D01*
X231432Y191249D01*
X231321Y191285D01*
X231315Y191285D01*
X231309Y191287D01*
X231191Y191284D01*
X231075Y191283D01*
X231068Y191281D01*
X231063Y191281D01*
X231045Y191274D01*
X231001Y191261D01*
X226225Y191261D01*
X221837Y193079D01*
X218479Y196437D01*
X216661Y200825D01*
X216661Y205575D01*
X218479Y209963D01*
X221837Y213321D01*
X226225Y215139D01*
X230975Y215139D01*
X235363Y213321D01*
X238721Y209963D01*
X240539Y205575D01*
X240539Y200825D01*
X239509Y198340D01*
X239483Y198227D01*
X239454Y198113D01*
X239455Y198107D01*
X239453Y198101D01*
X239464Y197984D01*
X239473Y197868D01*
X239476Y197862D01*
X239476Y197856D01*
X239524Y197748D01*
X239570Y197642D01*
X239574Y197636D01*
X239576Y197631D01*
X239589Y197618D01*
X239674Y197511D01*
X259850Y177336D01*
X259923Y177283D01*
X259993Y177223D01*
X260023Y177211D01*
X260049Y177192D01*
X260136Y177165D01*
X260221Y177131D01*
X260262Y177127D01*
X260284Y177120D01*
X260317Y177121D01*
X260388Y177113D01*
X261415Y177113D01*
X264029Y176030D01*
X266030Y174029D01*
X267113Y171415D01*
X267113Y168585D01*
X266097Y166133D01*
X266087Y166089D01*
X266067Y166047D01*
X266059Y165970D01*
X266041Y165894D01*
X266045Y165848D01*
X266040Y165803D01*
X266057Y165726D01*
X266064Y165649D01*
X266083Y165607D01*
X266092Y165562D01*
X266132Y165495D01*
X266164Y165424D01*
X266195Y165390D01*
X266219Y165351D01*
X266278Y165300D01*
X266330Y165243D01*
X266371Y165221D01*
X266406Y165191D01*
X266478Y165162D01*
X266546Y165125D01*
X266591Y165116D01*
X266634Y165099D01*
X266770Y165084D01*
X266788Y165081D01*
X266793Y165082D01*
X266800Y165081D01*
X377580Y165081D01*
X377670Y165095D01*
X377761Y165103D01*
X377791Y165115D01*
X377823Y165120D01*
X377904Y165163D01*
X377987Y165199D01*
X378020Y165225D01*
X378040Y165236D01*
X378062Y165259D01*
X378118Y165304D01*
X391435Y178620D01*
X391476Y178678D01*
X391526Y178730D01*
X391548Y178777D01*
X391578Y178819D01*
X391599Y178888D01*
X391629Y178953D01*
X391635Y179005D01*
X391650Y179055D01*
X391649Y179126D01*
X391656Y179197D01*
X391645Y179248D01*
X391644Y179300D01*
X391619Y179368D01*
X391604Y179438D01*
X391577Y179483D01*
X391560Y179531D01*
X391515Y179587D01*
X391478Y179649D01*
X391438Y179683D01*
X391406Y179723D01*
X391346Y179762D01*
X391291Y179809D01*
X391243Y179828D01*
X391199Y179856D01*
X391130Y179874D01*
X391063Y179901D01*
X390992Y179909D01*
X390960Y179917D01*
X390937Y179915D01*
X390896Y179919D01*
X367895Y179919D01*
X356776Y191038D01*
X356703Y191091D01*
X356633Y191151D01*
X356603Y191163D01*
X356577Y191182D01*
X356490Y191209D01*
X356405Y191243D01*
X356364Y191247D01*
X356342Y191254D01*
X356309Y191253D01*
X356238Y191261D01*
X353225Y191261D01*
X348837Y193079D01*
X345479Y196437D01*
X343661Y200825D01*
X343661Y205575D01*
X345479Y209963D01*
X348837Y213321D01*
X353225Y215139D01*
X357975Y215139D01*
X362363Y213321D01*
X365721Y209963D01*
X367539Y205575D01*
X367539Y200825D01*
X365924Y196926D01*
X365915Y196889D01*
X365907Y196872D01*
X365904Y196841D01*
X365897Y196813D01*
X365868Y196699D01*
X365869Y196693D01*
X365867Y196687D01*
X365878Y196570D01*
X365888Y196454D01*
X365890Y196448D01*
X365891Y196442D01*
X365939Y196334D01*
X365984Y196228D01*
X365989Y196222D01*
X365991Y196217D01*
X366003Y196203D01*
X366089Y196097D01*
X371882Y190304D01*
X371955Y190251D01*
X372025Y190191D01*
X372055Y190179D01*
X372081Y190160D01*
X372168Y190133D01*
X372253Y190099D01*
X372294Y190095D01*
X372316Y190088D01*
X372349Y190089D01*
X372420Y190081D01*
X377648Y190081D01*
X377744Y190096D01*
X377841Y190106D01*
X377865Y190116D01*
X377891Y190120D01*
X377977Y190166D01*
X378066Y190206D01*
X378085Y190223D01*
X378108Y190236D01*
X378175Y190306D01*
X378247Y190372D01*
X378260Y190395D01*
X378278Y190414D01*
X378319Y190502D01*
X378366Y190588D01*
X378370Y190613D01*
X378381Y190637D01*
X378392Y190734D01*
X378409Y190830D01*
X378406Y190856D01*
X378408Y190881D01*
X378388Y190977D01*
X378374Y191073D01*
X378362Y191096D01*
X378356Y191122D01*
X378306Y191205D01*
X378262Y191292D01*
X378243Y191311D01*
X378230Y191333D01*
X378156Y191396D01*
X378087Y191464D01*
X378058Y191480D01*
X378043Y191493D01*
X378012Y191505D01*
X377940Y191545D01*
X374237Y193079D01*
X370879Y196437D01*
X369061Y200825D01*
X369061Y205575D01*
X370879Y209963D01*
X374237Y213321D01*
X378625Y215139D01*
X383375Y215139D01*
X387763Y213321D01*
X391121Y209963D01*
X392939Y205575D01*
X392939Y200825D01*
X391121Y196437D01*
X387763Y193079D01*
X384060Y191545D01*
X383978Y191494D01*
X383892Y191448D01*
X383874Y191429D01*
X383851Y191416D01*
X383789Y191341D01*
X383722Y191270D01*
X383711Y191246D01*
X383695Y191226D01*
X383660Y191135D01*
X383619Y191047D01*
X383616Y191021D01*
X383606Y190997D01*
X383602Y190899D01*
X383592Y190803D01*
X383597Y190777D01*
X383596Y190751D01*
X383623Y190657D01*
X383644Y190562D01*
X383657Y190540D01*
X383664Y190515D01*
X383720Y190435D01*
X383770Y190351D01*
X383790Y190334D01*
X383805Y190313D01*
X383883Y190254D01*
X383957Y190191D01*
X383981Y190181D01*
X384002Y190166D01*
X384095Y190136D01*
X384185Y190099D01*
X384217Y190096D01*
X384236Y190090D01*
X384269Y190090D01*
X384352Y190081D01*
X387580Y190081D01*
X387670Y190095D01*
X387761Y190103D01*
X387791Y190115D01*
X387823Y190120D01*
X387904Y190163D01*
X387987Y190199D01*
X388020Y190225D01*
X388040Y190236D01*
X388062Y190259D01*
X388118Y190304D01*
X582664Y384850D01*
X582717Y384923D01*
X582777Y384993D01*
X582789Y385023D01*
X582808Y385049D01*
X582835Y385136D01*
X582869Y385221D01*
X582873Y385262D01*
X582880Y385284D01*
X582879Y385317D01*
X582887Y385388D01*
X582887Y386415D01*
X583970Y389029D01*
X585971Y391030D01*
X588585Y392113D01*
X591415Y392113D01*
X594029Y391030D01*
X596030Y389029D01*
X597113Y386415D01*
X597113Y383585D01*
X596030Y380971D01*
X594029Y378970D01*
X591415Y377887D01*
X590388Y377887D01*
X590298Y377873D01*
X590207Y377865D01*
X590177Y377853D01*
X590145Y377848D01*
X590064Y377805D01*
X589981Y377769D01*
X589948Y377743D01*
X589928Y377732D01*
X589906Y377709D01*
X589850Y377664D01*
X500597Y288412D01*
X500556Y288354D01*
X500506Y288302D01*
X500484Y288255D01*
X500454Y288213D01*
X500433Y288144D01*
X500403Y288079D01*
X500397Y288027D01*
X500382Y287977D01*
X500383Y287906D01*
X500376Y287835D01*
X500387Y287784D01*
X500388Y287732D01*
X500413Y287664D01*
X500428Y287594D01*
X500454Y287550D01*
X500472Y287501D01*
X500517Y287445D01*
X500554Y287383D01*
X500594Y287349D01*
X500626Y287309D01*
X500686Y287270D01*
X500741Y287223D01*
X500789Y287204D01*
X500833Y287176D01*
X500902Y287158D01*
X500969Y287131D01*
X501040Y287123D01*
X501072Y287115D01*
X501095Y287117D01*
X501136Y287113D01*
X501415Y287113D01*
X504029Y286030D01*
X506030Y284029D01*
X507113Y281415D01*
X507113Y278585D01*
X506030Y275971D01*
X504029Y273970D01*
X501415Y272887D01*
X500388Y272887D01*
X500298Y272873D01*
X500207Y272865D01*
X500177Y272853D01*
X500145Y272848D01*
X500064Y272805D01*
X499981Y272769D01*
X499948Y272743D01*
X499928Y272732D01*
X499906Y272709D01*
X499850Y272664D01*
X382105Y154919D01*
X259104Y154919D01*
X259033Y154908D01*
X258961Y154906D01*
X258912Y154888D01*
X258861Y154880D01*
X258798Y154846D01*
X258730Y154821D01*
X258690Y154789D01*
X258644Y154764D01*
X258594Y154712D01*
X258538Y154668D01*
X258510Y154624D01*
X258474Y154586D01*
X258444Y154521D01*
X258405Y154461D01*
X258393Y154410D01*
X258371Y154363D01*
X258363Y154292D01*
X258345Y154222D01*
X258349Y154170D01*
X258344Y154119D01*
X258359Y154048D01*
X258364Y153977D01*
X258385Y153929D01*
X258396Y153878D01*
X258433Y153817D01*
X258461Y153751D01*
X258505Y153695D01*
X258522Y153667D01*
X258540Y153652D01*
X258565Y153620D01*
X260304Y151882D01*
X273994Y138192D01*
X274088Y138124D01*
X274182Y138054D01*
X274188Y138052D01*
X274193Y138048D01*
X274304Y138014D01*
X274416Y137978D01*
X274422Y137978D01*
X274428Y137976D01*
X274545Y137979D01*
X274662Y137980D01*
X274669Y137982D01*
X274674Y137982D01*
X274692Y137989D01*
X274823Y138027D01*
X277025Y138939D01*
X281775Y138939D01*
X286163Y137121D01*
X289521Y133763D01*
X291339Y129375D01*
X291339Y124625D01*
X289521Y120237D01*
X286163Y116879D01*
X281775Y115061D01*
X277025Y115061D01*
X272637Y116879D01*
X269279Y120237D01*
X267461Y124625D01*
X267461Y129375D01*
X267553Y129597D01*
X267580Y129710D01*
X267609Y129824D01*
X267608Y129830D01*
X267609Y129836D01*
X267598Y129953D01*
X267589Y130069D01*
X267587Y130075D01*
X267586Y130081D01*
X267538Y130189D01*
X267493Y130296D01*
X267488Y130301D01*
X267486Y130306D01*
X267474Y130320D01*
X267388Y130427D01*
X253118Y144696D01*
X253045Y144749D01*
X252975Y144809D01*
X252945Y144821D01*
X252919Y144840D01*
X252832Y144867D01*
X252747Y144901D01*
X252706Y144905D01*
X252684Y144912D01*
X252651Y144911D01*
X252580Y144919D01*
X227895Y144919D01*
X144919Y227895D01*
X144919Y314158D01*
X144916Y314178D01*
X144918Y314197D01*
X144896Y314299D01*
X144880Y314401D01*
X144870Y314418D01*
X144866Y314438D01*
X144813Y314527D01*
X144764Y314618D01*
X144750Y314632D01*
X144740Y314649D01*
X144661Y314716D01*
X144586Y314788D01*
X144568Y314796D01*
X144553Y314809D01*
X144457Y314848D01*
X144363Y314891D01*
X144343Y314893D01*
X144325Y314901D01*
X144158Y314919D01*
X142895Y314919D01*
X136288Y321527D01*
X136271Y321539D01*
X136259Y321554D01*
X136172Y321610D01*
X136088Y321671D01*
X136069Y321677D01*
X136052Y321687D01*
X135952Y321713D01*
X135853Y321743D01*
X135833Y321743D01*
X135814Y321747D01*
X135711Y321739D01*
X135607Y321737D01*
X135588Y321730D01*
X135568Y321728D01*
X135473Y321688D01*
X135376Y321652D01*
X135360Y321640D01*
X135342Y321632D01*
X135211Y321527D01*
X133763Y320079D01*
X129375Y318261D01*
X124625Y318261D01*
X120237Y320079D01*
X116879Y323437D01*
X116545Y324243D01*
X116494Y324325D01*
X116448Y324411D01*
X116429Y324429D01*
X116416Y324452D01*
X116341Y324514D01*
X116270Y324581D01*
X116246Y324592D01*
X116226Y324608D01*
X116135Y324643D01*
X116047Y324684D01*
X116021Y324687D01*
X115997Y324697D01*
X115899Y324701D01*
X115803Y324711D01*
X115777Y324706D01*
X115751Y324707D01*
X115657Y324680D01*
X115562Y324659D01*
X115540Y324646D01*
X115515Y324638D01*
X115435Y324583D01*
X115351Y324533D01*
X115334Y324513D01*
X115313Y324498D01*
X115254Y324420D01*
X115191Y324346D01*
X115181Y324322D01*
X115166Y324301D01*
X115136Y324208D01*
X115099Y324118D01*
X115096Y324085D01*
X115090Y324067D01*
X115090Y324034D01*
X115081Y323951D01*
X115081Y310875D01*
X115092Y310808D01*
X115093Y310741D01*
X115111Y310688D01*
X115120Y310633D01*
X115152Y310573D01*
X115175Y310509D01*
X115209Y310465D01*
X115236Y310415D01*
X115285Y310369D01*
X115327Y310315D01*
X115373Y310284D01*
X115414Y310246D01*
X115475Y310217D01*
X115532Y310180D01*
X115586Y310166D01*
X115637Y310142D01*
X115704Y310135D01*
X115770Y310117D01*
X115826Y310121D01*
X115881Y310115D01*
X115948Y310129D01*
X116015Y310134D01*
X116067Y310155D01*
X116122Y310167D01*
X116180Y310202D01*
X116243Y310228D01*
X116285Y310265D01*
X116333Y310293D01*
X116377Y310345D01*
X116428Y310390D01*
X116471Y310455D01*
X116493Y310480D01*
X116501Y310500D01*
X116520Y310530D01*
X116789Y311057D01*
X117894Y312578D01*
X119222Y313906D01*
X120743Y315011D01*
X122417Y315864D01*
X124204Y316445D01*
X125477Y316646D01*
X125477Y305562D01*
X125480Y305542D01*
X125478Y305523D01*
X125500Y305421D01*
X125517Y305319D01*
X125526Y305302D01*
X125530Y305282D01*
X125583Y305193D01*
X125632Y305102D01*
X125646Y305088D01*
X125656Y305071D01*
X125735Y305004D01*
X125810Y304933D01*
X125828Y304924D01*
X125843Y304911D01*
X125939Y304873D01*
X126033Y304829D01*
X126053Y304827D01*
X126071Y304819D01*
X126238Y304801D01*
X127001Y304801D01*
X127001Y304799D01*
X126238Y304799D01*
X126218Y304796D01*
X126199Y304798D01*
X126097Y304776D01*
X125995Y304759D01*
X125978Y304750D01*
X125958Y304746D01*
X125869Y304693D01*
X125778Y304644D01*
X125764Y304630D01*
X125747Y304620D01*
X125680Y304541D01*
X125609Y304466D01*
X125600Y304448D01*
X125587Y304433D01*
X125548Y304336D01*
X125505Y304243D01*
X125503Y304223D01*
X125495Y304205D01*
X125477Y304038D01*
X125477Y292954D01*
X124204Y293155D01*
X122417Y293736D01*
X120743Y294589D01*
X119222Y295694D01*
X117894Y297022D01*
X116789Y298543D01*
X116520Y299070D01*
X116480Y299125D01*
X116448Y299185D01*
X116408Y299223D01*
X116375Y299269D01*
X116319Y299308D01*
X116270Y299354D01*
X116219Y299378D01*
X116173Y299410D01*
X116108Y299429D01*
X116047Y299458D01*
X115991Y299464D01*
X115938Y299480D01*
X115870Y299477D01*
X115803Y299485D01*
X115748Y299473D01*
X115692Y299471D01*
X115628Y299447D01*
X115562Y299433D01*
X115514Y299404D01*
X115462Y299384D01*
X115409Y299341D01*
X115351Y299307D01*
X115315Y299264D01*
X115271Y299229D01*
X115235Y299171D01*
X115191Y299120D01*
X115170Y299068D01*
X115140Y299020D01*
X115125Y298954D01*
X115099Y298891D01*
X115091Y298813D01*
X115083Y298781D01*
X115085Y298760D01*
X115081Y298725D01*
X115081Y285842D01*
X115084Y285822D01*
X115082Y285803D01*
X115104Y285701D01*
X115120Y285599D01*
X115130Y285582D01*
X115134Y285562D01*
X115187Y285473D01*
X115236Y285382D01*
X115250Y285368D01*
X115260Y285351D01*
X115339Y285284D01*
X115414Y285212D01*
X115432Y285204D01*
X115447Y285191D01*
X115543Y285152D01*
X115637Y285109D01*
X115657Y285107D01*
X115675Y285099D01*
X115842Y285081D01*
X115922Y285081D01*
X116037Y285100D01*
X116153Y285117D01*
X116159Y285119D01*
X116165Y285120D01*
X116268Y285175D01*
X116372Y285228D01*
X116377Y285233D01*
X116382Y285236D01*
X116463Y285321D01*
X116544Y285404D01*
X116548Y285410D01*
X116552Y285414D01*
X116559Y285431D01*
X116625Y285551D01*
X116879Y286163D01*
X120237Y289521D01*
X124625Y291339D01*
X129375Y291339D01*
X133763Y289521D01*
X137121Y286163D01*
X138939Y281775D01*
X138939Y277025D01*
X137121Y272637D01*
X133763Y269279D01*
X129375Y267461D01*
X124625Y267461D01*
X120237Y269279D01*
X116879Y272637D01*
X116128Y274449D01*
X116067Y274549D01*
X116007Y274649D01*
X116002Y274653D01*
X115999Y274658D01*
X115909Y274733D01*
X115820Y274809D01*
X115814Y274811D01*
X115809Y274815D01*
X115701Y274857D01*
X115592Y274901D01*
X115584Y274902D01*
X115580Y274903D01*
X115561Y274904D01*
X115425Y274919D01*
X107895Y274919D01*
X106380Y276435D01*
X106322Y276476D01*
X106270Y276526D01*
X106223Y276548D01*
X106181Y276578D01*
X106112Y276599D01*
X106047Y276629D01*
X105995Y276635D01*
X105945Y276650D01*
X105874Y276649D01*
X105803Y276656D01*
X105752Y276645D01*
X105700Y276644D01*
X105632Y276619D01*
X105562Y276604D01*
X105517Y276577D01*
X105469Y276560D01*
X105413Y276515D01*
X105351Y276478D01*
X105317Y276438D01*
X105277Y276406D01*
X105238Y276346D01*
X105191Y276291D01*
X105172Y276243D01*
X105144Y276199D01*
X105126Y276130D01*
X105099Y276063D01*
X105091Y275992D01*
X105083Y275960D01*
X105085Y275937D01*
X105081Y275896D01*
X105081Y260842D01*
X105084Y260822D01*
X105082Y260803D01*
X105104Y260701D01*
X105120Y260599D01*
X105130Y260582D01*
X105134Y260562D01*
X105187Y260473D01*
X105236Y260382D01*
X105250Y260368D01*
X105260Y260351D01*
X105339Y260284D01*
X105414Y260212D01*
X105432Y260204D01*
X105447Y260191D01*
X105543Y260152D01*
X105637Y260109D01*
X105657Y260107D01*
X105675Y260099D01*
X105842Y260081D01*
X116088Y260081D01*
X116202Y260099D01*
X116319Y260117D01*
X116324Y260119D01*
X116330Y260120D01*
X116433Y260175D01*
X116538Y260228D01*
X116542Y260233D01*
X116548Y260236D01*
X116628Y260320D01*
X116710Y260404D01*
X116714Y260410D01*
X116717Y260414D01*
X116725Y260431D01*
X116791Y260551D01*
X116879Y260763D01*
X120237Y264121D01*
X124625Y265939D01*
X129375Y265939D01*
X133763Y264121D01*
X137121Y260763D01*
X138939Y256375D01*
X138939Y251625D01*
X137121Y247237D01*
X133763Y243879D01*
X129375Y242061D01*
X124625Y242061D01*
X120237Y243879D01*
X116879Y247237D01*
X115963Y249449D01*
X115901Y249549D01*
X115841Y249649D01*
X115836Y249653D01*
X115833Y249658D01*
X115743Y249733D01*
X115654Y249809D01*
X115648Y249811D01*
X115643Y249815D01*
X115535Y249857D01*
X115426Y249901D01*
X115418Y249902D01*
X115414Y249903D01*
X115396Y249904D01*
X115259Y249919D01*
X97896Y249919D01*
X97730Y250084D01*
X97672Y250126D01*
X97620Y250176D01*
X97573Y250198D01*
X97531Y250228D01*
X97462Y250249D01*
X97397Y250279D01*
X97345Y250285D01*
X97295Y250300D01*
X97224Y250299D01*
X97153Y250306D01*
X97102Y250295D01*
X97050Y250294D01*
X96982Y250269D01*
X96912Y250254D01*
X96867Y250227D01*
X96819Y250210D01*
X96763Y250165D01*
X96701Y250128D01*
X96667Y250088D01*
X96627Y250056D01*
X96588Y249996D01*
X96541Y249941D01*
X96522Y249893D01*
X96494Y249849D01*
X96476Y249780D01*
X96449Y249713D01*
X96441Y249642D01*
X96433Y249610D01*
X96435Y249587D01*
X96431Y249546D01*
X96431Y175050D01*
X96445Y174960D01*
X96453Y174869D01*
X96465Y174839D01*
X96470Y174807D01*
X96513Y174727D01*
X96549Y174643D01*
X96575Y174611D01*
X96586Y174590D01*
X96609Y174568D01*
X96654Y174512D01*
X132238Y138927D01*
X132258Y138913D01*
X132353Y138833D01*
X133250Y138232D01*
X133841Y137345D01*
X133857Y137328D01*
X133936Y137229D01*
X134690Y136475D01*
X134832Y136134D01*
X134866Y136078D01*
X134892Y136018D01*
X134944Y135953D01*
X134961Y135925D01*
X134976Y135913D01*
X134997Y135887D01*
X137121Y133763D01*
X138939Y129375D01*
X138939Y124625D01*
X137121Y120237D01*
X133763Y116879D01*
X129375Y115061D01*
X124625Y115061D01*
G37*
%LPD*%
%LPC*%
G36*
X703585Y87887D02*
X703585Y87887D01*
X700971Y88970D01*
X700245Y89696D01*
X700171Y89749D01*
X700101Y89809D01*
X700071Y89821D01*
X700045Y89840D01*
X699958Y89867D01*
X699873Y89901D01*
X699832Y89905D01*
X699810Y89912D01*
X699778Y89911D01*
X699706Y89919D01*
X262895Y89919D01*
X183118Y169696D01*
X183045Y169749D01*
X182975Y169809D01*
X182945Y169821D01*
X182919Y169840D01*
X182832Y169867D01*
X182747Y169901D01*
X182706Y169905D01*
X182684Y169912D01*
X182651Y169911D01*
X182580Y169919D01*
X136319Y169919D01*
X136228Y169905D01*
X136138Y169897D01*
X136108Y169885D01*
X136076Y169880D01*
X135995Y169837D01*
X135911Y169801D01*
X135879Y169775D01*
X135858Y169764D01*
X135836Y169741D01*
X135780Y169696D01*
X133763Y167679D01*
X129375Y165861D01*
X124625Y165861D01*
X120237Y167679D01*
X116879Y171037D01*
X115061Y175425D01*
X115061Y180175D01*
X116879Y184563D01*
X120237Y187921D01*
X124625Y189739D01*
X129375Y189739D01*
X133763Y187921D01*
X137121Y184563D01*
X138783Y180551D01*
X138845Y180451D01*
X138905Y180351D01*
X138909Y180347D01*
X138913Y180342D01*
X139002Y180267D01*
X139091Y180191D01*
X139097Y180189D01*
X139102Y180185D01*
X139210Y180143D01*
X139320Y180099D01*
X139327Y180098D01*
X139332Y180097D01*
X139350Y180096D01*
X139486Y180081D01*
X187105Y180081D01*
X266882Y100304D01*
X266955Y100251D01*
X267025Y100191D01*
X267055Y100179D01*
X267081Y100160D01*
X267168Y100133D01*
X267253Y100099D01*
X267294Y100095D01*
X267316Y100088D01*
X267349Y100089D01*
X267420Y100081D01*
X320896Y100081D01*
X320967Y100092D01*
X321039Y100094D01*
X321088Y100112D01*
X321139Y100120D01*
X321202Y100154D01*
X321270Y100179D01*
X321310Y100211D01*
X321356Y100236D01*
X321406Y100288D01*
X321462Y100332D01*
X321490Y100376D01*
X321526Y100414D01*
X321556Y100479D01*
X321595Y100539D01*
X321607Y100590D01*
X321629Y100637D01*
X321637Y100708D01*
X321655Y100778D01*
X321651Y100830D01*
X321656Y100881D01*
X321641Y100952D01*
X321636Y101023D01*
X321615Y101071D01*
X321604Y101122D01*
X321567Y101183D01*
X321539Y101249D01*
X321495Y101305D01*
X321478Y101333D01*
X321460Y101348D01*
X321435Y101380D01*
X308119Y114696D01*
X307944Y114871D01*
X307848Y114940D01*
X307755Y115009D01*
X307749Y115011D01*
X307744Y115015D01*
X307632Y115049D01*
X307521Y115085D01*
X307515Y115085D01*
X307509Y115087D01*
X307391Y115084D01*
X307275Y115083D01*
X307268Y115081D01*
X307263Y115081D01*
X307246Y115074D01*
X307201Y115061D01*
X302425Y115061D01*
X298037Y116879D01*
X294679Y120237D01*
X292861Y124625D01*
X292861Y129375D01*
X294679Y133763D01*
X298037Y137121D01*
X302425Y138939D01*
X307175Y138939D01*
X311563Y137121D01*
X314921Y133763D01*
X316739Y129375D01*
X316739Y124625D01*
X315709Y122140D01*
X315683Y122027D01*
X315654Y121913D01*
X315655Y121907D01*
X315653Y121901D01*
X315664Y121784D01*
X315673Y121668D01*
X315676Y121662D01*
X315676Y121656D01*
X315724Y121548D01*
X315770Y121442D01*
X315774Y121436D01*
X315776Y121431D01*
X315789Y121418D01*
X315874Y121311D01*
X326882Y110304D01*
X326955Y110251D01*
X327025Y110191D01*
X327055Y110179D01*
X327081Y110160D01*
X327168Y110133D01*
X327253Y110099D01*
X327294Y110095D01*
X327316Y110088D01*
X327349Y110089D01*
X327420Y110081D01*
X819707Y110081D01*
X819797Y110095D01*
X819888Y110103D01*
X819917Y110115D01*
X819949Y110120D01*
X820030Y110163D01*
X820114Y110199D01*
X820146Y110225D01*
X820167Y110236D01*
X820189Y110259D01*
X820245Y110304D01*
X820971Y111030D01*
X823585Y112113D01*
X826415Y112113D01*
X829029Y111030D01*
X831030Y109029D01*
X832113Y106415D01*
X832113Y103585D01*
X831030Y100971D01*
X829029Y98970D01*
X826415Y97887D01*
X823585Y97887D01*
X820971Y98970D01*
X820245Y99696D01*
X820171Y99749D01*
X820101Y99809D01*
X820071Y99821D01*
X820045Y99840D01*
X819958Y99867D01*
X819873Y99901D01*
X819832Y99905D01*
X819810Y99912D01*
X819778Y99911D01*
X819707Y99919D01*
X711800Y99919D01*
X711755Y99912D01*
X711709Y99914D01*
X711634Y99892D01*
X711558Y99880D01*
X711517Y99858D01*
X711473Y99845D01*
X711409Y99801D01*
X711340Y99764D01*
X711309Y99731D01*
X711271Y99705D01*
X711224Y99642D01*
X711171Y99586D01*
X711152Y99544D01*
X711124Y99508D01*
X711100Y99434D01*
X711067Y99363D01*
X711062Y99317D01*
X711048Y99274D01*
X711049Y99196D01*
X711040Y99119D01*
X711050Y99074D01*
X711050Y99028D01*
X711088Y98896D01*
X711092Y98878D01*
X711095Y98874D01*
X711097Y98867D01*
X712113Y96415D01*
X712113Y93585D01*
X711030Y90971D01*
X709029Y88970D01*
X706415Y87887D01*
X703585Y87887D01*
G37*
%LPD*%
%LPC*%
G36*
X1293025Y292861D02*
X1293025Y292861D01*
X1288637Y294679D01*
X1285279Y298037D01*
X1283461Y302425D01*
X1283461Y307175D01*
X1283905Y308245D01*
X1283931Y308359D01*
X1283960Y308473D01*
X1283959Y308479D01*
X1283961Y308485D01*
X1283950Y308602D01*
X1283941Y308718D01*
X1283938Y308723D01*
X1283938Y308730D01*
X1283890Y308837D01*
X1283845Y308944D01*
X1283840Y308950D01*
X1283838Y308955D01*
X1283825Y308968D01*
X1283740Y309075D01*
X1213118Y379696D01*
X1209919Y382895D01*
X1209919Y444158D01*
X1209916Y444178D01*
X1209918Y444197D01*
X1209896Y444299D01*
X1209880Y444401D01*
X1209870Y444418D01*
X1209866Y444438D01*
X1209813Y444527D01*
X1209764Y444618D01*
X1209750Y444632D01*
X1209740Y444649D01*
X1209661Y444716D01*
X1209586Y444788D01*
X1209568Y444796D01*
X1209553Y444809D01*
X1209457Y444848D01*
X1209363Y444891D01*
X1209343Y444893D01*
X1209325Y444901D01*
X1209158Y444919D01*
X772895Y444919D01*
X718769Y499046D01*
X718753Y499057D01*
X718741Y499073D01*
X718653Y499129D01*
X718569Y499189D01*
X718551Y499195D01*
X718534Y499206D01*
X718433Y499231D01*
X718334Y499261D01*
X718314Y499261D01*
X718295Y499266D01*
X718192Y499258D01*
X718089Y499255D01*
X718070Y499248D01*
X718050Y499247D01*
X717955Y499206D01*
X717857Y499171D01*
X717842Y499158D01*
X717824Y499150D01*
X717693Y499046D01*
X715724Y497077D01*
X706676Y497077D01*
X700277Y503476D01*
X700277Y512524D01*
X706676Y518923D01*
X715724Y518923D01*
X722123Y512524D01*
X722123Y510378D01*
X722137Y510288D01*
X722145Y510197D01*
X722157Y510167D01*
X722162Y510135D01*
X722205Y510054D01*
X722241Y509971D01*
X722267Y509938D01*
X722278Y509918D01*
X722301Y509896D01*
X722346Y509840D01*
X776882Y455304D01*
X776955Y455251D01*
X777025Y455191D01*
X777055Y455179D01*
X777081Y455160D01*
X777168Y455133D01*
X777253Y455099D01*
X777294Y455095D01*
X777316Y455088D01*
X777349Y455089D01*
X777420Y455081D01*
X1217105Y455081D01*
X1220081Y452105D01*
X1220081Y387420D01*
X1220095Y387330D01*
X1220103Y387239D01*
X1220115Y387209D01*
X1220120Y387177D01*
X1220163Y387096D01*
X1220199Y387013D01*
X1220225Y386980D01*
X1220236Y386960D01*
X1220259Y386938D01*
X1220304Y386882D01*
X1290842Y316343D01*
X1290936Y316276D01*
X1291031Y316205D01*
X1291037Y316203D01*
X1291042Y316200D01*
X1291153Y316165D01*
X1291265Y316129D01*
X1291271Y316129D01*
X1291277Y316127D01*
X1291394Y316130D01*
X1291511Y316131D01*
X1291518Y316133D01*
X1291523Y316134D01*
X1291540Y316140D01*
X1291672Y316178D01*
X1293025Y316739D01*
X1297775Y316739D01*
X1302163Y314921D01*
X1305521Y311563D01*
X1307339Y307175D01*
X1307339Y302425D01*
X1305521Y298037D01*
X1302163Y294679D01*
X1297775Y292861D01*
X1293025Y292861D01*
G37*
%LPD*%
%LPC*%
G36*
X251625Y953261D02*
X251625Y953261D01*
X247237Y955079D01*
X243879Y958437D01*
X242061Y962825D01*
X242061Y967575D01*
X243879Y971963D01*
X247237Y975321D01*
X251625Y977139D01*
X254638Y977139D01*
X254728Y977153D01*
X254819Y977161D01*
X254849Y977173D01*
X254881Y977178D01*
X254962Y977221D01*
X255045Y977257D01*
X255078Y977283D01*
X255098Y977294D01*
X255120Y977317D01*
X255176Y977362D01*
X267895Y990081D01*
X672105Y990081D01*
X675304Y986882D01*
X684824Y977362D01*
X684898Y977309D01*
X684967Y977249D01*
X684997Y977237D01*
X685023Y977218D01*
X685110Y977191D01*
X685195Y977157D01*
X685236Y977153D01*
X685258Y977146D01*
X685291Y977147D01*
X685362Y977139D01*
X688175Y977139D01*
X692563Y975321D01*
X695921Y971963D01*
X697739Y967575D01*
X697739Y962825D01*
X695921Y958437D01*
X692563Y955079D01*
X688175Y953261D01*
X683425Y953261D01*
X679037Y955079D01*
X675679Y958437D01*
X673861Y962825D01*
X673861Y967575D01*
X675535Y971615D01*
X675562Y971729D01*
X675590Y971842D01*
X675590Y971849D01*
X675591Y971855D01*
X675580Y971971D01*
X675571Y972088D01*
X675569Y972093D01*
X675568Y972100D01*
X675520Y972207D01*
X675475Y972314D01*
X675470Y972320D01*
X675468Y972324D01*
X675455Y972338D01*
X675370Y972445D01*
X668118Y979696D01*
X668045Y979749D01*
X667975Y979809D01*
X667945Y979821D01*
X667919Y979840D01*
X667832Y979867D01*
X667747Y979901D01*
X667706Y979905D01*
X667684Y979912D01*
X667651Y979911D01*
X667580Y979919D01*
X554104Y979919D01*
X554033Y979908D01*
X553961Y979906D01*
X553912Y979888D01*
X553861Y979880D01*
X553798Y979846D01*
X553730Y979821D01*
X553690Y979789D01*
X553644Y979764D01*
X553594Y979713D01*
X553538Y979668D01*
X553510Y979624D01*
X553474Y979586D01*
X553444Y979521D01*
X553405Y979461D01*
X553393Y979410D01*
X553371Y979363D01*
X553363Y979292D01*
X553345Y979222D01*
X553349Y979170D01*
X553344Y979119D01*
X553359Y979048D01*
X553364Y978977D01*
X553385Y978929D01*
X553396Y978878D01*
X553433Y978817D01*
X553461Y978751D01*
X553505Y978695D01*
X553522Y978667D01*
X553540Y978652D01*
X553565Y978620D01*
X555091Y977095D01*
X555186Y977026D01*
X555279Y976957D01*
X555285Y976955D01*
X555290Y976951D01*
X555402Y976917D01*
X555513Y976880D01*
X555519Y976881D01*
X555525Y976879D01*
X555642Y976882D01*
X555759Y976883D01*
X555766Y976885D01*
X555771Y976885D01*
X555789Y976891D01*
X555920Y976930D01*
X556425Y977139D01*
X561175Y977139D01*
X565563Y975321D01*
X568921Y971963D01*
X570739Y967575D01*
X570739Y962825D01*
X568921Y958437D01*
X565563Y955079D01*
X561175Y953261D01*
X556425Y953261D01*
X552037Y955079D01*
X548679Y958437D01*
X546861Y962825D01*
X546861Y967575D01*
X547656Y969494D01*
X547683Y969608D01*
X547711Y969721D01*
X547711Y969727D01*
X547712Y969733D01*
X547701Y969850D01*
X547692Y969966D01*
X547690Y969972D01*
X547689Y969978D01*
X547641Y970086D01*
X547596Y970193D01*
X547591Y970198D01*
X547589Y970203D01*
X547577Y970217D01*
X547491Y970324D01*
X538118Y979696D01*
X538045Y979749D01*
X537975Y979809D01*
X537945Y979821D01*
X537919Y979840D01*
X537832Y979867D01*
X537747Y979901D01*
X537706Y979905D01*
X537684Y979912D01*
X537651Y979911D01*
X537580Y979919D01*
X404104Y979919D01*
X404033Y979908D01*
X403961Y979906D01*
X403912Y979888D01*
X403861Y979880D01*
X403798Y979846D01*
X403730Y979821D01*
X403690Y979789D01*
X403644Y979764D01*
X403594Y979713D01*
X403538Y979668D01*
X403510Y979624D01*
X403474Y979586D01*
X403444Y979521D01*
X403405Y979461D01*
X403393Y979410D01*
X403371Y979363D01*
X403363Y979292D01*
X403345Y979222D01*
X403349Y979170D01*
X403344Y979119D01*
X403359Y979048D01*
X403364Y978977D01*
X403385Y978929D01*
X403396Y978878D01*
X403433Y978817D01*
X403461Y978751D01*
X403505Y978695D01*
X403522Y978667D01*
X403540Y978652D01*
X403565Y978620D01*
X404824Y977362D01*
X404897Y977309D01*
X404967Y977249D01*
X404997Y977237D01*
X405023Y977218D01*
X405110Y977191D01*
X405195Y977157D01*
X405236Y977153D01*
X405258Y977146D01*
X405291Y977147D01*
X405362Y977139D01*
X408775Y977139D01*
X413163Y975321D01*
X416521Y971963D01*
X418339Y967575D01*
X418339Y962825D01*
X416521Y958437D01*
X413163Y955079D01*
X408775Y953261D01*
X404025Y953261D01*
X399637Y955079D01*
X396279Y958437D01*
X394461Y962825D01*
X394461Y967575D01*
X395959Y971191D01*
X395986Y971305D01*
X396014Y971418D01*
X396014Y971424D01*
X396015Y971430D01*
X396004Y971547D01*
X395995Y971663D01*
X395993Y971669D01*
X395992Y971675D01*
X395944Y971783D01*
X395899Y971890D01*
X395894Y971895D01*
X395892Y971900D01*
X395880Y971914D01*
X395794Y972021D01*
X388118Y979696D01*
X388045Y979749D01*
X387975Y979809D01*
X387945Y979821D01*
X387919Y979840D01*
X387832Y979867D01*
X387747Y979901D01*
X387706Y979905D01*
X387684Y979912D01*
X387651Y979911D01*
X387580Y979919D01*
X272420Y979919D01*
X272330Y979905D01*
X272239Y979897D01*
X272209Y979885D01*
X272177Y979880D01*
X272096Y979837D01*
X272013Y979801D01*
X271980Y979775D01*
X271960Y979764D01*
X271938Y979741D01*
X271882Y979696D01*
X264489Y972303D01*
X264421Y972209D01*
X264351Y972115D01*
X264349Y972109D01*
X264345Y972104D01*
X264311Y971993D01*
X264275Y971881D01*
X264275Y971875D01*
X264273Y971869D01*
X264276Y971752D01*
X264277Y971635D01*
X264279Y971628D01*
X264279Y971623D01*
X264286Y971605D01*
X264324Y971474D01*
X265939Y967575D01*
X265939Y962825D01*
X264121Y958437D01*
X260763Y955079D01*
X256375Y953261D01*
X251625Y953261D01*
G37*
%LPD*%
%LPC*%
G36*
X378625Y115061D02*
X378625Y115061D01*
X374237Y116879D01*
X370879Y120237D01*
X369061Y124625D01*
X369061Y129375D01*
X370879Y133763D01*
X374237Y137121D01*
X378625Y138939D01*
X381438Y138939D01*
X381528Y138953D01*
X381619Y138961D01*
X381649Y138973D01*
X381681Y138978D01*
X381762Y139021D01*
X381846Y139057D01*
X381878Y139083D01*
X381898Y139094D01*
X381921Y139117D01*
X381976Y139162D01*
X397895Y155081D01*
X527580Y155081D01*
X527670Y155095D01*
X527761Y155103D01*
X527791Y155115D01*
X527823Y155120D01*
X527904Y155163D01*
X527987Y155199D01*
X528020Y155225D01*
X528040Y155236D01*
X528062Y155259D01*
X528118Y155304D01*
X700054Y327240D01*
X700107Y327313D01*
X700167Y327383D01*
X700179Y327413D01*
X700198Y327439D01*
X700225Y327526D01*
X700259Y327611D01*
X700263Y327652D01*
X700270Y327674D01*
X700269Y327707D01*
X700277Y327778D01*
X700277Y334724D01*
X706676Y341123D01*
X715724Y341123D01*
X722123Y334724D01*
X722123Y325676D01*
X715724Y319277D01*
X706778Y319277D01*
X706688Y319263D01*
X706597Y319255D01*
X706567Y319243D01*
X706535Y319238D01*
X706454Y319195D01*
X706371Y319159D01*
X706338Y319133D01*
X706318Y319122D01*
X706296Y319099D01*
X706240Y319054D01*
X532105Y144919D01*
X402420Y144919D01*
X402330Y144905D01*
X402239Y144897D01*
X402209Y144885D01*
X402177Y144880D01*
X402096Y144837D01*
X402013Y144801D01*
X401980Y144775D01*
X401960Y144764D01*
X401944Y144748D01*
X401942Y144747D01*
X401934Y144738D01*
X401882Y144696D01*
X391430Y134245D01*
X391362Y134150D01*
X391292Y134056D01*
X391290Y134050D01*
X391287Y134045D01*
X391252Y133934D01*
X391216Y133822D01*
X391216Y133816D01*
X391214Y133810D01*
X391217Y133693D01*
X391218Y133576D01*
X391220Y133569D01*
X391221Y133564D01*
X391227Y133547D01*
X391265Y133415D01*
X392939Y129375D01*
X392939Y124625D01*
X391121Y120237D01*
X387763Y116879D01*
X383375Y115061D01*
X378625Y115061D01*
G37*
%LPD*%
%LPC*%
G36*
X1043585Y937887D02*
X1043585Y937887D01*
X1040971Y938970D01*
X1040245Y939696D01*
X1040171Y939749D01*
X1040101Y939809D01*
X1040071Y939821D01*
X1040045Y939840D01*
X1039958Y939867D01*
X1039873Y939901D01*
X1039832Y939905D01*
X1039810Y939912D01*
X1039778Y939911D01*
X1039706Y939919D01*
X722895Y939919D01*
X713118Y949696D01*
X709776Y953038D01*
X709702Y953091D01*
X709633Y953151D01*
X709603Y953163D01*
X709577Y953182D01*
X709490Y953209D01*
X709405Y953243D01*
X709364Y953247D01*
X709342Y953254D01*
X709309Y953253D01*
X709238Y953261D01*
X708825Y953261D01*
X704437Y955079D01*
X701079Y958437D01*
X699261Y962825D01*
X699261Y967575D01*
X701079Y971963D01*
X704437Y975321D01*
X708825Y977139D01*
X713575Y977139D01*
X717963Y975321D01*
X721321Y971963D01*
X723139Y967575D01*
X723139Y962825D01*
X721321Y958437D01*
X720573Y957689D01*
X720561Y957673D01*
X720546Y957660D01*
X720517Y957616D01*
X720487Y957584D01*
X720467Y957542D01*
X720429Y957489D01*
X720423Y957470D01*
X720413Y957453D01*
X720397Y957390D01*
X720383Y957361D01*
X720379Y957327D01*
X720357Y957254D01*
X720357Y957234D01*
X720353Y957215D01*
X720359Y957139D01*
X720356Y957116D01*
X720361Y957093D01*
X720363Y957008D01*
X720370Y956989D01*
X720372Y956970D01*
X720405Y956892D01*
X720408Y956876D01*
X720417Y956861D01*
X720448Y956777D01*
X720460Y956762D01*
X720468Y956743D01*
X720573Y956612D01*
X726882Y950304D01*
X726955Y950251D01*
X727025Y950191D01*
X727055Y950179D01*
X727081Y950160D01*
X727168Y950133D01*
X727253Y950099D01*
X727294Y950095D01*
X727316Y950088D01*
X727349Y950089D01*
X727420Y950081D01*
X1039706Y950081D01*
X1039797Y950095D01*
X1039887Y950103D01*
X1039917Y950115D01*
X1039949Y950120D01*
X1040030Y950163D01*
X1040114Y950199D01*
X1040146Y950225D01*
X1040167Y950236D01*
X1040189Y950259D01*
X1040245Y950304D01*
X1040971Y951030D01*
X1043585Y952113D01*
X1046415Y952113D01*
X1049029Y951030D01*
X1051030Y949029D01*
X1052113Y946415D01*
X1052113Y943585D01*
X1051030Y940971D01*
X1049029Y938970D01*
X1046415Y937887D01*
X1043585Y937887D01*
G37*
%LPD*%
%LPC*%
G36*
X47158Y23139D02*
X47158Y23139D01*
X40123Y25024D01*
X33816Y28666D01*
X28666Y33816D01*
X25024Y40123D01*
X23139Y47158D01*
X23139Y54442D01*
X25024Y61477D01*
X28666Y67784D01*
X33816Y72934D01*
X40123Y76576D01*
X47158Y78461D01*
X54442Y78461D01*
X61477Y76576D01*
X67784Y72934D01*
X72934Y67784D01*
X76576Y61477D01*
X78461Y54442D01*
X78461Y47158D01*
X76576Y40123D01*
X72934Y33816D01*
X67784Y28666D01*
X61477Y25024D01*
X54442Y23139D01*
X47158Y23139D01*
G37*
%LPD*%
%LPC*%
G36*
X1545758Y23139D02*
X1545758Y23139D01*
X1538723Y25024D01*
X1532416Y28666D01*
X1527266Y33816D01*
X1523624Y40123D01*
X1521739Y47158D01*
X1521739Y54442D01*
X1523624Y61477D01*
X1527266Y67784D01*
X1532416Y72934D01*
X1538723Y76576D01*
X1545758Y78461D01*
X1553042Y78461D01*
X1560077Y76576D01*
X1566384Y72934D01*
X1571534Y67784D01*
X1575176Y61477D01*
X1577061Y54442D01*
X1577061Y47158D01*
X1575176Y40123D01*
X1571534Y33816D01*
X1566384Y28666D01*
X1560077Y25024D01*
X1553042Y23139D01*
X1545758Y23139D01*
G37*
%LPD*%
%LPC*%
G36*
X1545758Y988339D02*
X1545758Y988339D01*
X1538723Y990224D01*
X1532416Y993866D01*
X1527266Y999016D01*
X1523624Y1005323D01*
X1521739Y1012358D01*
X1521739Y1019642D01*
X1523624Y1026677D01*
X1527266Y1032984D01*
X1532416Y1038134D01*
X1538723Y1041776D01*
X1545758Y1043661D01*
X1553042Y1043661D01*
X1560077Y1041776D01*
X1566384Y1038134D01*
X1571534Y1032984D01*
X1575176Y1026677D01*
X1577061Y1019642D01*
X1577061Y1012358D01*
X1575176Y1005323D01*
X1571534Y999016D01*
X1566384Y993866D01*
X1560077Y990224D01*
X1553042Y988339D01*
X1545758Y988339D01*
G37*
%LPD*%
%LPC*%
G36*
X47158Y988339D02*
X47158Y988339D01*
X40123Y990224D01*
X33816Y993866D01*
X28666Y999016D01*
X25024Y1005323D01*
X23139Y1012358D01*
X23139Y1019642D01*
X25024Y1026677D01*
X28666Y1032984D01*
X33816Y1038134D01*
X40123Y1041776D01*
X47158Y1043661D01*
X54442Y1043661D01*
X61477Y1041776D01*
X67784Y1038134D01*
X72934Y1032984D01*
X76576Y1026677D01*
X78461Y1019642D01*
X78461Y1012358D01*
X76576Y1005323D01*
X72934Y999016D01*
X67784Y993866D01*
X61477Y990224D01*
X54442Y988339D01*
X47158Y988339D01*
G37*
%LPD*%
%LPC*%
G36*
X835825Y953261D02*
X835825Y953261D01*
X831437Y955079D01*
X828079Y958437D01*
X826261Y962825D01*
X826261Y967575D01*
X828079Y971963D01*
X831437Y975321D01*
X835825Y977139D01*
X839638Y977139D01*
X839728Y977153D01*
X839819Y977161D01*
X839849Y977173D01*
X839881Y977178D01*
X839962Y977221D01*
X840046Y977257D01*
X840078Y977283D01*
X840098Y977294D01*
X840121Y977317D01*
X840176Y977362D01*
X852895Y990081D01*
X984706Y990081D01*
X984797Y990095D01*
X984887Y990103D01*
X984917Y990115D01*
X984949Y990120D01*
X985030Y990163D01*
X985114Y990199D01*
X985146Y990225D01*
X985167Y990236D01*
X985189Y990259D01*
X985245Y990304D01*
X985971Y991030D01*
X988585Y992113D01*
X991415Y992113D01*
X994029Y991030D01*
X996030Y989029D01*
X997113Y986415D01*
X997113Y983585D01*
X996030Y980971D01*
X994029Y978970D01*
X991415Y977887D01*
X988585Y977887D01*
X985971Y978970D01*
X985245Y979696D01*
X985171Y979749D01*
X985101Y979809D01*
X985071Y979821D01*
X985045Y979840D01*
X984958Y979867D01*
X984873Y979901D01*
X984832Y979905D01*
X984810Y979912D01*
X984778Y979911D01*
X984706Y979919D01*
X857420Y979919D01*
X857330Y979905D01*
X857239Y979897D01*
X857209Y979885D01*
X857177Y979880D01*
X857096Y979837D01*
X857013Y979801D01*
X856980Y979775D01*
X856960Y979764D01*
X856938Y979741D01*
X856882Y979696D01*
X848923Y971738D01*
X848855Y971644D01*
X848785Y971549D01*
X848783Y971543D01*
X848779Y971538D01*
X848745Y971427D01*
X848709Y971315D01*
X848709Y971309D01*
X848707Y971303D01*
X848710Y971186D01*
X848711Y971069D01*
X848713Y971062D01*
X848713Y971057D01*
X848720Y971040D01*
X848758Y970908D01*
X850139Y967575D01*
X850139Y962825D01*
X848321Y958437D01*
X844963Y955079D01*
X840575Y953261D01*
X835825Y953261D01*
G37*
%LPD*%
%LPC*%
G36*
X706676Y420877D02*
X706676Y420877D01*
X700277Y427276D01*
X700277Y436324D01*
X700346Y436393D01*
X700357Y436409D01*
X700373Y436421D01*
X700429Y436508D01*
X700489Y436592D01*
X700495Y436611D01*
X700506Y436628D01*
X700531Y436728D01*
X700561Y436827D01*
X700561Y436847D01*
X700566Y436867D01*
X700558Y436970D01*
X700555Y437073D01*
X700548Y437092D01*
X700547Y437112D01*
X700506Y437207D01*
X700471Y437304D01*
X700458Y437320D01*
X700450Y437338D01*
X700346Y437469D01*
X655150Y482664D01*
X655077Y482717D01*
X655007Y482777D01*
X654977Y482789D01*
X654951Y482808D01*
X654864Y482835D01*
X654779Y482869D01*
X654738Y482873D01*
X654716Y482880D01*
X654683Y482879D01*
X654612Y482887D01*
X653585Y482887D01*
X650971Y483970D01*
X648970Y485971D01*
X647887Y488585D01*
X647887Y491415D01*
X648970Y494029D01*
X650971Y496030D01*
X653585Y497113D01*
X656415Y497113D01*
X659029Y496030D01*
X661030Y494029D01*
X662113Y491415D01*
X662113Y490388D01*
X662127Y490298D01*
X662135Y490207D01*
X662147Y490177D01*
X662152Y490145D01*
X662195Y490064D01*
X662231Y489981D01*
X662257Y489948D01*
X662268Y489928D01*
X662291Y489906D01*
X662336Y489850D01*
X698978Y453207D01*
X699036Y453166D01*
X699088Y453116D01*
X699135Y453094D01*
X699177Y453064D01*
X699246Y453043D01*
X699311Y453013D01*
X699363Y453007D01*
X699413Y452992D01*
X699484Y452993D01*
X699555Y452986D01*
X699606Y452997D01*
X699658Y452998D01*
X699726Y453023D01*
X699796Y453038D01*
X699841Y453065D01*
X699889Y453082D01*
X699945Y453127D01*
X700007Y453164D01*
X700041Y453204D01*
X700081Y453236D01*
X700120Y453296D01*
X700167Y453351D01*
X700186Y453399D01*
X700214Y453443D01*
X700232Y453512D01*
X700259Y453579D01*
X700267Y453650D01*
X700275Y453682D01*
X700273Y453705D01*
X700277Y453746D01*
X700277Y455677D01*
X709677Y455677D01*
X709677Y446277D01*
X707746Y446277D01*
X707675Y446266D01*
X707603Y446264D01*
X707554Y446246D01*
X707503Y446238D01*
X707440Y446204D01*
X707372Y446179D01*
X707332Y446147D01*
X707286Y446122D01*
X707236Y446070D01*
X707180Y446026D01*
X707152Y445982D01*
X707116Y445944D01*
X707086Y445879D01*
X707047Y445819D01*
X707035Y445768D01*
X707013Y445721D01*
X707005Y445650D01*
X706987Y445580D01*
X706991Y445528D01*
X706986Y445477D01*
X707001Y445406D01*
X707006Y445335D01*
X707027Y445287D01*
X707038Y445236D01*
X707075Y445175D01*
X707103Y445109D01*
X707147Y445053D01*
X707164Y445025D01*
X707182Y445010D01*
X707207Y444978D01*
X709240Y442946D01*
X709314Y442893D01*
X709383Y442833D01*
X709413Y442821D01*
X709439Y442802D01*
X709526Y442775D01*
X709611Y442741D01*
X709652Y442737D01*
X709674Y442730D01*
X709707Y442731D01*
X709778Y442723D01*
X715724Y442723D01*
X722123Y436324D01*
X722123Y427276D01*
X715724Y420877D01*
X706676Y420877D01*
G37*
%LPD*%
%LPC*%
G36*
X302425Y369061D02*
X302425Y369061D01*
X298037Y370879D01*
X294679Y374237D01*
X292861Y378625D01*
X292861Y383375D01*
X294679Y387763D01*
X298037Y391121D01*
X302425Y392939D01*
X307175Y392939D01*
X311563Y391121D01*
X314921Y387763D01*
X316739Y383375D01*
X316739Y378625D01*
X314921Y374237D01*
X311563Y370879D01*
X307175Y369061D01*
X302425Y369061D01*
G37*
%LPD*%
%LPC*%
G36*
X200825Y369061D02*
X200825Y369061D01*
X196437Y370879D01*
X193079Y374237D01*
X191261Y378625D01*
X191261Y383375D01*
X193079Y387763D01*
X196437Y391121D01*
X200825Y392939D01*
X205575Y392939D01*
X209963Y391121D01*
X213321Y387763D01*
X215139Y383375D01*
X215139Y378625D01*
X213321Y374237D01*
X209963Y370879D01*
X205575Y369061D01*
X200825Y369061D01*
G37*
%LPD*%
%LPC*%
G36*
X277025Y953261D02*
X277025Y953261D01*
X272637Y955079D01*
X269279Y958437D01*
X267461Y962825D01*
X267461Y967575D01*
X269279Y971963D01*
X272637Y975321D01*
X277025Y977139D01*
X281775Y977139D01*
X286163Y975321D01*
X289521Y971963D01*
X291339Y967575D01*
X291339Y962825D01*
X289521Y958437D01*
X286163Y955079D01*
X281775Y953261D01*
X277025Y953261D01*
G37*
%LPD*%
%LPC*%
G36*
X150025Y115061D02*
X150025Y115061D01*
X145637Y116879D01*
X142279Y120237D01*
X140461Y124625D01*
X140461Y129375D01*
X142279Y133763D01*
X145637Y137121D01*
X150025Y138939D01*
X154775Y138939D01*
X159163Y137121D01*
X162521Y133763D01*
X164339Y129375D01*
X164339Y124625D01*
X162521Y120237D01*
X159163Y116879D01*
X154775Y115061D01*
X150025Y115061D01*
G37*
%LPD*%
%LPC*%
G36*
X175425Y115061D02*
X175425Y115061D01*
X171037Y116879D01*
X167679Y120237D01*
X165861Y124625D01*
X165861Y129375D01*
X167679Y133763D01*
X171037Y137121D01*
X175425Y138939D01*
X180175Y138939D01*
X184563Y137121D01*
X187921Y133763D01*
X189739Y129375D01*
X189739Y124625D01*
X187921Y120237D01*
X184563Y116879D01*
X180175Y115061D01*
X175425Y115061D01*
G37*
%LPD*%
%LPC*%
G36*
X200825Y115061D02*
X200825Y115061D01*
X196437Y116879D01*
X193079Y120237D01*
X191261Y124625D01*
X191261Y129375D01*
X193079Y133763D01*
X196437Y137121D01*
X200825Y138939D01*
X205575Y138939D01*
X209963Y137121D01*
X213321Y133763D01*
X215139Y129375D01*
X215139Y124625D01*
X213321Y120237D01*
X209963Y116879D01*
X205575Y115061D01*
X200825Y115061D01*
G37*
%LPD*%
%LPC*%
G36*
X327825Y115061D02*
X327825Y115061D01*
X323437Y116879D01*
X320079Y120237D01*
X318261Y124625D01*
X318261Y129375D01*
X320079Y133763D01*
X323437Y137121D01*
X327825Y138939D01*
X332575Y138939D01*
X336963Y137121D01*
X340321Y133763D01*
X342139Y129375D01*
X342139Y124625D01*
X340321Y120237D01*
X336963Y116879D01*
X332575Y115061D01*
X327825Y115061D01*
G37*
%LPD*%
%LPC*%
G36*
X353225Y115061D02*
X353225Y115061D01*
X348837Y116879D01*
X345479Y120237D01*
X343661Y124625D01*
X343661Y129375D01*
X345479Y133763D01*
X348837Y137121D01*
X353225Y138939D01*
X357975Y138939D01*
X362363Y137121D01*
X365721Y133763D01*
X367539Y129375D01*
X367539Y124625D01*
X365721Y120237D01*
X362363Y116879D01*
X357975Y115061D01*
X353225Y115061D01*
G37*
%LPD*%
%LPC*%
G36*
X962825Y953261D02*
X962825Y953261D01*
X958437Y955079D01*
X955079Y958437D01*
X953261Y962825D01*
X953261Y967575D01*
X955079Y971963D01*
X958437Y975321D01*
X962825Y977139D01*
X967575Y977139D01*
X971963Y975321D01*
X975321Y971963D01*
X977139Y967575D01*
X977139Y962825D01*
X975321Y958437D01*
X971963Y955079D01*
X967575Y953261D01*
X962825Y953261D01*
G37*
%LPD*%
%LPC*%
G36*
X1293025Y165861D02*
X1293025Y165861D01*
X1288637Y167679D01*
X1285279Y171037D01*
X1283461Y175425D01*
X1283461Y180175D01*
X1285279Y184563D01*
X1288637Y187921D01*
X1293025Y189739D01*
X1297775Y189739D01*
X1302163Y187921D01*
X1305521Y184563D01*
X1307339Y180175D01*
X1307339Y175425D01*
X1305521Y171037D01*
X1302163Y167679D01*
X1297775Y165861D01*
X1293025Y165861D01*
G37*
%LPD*%
%LPC*%
G36*
X1293025Y191261D02*
X1293025Y191261D01*
X1288637Y193079D01*
X1285279Y196437D01*
X1283461Y200825D01*
X1283461Y205575D01*
X1285279Y209963D01*
X1288637Y213321D01*
X1293025Y215139D01*
X1297775Y215139D01*
X1302163Y213321D01*
X1305521Y209963D01*
X1307339Y205575D01*
X1307339Y200825D01*
X1305521Y196437D01*
X1302163Y193079D01*
X1297775Y191261D01*
X1293025Y191261D01*
G37*
%LPD*%
%LPC*%
G36*
X124625Y191261D02*
X124625Y191261D01*
X120237Y193079D01*
X116879Y196437D01*
X115061Y200825D01*
X115061Y205575D01*
X116879Y209963D01*
X120237Y213321D01*
X124625Y215139D01*
X129375Y215139D01*
X133763Y213321D01*
X137121Y209963D01*
X138939Y205575D01*
X138939Y200825D01*
X137121Y196437D01*
X133763Y193079D01*
X129375Y191261D01*
X124625Y191261D01*
G37*
%LPD*%
%LPC*%
G36*
X353225Y216661D02*
X353225Y216661D01*
X348837Y218479D01*
X345479Y221837D01*
X343661Y226225D01*
X343661Y230975D01*
X345479Y235363D01*
X348837Y238721D01*
X353225Y240539D01*
X357975Y240539D01*
X362363Y238721D01*
X365721Y235363D01*
X367539Y230975D01*
X367539Y226225D01*
X365721Y221837D01*
X362363Y218479D01*
X357975Y216661D01*
X353225Y216661D01*
G37*
%LPD*%
%LPC*%
G36*
X378625Y216661D02*
X378625Y216661D01*
X374237Y218479D01*
X370879Y221837D01*
X369061Y226225D01*
X369061Y230975D01*
X370879Y235363D01*
X374237Y238721D01*
X378625Y240539D01*
X383375Y240539D01*
X387763Y238721D01*
X391121Y235363D01*
X392939Y230975D01*
X392939Y226225D01*
X391121Y221837D01*
X387763Y218479D01*
X383375Y216661D01*
X378625Y216661D01*
G37*
%LPD*%
%LPC*%
G36*
X1293025Y216661D02*
X1293025Y216661D01*
X1288637Y218479D01*
X1285279Y221837D01*
X1283461Y226225D01*
X1283461Y230975D01*
X1285279Y235363D01*
X1288637Y238721D01*
X1293025Y240539D01*
X1297775Y240539D01*
X1302163Y238721D01*
X1305521Y235363D01*
X1307339Y230975D01*
X1307339Y226225D01*
X1305521Y221837D01*
X1302163Y218479D01*
X1297775Y216661D01*
X1293025Y216661D01*
G37*
%LPD*%
%LPC*%
G36*
X124625Y216661D02*
X124625Y216661D01*
X120237Y218479D01*
X116879Y221837D01*
X115061Y226225D01*
X115061Y230975D01*
X116879Y235363D01*
X120237Y238721D01*
X124625Y240539D01*
X129375Y240539D01*
X133763Y238721D01*
X137121Y235363D01*
X138939Y230975D01*
X138939Y226225D01*
X137121Y221837D01*
X133763Y218479D01*
X129375Y216661D01*
X124625Y216661D01*
G37*
%LPD*%
%LPC*%
G36*
X353225Y242061D02*
X353225Y242061D01*
X348837Y243879D01*
X345479Y247237D01*
X343661Y251625D01*
X343661Y256375D01*
X345479Y260763D01*
X348837Y264121D01*
X353225Y265939D01*
X357975Y265939D01*
X362363Y264121D01*
X365721Y260763D01*
X367539Y256375D01*
X367539Y251625D01*
X365721Y247237D01*
X362363Y243879D01*
X357975Y242061D01*
X353225Y242061D01*
G37*
%LPD*%
%LPC*%
G36*
X1293025Y242061D02*
X1293025Y242061D01*
X1288637Y243879D01*
X1285279Y247237D01*
X1283461Y251625D01*
X1283461Y256375D01*
X1285279Y260763D01*
X1288637Y264121D01*
X1293025Y265939D01*
X1297775Y265939D01*
X1302163Y264121D01*
X1305521Y260763D01*
X1307339Y256375D01*
X1307339Y251625D01*
X1305521Y247237D01*
X1302163Y243879D01*
X1297775Y242061D01*
X1293025Y242061D01*
G37*
%LPD*%
%LPC*%
G36*
X378625Y242061D02*
X378625Y242061D01*
X374237Y243879D01*
X370879Y247237D01*
X369061Y251625D01*
X369061Y256375D01*
X370879Y260763D01*
X374237Y264121D01*
X378625Y265939D01*
X383375Y265939D01*
X387763Y264121D01*
X391121Y260763D01*
X392939Y256375D01*
X392939Y251625D01*
X391121Y247237D01*
X387763Y243879D01*
X383375Y242061D01*
X378625Y242061D01*
G37*
%LPD*%
%LPC*%
G36*
X200825Y267461D02*
X200825Y267461D01*
X196437Y269279D01*
X193079Y272637D01*
X191261Y277025D01*
X191261Y281775D01*
X193079Y286163D01*
X196437Y289521D01*
X200825Y291339D01*
X205575Y291339D01*
X209963Y289521D01*
X213321Y286163D01*
X215139Y281775D01*
X215139Y277025D01*
X213321Y272637D01*
X209963Y269279D01*
X205575Y267461D01*
X200825Y267461D01*
G37*
%LPD*%
%LPC*%
G36*
X226225Y267461D02*
X226225Y267461D01*
X221837Y269279D01*
X218479Y272637D01*
X216661Y277025D01*
X216661Y281775D01*
X218479Y286163D01*
X221837Y289521D01*
X226225Y291339D01*
X230975Y291339D01*
X235363Y289521D01*
X238721Y286163D01*
X240539Y281775D01*
X240539Y277025D01*
X238721Y272637D01*
X235363Y269279D01*
X230975Y267461D01*
X226225Y267461D01*
G37*
%LPD*%
%LPC*%
G36*
X1293025Y267461D02*
X1293025Y267461D01*
X1288637Y269279D01*
X1285279Y272637D01*
X1283461Y277025D01*
X1283461Y281775D01*
X1285279Y286163D01*
X1288637Y289521D01*
X1293025Y291339D01*
X1297775Y291339D01*
X1302163Y289521D01*
X1305521Y286163D01*
X1307339Y281775D01*
X1307339Y277025D01*
X1305521Y272637D01*
X1302163Y269279D01*
X1297775Y267461D01*
X1293025Y267461D01*
G37*
%LPD*%
%LPC*%
G36*
X937425Y953261D02*
X937425Y953261D01*
X933037Y955079D01*
X929679Y958437D01*
X927861Y962825D01*
X927861Y967575D01*
X929679Y971963D01*
X933037Y975321D01*
X937425Y977139D01*
X942175Y977139D01*
X946563Y975321D01*
X949921Y971963D01*
X951739Y967575D01*
X951739Y962825D01*
X949921Y958437D01*
X946563Y955079D01*
X942175Y953261D01*
X937425Y953261D01*
G37*
%LPD*%
%LPC*%
G36*
X1293025Y343661D02*
X1293025Y343661D01*
X1288637Y345479D01*
X1285279Y348837D01*
X1283461Y353225D01*
X1283461Y357975D01*
X1285279Y362363D01*
X1288637Y365721D01*
X1293025Y367539D01*
X1297775Y367539D01*
X1302163Y365721D01*
X1305521Y362363D01*
X1307339Y357975D01*
X1307339Y353225D01*
X1305521Y348837D01*
X1302163Y345479D01*
X1297775Y343661D01*
X1293025Y343661D01*
G37*
%LPD*%
%LPC*%
G36*
X1445425Y343661D02*
X1445425Y343661D01*
X1441037Y345479D01*
X1437679Y348837D01*
X1435861Y353225D01*
X1435861Y357975D01*
X1437679Y362363D01*
X1441037Y365721D01*
X1445425Y367539D01*
X1450175Y367539D01*
X1454563Y365721D01*
X1457921Y362363D01*
X1459739Y357975D01*
X1459739Y353225D01*
X1457921Y348837D01*
X1454563Y345479D01*
X1450175Y343661D01*
X1445425Y343661D01*
G37*
%LPD*%
%LPC*%
G36*
X454825Y369061D02*
X454825Y369061D01*
X450437Y370879D01*
X447079Y374237D01*
X445261Y378625D01*
X445261Y383375D01*
X447079Y387763D01*
X450437Y391121D01*
X454825Y392939D01*
X459575Y392939D01*
X463963Y391121D01*
X467321Y387763D01*
X469139Y383375D01*
X469139Y378625D01*
X467321Y374237D01*
X463963Y370879D01*
X459575Y369061D01*
X454825Y369061D01*
G37*
%LPD*%
%LPC*%
G36*
X480225Y369061D02*
X480225Y369061D01*
X475837Y370879D01*
X472479Y374237D01*
X470661Y378625D01*
X470661Y383375D01*
X472479Y387763D01*
X475837Y391121D01*
X480225Y392939D01*
X484975Y392939D01*
X489363Y391121D01*
X492721Y387763D01*
X494539Y383375D01*
X494539Y378625D01*
X492721Y374237D01*
X489363Y370879D01*
X484975Y369061D01*
X480225Y369061D01*
G37*
%LPD*%
%LPC*%
G36*
X556425Y369061D02*
X556425Y369061D01*
X552037Y370879D01*
X548679Y374237D01*
X546861Y378625D01*
X546861Y383375D01*
X548679Y387763D01*
X552037Y391121D01*
X556425Y392939D01*
X561175Y392939D01*
X565563Y391121D01*
X568921Y387763D01*
X570739Y383375D01*
X570739Y378625D01*
X568921Y374237D01*
X565563Y370879D01*
X561175Y369061D01*
X556425Y369061D01*
G37*
%LPD*%
%LPC*%
G36*
X1293025Y369061D02*
X1293025Y369061D01*
X1288637Y370879D01*
X1285279Y374237D01*
X1283461Y378625D01*
X1283461Y383375D01*
X1285279Y387763D01*
X1288637Y391121D01*
X1293025Y392939D01*
X1297775Y392939D01*
X1302163Y391121D01*
X1305521Y387763D01*
X1307339Y383375D01*
X1307339Y378625D01*
X1305521Y374237D01*
X1302163Y370879D01*
X1297775Y369061D01*
X1293025Y369061D01*
G37*
%LPD*%
%LPC*%
G36*
X1445425Y369061D02*
X1445425Y369061D01*
X1441037Y370879D01*
X1437679Y374237D01*
X1435861Y378625D01*
X1435861Y383375D01*
X1437679Y387763D01*
X1441037Y391121D01*
X1445425Y392939D01*
X1450175Y392939D01*
X1454563Y391121D01*
X1457921Y387763D01*
X1459739Y383375D01*
X1459739Y378625D01*
X1457921Y374237D01*
X1454563Y370879D01*
X1450175Y369061D01*
X1445425Y369061D01*
G37*
%LPD*%
%LPC*%
G36*
X226225Y369061D02*
X226225Y369061D01*
X221837Y370879D01*
X218479Y374237D01*
X216661Y378625D01*
X216661Y383375D01*
X218479Y387763D01*
X221837Y391121D01*
X226225Y392939D01*
X230975Y392939D01*
X235363Y391121D01*
X238721Y387763D01*
X240539Y383375D01*
X240539Y378625D01*
X238721Y374237D01*
X235363Y370879D01*
X230975Y369061D01*
X226225Y369061D01*
G37*
%LPD*%
%LPC*%
G36*
X404025Y369061D02*
X404025Y369061D01*
X399637Y370879D01*
X396279Y374237D01*
X394461Y378625D01*
X394461Y383375D01*
X396279Y387763D01*
X399637Y391121D01*
X404025Y392939D01*
X408775Y392939D01*
X413163Y391121D01*
X416521Y387763D01*
X418339Y383375D01*
X418339Y378625D01*
X416521Y374237D01*
X413163Y370879D01*
X408775Y369061D01*
X404025Y369061D01*
G37*
%LPD*%
%LPC*%
G36*
X175425Y369061D02*
X175425Y369061D01*
X171037Y370879D01*
X167679Y374237D01*
X165861Y378625D01*
X165861Y383375D01*
X167679Y387763D01*
X171037Y391121D01*
X175425Y392939D01*
X180175Y392939D01*
X184563Y391121D01*
X187921Y387763D01*
X189739Y383375D01*
X189739Y378625D01*
X187921Y374237D01*
X184563Y370879D01*
X180175Y369061D01*
X175425Y369061D01*
G37*
%LPD*%
%LPC*%
G36*
X277025Y369061D02*
X277025Y369061D01*
X272637Y370879D01*
X269279Y374237D01*
X267461Y378625D01*
X267461Y383375D01*
X269279Y387763D01*
X272637Y391121D01*
X277025Y392939D01*
X281775Y392939D01*
X286163Y391121D01*
X289521Y387763D01*
X291339Y383375D01*
X291339Y378625D01*
X289521Y374237D01*
X286163Y370879D01*
X281775Y369061D01*
X277025Y369061D01*
G37*
%LPD*%
%LPC*%
G36*
X378625Y369061D02*
X378625Y369061D01*
X374237Y370879D01*
X370879Y374237D01*
X369061Y378625D01*
X369061Y383375D01*
X370879Y387763D01*
X374237Y391121D01*
X378625Y392939D01*
X383375Y392939D01*
X387763Y391121D01*
X391121Y387763D01*
X392939Y383375D01*
X392939Y378625D01*
X391121Y374237D01*
X387763Y370879D01*
X383375Y369061D01*
X378625Y369061D01*
G37*
%LPD*%
%LPC*%
G36*
X353225Y369061D02*
X353225Y369061D01*
X348837Y370879D01*
X345479Y374237D01*
X343661Y378625D01*
X343661Y383375D01*
X345479Y387763D01*
X348837Y391121D01*
X353225Y392939D01*
X357975Y392939D01*
X362363Y391121D01*
X365721Y387763D01*
X367539Y383375D01*
X367539Y378625D01*
X365721Y374237D01*
X362363Y370879D01*
X357975Y369061D01*
X353225Y369061D01*
G37*
%LPD*%
%LPC*%
G36*
X327825Y369061D02*
X327825Y369061D01*
X323437Y370879D01*
X320079Y374237D01*
X318261Y378625D01*
X318261Y383375D01*
X320079Y387763D01*
X323437Y391121D01*
X327825Y392939D01*
X332575Y392939D01*
X336963Y391121D01*
X340321Y387763D01*
X342139Y383375D01*
X342139Y378625D01*
X340321Y374237D01*
X336963Y370879D01*
X332575Y369061D01*
X327825Y369061D01*
G37*
%LPD*%
%LPC*%
G36*
X124625Y953261D02*
X124625Y953261D01*
X120237Y955079D01*
X116879Y958437D01*
X115061Y962825D01*
X115061Y967575D01*
X116879Y971963D01*
X120237Y975321D01*
X124625Y977139D01*
X129375Y977139D01*
X133763Y975321D01*
X137121Y971963D01*
X138939Y967575D01*
X138939Y962825D01*
X137121Y958437D01*
X133763Y955079D01*
X129375Y953261D01*
X124625Y953261D01*
G37*
%LPD*%
%LPC*%
G36*
X429425Y369061D02*
X429425Y369061D01*
X425037Y370879D01*
X421679Y374237D01*
X419861Y378625D01*
X419861Y383375D01*
X421679Y387763D01*
X425037Y391121D01*
X429425Y392939D01*
X434175Y392939D01*
X438563Y391121D01*
X441921Y387763D01*
X443739Y383375D01*
X443739Y378625D01*
X441921Y374237D01*
X438563Y370879D01*
X434175Y369061D01*
X429425Y369061D01*
G37*
%LPD*%
%LPC*%
G36*
X1293025Y394461D02*
X1293025Y394461D01*
X1288637Y396279D01*
X1285279Y399637D01*
X1283461Y404025D01*
X1283461Y408775D01*
X1285279Y413163D01*
X1288637Y416521D01*
X1293025Y418339D01*
X1297775Y418339D01*
X1302163Y416521D01*
X1305521Y413163D01*
X1307339Y408775D01*
X1307339Y404025D01*
X1305521Y399637D01*
X1302163Y396279D01*
X1297775Y394461D01*
X1293025Y394461D01*
G37*
%LPD*%
%LPC*%
G36*
X1445425Y394461D02*
X1445425Y394461D01*
X1441037Y396279D01*
X1437679Y399637D01*
X1435861Y404025D01*
X1435861Y408775D01*
X1437679Y413163D01*
X1441037Y416521D01*
X1445425Y418339D01*
X1450175Y418339D01*
X1454563Y416521D01*
X1457921Y413163D01*
X1459739Y408775D01*
X1459739Y404025D01*
X1457921Y399637D01*
X1454563Y396279D01*
X1450175Y394461D01*
X1445425Y394461D01*
G37*
%LPD*%
%LPC*%
G36*
X1293025Y419861D02*
X1293025Y419861D01*
X1288637Y421679D01*
X1285279Y425037D01*
X1283461Y429425D01*
X1283461Y434175D01*
X1285279Y438563D01*
X1288637Y441921D01*
X1293025Y443739D01*
X1297775Y443739D01*
X1302163Y441921D01*
X1305521Y438563D01*
X1307339Y434175D01*
X1307339Y429425D01*
X1305521Y425037D01*
X1302163Y421679D01*
X1297775Y419861D01*
X1293025Y419861D01*
G37*
%LPD*%
%LPC*%
G36*
X1445425Y419861D02*
X1445425Y419861D01*
X1441037Y421679D01*
X1437679Y425037D01*
X1435861Y429425D01*
X1435861Y434175D01*
X1437679Y438563D01*
X1441037Y441921D01*
X1445425Y443739D01*
X1450175Y443739D01*
X1454563Y441921D01*
X1457921Y438563D01*
X1459739Y434175D01*
X1459739Y429425D01*
X1457921Y425037D01*
X1454563Y421679D01*
X1450175Y419861D01*
X1445425Y419861D01*
G37*
%LPD*%
%LPC*%
G36*
X1293025Y445261D02*
X1293025Y445261D01*
X1288637Y447079D01*
X1285279Y450437D01*
X1283461Y454825D01*
X1283461Y459575D01*
X1285279Y463963D01*
X1288637Y467321D01*
X1293025Y469139D01*
X1297775Y469139D01*
X1302163Y467321D01*
X1305521Y463963D01*
X1307339Y459575D01*
X1307339Y454825D01*
X1305521Y450437D01*
X1302163Y447079D01*
X1297775Y445261D01*
X1293025Y445261D01*
G37*
%LPD*%
%LPC*%
G36*
X1445425Y445261D02*
X1445425Y445261D01*
X1441037Y447079D01*
X1437679Y450437D01*
X1435861Y454825D01*
X1435861Y459575D01*
X1437679Y463963D01*
X1441037Y467321D01*
X1445425Y469139D01*
X1450175Y469139D01*
X1454563Y467321D01*
X1457921Y463963D01*
X1459739Y459575D01*
X1459739Y454825D01*
X1457921Y450437D01*
X1454563Y447079D01*
X1450175Y445261D01*
X1445425Y445261D01*
G37*
%LPD*%
%LPC*%
G36*
X1293025Y470661D02*
X1293025Y470661D01*
X1288637Y472479D01*
X1285279Y475837D01*
X1283461Y480225D01*
X1283461Y484975D01*
X1285279Y489363D01*
X1288637Y492721D01*
X1293025Y494539D01*
X1297775Y494539D01*
X1302163Y492721D01*
X1305521Y489363D01*
X1307339Y484975D01*
X1307339Y480225D01*
X1305521Y475837D01*
X1302163Y472479D01*
X1297775Y470661D01*
X1293025Y470661D01*
G37*
%LPD*%
%LPC*%
G36*
X1445425Y470661D02*
X1445425Y470661D01*
X1441037Y472479D01*
X1437679Y475837D01*
X1435861Y480225D01*
X1435861Y484975D01*
X1437679Y489363D01*
X1441037Y492721D01*
X1445425Y494539D01*
X1450175Y494539D01*
X1454563Y492721D01*
X1457921Y489363D01*
X1459739Y484975D01*
X1459739Y480225D01*
X1457921Y475837D01*
X1454563Y472479D01*
X1450175Y470661D01*
X1445425Y470661D01*
G37*
%LPD*%
%LPC*%
G36*
X581825Y877061D02*
X581825Y877061D01*
X577437Y878879D01*
X574079Y882237D01*
X572261Y886625D01*
X572261Y891375D01*
X574079Y895763D01*
X577437Y899121D01*
X581825Y900939D01*
X586575Y900939D01*
X590963Y899121D01*
X594321Y895763D01*
X596139Y891375D01*
X596139Y886625D01*
X594321Y882237D01*
X590963Y878879D01*
X586575Y877061D01*
X581825Y877061D01*
G37*
%LPD*%
%LPC*%
G36*
X1293025Y877061D02*
X1293025Y877061D01*
X1288637Y878879D01*
X1285279Y882237D01*
X1283461Y886625D01*
X1283461Y891375D01*
X1285279Y895763D01*
X1288637Y899121D01*
X1293025Y900939D01*
X1297775Y900939D01*
X1302163Y899121D01*
X1305521Y895763D01*
X1307339Y891375D01*
X1307339Y886625D01*
X1305521Y882237D01*
X1302163Y878879D01*
X1297775Y877061D01*
X1293025Y877061D01*
G37*
%LPD*%
%LPC*%
G36*
X810425Y953261D02*
X810425Y953261D01*
X806037Y955079D01*
X802679Y958437D01*
X800861Y962825D01*
X800861Y967575D01*
X802679Y971963D01*
X806037Y975321D01*
X810425Y977139D01*
X815175Y977139D01*
X819563Y975321D01*
X822921Y971963D01*
X824739Y967575D01*
X824739Y962825D01*
X822921Y958437D01*
X819563Y955079D01*
X815175Y953261D01*
X810425Y953261D01*
G37*
%LPD*%
%LPC*%
G36*
X706676Y370077D02*
X706676Y370077D01*
X700277Y376476D01*
X700277Y385524D01*
X706676Y391923D01*
X715724Y391923D01*
X722123Y385524D01*
X722123Y376476D01*
X715724Y370077D01*
X706676Y370077D01*
G37*
%LPD*%
%LPC*%
G36*
X706676Y344677D02*
X706676Y344677D01*
X700277Y351076D01*
X700277Y360124D01*
X706676Y366523D01*
X715724Y366523D01*
X722123Y360124D01*
X722123Y351076D01*
X715724Y344677D01*
X706676Y344677D01*
G37*
%LPD*%
%LPC*%
G36*
X1189276Y344677D02*
X1189276Y344677D01*
X1182877Y351076D01*
X1182877Y360124D01*
X1189276Y366523D01*
X1198324Y366523D01*
X1204723Y360124D01*
X1204723Y351076D01*
X1198324Y344677D01*
X1189276Y344677D01*
G37*
%LPD*%
%LPC*%
G36*
X1189276Y319277D02*
X1189276Y319277D01*
X1182877Y325676D01*
X1182877Y334724D01*
X1189276Y341123D01*
X1198324Y341123D01*
X1204723Y334724D01*
X1204723Y325676D01*
X1198324Y319277D01*
X1189276Y319277D01*
G37*
%LPD*%
%LPC*%
G36*
X1189276Y461517D02*
X1189276Y461517D01*
X1182877Y467916D01*
X1182877Y476964D01*
X1189276Y483363D01*
X1198324Y483363D01*
X1204723Y476964D01*
X1204723Y467916D01*
X1198324Y461517D01*
X1189276Y461517D01*
G37*
%LPD*%
%LPC*%
G36*
X1189276Y293877D02*
X1189276Y293877D01*
X1182877Y300276D01*
X1182877Y309324D01*
X1189276Y315723D01*
X1198324Y315723D01*
X1204723Y309324D01*
X1204723Y300276D01*
X1198324Y293877D01*
X1189276Y293877D01*
G37*
%LPD*%
%LPC*%
G36*
X706676Y293877D02*
X706676Y293877D01*
X700277Y300276D01*
X700277Y309324D01*
X706676Y315723D01*
X715724Y315723D01*
X722123Y309324D01*
X722123Y300276D01*
X715724Y293877D01*
X706676Y293877D01*
G37*
%LPD*%
%LPC*%
G36*
X1189276Y537717D02*
X1189276Y537717D01*
X1182877Y544116D01*
X1182877Y553164D01*
X1189276Y559563D01*
X1198324Y559563D01*
X1204723Y553164D01*
X1204723Y544116D01*
X1198324Y537717D01*
X1189276Y537717D01*
G37*
%LPD*%
%LPC*%
G36*
X706676Y268477D02*
X706676Y268477D01*
X700277Y274876D01*
X700277Y283924D01*
X706676Y290323D01*
X715724Y290323D01*
X722123Y283924D01*
X722123Y274876D01*
X715724Y268477D01*
X706676Y268477D01*
G37*
%LPD*%
%LPC*%
G36*
X1189276Y268477D02*
X1189276Y268477D01*
X1182877Y274876D01*
X1182877Y283924D01*
X1189276Y290323D01*
X1198324Y290323D01*
X1204723Y283924D01*
X1204723Y274876D01*
X1198324Y268477D01*
X1189276Y268477D01*
G37*
%LPD*%
%LPC*%
G36*
X1189276Y243077D02*
X1189276Y243077D01*
X1182877Y249476D01*
X1182877Y258524D01*
X1189276Y264923D01*
X1198324Y264923D01*
X1204723Y258524D01*
X1204723Y249476D01*
X1198324Y243077D01*
X1189276Y243077D01*
G37*
%LPD*%
%LPC*%
G36*
X1189276Y690117D02*
X1189276Y690117D01*
X1182877Y696516D01*
X1182877Y705564D01*
X1189276Y711963D01*
X1198324Y711963D01*
X1204723Y705564D01*
X1204723Y696516D01*
X1198324Y690117D01*
X1189276Y690117D01*
G37*
%LPD*%
%LPC*%
G36*
X1189276Y639317D02*
X1189276Y639317D01*
X1182877Y645716D01*
X1182877Y654764D01*
X1189276Y661163D01*
X1198324Y661163D01*
X1204723Y654764D01*
X1204723Y645716D01*
X1198324Y639317D01*
X1189276Y639317D01*
G37*
%LPD*%
%LPC*%
G36*
X706676Y243077D02*
X706676Y243077D01*
X700277Y249476D01*
X700277Y258524D01*
X706676Y264923D01*
X715724Y264923D01*
X722123Y258524D01*
X722123Y249476D01*
X715724Y243077D01*
X706676Y243077D01*
G37*
%LPD*%
%LPC*%
G36*
X1189276Y664717D02*
X1189276Y664717D01*
X1182877Y671116D01*
X1182877Y680164D01*
X1189276Y686563D01*
X1198324Y686563D01*
X1204723Y680164D01*
X1204723Y671116D01*
X1198324Y664717D01*
X1189276Y664717D01*
G37*
%LPD*%
%LPC*%
G36*
X153923Y966723D02*
X153923Y966723D01*
X153923Y977046D01*
X155196Y976845D01*
X156983Y976264D01*
X158657Y975411D01*
X160178Y974306D01*
X161506Y972978D01*
X162611Y971457D01*
X163464Y969783D01*
X164045Y967996D01*
X164246Y966723D01*
X153923Y966723D01*
G37*
%LPD*%
%LPC*%
G36*
X458723Y966723D02*
X458723Y966723D01*
X458723Y977046D01*
X459996Y976845D01*
X461783Y976264D01*
X463457Y975411D01*
X464978Y974306D01*
X466306Y972978D01*
X467411Y971457D01*
X468264Y969783D01*
X468845Y967996D01*
X469046Y966723D01*
X458723Y966723D01*
G37*
%LPD*%
%LPC*%
G36*
X1449323Y204723D02*
X1449323Y204723D01*
X1449323Y215046D01*
X1450596Y214845D01*
X1452383Y214264D01*
X1454057Y213411D01*
X1455578Y212306D01*
X1456906Y210978D01*
X1458011Y209457D01*
X1458864Y207783D01*
X1459445Y205996D01*
X1459646Y204723D01*
X1449323Y204723D01*
G37*
%LPD*%
%LPC*%
G36*
X534923Y966723D02*
X534923Y966723D01*
X534923Y977046D01*
X536196Y976845D01*
X537983Y976264D01*
X539657Y975411D01*
X541178Y974306D01*
X542506Y972978D01*
X543611Y971457D01*
X544464Y969783D01*
X545045Y967996D01*
X545246Y966723D01*
X534923Y966723D01*
G37*
%LPD*%
%LPC*%
G36*
X611123Y966723D02*
X611123Y966723D01*
X611123Y977046D01*
X612396Y976845D01*
X614183Y976264D01*
X615857Y975411D01*
X617378Y974306D01*
X618706Y972978D01*
X619811Y971457D01*
X620664Y969783D01*
X621245Y967996D01*
X621446Y966723D01*
X611123Y966723D01*
G37*
%LPD*%
%LPC*%
G36*
X1449323Y230123D02*
X1449323Y230123D01*
X1449323Y240446D01*
X1450596Y240245D01*
X1452383Y239664D01*
X1454057Y238811D01*
X1455578Y237706D01*
X1456906Y236378D01*
X1458011Y234857D01*
X1458864Y233183D01*
X1459445Y231396D01*
X1459646Y230123D01*
X1449323Y230123D01*
G37*
%LPD*%
%LPC*%
G36*
X585723Y966723D02*
X585723Y966723D01*
X585723Y977046D01*
X586996Y976845D01*
X588783Y976264D01*
X590457Y975411D01*
X591978Y974306D01*
X593306Y972978D01*
X594411Y971457D01*
X595264Y969783D01*
X595845Y967996D01*
X596046Y966723D01*
X585723Y966723D01*
G37*
%LPD*%
%LPC*%
G36*
X585723Y687323D02*
X585723Y687323D01*
X585723Y697646D01*
X586996Y697445D01*
X588783Y696864D01*
X590457Y696011D01*
X591978Y694906D01*
X593306Y693578D01*
X594411Y692057D01*
X595264Y690383D01*
X595845Y688596D01*
X596046Y687323D01*
X585723Y687323D01*
G37*
%LPD*%
%LPC*%
G36*
X128523Y687323D02*
X128523Y687323D01*
X128523Y697646D01*
X129796Y697445D01*
X131583Y696864D01*
X133257Y696011D01*
X134778Y694906D01*
X136106Y693578D01*
X137211Y692057D01*
X138064Y690383D01*
X138645Y688596D01*
X138846Y687323D01*
X128523Y687323D01*
G37*
%LPD*%
%LPC*%
G36*
X1449323Y179323D02*
X1449323Y179323D01*
X1449323Y189646D01*
X1450596Y189445D01*
X1452383Y188864D01*
X1454057Y188011D01*
X1455578Y186906D01*
X1456906Y185578D01*
X1458011Y184057D01*
X1458864Y182383D01*
X1459445Y180596D01*
X1459646Y179323D01*
X1449323Y179323D01*
G37*
%LPD*%
%LPC*%
G36*
X1449323Y255523D02*
X1449323Y255523D01*
X1449323Y265846D01*
X1450596Y265645D01*
X1452383Y265064D01*
X1454057Y264211D01*
X1455578Y263106D01*
X1456906Y261778D01*
X1458011Y260257D01*
X1458864Y258583D01*
X1459445Y256796D01*
X1459646Y255523D01*
X1449323Y255523D01*
G37*
%LPD*%
%LPC*%
G36*
X230123Y966723D02*
X230123Y966723D01*
X230123Y977046D01*
X231396Y976845D01*
X233183Y976264D01*
X234857Y975411D01*
X236378Y974306D01*
X237706Y972978D01*
X238811Y971457D01*
X239664Y969783D01*
X240245Y967996D01*
X240446Y966723D01*
X230123Y966723D01*
G37*
%LPD*%
%LPC*%
G36*
X433323Y966723D02*
X433323Y966723D01*
X433323Y977046D01*
X434596Y976845D01*
X436383Y976264D01*
X438057Y975411D01*
X439578Y974306D01*
X440906Y972978D01*
X442011Y971457D01*
X442864Y969783D01*
X443445Y967996D01*
X443646Y966723D01*
X433323Y966723D01*
G37*
%LPD*%
%LPC*%
G36*
X1449323Y280923D02*
X1449323Y280923D01*
X1449323Y291246D01*
X1450596Y291045D01*
X1452383Y290464D01*
X1454057Y289611D01*
X1455578Y288506D01*
X1456906Y287178D01*
X1458011Y285657D01*
X1458864Y283983D01*
X1459445Y282196D01*
X1459646Y280923D01*
X1449323Y280923D01*
G37*
%LPD*%
%LPC*%
G36*
X382523Y966723D02*
X382523Y966723D01*
X382523Y977046D01*
X383796Y976845D01*
X385583Y976264D01*
X387257Y975411D01*
X388778Y974306D01*
X390106Y972978D01*
X391211Y971457D01*
X392064Y969783D01*
X392645Y967996D01*
X392846Y966723D01*
X382523Y966723D01*
G37*
%LPD*%
%LPC*%
G36*
X865123Y966723D02*
X865123Y966723D01*
X865123Y977046D01*
X866396Y976845D01*
X868183Y976264D01*
X869857Y975411D01*
X871378Y974306D01*
X872706Y972978D01*
X873811Y971457D01*
X874664Y969783D01*
X875245Y967996D01*
X875446Y966723D01*
X865123Y966723D01*
G37*
%LPD*%
%LPC*%
G36*
X738123Y966723D02*
X738123Y966723D01*
X738123Y977046D01*
X739396Y976845D01*
X741183Y976264D01*
X742857Y975411D01*
X744378Y974306D01*
X745706Y972978D01*
X746811Y971457D01*
X747664Y969783D01*
X748245Y967996D01*
X748446Y966723D01*
X738123Y966723D01*
G37*
%LPD*%
%LPC*%
G36*
X382523Y280923D02*
X382523Y280923D01*
X382523Y291246D01*
X383796Y291045D01*
X385583Y290464D01*
X387257Y289611D01*
X388778Y288506D01*
X390106Y287178D01*
X391211Y285657D01*
X392064Y283983D01*
X392645Y282196D01*
X392846Y280923D01*
X382523Y280923D01*
G37*
%LPD*%
%LPC*%
G36*
X1449323Y865123D02*
X1449323Y865123D01*
X1449323Y875446D01*
X1450596Y875245D01*
X1452383Y874664D01*
X1454057Y873811D01*
X1455578Y872706D01*
X1456906Y871378D01*
X1458011Y869857D01*
X1458864Y868183D01*
X1459445Y866396D01*
X1459646Y865123D01*
X1449323Y865123D01*
G37*
%LPD*%
%LPC*%
G36*
X560323Y128523D02*
X560323Y128523D01*
X560323Y138846D01*
X561596Y138645D01*
X563383Y138064D01*
X565057Y137211D01*
X566578Y136106D01*
X567906Y134778D01*
X569011Y133257D01*
X569864Y131583D01*
X570445Y129796D01*
X570646Y128523D01*
X560323Y128523D01*
G37*
%LPD*%
%LPC*%
G36*
X1449323Y306323D02*
X1449323Y306323D01*
X1449323Y316646D01*
X1450596Y316445D01*
X1452383Y315864D01*
X1454057Y315011D01*
X1455578Y313906D01*
X1456906Y312578D01*
X1458011Y311057D01*
X1458864Y309383D01*
X1459445Y307596D01*
X1459646Y306323D01*
X1449323Y306323D01*
G37*
%LPD*%
%LPC*%
G36*
X484123Y128523D02*
X484123Y128523D01*
X484123Y138846D01*
X485396Y138645D01*
X487183Y138064D01*
X488857Y137211D01*
X490378Y136106D01*
X491706Y134778D01*
X492811Y133257D01*
X493664Y131583D01*
X494245Y129796D01*
X494446Y128523D01*
X484123Y128523D01*
G37*
%LPD*%
%LPC*%
G36*
X128523Y306323D02*
X128523Y306323D01*
X128523Y316646D01*
X129796Y316445D01*
X131583Y315864D01*
X133257Y315011D01*
X134778Y313906D01*
X136106Y312578D01*
X137211Y311057D01*
X138064Y309383D01*
X138645Y307596D01*
X138846Y306323D01*
X128523Y306323D01*
G37*
%LPD*%
%LPC*%
G36*
X534923Y128523D02*
X534923Y128523D01*
X534923Y138846D01*
X536196Y138645D01*
X537983Y138064D01*
X539657Y137211D01*
X541178Y136106D01*
X542506Y134778D01*
X543611Y133257D01*
X544464Y131583D01*
X545045Y129796D01*
X545246Y128523D01*
X534923Y128523D01*
G37*
%LPD*%
%LPC*%
G36*
X407923Y128523D02*
X407923Y128523D01*
X407923Y138846D01*
X409196Y138645D01*
X410983Y138064D01*
X412657Y137211D01*
X414178Y136106D01*
X415506Y134778D01*
X416611Y133257D01*
X417464Y131583D01*
X418045Y129796D01*
X418246Y128523D01*
X407923Y128523D01*
G37*
%LPD*%
%LPC*%
G36*
X1449323Y890523D02*
X1449323Y890523D01*
X1449323Y900846D01*
X1450596Y900645D01*
X1452383Y900064D01*
X1454057Y899211D01*
X1455578Y898106D01*
X1456906Y896778D01*
X1458011Y895257D01*
X1458864Y893583D01*
X1459445Y891796D01*
X1459646Y890523D01*
X1449323Y890523D01*
G37*
%LPD*%
%LPC*%
G36*
X509523Y128523D02*
X509523Y128523D01*
X509523Y138846D01*
X510796Y138645D01*
X512583Y138064D01*
X514257Y137211D01*
X515778Y136106D01*
X517106Y134778D01*
X518211Y133257D01*
X519064Y131583D01*
X519645Y129796D01*
X519846Y128523D01*
X509523Y128523D01*
G37*
%LPD*%
%LPC*%
G36*
X255523Y382523D02*
X255523Y382523D01*
X255523Y392846D01*
X256796Y392645D01*
X258583Y392064D01*
X260257Y391211D01*
X261778Y390106D01*
X263106Y388778D01*
X264211Y387257D01*
X265064Y385583D01*
X265645Y383796D01*
X265846Y382523D01*
X255523Y382523D01*
G37*
%LPD*%
%LPC*%
G36*
X1449323Y303277D02*
X1449323Y303277D01*
X1459646Y303277D01*
X1459445Y302004D01*
X1458864Y300217D01*
X1458011Y298543D01*
X1456906Y297022D01*
X1455578Y295694D01*
X1454057Y294589D01*
X1452383Y293736D01*
X1450596Y293155D01*
X1449323Y292954D01*
X1449323Y303277D01*
G37*
%LPD*%
%LPC*%
G36*
X851754Y966723D02*
X851754Y966723D01*
X851955Y967996D01*
X852536Y969783D01*
X853389Y971457D01*
X854494Y972978D01*
X855822Y974306D01*
X857343Y975411D01*
X859017Y976264D01*
X860804Y976845D01*
X862077Y977046D01*
X862077Y966723D01*
X851754Y966723D01*
G37*
%LPD*%
%LPC*%
G36*
X724754Y966723D02*
X724754Y966723D01*
X724955Y967996D01*
X725536Y969783D01*
X726389Y971457D01*
X727494Y972978D01*
X728822Y974306D01*
X730343Y975411D01*
X732017Y976264D01*
X733804Y976845D01*
X735077Y977046D01*
X735077Y966723D01*
X724754Y966723D01*
G37*
%LPD*%
%LPC*%
G36*
X572354Y687323D02*
X572354Y687323D01*
X572555Y688596D01*
X573136Y690383D01*
X573989Y692057D01*
X575094Y693578D01*
X576422Y694906D01*
X577943Y696011D01*
X579617Y696864D01*
X581404Y697445D01*
X582677Y697646D01*
X582677Y687323D01*
X572354Y687323D01*
G37*
%LPD*%
%LPC*%
G36*
X534923Y963677D02*
X534923Y963677D01*
X545246Y963677D01*
X545045Y962404D01*
X544464Y960617D01*
X543611Y958943D01*
X542506Y957422D01*
X541178Y956094D01*
X539657Y954989D01*
X537983Y954136D01*
X536196Y953555D01*
X534923Y953354D01*
X534923Y963677D01*
G37*
%LPD*%
%LPC*%
G36*
X1449323Y201677D02*
X1449323Y201677D01*
X1459646Y201677D01*
X1459445Y200404D01*
X1458864Y198617D01*
X1458011Y196943D01*
X1456906Y195422D01*
X1455578Y194094D01*
X1454057Y192989D01*
X1452383Y192136D01*
X1450596Y191555D01*
X1449323Y191354D01*
X1449323Y201677D01*
G37*
%LPD*%
%LPC*%
G36*
X585723Y963677D02*
X585723Y963677D01*
X596046Y963677D01*
X595845Y962404D01*
X595264Y960617D01*
X594411Y958943D01*
X593306Y957422D01*
X591978Y956094D01*
X590457Y954989D01*
X588783Y954136D01*
X586996Y953555D01*
X585723Y953354D01*
X585723Y963677D01*
G37*
%LPD*%
%LPC*%
G36*
X115154Y687323D02*
X115154Y687323D01*
X115355Y688596D01*
X115936Y690383D01*
X116789Y692057D01*
X117894Y693578D01*
X119222Y694906D01*
X120743Y696011D01*
X122417Y696864D01*
X124204Y697445D01*
X125477Y697646D01*
X125477Y687323D01*
X115154Y687323D01*
G37*
%LPD*%
%LPC*%
G36*
X611123Y963677D02*
X611123Y963677D01*
X621446Y963677D01*
X621245Y962404D01*
X620664Y960617D01*
X619811Y958943D01*
X618706Y957422D01*
X617378Y956094D01*
X615857Y954989D01*
X614183Y954136D01*
X612396Y953555D01*
X611123Y953354D01*
X611123Y963677D01*
G37*
%LPD*%
%LPC*%
G36*
X1435954Y204723D02*
X1435954Y204723D01*
X1436155Y205996D01*
X1436736Y207783D01*
X1437589Y209457D01*
X1438694Y210978D01*
X1440022Y212306D01*
X1441543Y213411D01*
X1443217Y214264D01*
X1445004Y214845D01*
X1446277Y215046D01*
X1446277Y204723D01*
X1435954Y204723D01*
G37*
%LPD*%
%LPC*%
G36*
X1435954Y179323D02*
X1435954Y179323D01*
X1436155Y180596D01*
X1436736Y182383D01*
X1437589Y184057D01*
X1438694Y185578D01*
X1440022Y186906D01*
X1441543Y188011D01*
X1443217Y188864D01*
X1445004Y189445D01*
X1446277Y189646D01*
X1446277Y179323D01*
X1435954Y179323D01*
G37*
%LPD*%
%LPC*%
G36*
X1449323Y227077D02*
X1449323Y227077D01*
X1459646Y227077D01*
X1459445Y225804D01*
X1458864Y224017D01*
X1458011Y222343D01*
X1456906Y220822D01*
X1455578Y219494D01*
X1454057Y218389D01*
X1452383Y217536D01*
X1450596Y216955D01*
X1449323Y216754D01*
X1449323Y227077D01*
G37*
%LPD*%
%LPC*%
G36*
X216754Y966723D02*
X216754Y966723D01*
X216955Y967996D01*
X217536Y969783D01*
X218389Y971457D01*
X219494Y972978D01*
X220822Y974306D01*
X222343Y975411D01*
X224017Y976264D01*
X225804Y976845D01*
X227077Y977046D01*
X227077Y966723D01*
X216754Y966723D01*
G37*
%LPD*%
%LPC*%
G36*
X865123Y963677D02*
X865123Y963677D01*
X875446Y963677D01*
X875245Y962404D01*
X874664Y960617D01*
X873811Y958943D01*
X872706Y957422D01*
X871378Y956094D01*
X869857Y954989D01*
X868183Y954136D01*
X866396Y953555D01*
X865123Y953354D01*
X865123Y963677D01*
G37*
%LPD*%
%LPC*%
G36*
X738123Y963677D02*
X738123Y963677D01*
X748446Y963677D01*
X748245Y962404D01*
X747664Y960617D01*
X746811Y958943D01*
X745706Y957422D01*
X744378Y956094D01*
X742857Y954989D01*
X741183Y954136D01*
X739396Y953555D01*
X738123Y953354D01*
X738123Y963677D01*
G37*
%LPD*%
%LPC*%
G36*
X1449323Y176277D02*
X1449323Y176277D01*
X1459646Y176277D01*
X1459445Y175004D01*
X1458864Y173217D01*
X1458011Y171543D01*
X1456906Y170022D01*
X1455578Y168694D01*
X1454057Y167589D01*
X1452383Y166736D01*
X1450596Y166155D01*
X1449323Y165954D01*
X1449323Y176277D01*
G37*
%LPD*%
%LPC*%
G36*
X153923Y963677D02*
X153923Y963677D01*
X164246Y963677D01*
X164045Y962404D01*
X163464Y960617D01*
X162611Y958943D01*
X161506Y957422D01*
X160178Y956094D01*
X158657Y954989D01*
X156983Y954136D01*
X155196Y953555D01*
X153923Y953354D01*
X153923Y963677D01*
G37*
%LPD*%
%LPC*%
G36*
X230123Y963677D02*
X230123Y963677D01*
X240446Y963677D01*
X240245Y962404D01*
X239664Y960617D01*
X238811Y958943D01*
X237706Y957422D01*
X236378Y956094D01*
X234857Y954989D01*
X233183Y954136D01*
X231396Y953555D01*
X230123Y953354D01*
X230123Y963677D01*
G37*
%LPD*%
%LPC*%
G36*
X1435954Y230123D02*
X1435954Y230123D01*
X1436155Y231396D01*
X1436736Y233183D01*
X1437589Y234857D01*
X1438694Y236378D01*
X1440022Y237706D01*
X1441543Y238811D01*
X1443217Y239664D01*
X1445004Y240245D01*
X1446277Y240446D01*
X1446277Y230123D01*
X1435954Y230123D01*
G37*
%LPD*%
%LPC*%
G36*
X128523Y684277D02*
X128523Y684277D01*
X138846Y684277D01*
X138645Y683004D01*
X138064Y681217D01*
X137211Y679543D01*
X136106Y678022D01*
X134778Y676694D01*
X133257Y675589D01*
X131583Y674736D01*
X129796Y674155D01*
X128523Y673954D01*
X128523Y684277D01*
G37*
%LPD*%
%LPC*%
G36*
X509523Y125477D02*
X509523Y125477D01*
X519846Y125477D01*
X519645Y124204D01*
X519064Y122417D01*
X518211Y120743D01*
X517106Y119222D01*
X515778Y117894D01*
X514257Y116789D01*
X512583Y115936D01*
X510796Y115355D01*
X509523Y115154D01*
X509523Y125477D01*
G37*
%LPD*%
%LPC*%
G36*
X140554Y966723D02*
X140554Y966723D01*
X140755Y967996D01*
X141336Y969783D01*
X142189Y971457D01*
X143294Y972978D01*
X144622Y974306D01*
X146143Y975411D01*
X147817Y976264D01*
X149604Y976845D01*
X150877Y977046D01*
X150877Y966723D01*
X140554Y966723D01*
G37*
%LPD*%
%LPC*%
G36*
X572354Y966723D02*
X572354Y966723D01*
X572555Y967996D01*
X573136Y969783D01*
X573989Y971457D01*
X575094Y972978D01*
X576422Y974306D01*
X577943Y975411D01*
X579617Y976264D01*
X581404Y976845D01*
X582677Y977046D01*
X582677Y966723D01*
X572354Y966723D01*
G37*
%LPD*%
%LPC*%
G36*
X242154Y382523D02*
X242154Y382523D01*
X242355Y383796D01*
X242936Y385583D01*
X243789Y387257D01*
X244894Y388778D01*
X246222Y390106D01*
X247743Y391211D01*
X249417Y392064D01*
X251204Y392645D01*
X252477Y392846D01*
X252477Y382523D01*
X242154Y382523D01*
G37*
%LPD*%
%LPC*%
G36*
X458723Y963677D02*
X458723Y963677D01*
X469046Y963677D01*
X468845Y962404D01*
X468264Y960617D01*
X467411Y958943D01*
X466306Y957422D01*
X464978Y956094D01*
X463457Y954989D01*
X461783Y954136D01*
X459996Y953555D01*
X458723Y953354D01*
X458723Y963677D01*
G37*
%LPD*%
%LPC*%
G36*
X534923Y125477D02*
X534923Y125477D01*
X545246Y125477D01*
X545045Y124204D01*
X544464Y122417D01*
X543611Y120743D01*
X542506Y119222D01*
X541178Y117894D01*
X539657Y116789D01*
X537983Y115936D01*
X536196Y115355D01*
X534923Y115154D01*
X534923Y125477D01*
G37*
%LPD*%
%LPC*%
G36*
X369154Y966723D02*
X369154Y966723D01*
X369355Y967996D01*
X369936Y969783D01*
X370789Y971457D01*
X371894Y972978D01*
X373222Y974306D01*
X374743Y975411D01*
X376417Y976264D01*
X378204Y976845D01*
X379477Y977046D01*
X379477Y966723D01*
X369154Y966723D01*
G37*
%LPD*%
%LPC*%
G36*
X255523Y379477D02*
X255523Y379477D01*
X265846Y379477D01*
X265645Y378204D01*
X265064Y376417D01*
X264211Y374743D01*
X263106Y373222D01*
X261778Y371894D01*
X260257Y370789D01*
X258583Y369936D01*
X256796Y369355D01*
X255523Y369154D01*
X255523Y379477D01*
G37*
%LPD*%
%LPC*%
G36*
X1449323Y252477D02*
X1449323Y252477D01*
X1459646Y252477D01*
X1459445Y251204D01*
X1458864Y249417D01*
X1458011Y247743D01*
X1456906Y246222D01*
X1455578Y244894D01*
X1454057Y243789D01*
X1452383Y242936D01*
X1450596Y242355D01*
X1449323Y242154D01*
X1449323Y252477D01*
G37*
%LPD*%
%LPC*%
G36*
X560323Y125477D02*
X560323Y125477D01*
X570646Y125477D01*
X570445Y124204D01*
X569864Y122417D01*
X569011Y120743D01*
X567906Y119222D01*
X566578Y117894D01*
X565057Y116789D01*
X563383Y115936D01*
X561596Y115355D01*
X560323Y115154D01*
X560323Y125477D01*
G37*
%LPD*%
%LPC*%
G36*
X585723Y684277D02*
X585723Y684277D01*
X596046Y684277D01*
X595845Y683004D01*
X595264Y681217D01*
X594411Y679543D01*
X593306Y678022D01*
X591978Y676694D01*
X590457Y675589D01*
X588783Y674736D01*
X586996Y674155D01*
X585723Y673954D01*
X585723Y684277D01*
G37*
%LPD*%
%LPC*%
G36*
X1449323Y862077D02*
X1449323Y862077D01*
X1459646Y862077D01*
X1459445Y860804D01*
X1458864Y859017D01*
X1458011Y857343D01*
X1456906Y855822D01*
X1455578Y854494D01*
X1454057Y853389D01*
X1452383Y852536D01*
X1450596Y851955D01*
X1449323Y851754D01*
X1449323Y862077D01*
G37*
%LPD*%
%LPC*%
G36*
X407923Y125477D02*
X407923Y125477D01*
X418246Y125477D01*
X418045Y124204D01*
X417464Y122417D01*
X416611Y120743D01*
X415506Y119222D01*
X414178Y117894D01*
X412657Y116789D01*
X410983Y115936D01*
X409196Y115355D01*
X407923Y115154D01*
X407923Y125477D01*
G37*
%LPD*%
%LPC*%
G36*
X1435954Y255523D02*
X1435954Y255523D01*
X1436155Y256796D01*
X1436736Y258583D01*
X1437589Y260257D01*
X1438694Y261778D01*
X1440022Y263106D01*
X1441543Y264211D01*
X1443217Y265064D01*
X1445004Y265645D01*
X1446277Y265846D01*
X1446277Y255523D01*
X1435954Y255523D01*
G37*
%LPD*%
%LPC*%
G36*
X484123Y125477D02*
X484123Y125477D01*
X494446Y125477D01*
X494245Y124204D01*
X493664Y122417D01*
X492811Y120743D01*
X491706Y119222D01*
X490378Y117894D01*
X488857Y116789D01*
X487183Y115936D01*
X485396Y115355D01*
X484123Y115154D01*
X484123Y125477D01*
G37*
%LPD*%
%LPC*%
G36*
X470754Y128523D02*
X470754Y128523D01*
X470955Y129796D01*
X471536Y131583D01*
X472389Y133257D01*
X473494Y134778D01*
X474822Y136106D01*
X476343Y137211D01*
X478017Y138064D01*
X479804Y138645D01*
X481077Y138846D01*
X481077Y128523D01*
X470754Y128523D01*
G37*
%LPD*%
%LPC*%
G36*
X1435954Y306323D02*
X1435954Y306323D01*
X1436155Y307596D01*
X1436736Y309383D01*
X1437589Y311057D01*
X1438694Y312578D01*
X1440022Y313906D01*
X1441543Y315011D01*
X1443217Y315864D01*
X1445004Y316445D01*
X1446277Y316646D01*
X1446277Y306323D01*
X1435954Y306323D01*
G37*
%LPD*%
%LPC*%
G36*
X419954Y966723D02*
X419954Y966723D01*
X420155Y967996D01*
X420736Y969783D01*
X421589Y971457D01*
X422694Y972978D01*
X424022Y974306D01*
X425543Y975411D01*
X427217Y976264D01*
X429004Y976845D01*
X430277Y977046D01*
X430277Y966723D01*
X419954Y966723D01*
G37*
%LPD*%
%LPC*%
G36*
X433323Y963677D02*
X433323Y963677D01*
X443646Y963677D01*
X443445Y962404D01*
X442864Y960617D01*
X442011Y958943D01*
X440906Y957422D01*
X439578Y956094D01*
X438057Y954989D01*
X436383Y954136D01*
X434596Y953555D01*
X433323Y953354D01*
X433323Y963677D01*
G37*
%LPD*%
%LPC*%
G36*
X496154Y128523D02*
X496154Y128523D01*
X496355Y129796D01*
X496936Y131583D01*
X497789Y133257D01*
X498894Y134778D01*
X500222Y136106D01*
X501743Y137211D01*
X503417Y138064D01*
X505204Y138645D01*
X506477Y138846D01*
X506477Y128523D01*
X496154Y128523D01*
G37*
%LPD*%
%LPC*%
G36*
X382523Y963677D02*
X382523Y963677D01*
X392846Y963677D01*
X392645Y962404D01*
X392064Y960617D01*
X391211Y958943D01*
X390106Y957422D01*
X388778Y956094D01*
X387257Y954989D01*
X385583Y954136D01*
X383796Y953555D01*
X382523Y953354D01*
X382523Y963677D01*
G37*
%LPD*%
%LPC*%
G36*
X521554Y966723D02*
X521554Y966723D01*
X521755Y967996D01*
X522336Y969783D01*
X523189Y971457D01*
X524294Y972978D01*
X525622Y974306D01*
X527143Y975411D01*
X528817Y976264D01*
X530604Y976845D01*
X531877Y977046D01*
X531877Y966723D01*
X521554Y966723D01*
G37*
%LPD*%
%LPC*%
G36*
X128523Y303277D02*
X128523Y303277D01*
X138846Y303277D01*
X138645Y302004D01*
X138064Y300217D01*
X137211Y298543D01*
X136106Y297022D01*
X134778Y295694D01*
X133257Y294589D01*
X131583Y293736D01*
X129796Y293155D01*
X128523Y292954D01*
X128523Y303277D01*
G37*
%LPD*%
%LPC*%
G36*
X546954Y128523D02*
X546954Y128523D01*
X547155Y129796D01*
X547736Y131583D01*
X548589Y133257D01*
X549694Y134778D01*
X551022Y136106D01*
X552543Y137211D01*
X554217Y138064D01*
X556004Y138645D01*
X557277Y138846D01*
X557277Y128523D01*
X546954Y128523D01*
G37*
%LPD*%
%LPC*%
G36*
X1435954Y890523D02*
X1435954Y890523D01*
X1436155Y891796D01*
X1436736Y893583D01*
X1437589Y895257D01*
X1438694Y896778D01*
X1440022Y898106D01*
X1441543Y899211D01*
X1443217Y900064D01*
X1445004Y900645D01*
X1446277Y900846D01*
X1446277Y890523D01*
X1435954Y890523D01*
G37*
%LPD*%
%LPC*%
G36*
X1449323Y887477D02*
X1449323Y887477D01*
X1459646Y887477D01*
X1459445Y886204D01*
X1458864Y884417D01*
X1458011Y882743D01*
X1456906Y881222D01*
X1455578Y879894D01*
X1454057Y878789D01*
X1452383Y877936D01*
X1450596Y877355D01*
X1449323Y877154D01*
X1449323Y887477D01*
G37*
%LPD*%
%LPC*%
G36*
X1435954Y280923D02*
X1435954Y280923D01*
X1436155Y282196D01*
X1436736Y283983D01*
X1437589Y285657D01*
X1438694Y287178D01*
X1440022Y288506D01*
X1441543Y289611D01*
X1443217Y290464D01*
X1445004Y291045D01*
X1446277Y291246D01*
X1446277Y280923D01*
X1435954Y280923D01*
G37*
%LPD*%
%LPC*%
G36*
X369154Y280923D02*
X369154Y280923D01*
X369355Y282196D01*
X369936Y283983D01*
X370789Y285657D01*
X371894Y287178D01*
X373222Y288506D01*
X374743Y289611D01*
X376417Y290464D01*
X378204Y291045D01*
X379477Y291246D01*
X379477Y280923D01*
X369154Y280923D01*
G37*
%LPD*%
%LPC*%
G36*
X1435954Y865123D02*
X1435954Y865123D01*
X1436155Y866396D01*
X1436736Y868183D01*
X1437589Y869857D01*
X1438694Y871378D01*
X1440022Y872706D01*
X1441543Y873811D01*
X1443217Y874664D01*
X1445004Y875245D01*
X1446277Y875446D01*
X1446277Y865123D01*
X1435954Y865123D01*
G37*
%LPD*%
%LPC*%
G36*
X394554Y128523D02*
X394554Y128523D01*
X394755Y129796D01*
X395336Y131583D01*
X396189Y133257D01*
X397294Y134778D01*
X398622Y136106D01*
X400143Y137211D01*
X401817Y138064D01*
X403604Y138645D01*
X404877Y138846D01*
X404877Y128523D01*
X394554Y128523D01*
G37*
%LPD*%
%LPC*%
G36*
X382523Y277877D02*
X382523Y277877D01*
X392846Y277877D01*
X392645Y276604D01*
X392064Y274817D01*
X391211Y273143D01*
X390106Y271622D01*
X388778Y270294D01*
X387257Y269189D01*
X385583Y268336D01*
X383796Y267755D01*
X382523Y267554D01*
X382523Y277877D01*
G37*
%LPD*%
%LPC*%
G36*
X521554Y128523D02*
X521554Y128523D01*
X521755Y129796D01*
X522336Y131583D01*
X523189Y133257D01*
X524294Y134778D01*
X525622Y136106D01*
X527143Y137211D01*
X528817Y138064D01*
X530604Y138645D01*
X531877Y138846D01*
X531877Y128523D01*
X521554Y128523D01*
G37*
%LPD*%
%LPC*%
G36*
X597754Y966723D02*
X597754Y966723D01*
X597955Y967996D01*
X598536Y969783D01*
X599389Y971457D01*
X600494Y972978D01*
X601822Y974306D01*
X603343Y975411D01*
X605017Y976264D01*
X606804Y976845D01*
X608077Y977046D01*
X608077Y966723D01*
X597754Y966723D01*
G37*
%LPD*%
%LPC*%
G36*
X445354Y966723D02*
X445354Y966723D01*
X445555Y967996D01*
X446136Y969783D01*
X446989Y971457D01*
X448094Y972978D01*
X449422Y974306D01*
X450943Y975411D01*
X452617Y976264D01*
X454404Y976845D01*
X455677Y977046D01*
X455677Y966723D01*
X445354Y966723D01*
G37*
%LPD*%
%LPC*%
G36*
X1449323Y277877D02*
X1449323Y277877D01*
X1459646Y277877D01*
X1459445Y276604D01*
X1458864Y274817D01*
X1458011Y273143D01*
X1456906Y271622D01*
X1455578Y270294D01*
X1454057Y269189D01*
X1452383Y268336D01*
X1450596Y267755D01*
X1449323Y267554D01*
X1449323Y277877D01*
G37*
%LPD*%
%LPC*%
G36*
X1445004Y267755D02*
X1445004Y267755D01*
X1443217Y268336D01*
X1441543Y269189D01*
X1440022Y270294D01*
X1438694Y271622D01*
X1437589Y273143D01*
X1436736Y274817D01*
X1436155Y276604D01*
X1435954Y277877D01*
X1446277Y277877D01*
X1446277Y267554D01*
X1445004Y267755D01*
G37*
%LPD*%
%LPC*%
G36*
X1445004Y877355D02*
X1445004Y877355D01*
X1443217Y877936D01*
X1441543Y878789D01*
X1440022Y879894D01*
X1438694Y881222D01*
X1437589Y882743D01*
X1436736Y884417D01*
X1436155Y886204D01*
X1435954Y887477D01*
X1446277Y887477D01*
X1446277Y877154D01*
X1445004Y877355D01*
G37*
%LPD*%
%LPC*%
G36*
X378204Y267755D02*
X378204Y267755D01*
X376417Y268336D01*
X374743Y269189D01*
X373222Y270294D01*
X371894Y271622D01*
X370789Y273143D01*
X369936Y274817D01*
X369355Y276604D01*
X369154Y277877D01*
X379477Y277877D01*
X379477Y267554D01*
X378204Y267755D01*
G37*
%LPD*%
%LPC*%
G36*
X429004Y953555D02*
X429004Y953555D01*
X427217Y954136D01*
X425543Y954989D01*
X424022Y956094D01*
X422694Y957422D01*
X421589Y958943D01*
X420736Y960617D01*
X420155Y962404D01*
X419954Y963677D01*
X430277Y963677D01*
X430277Y953354D01*
X429004Y953555D01*
G37*
%LPD*%
%LPC*%
G36*
X1445004Y293155D02*
X1445004Y293155D01*
X1443217Y293736D01*
X1441543Y294589D01*
X1440022Y295694D01*
X1438694Y297022D01*
X1437589Y298543D01*
X1436736Y300217D01*
X1436155Y302004D01*
X1435954Y303277D01*
X1446277Y303277D01*
X1446277Y292954D01*
X1445004Y293155D01*
G37*
%LPD*%
%LPC*%
G36*
X530604Y953555D02*
X530604Y953555D01*
X528817Y954136D01*
X527143Y954989D01*
X525622Y956094D01*
X524294Y957422D01*
X523189Y958943D01*
X522336Y960617D01*
X521755Y962404D01*
X521554Y963677D01*
X531877Y963677D01*
X531877Y953354D01*
X530604Y953555D01*
G37*
%LPD*%
%LPC*%
G36*
X479804Y115355D02*
X479804Y115355D01*
X478017Y115936D01*
X476343Y116789D01*
X474822Y117894D01*
X473494Y119222D01*
X472389Y120743D01*
X471536Y122417D01*
X470955Y124204D01*
X470754Y125477D01*
X481077Y125477D01*
X481077Y115154D01*
X479804Y115355D01*
G37*
%LPD*%
%LPC*%
G36*
X403604Y115355D02*
X403604Y115355D01*
X401817Y115936D01*
X400143Y116789D01*
X398622Y117894D01*
X397294Y119222D01*
X396189Y120743D01*
X395336Y122417D01*
X394755Y124204D01*
X394554Y125477D01*
X404877Y125477D01*
X404877Y115154D01*
X403604Y115355D01*
G37*
%LPD*%
%LPC*%
G36*
X1445004Y191555D02*
X1445004Y191555D01*
X1443217Y192136D01*
X1441543Y192989D01*
X1440022Y194094D01*
X1438694Y195422D01*
X1437589Y196943D01*
X1436736Y198617D01*
X1436155Y200404D01*
X1435954Y201677D01*
X1446277Y201677D01*
X1446277Y191354D01*
X1445004Y191555D01*
G37*
%LPD*%
%LPC*%
G36*
X454404Y953555D02*
X454404Y953555D01*
X452617Y954136D01*
X450943Y954989D01*
X449422Y956094D01*
X448094Y957422D01*
X446989Y958943D01*
X446136Y960617D01*
X445555Y962404D01*
X445354Y963677D01*
X455677Y963677D01*
X455677Y953354D01*
X454404Y953555D01*
G37*
%LPD*%
%LPC*%
G36*
X1445004Y166155D02*
X1445004Y166155D01*
X1443217Y166736D01*
X1441543Y167589D01*
X1440022Y168694D01*
X1438694Y170022D01*
X1437589Y171543D01*
X1436736Y173217D01*
X1436155Y175004D01*
X1435954Y176277D01*
X1446277Y176277D01*
X1446277Y165954D01*
X1445004Y166155D01*
G37*
%LPD*%
%LPC*%
G36*
X556004Y115355D02*
X556004Y115355D01*
X554217Y115936D01*
X552543Y116789D01*
X551022Y117894D01*
X549694Y119222D01*
X548589Y120743D01*
X547736Y122417D01*
X547155Y124204D01*
X546954Y125477D01*
X557277Y125477D01*
X557277Y115154D01*
X556004Y115355D01*
G37*
%LPD*%
%LPC*%
G36*
X1445004Y242355D02*
X1445004Y242355D01*
X1443217Y242936D01*
X1441543Y243789D01*
X1440022Y244894D01*
X1438694Y246222D01*
X1437589Y247743D01*
X1436736Y249417D01*
X1436155Y251204D01*
X1435954Y252477D01*
X1446277Y252477D01*
X1446277Y242154D01*
X1445004Y242355D01*
G37*
%LPD*%
%LPC*%
G36*
X251204Y369355D02*
X251204Y369355D01*
X249417Y369936D01*
X247743Y370789D01*
X246222Y371894D01*
X244894Y373222D01*
X243789Y374743D01*
X242936Y376417D01*
X242355Y378204D01*
X242154Y379477D01*
X252477Y379477D01*
X252477Y369154D01*
X251204Y369355D01*
G37*
%LPD*%
%LPC*%
G36*
X581404Y953555D02*
X581404Y953555D01*
X579617Y954136D01*
X577943Y954989D01*
X576422Y956094D01*
X575094Y957422D01*
X573989Y958943D01*
X573136Y960617D01*
X572555Y962404D01*
X572354Y963677D01*
X582677Y963677D01*
X582677Y953354D01*
X581404Y953555D01*
G37*
%LPD*%
%LPC*%
G36*
X530604Y115355D02*
X530604Y115355D01*
X528817Y115936D01*
X527143Y116789D01*
X525622Y117894D01*
X524294Y119222D01*
X523189Y120743D01*
X522336Y122417D01*
X521755Y124204D01*
X521554Y125477D01*
X531877Y125477D01*
X531877Y115154D01*
X530604Y115355D01*
G37*
%LPD*%
%LPC*%
G36*
X581404Y674155D02*
X581404Y674155D01*
X579617Y674736D01*
X577943Y675589D01*
X576422Y676694D01*
X575094Y678022D01*
X573989Y679543D01*
X573136Y681217D01*
X572555Y683004D01*
X572354Y684277D01*
X582677Y684277D01*
X582677Y673954D01*
X581404Y674155D01*
G37*
%LPD*%
%LPC*%
G36*
X505204Y115355D02*
X505204Y115355D01*
X503417Y115936D01*
X501743Y116789D01*
X500222Y117894D01*
X498894Y119222D01*
X497789Y120743D01*
X496936Y122417D01*
X496355Y124204D01*
X496154Y125477D01*
X506477Y125477D01*
X506477Y115154D01*
X505204Y115355D01*
G37*
%LPD*%
%LPC*%
G36*
X378204Y953555D02*
X378204Y953555D01*
X376417Y954136D01*
X374743Y954989D01*
X373222Y956094D01*
X371894Y957422D01*
X370789Y958943D01*
X369936Y960617D01*
X369355Y962404D01*
X369154Y963677D01*
X379477Y963677D01*
X379477Y953354D01*
X378204Y953555D01*
G37*
%LPD*%
%LPC*%
G36*
X149604Y953555D02*
X149604Y953555D01*
X147817Y954136D01*
X146143Y954989D01*
X144622Y956094D01*
X143294Y957422D01*
X142189Y958943D01*
X141336Y960617D01*
X140755Y962404D01*
X140554Y963677D01*
X150877Y963677D01*
X150877Y953354D01*
X149604Y953555D01*
G37*
%LPD*%
%LPC*%
G36*
X1445004Y216955D02*
X1445004Y216955D01*
X1443217Y217536D01*
X1441543Y218389D01*
X1440022Y219494D01*
X1438694Y220822D01*
X1437589Y222343D01*
X1436736Y224017D01*
X1436155Y225804D01*
X1435954Y227077D01*
X1446277Y227077D01*
X1446277Y216754D01*
X1445004Y216955D01*
G37*
%LPD*%
%LPC*%
G36*
X860804Y953555D02*
X860804Y953555D01*
X859017Y954136D01*
X857343Y954989D01*
X855822Y956094D01*
X854494Y957422D01*
X853389Y958943D01*
X852536Y960617D01*
X851955Y962404D01*
X851754Y963677D01*
X862077Y963677D01*
X862077Y953354D01*
X860804Y953555D01*
G37*
%LPD*%
%LPC*%
G36*
X124204Y674155D02*
X124204Y674155D01*
X122417Y674736D01*
X120743Y675589D01*
X119222Y676694D01*
X117894Y678022D01*
X116789Y679543D01*
X115936Y681217D01*
X115355Y683004D01*
X115154Y684277D01*
X125477Y684277D01*
X125477Y673954D01*
X124204Y674155D01*
G37*
%LPD*%
%LPC*%
G36*
X225804Y953555D02*
X225804Y953555D01*
X224017Y954136D01*
X222343Y954989D01*
X220822Y956094D01*
X219494Y957422D01*
X218389Y958943D01*
X217536Y960617D01*
X216955Y962404D01*
X216754Y963677D01*
X227077Y963677D01*
X227077Y953354D01*
X225804Y953555D01*
G37*
%LPD*%
%LPC*%
G36*
X1445004Y851955D02*
X1445004Y851955D01*
X1443217Y852536D01*
X1441543Y853389D01*
X1440022Y854494D01*
X1438694Y855822D01*
X1437589Y857343D01*
X1436736Y859017D01*
X1436155Y860804D01*
X1435954Y862077D01*
X1446277Y862077D01*
X1446277Y851754D01*
X1445004Y851955D01*
G37*
%LPD*%
%LPC*%
G36*
X733804Y953555D02*
X733804Y953555D01*
X732017Y954136D01*
X730343Y954989D01*
X728822Y956094D01*
X727494Y957422D01*
X726389Y958943D01*
X725536Y960617D01*
X724955Y962404D01*
X724754Y963677D01*
X735077Y963677D01*
X735077Y953354D01*
X733804Y953555D01*
G37*
%LPD*%
%LPC*%
G36*
X606804Y953555D02*
X606804Y953555D01*
X605017Y954136D01*
X603343Y954989D01*
X601822Y956094D01*
X600494Y957422D01*
X599389Y958943D01*
X598536Y960617D01*
X597955Y962404D01*
X597754Y963677D01*
X608077Y963677D01*
X608077Y953354D01*
X606804Y953555D01*
G37*
%LPD*%
%LPC*%
G36*
X712723Y458723D02*
X712723Y458723D01*
X712723Y468123D01*
X715724Y468123D01*
X722123Y461724D01*
X722123Y458723D01*
X712723Y458723D01*
G37*
%LPD*%
%LPC*%
G36*
X1195323Y626363D02*
X1195323Y626363D01*
X1195323Y635763D01*
X1198324Y635763D01*
X1204723Y629364D01*
X1204723Y626363D01*
X1195323Y626363D01*
G37*
%LPD*%
%LPC*%
G36*
X712723Y484123D02*
X712723Y484123D01*
X712723Y493523D01*
X715724Y493523D01*
X722123Y487124D01*
X722123Y484123D01*
X712723Y484123D01*
G37*
%LPD*%
%LPC*%
G36*
X1182877Y626363D02*
X1182877Y626363D01*
X1182877Y629364D01*
X1189276Y635763D01*
X1192277Y635763D01*
X1192277Y626363D01*
X1182877Y626363D01*
G37*
%LPD*%
%LPC*%
G36*
X712723Y446277D02*
X712723Y446277D01*
X712723Y455677D01*
X722123Y455677D01*
X722123Y452676D01*
X715724Y446277D01*
X712723Y446277D01*
G37*
%LPD*%
%LPC*%
G36*
X712723Y471677D02*
X712723Y471677D01*
X712723Y481077D01*
X722123Y481077D01*
X722123Y478076D01*
X715724Y471677D01*
X712723Y471677D01*
G37*
%LPD*%
%LPC*%
G36*
X700277Y458723D02*
X700277Y458723D01*
X700277Y461724D01*
X706676Y468123D01*
X709677Y468123D01*
X709677Y458723D01*
X700277Y458723D01*
G37*
%LPD*%
%LPC*%
G36*
X700277Y484123D02*
X700277Y484123D01*
X700277Y487124D01*
X706676Y493523D01*
X709677Y493523D01*
X709677Y484123D01*
X700277Y484123D01*
G37*
%LPD*%
%LPC*%
G36*
X1195323Y613917D02*
X1195323Y613917D01*
X1195323Y623317D01*
X1204723Y623317D01*
X1204723Y620316D01*
X1198324Y613917D01*
X1195323Y613917D01*
G37*
%LPD*%
%LPC*%
G36*
X1189276Y613917D02*
X1189276Y613917D01*
X1182877Y620316D01*
X1182877Y623317D01*
X1192277Y623317D01*
X1192277Y613917D01*
X1189276Y613917D01*
G37*
%LPD*%
%LPC*%
G36*
X706676Y471677D02*
X706676Y471677D01*
X700277Y478076D01*
X700277Y481077D01*
X709677Y481077D01*
X709677Y471677D01*
X706676Y471677D01*
G37*
%LPD*%
%LPC*%
G36*
X228599Y965199D02*
X228599Y965199D01*
X228599Y965201D01*
X228601Y965201D01*
X228601Y965199D01*
X228599Y965199D01*
G37*
%LPD*%
%LPC*%
G36*
X1447799Y279399D02*
X1447799Y279399D01*
X1447799Y279401D01*
X1447801Y279401D01*
X1447801Y279399D01*
X1447799Y279399D01*
G37*
%LPD*%
%LPC*%
G36*
X380999Y279399D02*
X380999Y279399D01*
X380999Y279401D01*
X381001Y279401D01*
X381001Y279399D01*
X380999Y279399D01*
G37*
%LPD*%
%LPC*%
G36*
X1193799Y624839D02*
X1193799Y624839D01*
X1193799Y624841D01*
X1193801Y624841D01*
X1193801Y624839D01*
X1193799Y624839D01*
G37*
%LPD*%
%LPC*%
G36*
X1447799Y863599D02*
X1447799Y863599D01*
X1447799Y863601D01*
X1447801Y863601D01*
X1447801Y863599D01*
X1447799Y863599D01*
G37*
%LPD*%
%LPC*%
G36*
X1447799Y203199D02*
X1447799Y203199D01*
X1447799Y203201D01*
X1447801Y203201D01*
X1447801Y203199D01*
X1447799Y203199D01*
G37*
%LPD*%
%LPC*%
G36*
X533399Y965199D02*
X533399Y965199D01*
X533399Y965201D01*
X533401Y965201D01*
X533401Y965199D01*
X533399Y965199D01*
G37*
%LPD*%
%LPC*%
G36*
X1447799Y888999D02*
X1447799Y888999D01*
X1447799Y889001D01*
X1447801Y889001D01*
X1447801Y888999D01*
X1447799Y888999D01*
G37*
%LPD*%
%LPC*%
G36*
X457199Y965199D02*
X457199Y965199D01*
X457199Y965201D01*
X457201Y965201D01*
X457201Y965199D01*
X457199Y965199D01*
G37*
%LPD*%
%LPC*%
G36*
X609599Y965199D02*
X609599Y965199D01*
X609599Y965201D01*
X609601Y965201D01*
X609601Y965199D01*
X609599Y965199D01*
G37*
%LPD*%
%LPC*%
G36*
X1447799Y253999D02*
X1447799Y253999D01*
X1447799Y254001D01*
X1447801Y254001D01*
X1447801Y253999D01*
X1447799Y253999D01*
G37*
%LPD*%
%LPC*%
G36*
X1447799Y304799D02*
X1447799Y304799D01*
X1447799Y304801D01*
X1447801Y304801D01*
X1447801Y304799D01*
X1447799Y304799D01*
G37*
%LPD*%
%LPC*%
G36*
X1447799Y228599D02*
X1447799Y228599D01*
X1447799Y228601D01*
X1447801Y228601D01*
X1447801Y228599D01*
X1447799Y228599D01*
G37*
%LPD*%
%LPC*%
G36*
X558799Y126999D02*
X558799Y126999D01*
X558799Y127001D01*
X558801Y127001D01*
X558801Y126999D01*
X558799Y126999D01*
G37*
%LPD*%
%LPC*%
G36*
X533399Y126999D02*
X533399Y126999D01*
X533399Y127001D01*
X533401Y127001D01*
X533401Y126999D01*
X533399Y126999D01*
G37*
%LPD*%
%LPC*%
G36*
X507999Y126999D02*
X507999Y126999D01*
X507999Y127001D01*
X508001Y127001D01*
X508001Y126999D01*
X507999Y126999D01*
G37*
%LPD*%
%LPC*%
G36*
X482599Y126999D02*
X482599Y126999D01*
X482599Y127001D01*
X482601Y127001D01*
X482601Y126999D01*
X482599Y126999D01*
G37*
%LPD*%
%LPC*%
G36*
X406399Y126999D02*
X406399Y126999D01*
X406399Y127001D01*
X406401Y127001D01*
X406401Y126999D01*
X406399Y126999D01*
G37*
%LPD*%
%LPC*%
G36*
X711199Y482599D02*
X711199Y482599D01*
X711199Y482601D01*
X711201Y482601D01*
X711201Y482599D01*
X711199Y482599D01*
G37*
%LPD*%
%LPC*%
G36*
X431799Y965199D02*
X431799Y965199D01*
X431799Y965201D01*
X431801Y965201D01*
X431801Y965199D01*
X431799Y965199D01*
G37*
%LPD*%
%LPC*%
G36*
X1447799Y177799D02*
X1447799Y177799D01*
X1447799Y177801D01*
X1447801Y177801D01*
X1447801Y177799D01*
X1447799Y177799D01*
G37*
%LPD*%
%LPC*%
G36*
X584199Y685799D02*
X584199Y685799D01*
X584199Y685801D01*
X584201Y685801D01*
X584201Y685799D01*
X584199Y685799D01*
G37*
%LPD*%
%LPC*%
G36*
X736599Y965199D02*
X736599Y965199D01*
X736599Y965201D01*
X736601Y965201D01*
X736601Y965199D01*
X736599Y965199D01*
G37*
%LPD*%
%LPC*%
G36*
X152399Y965199D02*
X152399Y965199D01*
X152399Y965201D01*
X152401Y965201D01*
X152401Y965199D01*
X152399Y965199D01*
G37*
%LPD*%
%LPC*%
G36*
X253999Y380999D02*
X253999Y380999D01*
X253999Y381001D01*
X254001Y381001D01*
X254001Y380999D01*
X253999Y380999D01*
G37*
%LPD*%
%LPC*%
G36*
X863599Y965199D02*
X863599Y965199D01*
X863599Y965201D01*
X863601Y965201D01*
X863601Y965199D01*
X863599Y965199D01*
G37*
%LPD*%
%LPC*%
G36*
X380999Y965199D02*
X380999Y965199D01*
X380999Y965201D01*
X381001Y965201D01*
X381001Y965199D01*
X380999Y965199D01*
G37*
%LPD*%
%LPC*%
G36*
X584199Y965199D02*
X584199Y965199D01*
X584199Y965201D01*
X584201Y965201D01*
X584201Y965199D01*
X584199Y965199D01*
G37*
%LPD*%
%LPC*%
G36*
X126999Y685799D02*
X126999Y685799D01*
X126999Y685801D01*
X127001Y685801D01*
X127001Y685799D01*
X126999Y685799D01*
G37*
%LPD*%
%LPC*%
G36*
X711199Y457199D02*
X711199Y457199D01*
X711199Y457201D01*
X711201Y457201D01*
X711201Y457199D01*
X711199Y457199D01*
G37*
%LPD*%
D10*
X127000Y127000D03*
X152400Y127000D03*
X177800Y127000D03*
X203200Y127000D03*
X127000Y965200D03*
X152400Y965200D03*
X482600Y127000D03*
X508000Y127000D03*
X533400Y127000D03*
X558800Y127000D03*
X228600Y965200D03*
X254000Y965200D03*
X279400Y965200D03*
D11*
X1193800Y355600D03*
X711200Y381000D03*
X1193800Y330200D03*
X1193800Y304800D03*
X1193800Y279400D03*
X1193800Y254000D03*
X1193800Y381000D03*
X1193800Y406400D03*
X1193800Y431800D03*
X1193800Y472440D03*
X1193800Y497840D03*
X1193800Y523240D03*
X1193800Y548640D03*
X1193800Y574040D03*
X1193800Y599440D03*
X1193800Y624840D03*
X1193800Y650240D03*
X711200Y355600D03*
X711200Y330200D03*
X711200Y304800D03*
X711200Y279400D03*
X711200Y254000D03*
X711200Y431800D03*
X711200Y457200D03*
X711200Y482600D03*
X711200Y508000D03*
X711200Y533400D03*
X711200Y558800D03*
X1193800Y675640D03*
X1193800Y701040D03*
X711200Y584200D03*
X711200Y609600D03*
D10*
X381000Y203200D03*
X355600Y203200D03*
X381000Y228600D03*
X355600Y228600D03*
X381000Y254000D03*
X355600Y254000D03*
X381000Y279400D03*
X355600Y279400D03*
X203200Y279400D03*
X228600Y279400D03*
X254000Y279400D03*
X127000Y889000D03*
X584200Y889000D03*
X127000Y685800D03*
X584200Y685800D03*
X406400Y127000D03*
X381000Y127000D03*
X355600Y127000D03*
X330200Y127000D03*
X304800Y127000D03*
X279400Y127000D03*
X1295400Y177800D03*
X1295400Y203200D03*
X1295400Y228600D03*
X1295400Y254000D03*
X1295400Y279400D03*
X1295400Y304800D03*
X1447800Y177800D03*
X1447800Y203200D03*
X1447800Y228600D03*
X1447800Y254000D03*
X1447800Y279400D03*
X1447800Y304800D03*
X127000Y330200D03*
X127000Y304800D03*
X127000Y279400D03*
X127000Y254000D03*
X127000Y228600D03*
X127000Y203200D03*
X127000Y177800D03*
X203200Y203200D03*
X228600Y203200D03*
X279400Y584200D03*
X304800Y584200D03*
X330200Y584200D03*
X355600Y584200D03*
X381000Y584200D03*
X406400Y584200D03*
X431800Y584200D03*
X457200Y584200D03*
X482600Y584200D03*
X508000Y584200D03*
X533400Y584200D03*
X558800Y584200D03*
X177800Y381000D03*
X203200Y381000D03*
X228600Y381000D03*
X254000Y381000D03*
X279400Y381000D03*
X304800Y381000D03*
X330200Y381000D03*
X355600Y381000D03*
X381000Y381000D03*
X406400Y381000D03*
X431800Y381000D03*
X457200Y381000D03*
X482600Y381000D03*
X508000Y381000D03*
X533400Y381000D03*
X558800Y381000D03*
X685800Y965200D03*
X711200Y965200D03*
X736600Y965200D03*
X812800Y965200D03*
X838200Y965200D03*
X863600Y965200D03*
X939800Y965200D03*
X965200Y965200D03*
X381000Y965200D03*
X406400Y965200D03*
X431800Y965200D03*
X457200Y965200D03*
X533400Y965200D03*
X558800Y965200D03*
X584200Y965200D03*
X609600Y965200D03*
X1295400Y863600D03*
X1295400Y889000D03*
X1447800Y863600D03*
X1447800Y889000D03*
X1295400Y355600D03*
X1295400Y381000D03*
X1295400Y406400D03*
X1295400Y431800D03*
X1295400Y457200D03*
X1295400Y482600D03*
X1447800Y355600D03*
X1447800Y381000D03*
X1447800Y406400D03*
X1447800Y431800D03*
X1447800Y457200D03*
X1447800Y482600D03*
D12*
X275000Y130000D02*
X255000Y150000D01*
X230000Y150000D01*
X150000Y230000D01*
X150000Y320000D01*
X145000Y320000D01*
X135000Y330000D01*
X130000Y330000D01*
X275000Y130000D02*
X279400Y127000D01*
X130000Y330000D02*
X127000Y330200D01*
X255000Y970000D02*
X270000Y985000D01*
X390000Y985000D01*
X405000Y970000D01*
X255000Y970000D02*
X254000Y965200D01*
X405000Y970000D02*
X406400Y965200D01*
X540000Y985000D02*
X555000Y970000D01*
X540000Y985000D02*
X390000Y985000D01*
X555000Y970000D02*
X558800Y965200D01*
X670000Y985000D02*
X685000Y970000D01*
X670000Y985000D02*
X540000Y985000D01*
X685000Y970000D02*
X685800Y965200D01*
X1215000Y385000D02*
X1295000Y305000D01*
X1215000Y385000D02*
X1215000Y450000D01*
X775000Y450000D01*
X720000Y505000D01*
X715000Y505000D01*
X1295000Y305000D02*
X1295400Y304800D01*
X715000Y505000D02*
X711200Y508000D01*
D13*
X1280000Y845000D02*
X1295000Y860000D01*
X1280000Y845000D02*
X170000Y845000D01*
X150000Y865000D02*
X130000Y885000D01*
X150000Y865000D02*
X170000Y845000D01*
X1295000Y860000D02*
X1295400Y863600D01*
X130000Y885000D02*
X127000Y889000D01*
X85000Y170000D02*
X125000Y130000D01*
X85000Y170000D02*
X85000Y860000D01*
X145000Y860000D01*
X125000Y130000D02*
X127000Y127000D01*
X145000Y860000D02*
X150000Y865000D01*
D12*
X500000Y280000D02*
X380000Y160000D01*
X245000Y160000D01*
X205000Y200000D01*
X203200Y203200D01*
D14*
X500000Y280000D03*
D12*
X260000Y170000D02*
X230000Y200000D01*
X228600Y203200D01*
D14*
X260000Y170000D03*
D12*
X725000Y945000D02*
X1045000Y945000D01*
X725000Y945000D02*
X715000Y955000D01*
X715000Y965000D01*
X711200Y965200D01*
D14*
X1045000Y945000D03*
D12*
X990000Y985000D02*
X855000Y985000D01*
X840000Y970000D01*
X838200Y965200D01*
D14*
X990000Y985000D03*
D12*
X1180000Y395000D02*
X1190000Y385000D01*
X1180000Y395000D02*
X725000Y395000D01*
X720000Y400000D01*
X550000Y400000D01*
X535000Y385000D01*
X1190000Y385000D02*
X1193800Y381000D01*
X535000Y385000D02*
X533400Y381000D01*
X355000Y360000D02*
X355000Y280000D01*
X355000Y360000D02*
X520000Y360000D01*
X530000Y370000D01*
X530000Y380000D01*
X355600Y279400D02*
X355000Y280000D01*
X530000Y380000D02*
X533400Y381000D01*
X730000Y405000D02*
X1190000Y405000D01*
X730000Y405000D02*
X725000Y410000D01*
X535000Y410000D01*
X510000Y385000D01*
X1190000Y405000D02*
X1193800Y406400D01*
X510000Y385000D02*
X508000Y381000D01*
X1175000Y415000D02*
X1190000Y430000D01*
X1175000Y415000D02*
X915000Y415000D01*
X1190000Y430000D02*
X1193800Y431800D01*
D14*
X915000Y415000D03*
D12*
X825000Y105000D02*
X325000Y105000D01*
X310000Y120000D01*
X310000Y125000D01*
X305000Y125000D01*
X304800Y127000D01*
D14*
X825000Y105000D03*
D12*
X1190000Y500000D02*
X1065000Y625000D01*
X630000Y625000D01*
X435000Y430000D01*
X185000Y430000D01*
X110000Y355000D01*
X110000Y280000D01*
X125000Y280000D01*
X1190000Y500000D02*
X1193800Y497840D01*
X127000Y279400D02*
X125000Y280000D01*
X1080000Y635000D02*
X1190000Y525000D01*
X1080000Y635000D02*
X305000Y635000D01*
X100000Y430000D01*
X100000Y255000D01*
X125000Y255000D01*
X1190000Y525000D02*
X1193800Y523240D01*
X127000Y254000D02*
X125000Y255000D01*
X1170000Y575000D02*
X1190000Y595000D01*
X1170000Y575000D02*
X1170000Y560000D01*
X705000Y95000D02*
X265000Y95000D01*
X185000Y175000D01*
X130000Y175000D01*
X1190000Y595000D02*
X1193800Y599440D01*
X130000Y175000D02*
X127000Y177800D01*
D14*
X1170000Y560000D03*
X705000Y95000D03*
D12*
X590000Y385000D02*
X390000Y185000D01*
X370000Y185000D01*
X355000Y200000D01*
X355600Y203200D01*
D14*
X590000Y385000D03*
D12*
X655000Y490000D02*
X710000Y435000D01*
X711200Y431800D01*
D14*
X655000Y490000D03*
D12*
X710000Y330000D02*
X530000Y150000D01*
X400000Y150000D01*
X380000Y130000D01*
X710000Y330000D02*
X711200Y330200D01*
X380000Y130000D02*
X381000Y127000D01*
X695000Y540000D02*
X710000Y555000D01*
X695000Y540000D02*
X685000Y540000D01*
X580000Y435000D01*
X710000Y555000D02*
X711200Y558800D01*
D14*
X580000Y435000D03*
D12*
X550000Y420000D02*
X710000Y580000D01*
X550000Y420000D02*
X190000Y420000D01*
X155000Y385000D01*
X155000Y330000D01*
X210000Y330000D01*
X250000Y290000D01*
X250000Y280000D01*
X710000Y580000D02*
X711200Y584200D01*
X254000Y279400D02*
X250000Y280000D01*
M02*
