G04 EAGLE Gerber RS-274X export*
G75*
%MOMM*%
%FSLAX34Y34*%
%LPD*%
%INSoldermask Bottom*%
%IPPOS*%
%AMOC8*
5,1,8,0,0,1.08239X$1,22.5*%
G01*
%ADD10C,3.703200*%
%ADD11C,2.082800*%
%ADD12P,2.034460X8X292.500000*%
%ADD13C,1.117600*%


D10*
X50800Y50800D03*
X50800Y1016000D03*
X1549400Y1016000D03*
X1549400Y50800D03*
D11*
X127000Y127000D03*
X152400Y127000D03*
X177800Y127000D03*
X203200Y127000D03*
X127000Y965200D03*
X152400Y965200D03*
X482600Y127000D03*
X508000Y127000D03*
X533400Y127000D03*
X558800Y127000D03*
X228600Y965200D03*
X254000Y965200D03*
X279400Y965200D03*
D12*
X1193800Y355600D03*
X711200Y381000D03*
X1193800Y330200D03*
X1193800Y304800D03*
X1193800Y279400D03*
X1193800Y254000D03*
X1193800Y381000D03*
X1193800Y406400D03*
X1193800Y431800D03*
X1193800Y472440D03*
X1193800Y497840D03*
X1193800Y523240D03*
X1193800Y548640D03*
X1193800Y574040D03*
X1193800Y599440D03*
X1193800Y624840D03*
X1193800Y650240D03*
X711200Y355600D03*
X711200Y330200D03*
X711200Y304800D03*
X711200Y279400D03*
X711200Y254000D03*
X711200Y431800D03*
X711200Y457200D03*
X711200Y482600D03*
X711200Y508000D03*
X711200Y533400D03*
X711200Y558800D03*
X1193800Y675640D03*
X1193800Y701040D03*
X711200Y584200D03*
X711200Y609600D03*
D11*
X381000Y203200D03*
X355600Y203200D03*
X381000Y228600D03*
X355600Y228600D03*
X381000Y254000D03*
X355600Y254000D03*
X381000Y279400D03*
X355600Y279400D03*
X203200Y279400D03*
X228600Y279400D03*
X254000Y279400D03*
X127000Y889000D03*
X584200Y889000D03*
X127000Y685800D03*
X584200Y685800D03*
X406400Y127000D03*
X381000Y127000D03*
X355600Y127000D03*
X330200Y127000D03*
X304800Y127000D03*
X279400Y127000D03*
X1295400Y177800D03*
X1295400Y203200D03*
X1295400Y228600D03*
X1295400Y254000D03*
X1295400Y279400D03*
X1295400Y304800D03*
X1447800Y177800D03*
X1447800Y203200D03*
X1447800Y228600D03*
X1447800Y254000D03*
X1447800Y279400D03*
X1447800Y304800D03*
X127000Y330200D03*
X127000Y304800D03*
X127000Y279400D03*
X127000Y254000D03*
X127000Y228600D03*
X127000Y203200D03*
X127000Y177800D03*
X203200Y203200D03*
X228600Y203200D03*
X279400Y584200D03*
X304800Y584200D03*
X330200Y584200D03*
X355600Y584200D03*
X381000Y584200D03*
X406400Y584200D03*
X431800Y584200D03*
X457200Y584200D03*
X482600Y584200D03*
X508000Y584200D03*
X533400Y584200D03*
X558800Y584200D03*
X177800Y381000D03*
X203200Y381000D03*
X228600Y381000D03*
X254000Y381000D03*
X279400Y381000D03*
X304800Y381000D03*
X330200Y381000D03*
X355600Y381000D03*
X381000Y381000D03*
X406400Y381000D03*
X431800Y381000D03*
X457200Y381000D03*
X482600Y381000D03*
X508000Y381000D03*
X533400Y381000D03*
X558800Y381000D03*
X685800Y965200D03*
X711200Y965200D03*
X736600Y965200D03*
X812800Y965200D03*
X838200Y965200D03*
X863600Y965200D03*
X939800Y965200D03*
X965200Y965200D03*
X381000Y965200D03*
X406400Y965200D03*
X431800Y965200D03*
X457200Y965200D03*
X533400Y965200D03*
X558800Y965200D03*
X584200Y965200D03*
X609600Y965200D03*
X1295400Y863600D03*
X1295400Y889000D03*
X1447800Y863600D03*
X1447800Y889000D03*
X1295400Y355600D03*
X1295400Y381000D03*
X1295400Y406400D03*
X1295400Y431800D03*
X1295400Y457200D03*
X1295400Y482600D03*
X1447800Y355600D03*
X1447800Y381000D03*
X1447800Y406400D03*
X1447800Y431800D03*
X1447800Y457200D03*
X1447800Y482600D03*
D13*
X500000Y280000D03*
X260000Y170000D03*
X1045000Y945000D03*
X990000Y985000D03*
X915000Y415000D03*
X825000Y105000D03*
X1170000Y560000D03*
X705000Y95000D03*
X590000Y385000D03*
X655000Y490000D03*
X580000Y435000D03*
M02*
