<svg xmlns="http://www.w3.org/2000/svg" viewBox="0 0 234.8 469.21"><defs><style>.cls-1{fill:none;stroke:#fff;stroke-width:7px;}.cls-1,.cls-2{stroke-miterlimit:10;}.cls-2{fill:#fff;stroke:#231f20;}</style></defs><title>Asset 6</title><g id="Layer_2" data-name="Layer 2"><g id="Layer_1-2" data-name="Layer 1"><path class="cls-1" d="M20.78,83.5a80,80,0,0,1,80-80"/><path class="cls-1" d="M201.09,385.71a80,80,0,0,1-80,80"/><path class="cls-2" d="M216.46,190.67,91.17,413.75c-1.84,3.28-5.29,4.83-8.11,3.66L4,384.36C1.13,383.18-.18,379.63.85,376L71.49,130.11c1.26-4.42,5.49-7.09,8.93-5.65L214.2,180.34C217.64,181.78,218.71,186.66,216.46,190.67Z"/><rect class="cls-2" x="147.2" y="31.29" width="79.79" height="61.6" rx="5" ry="5" transform="translate(39.2 -68.24) rotate(23.03)"/><path class="cls-2" d="M83.94,108.07l47.89-25.7a5.24,5.24,0,0,1,4.54-.22l69.77,29.36a5.27,5.27,0,0,1,3,3.4l15.1,52.21a5.28,5.28,0,0,1-7.12,6.34L84.39,117.6A5.28,5.28,0,0,1,83.94,108.07Z"/></g></g></svg>