M48
;GenerationSoftware,Autodesk,EAGLE,9.2.2*%
;CreationDate,2018-11-29T16:43:45Z*%
FMAT,2
ICI,OFF
METRIC,TZ,000.000
T4C0.508
T3C1.000
T2C1.016
T1C3.500
%
G90
M71
T1
X154940Y5080
X154940Y101600
X5080Y101600
X5080Y5080
T2
X144780Y48260
X129540Y22860
X144780Y45720
X144780Y43180
X144780Y40640
X144780Y38100
X144780Y35560
X129540Y48260
X129540Y45720
X129540Y43180
X129540Y17780
X12700Y12700
X15240Y12700
X17780Y12700
X20320Y12700
X12700Y96520
X15240Y96520
X48260Y12700
X50800Y12700
X53340Y12700
X55880Y12700
X22860Y96520
X25400Y96520
X27940Y96520
X129540Y35560
X144780Y88900
X144780Y86360
X129540Y88900
X129540Y86360
X60960Y96520
X58420Y96520
X55880Y96520
X53340Y96520
X45720Y96520
X43180Y96520
X40640Y96520
X38100Y96520
X96520Y96520
X93980Y96520
X86360Y96520
X83820Y96520
X81280Y96520
X73660Y96520
X71120Y96520
X68580Y96520
X55880Y38100
X53340Y38100
X50800Y38100
X48260Y38100
X45720Y38100
X43180Y38100
X40640Y38100
X38100Y38100
X35560Y38100
X33020Y38100
X30480Y38100
X38100Y20320
X35560Y20320
X38100Y22860
X35560Y22860
X38100Y25400
X35560Y25400
X38100Y27940
X35560Y27940
X20320Y27940
X22860Y27940
X25400Y27940
X12700Y88900
X58420Y88900
X12700Y68580
X58420Y68580
X40640Y12700
X38100Y12700
X35560Y12700
X33020Y12700
X30480Y12700
X27940Y12700
X129540Y40640
X129540Y20320
X129540Y38100
X129540Y25400
X129540Y27940
X129540Y30480
X144780Y17780
X144780Y20320
X144780Y22860
X144780Y25400
X144780Y27940
X144780Y30480
X12700Y33020
X12700Y30480
X12700Y27940
X12700Y25400
X12700Y22860
X12700Y20320
X12700Y17780
X20320Y20320
X22860Y20320
X27940Y58420
X30480Y58420
X33020Y58420
X35560Y58420
X38100Y58420
X40640Y58420
X43180Y58420
X45720Y58420
X48260Y58420
X50800Y58420
X53340Y58420
X55880Y58420
X17780Y38100
X20320Y38100
X22860Y38100
X25400Y38100
X27940Y38100
T3
X71120Y60960
X71120Y58420
X119380Y70104
X119380Y67564
X71120Y55880
X71120Y53340
X71120Y50800
X71120Y48260
X71120Y45720
X71120Y43180
X71120Y25400
X71120Y27940
X71120Y30480
X71120Y33020
X71120Y35560
X119380Y65024
X119380Y62484
X119380Y59944
X119380Y57404
X119380Y54864
X119380Y52324
X119380Y49784
X119380Y47244
X119380Y43180
X119380Y40640
X119380Y38100
X119380Y25400
X119380Y27940
X119380Y30480
X119380Y33020
X71120Y38100
X119380Y35560
T4
X82500Y10500
X91500Y41500
X26000Y17000
X104500Y94500
X99000Y98500
X58000Y43500
X65500Y49000
X59000Y38500
X70500Y9500
X117000Y56000
X50000Y28000
M30