<svg xmlns="http://www.w3.org/2000/svg" viewBox="0 0 571 571"><defs><style>.cls-1{fill:#231f20;}.cls-1,.cls-3{stroke:#231f20;}.cls-1,.cls-2,.cls-3{stroke-miterlimit:10;}.cls-2{fill:none;stroke:#fff;stroke-width:7px;}.cls-3{fill:#fff;}</style></defs><title>Asset 5</title><g id="Layer_2" data-name="Layer 2"><g id="Layer_1-2" data-name="Layer 1"><rect class="cls-1" x="0.5" y="0.5" width="570" height="570" rx="100" ry="100"/><path class="cls-2" d="M184.1,135.33a80,80,0,0,1,80-80"/><path class="cls-2" d="M364.42,437.54a80,80,0,0,1-80,80"/><path class="cls-3" d="M379.78,242.5,254.49,465.59c-1.83,3.27-5.29,4.83-8.1,3.65l-79.12-33.05c-2.81-1.18-4.13-4.73-3.09-8.34l70.63-245.91c1.27-4.42,5.49-7.09,8.94-5.65l133.77,55.88C381,233.61,382,238.49,379.78,242.5Z"/><rect class="cls-3" x="310.52" y="83.12" width="79.79" height="61.6" rx="5" ry="5" transform="translate(72.49 -128) rotate(23.03)"/><path class="cls-3" d="M247.26,159.91l47.89-25.71a5.3,5.3,0,0,1,4.55-.21l69.76,29.35a5.28,5.28,0,0,1,3,3.41L387.59,219a5.29,5.29,0,0,1-7.13,6.34L247.71,169.43A5.28,5.28,0,0,1,247.26,159.91Z"/></g></g></svg>