G04 EAGLE Gerber RS-274X export*
G75*
%MOMM*%
%FSLAX34Y34*%
%LPD*%
%INTop Copper*%
%IPPOS*%
%AMOC8*
5,1,8,0,0,1.08239X$1,22.5*%
G01*
%ADD10C,1.879600*%
%ADD11P,1.814519X8X292.500000*%
%ADD12C,0.508000*%
%ADD13C,1.778000*%
%ADD14C,0.914400*%

G36*
X1589098Y10164D02*
X1589098Y10164D01*
X1589117Y10162D01*
X1589219Y10184D01*
X1589321Y10200D01*
X1589338Y10210D01*
X1589358Y10214D01*
X1589447Y10267D01*
X1589538Y10316D01*
X1589552Y10330D01*
X1589569Y10340D01*
X1589636Y10419D01*
X1589708Y10494D01*
X1589716Y10512D01*
X1589729Y10527D01*
X1589768Y10623D01*
X1589811Y10717D01*
X1589813Y10737D01*
X1589821Y10755D01*
X1589839Y10922D01*
X1589839Y1055878D01*
X1589836Y1055898D01*
X1589838Y1055917D01*
X1589816Y1056019D01*
X1589800Y1056121D01*
X1589790Y1056138D01*
X1589786Y1056158D01*
X1589733Y1056247D01*
X1589684Y1056338D01*
X1589670Y1056352D01*
X1589660Y1056369D01*
X1589581Y1056436D01*
X1589506Y1056508D01*
X1589488Y1056516D01*
X1589473Y1056529D01*
X1589377Y1056568D01*
X1589283Y1056611D01*
X1589263Y1056613D01*
X1589245Y1056621D01*
X1589078Y1056639D01*
X10922Y1056639D01*
X10902Y1056636D01*
X10883Y1056638D01*
X10781Y1056616D01*
X10679Y1056600D01*
X10662Y1056590D01*
X10642Y1056586D01*
X10553Y1056533D01*
X10462Y1056484D01*
X10448Y1056470D01*
X10431Y1056460D01*
X10364Y1056381D01*
X10292Y1056306D01*
X10284Y1056288D01*
X10271Y1056273D01*
X10232Y1056177D01*
X10189Y1056083D01*
X10187Y1056063D01*
X10179Y1056045D01*
X10161Y1055878D01*
X10161Y10922D01*
X10164Y10902D01*
X10162Y10883D01*
X10184Y10781D01*
X10200Y10679D01*
X10210Y10662D01*
X10214Y10642D01*
X10267Y10553D01*
X10316Y10462D01*
X10330Y10448D01*
X10340Y10431D01*
X10419Y10364D01*
X10494Y10292D01*
X10512Y10284D01*
X10527Y10271D01*
X10623Y10232D01*
X10717Y10189D01*
X10737Y10187D01*
X10755Y10179D01*
X10922Y10161D01*
X1589078Y10161D01*
X1589098Y10164D01*
G37*
%LPC*%
G36*
X102895Y69919D02*
X102895Y69919D01*
X99919Y72895D01*
X99919Y212105D01*
X114838Y227024D01*
X114891Y227097D01*
X114951Y227167D01*
X114963Y227197D01*
X114982Y227223D01*
X115009Y227310D01*
X115043Y227395D01*
X115047Y227436D01*
X115054Y227458D01*
X115053Y227491D01*
X115061Y227562D01*
X115061Y230975D01*
X116879Y235363D01*
X120237Y238721D01*
X124625Y240539D01*
X129375Y240539D01*
X133763Y238721D01*
X137121Y235363D01*
X138939Y230975D01*
X138939Y226225D01*
X137121Y221837D01*
X133763Y218479D01*
X129375Y216661D01*
X124625Y216661D01*
X121009Y218159D01*
X120895Y218186D01*
X120782Y218214D01*
X120776Y218214D01*
X120770Y218215D01*
X120653Y218204D01*
X120537Y218195D01*
X120531Y218193D01*
X120525Y218192D01*
X120417Y218144D01*
X120310Y218099D01*
X120305Y218094D01*
X120300Y218092D01*
X120286Y218080D01*
X120179Y217994D01*
X110304Y208118D01*
X110251Y208045D01*
X110191Y207975D01*
X110179Y207945D01*
X110160Y207919D01*
X110133Y207832D01*
X110099Y207747D01*
X110095Y207706D01*
X110088Y207684D01*
X110089Y207651D01*
X110081Y207580D01*
X110081Y80842D01*
X110084Y80822D01*
X110082Y80803D01*
X110104Y80701D01*
X110120Y80599D01*
X110130Y80582D01*
X110134Y80562D01*
X110187Y80473D01*
X110236Y80382D01*
X110250Y80368D01*
X110260Y80351D01*
X110339Y80284D01*
X110414Y80212D01*
X110432Y80204D01*
X110447Y80191D01*
X110543Y80152D01*
X110637Y80109D01*
X110657Y80107D01*
X110675Y80099D01*
X110842Y80081D01*
X220896Y80081D01*
X220967Y80092D01*
X221039Y80094D01*
X221088Y80112D01*
X221139Y80120D01*
X221202Y80154D01*
X221270Y80179D01*
X221310Y80211D01*
X221356Y80236D01*
X221406Y80288D01*
X221462Y80332D01*
X221490Y80376D01*
X221526Y80414D01*
X221556Y80479D01*
X221595Y80539D01*
X221607Y80590D01*
X221629Y80637D01*
X221637Y80708D01*
X221655Y80778D01*
X221651Y80830D01*
X221656Y80881D01*
X221641Y80952D01*
X221636Y81023D01*
X221615Y81071D01*
X221604Y81122D01*
X221567Y81183D01*
X221539Y81249D01*
X221495Y81305D01*
X221478Y81333D01*
X221460Y81348D01*
X221435Y81380D01*
X219919Y82895D01*
X219919Y132580D01*
X219905Y132670D01*
X219897Y132761D01*
X219885Y132791D01*
X219880Y132823D01*
X219837Y132904D01*
X219801Y132987D01*
X219775Y133020D01*
X219764Y133040D01*
X219741Y133062D01*
X219696Y133118D01*
X148118Y204696D01*
X148045Y204749D01*
X147975Y204809D01*
X147945Y204821D01*
X147919Y204840D01*
X147832Y204867D01*
X147747Y204901D01*
X147706Y204905D01*
X147684Y204912D01*
X147651Y204911D01*
X147580Y204919D01*
X139700Y204919D01*
X139680Y204916D01*
X139661Y204918D01*
X139559Y204896D01*
X139457Y204880D01*
X139440Y204870D01*
X139420Y204866D01*
X139331Y204813D01*
X139240Y204764D01*
X139226Y204750D01*
X139209Y204740D01*
X139142Y204661D01*
X139070Y204586D01*
X139062Y204568D01*
X139049Y204553D01*
X139010Y204457D01*
X138967Y204363D01*
X138965Y204343D01*
X138957Y204325D01*
X138939Y204158D01*
X138939Y200825D01*
X137121Y196437D01*
X133763Y193079D01*
X129375Y191261D01*
X124625Y191261D01*
X120237Y193079D01*
X116879Y196437D01*
X115061Y200825D01*
X115061Y205575D01*
X116879Y209963D01*
X120237Y213321D01*
X121632Y213899D01*
X121687Y213933D01*
X121748Y213959D01*
X121812Y214011D01*
X121841Y214028D01*
X121853Y214043D01*
X121878Y214064D01*
X122895Y215081D01*
X124334Y215081D01*
X124398Y215091D01*
X124464Y215092D01*
X124544Y215115D01*
X124577Y215120D01*
X124594Y215130D01*
X124625Y215139D01*
X129375Y215139D01*
X129439Y215124D01*
X129499Y215099D01*
X129582Y215090D01*
X129614Y215083D01*
X129634Y215084D01*
X129666Y215081D01*
X152105Y215081D01*
X230081Y137105D01*
X230081Y90842D01*
X230083Y90827D01*
X230082Y90814D01*
X230083Y90810D01*
X230082Y90803D01*
X230104Y90701D01*
X230120Y90599D01*
X230130Y90582D01*
X230134Y90562D01*
X230187Y90473D01*
X230236Y90382D01*
X230250Y90368D01*
X230260Y90351D01*
X230339Y90284D01*
X230414Y90212D01*
X230432Y90204D01*
X230447Y90191D01*
X230543Y90152D01*
X230637Y90109D01*
X230657Y90107D01*
X230675Y90099D01*
X230842Y90081D01*
X245896Y90081D01*
X245967Y90092D01*
X246039Y90094D01*
X246088Y90112D01*
X246139Y90120D01*
X246202Y90154D01*
X246270Y90179D01*
X246310Y90211D01*
X246356Y90236D01*
X246406Y90288D01*
X246462Y90332D01*
X246490Y90376D01*
X246526Y90414D01*
X246556Y90479D01*
X246595Y90539D01*
X246607Y90590D01*
X246629Y90637D01*
X246637Y90708D01*
X246655Y90778D01*
X246651Y90830D01*
X246656Y90881D01*
X246641Y90952D01*
X246636Y91023D01*
X246615Y91071D01*
X246604Y91122D01*
X246567Y91183D01*
X246539Y91249D01*
X246495Y91305D01*
X246478Y91333D01*
X246469Y91341D01*
X246467Y91344D01*
X246456Y91353D01*
X246435Y91380D01*
X244919Y92895D01*
X244919Y217580D01*
X244905Y217670D01*
X244897Y217761D01*
X244885Y217791D01*
X244880Y217823D01*
X244837Y217904D01*
X244801Y217987D01*
X244775Y218020D01*
X244764Y218040D01*
X244741Y218062D01*
X244696Y218118D01*
X194919Y267895D01*
X194919Y270481D01*
X194905Y270572D01*
X194897Y270662D01*
X194885Y270692D01*
X194880Y270724D01*
X194837Y270805D01*
X194801Y270889D01*
X194775Y270921D01*
X194764Y270942D01*
X194741Y270964D01*
X194714Y270998D01*
X194713Y270999D01*
X194712Y271000D01*
X194696Y271020D01*
X193079Y272637D01*
X191261Y277025D01*
X191261Y281775D01*
X193079Y286163D01*
X196437Y289521D01*
X200825Y291339D01*
X205575Y291339D01*
X209963Y289521D01*
X213321Y286163D01*
X215139Y281775D01*
X215139Y277025D01*
X213321Y272637D01*
X209963Y269279D01*
X209561Y269113D01*
X209522Y269088D01*
X209479Y269073D01*
X209418Y269024D01*
X209352Y268983D01*
X209323Y268948D01*
X209287Y268919D01*
X209245Y268853D01*
X209195Y268793D01*
X209179Y268751D01*
X209154Y268712D01*
X209135Y268636D01*
X209107Y268564D01*
X209105Y268518D01*
X209094Y268473D01*
X209100Y268396D01*
X209097Y268318D01*
X209110Y268274D01*
X209113Y268228D01*
X209144Y268157D01*
X209165Y268082D01*
X209192Y268044D01*
X209209Y268002D01*
X209295Y267895D01*
X209306Y267880D01*
X209310Y267877D01*
X209314Y267871D01*
X253620Y223565D01*
X253678Y223524D01*
X253730Y223474D01*
X253777Y223452D01*
X253819Y223422D01*
X253888Y223401D01*
X253953Y223371D01*
X254005Y223365D01*
X254055Y223350D01*
X254126Y223351D01*
X254197Y223344D01*
X254248Y223355D01*
X254300Y223356D01*
X254368Y223381D01*
X254438Y223396D01*
X254482Y223422D01*
X254531Y223440D01*
X254587Y223485D01*
X254649Y223522D01*
X254683Y223562D01*
X254723Y223594D01*
X254762Y223654D01*
X254809Y223709D01*
X254828Y223757D01*
X254856Y223801D01*
X254874Y223870D01*
X254901Y223937D01*
X254909Y224008D01*
X254917Y224040D01*
X254915Y224063D01*
X254919Y224104D01*
X254919Y232580D01*
X254905Y232670D01*
X254897Y232761D01*
X254885Y232791D01*
X254880Y232823D01*
X254837Y232904D01*
X254801Y232987D01*
X254775Y233020D01*
X254764Y233040D01*
X254741Y233062D01*
X254696Y233118D01*
X219919Y267895D01*
X219919Y270881D01*
X219905Y270972D01*
X219897Y271062D01*
X219885Y271092D01*
X219880Y271124D01*
X219837Y271205D01*
X219801Y271289D01*
X219775Y271321D01*
X219764Y271342D01*
X219741Y271364D01*
X219696Y271420D01*
X218479Y272637D01*
X216661Y277025D01*
X216661Y281775D01*
X218479Y286163D01*
X221837Y289521D01*
X226225Y291339D01*
X230975Y291339D01*
X235363Y289521D01*
X238721Y286163D01*
X240539Y281775D01*
X240539Y277025D01*
X238721Y272637D01*
X235363Y269279D01*
X234678Y268995D01*
X234639Y268971D01*
X234596Y268955D01*
X234536Y268907D01*
X234469Y268866D01*
X234440Y268830D01*
X234404Y268802D01*
X234362Y268736D01*
X234313Y268676D01*
X234296Y268633D01*
X234271Y268595D01*
X234252Y268519D01*
X234224Y268447D01*
X234222Y268401D01*
X234211Y268356D01*
X234217Y268279D01*
X234214Y268201D01*
X234227Y268157D01*
X234230Y268111D01*
X234261Y268040D01*
X234282Y267965D01*
X234309Y267927D01*
X234327Y267885D01*
X234412Y267778D01*
X234423Y267763D01*
X234427Y267760D01*
X234431Y267754D01*
X265081Y237105D01*
X265081Y185842D01*
X265084Y185822D01*
X265082Y185803D01*
X265104Y185701D01*
X265120Y185599D01*
X265130Y185582D01*
X265134Y185562D01*
X265187Y185473D01*
X265236Y185382D01*
X265250Y185368D01*
X265260Y185351D01*
X265339Y185284D01*
X265414Y185212D01*
X265432Y185204D01*
X265447Y185191D01*
X265543Y185152D01*
X265637Y185109D01*
X265657Y185107D01*
X265675Y185099D01*
X265842Y185081D01*
X382580Y185081D01*
X382670Y185095D01*
X382761Y185103D01*
X382791Y185115D01*
X382823Y185120D01*
X382904Y185163D01*
X382987Y185199D01*
X383020Y185225D01*
X383040Y185236D01*
X383062Y185259D01*
X383118Y185304D01*
X574696Y376882D01*
X574749Y376955D01*
X574809Y377025D01*
X574821Y377055D01*
X574840Y377081D01*
X574867Y377168D01*
X574901Y377253D01*
X574905Y377294D01*
X574912Y377316D01*
X574911Y377349D01*
X574919Y377420D01*
X574919Y429706D01*
X574905Y429797D01*
X574897Y429887D01*
X574885Y429917D01*
X574880Y429949D01*
X574837Y430030D01*
X574801Y430114D01*
X574775Y430146D01*
X574764Y430167D01*
X574741Y430189D01*
X574696Y430245D01*
X573970Y430971D01*
X572887Y433585D01*
X572887Y436415D01*
X573970Y439029D01*
X575971Y441030D01*
X578585Y442113D01*
X581415Y442113D01*
X584029Y441030D01*
X586030Y439029D01*
X587113Y436415D01*
X587113Y433585D01*
X586030Y430971D01*
X585304Y430245D01*
X585251Y430171D01*
X585191Y430101D01*
X585179Y430071D01*
X585160Y430045D01*
X585133Y429958D01*
X585099Y429873D01*
X585095Y429832D01*
X585088Y429810D01*
X585089Y429778D01*
X585081Y429706D01*
X585081Y414104D01*
X585092Y414033D01*
X585094Y413961D01*
X585112Y413912D01*
X585120Y413861D01*
X585154Y413798D01*
X585179Y413730D01*
X585211Y413690D01*
X585236Y413644D01*
X585288Y413594D01*
X585332Y413538D01*
X585376Y413510D01*
X585414Y413474D01*
X585479Y413444D01*
X585539Y413405D01*
X585590Y413393D01*
X585637Y413371D01*
X585708Y413363D01*
X585778Y413345D01*
X585830Y413349D01*
X585881Y413344D01*
X585952Y413359D01*
X586023Y413364D01*
X586071Y413385D01*
X586122Y413396D01*
X586183Y413433D01*
X586249Y413461D01*
X586305Y413505D01*
X586333Y413522D01*
X586348Y413540D01*
X586380Y413565D01*
X588118Y415304D01*
X654403Y481588D01*
X654444Y481646D01*
X654494Y481698D01*
X654516Y481745D01*
X654546Y481787D01*
X654567Y481856D01*
X654597Y481921D01*
X654603Y481973D01*
X654618Y482023D01*
X654617Y482094D01*
X654624Y482165D01*
X654613Y482216D01*
X654612Y482268D01*
X654587Y482336D01*
X654572Y482406D01*
X654545Y482451D01*
X654528Y482499D01*
X654483Y482555D01*
X654446Y482617D01*
X654406Y482651D01*
X654374Y482691D01*
X654314Y482730D01*
X654259Y482777D01*
X654211Y482796D01*
X654167Y482824D01*
X654098Y482842D01*
X654031Y482869D01*
X653960Y482877D01*
X653928Y482885D01*
X653905Y482883D01*
X653864Y482887D01*
X653585Y482887D01*
X650971Y483970D01*
X648970Y485971D01*
X647887Y488585D01*
X647887Y489612D01*
X647873Y489702D01*
X647865Y489793D01*
X647853Y489823D01*
X647848Y489855D01*
X647805Y489936D01*
X647769Y490019D01*
X647743Y490052D01*
X647732Y490072D01*
X647709Y490094D01*
X647664Y490150D01*
X599919Y537895D01*
X599919Y872580D01*
X599905Y872670D01*
X599897Y872761D01*
X599885Y872791D01*
X599880Y872823D01*
X599837Y872904D01*
X599801Y872988D01*
X599775Y873020D01*
X599764Y873040D01*
X599741Y873063D01*
X599696Y873118D01*
X592988Y879827D01*
X592971Y879839D01*
X592959Y879854D01*
X592872Y879910D01*
X592788Y879971D01*
X592769Y879977D01*
X592752Y879987D01*
X592652Y880013D01*
X592553Y880043D01*
X592533Y880043D01*
X592514Y880047D01*
X592411Y880039D01*
X592307Y880037D01*
X592288Y880030D01*
X592268Y880028D01*
X592174Y879988D01*
X592076Y879952D01*
X592060Y879940D01*
X592042Y879932D01*
X591911Y879827D01*
X590963Y878879D01*
X586575Y877061D01*
X581825Y877061D01*
X577437Y878879D01*
X574079Y882237D01*
X572261Y886625D01*
X572261Y891375D01*
X574079Y895763D01*
X577437Y899121D01*
X581825Y900939D01*
X586575Y900939D01*
X590963Y899121D01*
X594321Y895763D01*
X596139Y891375D01*
X596139Y891362D01*
X596153Y891272D01*
X596161Y891181D01*
X596173Y891151D01*
X596178Y891119D01*
X596221Y891038D01*
X596257Y890954D01*
X596283Y890922D01*
X596294Y890902D01*
X596317Y890879D01*
X596362Y890824D01*
X606882Y880304D01*
X610081Y877105D01*
X610081Y542420D01*
X610095Y542330D01*
X610103Y542239D01*
X610115Y542209D01*
X610120Y542177D01*
X610163Y542096D01*
X610199Y542013D01*
X610225Y541980D01*
X610236Y541960D01*
X610259Y541938D01*
X610304Y541882D01*
X654850Y497336D01*
X654923Y497283D01*
X654993Y497223D01*
X655023Y497211D01*
X655049Y497192D01*
X655136Y497165D01*
X655221Y497131D01*
X655262Y497127D01*
X655284Y497120D01*
X655317Y497121D01*
X655388Y497113D01*
X656415Y497113D01*
X659029Y496030D01*
X661030Y494029D01*
X662113Y491415D01*
X662113Y491136D01*
X662124Y491065D01*
X662126Y490993D01*
X662144Y490944D01*
X662152Y490893D01*
X662186Y490830D01*
X662211Y490762D01*
X662243Y490722D01*
X662268Y490676D01*
X662319Y490626D01*
X662364Y490570D01*
X662408Y490542D01*
X662446Y490506D01*
X662511Y490476D01*
X662571Y490437D01*
X662622Y490425D01*
X662669Y490403D01*
X662740Y490395D01*
X662810Y490377D01*
X662862Y490381D01*
X662913Y490376D01*
X662984Y490391D01*
X663055Y490396D01*
X663103Y490417D01*
X663154Y490428D01*
X663215Y490465D01*
X663281Y490493D01*
X663337Y490537D01*
X663365Y490554D01*
X663380Y490572D01*
X663412Y490597D01*
X700446Y527631D01*
X700457Y527647D01*
X700473Y527659D01*
X700529Y527747D01*
X700589Y527831D01*
X700595Y527850D01*
X700606Y527866D01*
X700631Y527967D01*
X700661Y528066D01*
X700661Y528086D01*
X700666Y528105D01*
X700658Y528208D01*
X700655Y528312D01*
X700648Y528330D01*
X700647Y528350D01*
X700606Y528445D01*
X700571Y528543D01*
X700558Y528558D01*
X700550Y528576D01*
X700446Y528707D01*
X700277Y528876D01*
X700277Y537924D01*
X706676Y544323D01*
X715724Y544323D01*
X722123Y537924D01*
X722123Y528876D01*
X715724Y522477D01*
X709978Y522477D01*
X709888Y522463D01*
X709797Y522455D01*
X709767Y522443D01*
X709735Y522438D01*
X709655Y522395D01*
X709571Y522359D01*
X709538Y522333D01*
X709518Y522322D01*
X709496Y522299D01*
X709440Y522254D01*
X707407Y520222D01*
X707366Y520164D01*
X707316Y520112D01*
X707294Y520065D01*
X707264Y520023D01*
X707243Y519954D01*
X707213Y519889D01*
X707207Y519837D01*
X707192Y519787D01*
X707193Y519716D01*
X707186Y519645D01*
X707197Y519594D01*
X707198Y519542D01*
X707223Y519474D01*
X707238Y519404D01*
X707265Y519359D01*
X707282Y519311D01*
X707327Y519255D01*
X707364Y519193D01*
X707404Y519159D01*
X707436Y519119D01*
X707496Y519080D01*
X707551Y519033D01*
X707599Y519014D01*
X707643Y518986D01*
X707712Y518968D01*
X707779Y518941D01*
X707850Y518933D01*
X707882Y518925D01*
X707905Y518927D01*
X707946Y518923D01*
X715728Y518923D01*
X715808Y518871D01*
X715892Y518811D01*
X715911Y518805D01*
X715928Y518794D01*
X716028Y518769D01*
X716127Y518739D01*
X716147Y518739D01*
X716167Y518734D01*
X716270Y518742D01*
X716373Y518745D01*
X716392Y518752D01*
X716412Y518753D01*
X716507Y518794D01*
X716604Y518829D01*
X716620Y518842D01*
X716638Y518850D01*
X716769Y518954D01*
X804696Y606882D01*
X804749Y606955D01*
X804809Y607025D01*
X804821Y607055D01*
X804840Y607081D01*
X804867Y607168D01*
X804901Y607253D01*
X804905Y607294D01*
X804912Y607316D01*
X804911Y607349D01*
X804919Y607420D01*
X804919Y842580D01*
X804905Y842670D01*
X804897Y842761D01*
X804885Y842791D01*
X804880Y842823D01*
X804837Y842904D01*
X804801Y842987D01*
X804775Y843020D01*
X804764Y843040D01*
X804741Y843062D01*
X804696Y843118D01*
X693045Y954770D01*
X692951Y954837D01*
X692856Y954908D01*
X692850Y954910D01*
X692845Y954913D01*
X692734Y954948D01*
X692622Y954984D01*
X692616Y954984D01*
X692610Y954986D01*
X692493Y954983D01*
X692376Y954982D01*
X692369Y954980D01*
X692364Y954979D01*
X692347Y954973D01*
X692215Y954935D01*
X688175Y953261D01*
X683425Y953261D01*
X679037Y955079D01*
X675679Y958437D01*
X673861Y962825D01*
X673861Y967575D01*
X675679Y971963D01*
X679037Y975321D01*
X683425Y977139D01*
X688175Y977139D01*
X692563Y975321D01*
X695921Y971963D01*
X697739Y967575D01*
X697739Y964762D01*
X697742Y964745D01*
X697740Y964729D01*
X697754Y964661D01*
X697761Y964579D01*
X697775Y964542D01*
X697778Y964519D01*
X697790Y964497D01*
X697792Y964488D01*
X697798Y964478D01*
X697819Y964421D01*
X697861Y964364D01*
X697894Y964302D01*
X697917Y964280D01*
X697918Y964277D01*
X697928Y964269D01*
X697932Y964265D01*
X697963Y964222D01*
X698021Y964181D01*
X698072Y964132D01*
X698120Y964110D01*
X698163Y964079D01*
X698231Y964058D01*
X698295Y964029D01*
X698348Y964023D01*
X698399Y964007D01*
X698469Y964009D01*
X698539Y964002D01*
X698591Y964013D01*
X698645Y964014D01*
X698711Y964039D01*
X698780Y964054D01*
X698825Y964081D01*
X698875Y964099D01*
X698930Y964144D01*
X698991Y964180D01*
X699025Y964220D01*
X699067Y964254D01*
X699105Y964313D01*
X699114Y964324D01*
X699130Y964340D01*
X699131Y964344D01*
X699151Y964367D01*
X699171Y964416D01*
X699199Y964461D01*
X699215Y964524D01*
X699233Y964563D01*
X699234Y964574D01*
X699243Y964595D01*
X699251Y964668D01*
X699259Y964700D01*
X699257Y964722D01*
X699261Y964762D01*
X699261Y967575D01*
X701079Y971963D01*
X704437Y975321D01*
X708825Y977139D01*
X713575Y977139D01*
X717963Y975321D01*
X721321Y971963D01*
X723139Y967575D01*
X723139Y962825D01*
X721321Y958437D01*
X717963Y955079D01*
X713575Y953261D01*
X710762Y953261D01*
X710691Y953250D01*
X710619Y953248D01*
X710570Y953230D01*
X710519Y953222D01*
X710456Y953188D01*
X710388Y953163D01*
X710348Y953131D01*
X710302Y953106D01*
X710252Y953055D01*
X710196Y953010D01*
X710168Y952966D01*
X710132Y952928D01*
X710102Y952863D01*
X710063Y952803D01*
X710051Y952752D01*
X710029Y952705D01*
X710021Y952634D01*
X710003Y952564D01*
X710007Y952512D01*
X710002Y952461D01*
X710017Y952390D01*
X710022Y952319D01*
X710043Y952271D01*
X710054Y952220D01*
X710091Y952159D01*
X710119Y952093D01*
X710163Y952037D01*
X710180Y952009D01*
X710198Y951994D01*
X710223Y951962D01*
X803620Y858565D01*
X803678Y858524D01*
X803730Y858474D01*
X803777Y858452D01*
X803819Y858422D01*
X803888Y858401D01*
X803953Y858371D01*
X804005Y858365D01*
X804055Y858350D01*
X804126Y858351D01*
X804197Y858344D01*
X804248Y858355D01*
X804300Y858356D01*
X804368Y858381D01*
X804438Y858396D01*
X804482Y858422D01*
X804531Y858440D01*
X804587Y858485D01*
X804649Y858522D01*
X804683Y858562D01*
X804723Y858594D01*
X804762Y858654D01*
X804809Y858709D01*
X804828Y858757D01*
X804856Y858801D01*
X804874Y858870D01*
X804901Y858937D01*
X804909Y859008D01*
X804917Y859040D01*
X804915Y859063D01*
X804919Y859104D01*
X804919Y955881D01*
X804905Y955972D01*
X804897Y956062D01*
X804885Y956092D01*
X804880Y956124D01*
X804837Y956205D01*
X804801Y956289D01*
X804775Y956321D01*
X804764Y956342D01*
X804741Y956364D01*
X804696Y956420D01*
X802679Y958437D01*
X800861Y962825D01*
X800861Y967575D01*
X802679Y971963D01*
X806037Y975321D01*
X810425Y977139D01*
X815175Y977139D01*
X819563Y975321D01*
X822921Y971963D01*
X824739Y967575D01*
X824739Y962825D01*
X822921Y958437D01*
X819563Y955079D01*
X815551Y953417D01*
X815451Y953355D01*
X815351Y953295D01*
X815347Y953291D01*
X815342Y953287D01*
X815267Y953198D01*
X815191Y953109D01*
X815189Y953103D01*
X815185Y953098D01*
X815143Y952990D01*
X815099Y952880D01*
X815098Y952873D01*
X815097Y952868D01*
X815096Y952850D01*
X815081Y952714D01*
X815081Y602895D01*
X722346Y510160D01*
X722293Y510087D01*
X722233Y510017D01*
X722221Y509987D01*
X722202Y509961D01*
X722175Y509874D01*
X722141Y509789D01*
X722137Y509748D01*
X722130Y509726D01*
X722131Y509693D01*
X722123Y509622D01*
X722123Y503476D01*
X715724Y497077D01*
X706676Y497077D01*
X700277Y503476D01*
X700277Y511254D01*
X700266Y511325D01*
X700264Y511397D01*
X700246Y511446D01*
X700238Y511497D01*
X700204Y511560D01*
X700179Y511628D01*
X700147Y511668D01*
X700122Y511714D01*
X700070Y511764D01*
X700026Y511820D01*
X699982Y511848D01*
X699944Y511884D01*
X699879Y511914D01*
X699819Y511953D01*
X699768Y511965D01*
X699721Y511987D01*
X699650Y511995D01*
X699580Y512013D01*
X699528Y512009D01*
X699477Y512014D01*
X699406Y511999D01*
X699335Y511994D01*
X699287Y511973D01*
X699236Y511962D01*
X699175Y511925D01*
X699109Y511897D01*
X699053Y511853D01*
X699025Y511836D01*
X699010Y511818D01*
X698978Y511793D01*
X595304Y408118D01*
X595251Y408045D01*
X595191Y407975D01*
X595179Y407945D01*
X595160Y407919D01*
X595133Y407832D01*
X595099Y407747D01*
X595095Y407706D01*
X595088Y407684D01*
X595089Y407651D01*
X595081Y407580D01*
X595081Y390294D01*
X595095Y390203D01*
X595103Y390113D01*
X595115Y390083D01*
X595120Y390051D01*
X595163Y389970D01*
X595199Y389886D01*
X595225Y389854D01*
X595236Y389833D01*
X595259Y389811D01*
X595304Y389755D01*
X596030Y389029D01*
X597113Y386415D01*
X597113Y383585D01*
X596030Y380971D01*
X594029Y378970D01*
X591415Y377887D01*
X588585Y377887D01*
X586133Y378903D01*
X586089Y378913D01*
X586047Y378933D01*
X585970Y378941D01*
X585894Y378959D01*
X585848Y378955D01*
X585803Y378960D01*
X585726Y378943D01*
X585649Y378936D01*
X585607Y378917D01*
X585562Y378908D01*
X585495Y378868D01*
X585424Y378836D01*
X585390Y378805D01*
X585351Y378781D01*
X585300Y378722D01*
X585243Y378670D01*
X585221Y378629D01*
X585191Y378594D01*
X585162Y378522D01*
X585125Y378454D01*
X585116Y378409D01*
X585099Y378366D01*
X585084Y378230D01*
X585081Y378212D01*
X585082Y378207D01*
X585081Y378200D01*
X585081Y372895D01*
X500597Y288412D01*
X500556Y288354D01*
X500506Y288302D01*
X500484Y288255D01*
X500454Y288213D01*
X500433Y288144D01*
X500403Y288079D01*
X500397Y288027D01*
X500382Y287977D01*
X500383Y287906D01*
X500376Y287835D01*
X500387Y287784D01*
X500388Y287732D01*
X500413Y287664D01*
X500428Y287594D01*
X500454Y287550D01*
X500472Y287501D01*
X500517Y287445D01*
X500554Y287383D01*
X500594Y287349D01*
X500626Y287309D01*
X500686Y287270D01*
X500741Y287223D01*
X500789Y287204D01*
X500833Y287176D01*
X500902Y287158D01*
X500969Y287131D01*
X501040Y287123D01*
X501072Y287115D01*
X501095Y287117D01*
X501136Y287113D01*
X501415Y287113D01*
X504029Y286030D01*
X504755Y285304D01*
X504829Y285251D01*
X504899Y285191D01*
X504929Y285179D01*
X504955Y285160D01*
X505042Y285133D01*
X505127Y285099D01*
X505168Y285095D01*
X505190Y285088D01*
X505222Y285089D01*
X505294Y285081D01*
X701118Y285081D01*
X701208Y285095D01*
X701299Y285103D01*
X701329Y285115D01*
X701361Y285120D01*
X701442Y285163D01*
X701526Y285199D01*
X701558Y285225D01*
X701578Y285236D01*
X701601Y285259D01*
X701657Y285304D01*
X706676Y290323D01*
X715724Y290323D01*
X722123Y283924D01*
X722123Y274876D01*
X715724Y268477D01*
X706676Y268477D01*
X700457Y274696D01*
X700383Y274749D01*
X700313Y274809D01*
X700283Y274821D01*
X700257Y274840D01*
X700170Y274867D01*
X700085Y274901D01*
X700044Y274905D01*
X700022Y274912D01*
X699990Y274911D01*
X699918Y274919D01*
X505294Y274919D01*
X505203Y274905D01*
X505113Y274897D01*
X505083Y274885D01*
X505051Y274880D01*
X504970Y274837D01*
X504886Y274801D01*
X504854Y274775D01*
X504833Y274764D01*
X504811Y274741D01*
X504755Y274696D01*
X504029Y273970D01*
X501415Y272887D01*
X498585Y272887D01*
X495971Y273970D01*
X493970Y275971D01*
X492887Y278585D01*
X492887Y278864D01*
X492876Y278935D01*
X492874Y279007D01*
X492856Y279056D01*
X492848Y279107D01*
X492814Y279170D01*
X492789Y279238D01*
X492757Y279278D01*
X492732Y279324D01*
X492680Y279374D01*
X492636Y279430D01*
X492592Y279458D01*
X492554Y279494D01*
X492489Y279524D01*
X492429Y279563D01*
X492378Y279575D01*
X492331Y279597D01*
X492260Y279605D01*
X492190Y279623D01*
X492138Y279619D01*
X492087Y279624D01*
X492016Y279609D01*
X491945Y279604D01*
X491897Y279583D01*
X491846Y279572D01*
X491785Y279535D01*
X491719Y279507D01*
X491663Y279463D01*
X491635Y279446D01*
X491620Y279428D01*
X491588Y279403D01*
X390304Y178118D01*
X388565Y176380D01*
X388524Y176322D01*
X388474Y176270D01*
X388452Y176223D01*
X388422Y176181D01*
X388401Y176112D01*
X388371Y176047D01*
X388365Y175995D01*
X388350Y175945D01*
X388351Y175874D01*
X388344Y175803D01*
X388355Y175752D01*
X388356Y175700D01*
X388381Y175632D01*
X388396Y175562D01*
X388423Y175517D01*
X388440Y175469D01*
X388485Y175413D01*
X388522Y175351D01*
X388562Y175317D01*
X388594Y175277D01*
X388654Y175238D01*
X388709Y175191D01*
X388757Y175172D01*
X388801Y175144D01*
X388870Y175126D01*
X388937Y175099D01*
X389008Y175091D01*
X389040Y175083D01*
X389063Y175085D01*
X389104Y175081D01*
X627580Y175081D01*
X627670Y175095D01*
X627761Y175103D01*
X627791Y175115D01*
X627823Y175120D01*
X627904Y175163D01*
X627987Y175199D01*
X628020Y175225D01*
X628040Y175236D01*
X628062Y175259D01*
X628118Y175304D01*
X700746Y247931D01*
X700757Y247947D01*
X700773Y247959D01*
X700829Y248047D01*
X700889Y248131D01*
X700895Y248150D01*
X700906Y248166D01*
X700931Y248267D01*
X700961Y248366D01*
X700961Y248386D01*
X700966Y248405D01*
X700958Y248508D01*
X700955Y248611D01*
X700948Y248630D01*
X700947Y248650D01*
X700906Y248745D01*
X700871Y248843D01*
X700858Y248858D01*
X700850Y248876D01*
X700746Y249007D01*
X700277Y249476D01*
X700277Y258524D01*
X706676Y264923D01*
X715724Y264923D01*
X722123Y258524D01*
X722123Y251146D01*
X722134Y251075D01*
X722136Y251003D01*
X722154Y250954D01*
X722162Y250903D01*
X722196Y250840D01*
X722221Y250772D01*
X722253Y250732D01*
X722278Y250686D01*
X722330Y250636D01*
X722374Y250580D01*
X722418Y250552D01*
X722456Y250516D01*
X722521Y250486D01*
X722581Y250447D01*
X722632Y250435D01*
X722679Y250413D01*
X722750Y250405D01*
X722820Y250387D01*
X722872Y250391D01*
X722923Y250386D01*
X722994Y250401D01*
X723065Y250406D01*
X723113Y250427D01*
X723164Y250438D01*
X723225Y250475D01*
X723291Y250503D01*
X723347Y250547D01*
X723375Y250564D01*
X723390Y250582D01*
X723422Y250607D01*
X724696Y251882D01*
X724749Y251956D01*
X724809Y252025D01*
X724821Y252055D01*
X724840Y252081D01*
X724867Y252168D01*
X724901Y252253D01*
X724905Y252294D01*
X724912Y252316D01*
X724911Y252349D01*
X724919Y252420D01*
X724919Y294158D01*
X724916Y294178D01*
X724918Y294197D01*
X724896Y294299D01*
X724880Y294401D01*
X724870Y294418D01*
X724866Y294438D01*
X724813Y294527D01*
X724764Y294618D01*
X724750Y294632D01*
X724740Y294649D01*
X724661Y294716D01*
X724586Y294788D01*
X724568Y294796D01*
X724553Y294809D01*
X724457Y294848D01*
X724363Y294891D01*
X724343Y294893D01*
X724325Y294901D01*
X724158Y294919D01*
X717082Y294919D01*
X716992Y294905D01*
X716901Y294897D01*
X716871Y294885D01*
X716839Y294880D01*
X716758Y294837D01*
X716674Y294801D01*
X716642Y294775D01*
X716622Y294764D01*
X716599Y294741D01*
X716543Y294696D01*
X715724Y293877D01*
X706676Y293877D01*
X700277Y300276D01*
X700277Y309324D01*
X706676Y315723D01*
X715724Y315723D01*
X722123Y309324D01*
X722123Y305842D01*
X722126Y305822D01*
X722124Y305803D01*
X722146Y305701D01*
X722162Y305599D01*
X722172Y305582D01*
X722176Y305562D01*
X722229Y305473D01*
X722278Y305382D01*
X722292Y305368D01*
X722302Y305351D01*
X722381Y305284D01*
X722456Y305212D01*
X722474Y305204D01*
X722489Y305191D01*
X722585Y305152D01*
X722679Y305109D01*
X722699Y305107D01*
X722717Y305099D01*
X722884Y305081D01*
X732105Y305081D01*
X735081Y302105D01*
X735081Y247895D01*
X632105Y144919D01*
X365842Y144919D01*
X365822Y144916D01*
X365803Y144918D01*
X365701Y144896D01*
X365599Y144880D01*
X365582Y144870D01*
X365562Y144866D01*
X365473Y144813D01*
X365382Y144764D01*
X365368Y144750D01*
X365351Y144740D01*
X365284Y144661D01*
X365212Y144586D01*
X365204Y144568D01*
X365191Y144553D01*
X365152Y144457D01*
X365109Y144363D01*
X365107Y144343D01*
X365099Y144325D01*
X365081Y144158D01*
X365081Y134719D01*
X365095Y134628D01*
X365103Y134538D01*
X365115Y134508D01*
X365120Y134476D01*
X365163Y134395D01*
X365199Y134311D01*
X365225Y134279D01*
X365236Y134258D01*
X365259Y134236D01*
X365304Y134180D01*
X365721Y133763D01*
X367539Y129375D01*
X367539Y124625D01*
X365721Y120237D01*
X362363Y116879D01*
X357975Y115061D01*
X353225Y115061D01*
X348837Y116879D01*
X345479Y120237D01*
X343661Y124625D01*
X343661Y129375D01*
X345479Y133763D01*
X348837Y137121D01*
X353225Y138939D01*
X354158Y138939D01*
X354178Y138942D01*
X354197Y138940D01*
X354299Y138962D01*
X354401Y138978D01*
X354418Y138988D01*
X354438Y138992D01*
X354527Y139045D01*
X354618Y139094D01*
X354632Y139108D01*
X354649Y139118D01*
X354716Y139197D01*
X354788Y139272D01*
X354796Y139290D01*
X354809Y139305D01*
X354848Y139401D01*
X354891Y139495D01*
X354893Y139515D01*
X354901Y139533D01*
X354919Y139700D01*
X354919Y152105D01*
X357895Y155081D01*
X627580Y155081D01*
X627670Y155095D01*
X627761Y155103D01*
X627791Y155115D01*
X627823Y155120D01*
X627904Y155163D01*
X627987Y155199D01*
X628020Y155225D01*
X628040Y155236D01*
X628062Y155259D01*
X628118Y155304D01*
X714593Y241778D01*
X714634Y241836D01*
X714684Y241888D01*
X714706Y241935D01*
X714736Y241977D01*
X714757Y242046D01*
X714787Y242111D01*
X714793Y242163D01*
X714808Y242213D01*
X714807Y242284D01*
X714814Y242355D01*
X714803Y242406D01*
X714802Y242458D01*
X714777Y242526D01*
X714762Y242596D01*
X714736Y242640D01*
X714718Y242689D01*
X714673Y242745D01*
X714636Y242807D01*
X714596Y242841D01*
X714564Y242881D01*
X714504Y242920D01*
X714449Y242967D01*
X714401Y242986D01*
X714357Y243014D01*
X714288Y243032D01*
X714221Y243059D01*
X714150Y243067D01*
X714118Y243075D01*
X714095Y243073D01*
X714054Y243077D01*
X710578Y243077D01*
X710488Y243063D01*
X710397Y243055D01*
X710367Y243043D01*
X710335Y243038D01*
X710254Y242995D01*
X710170Y242959D01*
X710138Y242933D01*
X710118Y242922D01*
X710095Y242899D01*
X710040Y242854D01*
X635304Y168118D01*
X632105Y164919D01*
X265294Y164919D01*
X265203Y164905D01*
X265113Y164897D01*
X265083Y164885D01*
X265051Y164880D01*
X264970Y164837D01*
X264886Y164801D01*
X264854Y164775D01*
X264833Y164764D01*
X264811Y164741D01*
X264755Y164696D01*
X264029Y163970D01*
X261415Y162887D01*
X258585Y162887D01*
X256133Y163903D01*
X256089Y163913D01*
X256047Y163933D01*
X255970Y163941D01*
X255894Y163959D01*
X255848Y163955D01*
X255803Y163960D01*
X255726Y163943D01*
X255649Y163936D01*
X255607Y163917D01*
X255562Y163908D01*
X255495Y163868D01*
X255424Y163836D01*
X255390Y163805D01*
X255351Y163781D01*
X255300Y163722D01*
X255243Y163670D01*
X255221Y163629D01*
X255191Y163594D01*
X255162Y163522D01*
X255125Y163454D01*
X255116Y163409D01*
X255099Y163366D01*
X255084Y163230D01*
X255081Y163212D01*
X255082Y163207D01*
X255081Y163200D01*
X255081Y100842D01*
X255084Y100822D01*
X255082Y100803D01*
X255104Y100701D01*
X255120Y100599D01*
X255130Y100582D01*
X255134Y100562D01*
X255187Y100473D01*
X255236Y100382D01*
X255250Y100368D01*
X255260Y100351D01*
X255339Y100284D01*
X255414Y100212D01*
X255432Y100204D01*
X255447Y100191D01*
X255543Y100152D01*
X255637Y100109D01*
X255657Y100107D01*
X255675Y100099D01*
X255842Y100081D01*
X325896Y100081D01*
X325967Y100092D01*
X326039Y100094D01*
X326088Y100112D01*
X326139Y100120D01*
X326202Y100154D01*
X326270Y100179D01*
X326310Y100211D01*
X326356Y100236D01*
X326406Y100288D01*
X326462Y100332D01*
X326490Y100376D01*
X326526Y100414D01*
X326556Y100479D01*
X326595Y100539D01*
X326607Y100590D01*
X326629Y100637D01*
X326637Y100708D01*
X326655Y100778D01*
X326651Y100830D01*
X326656Y100881D01*
X326641Y100952D01*
X326636Y101023D01*
X326615Y101071D01*
X326604Y101122D01*
X326567Y101183D01*
X326539Y101249D01*
X326495Y101305D01*
X326478Y101333D01*
X326460Y101348D01*
X326435Y101380D01*
X324919Y102895D01*
X324919Y115756D01*
X324900Y115871D01*
X324883Y115987D01*
X324881Y115993D01*
X324880Y115999D01*
X324825Y116102D01*
X324772Y116207D01*
X324767Y116211D01*
X324764Y116216D01*
X324680Y116296D01*
X324596Y116379D01*
X324590Y116382D01*
X324586Y116386D01*
X324569Y116394D01*
X324449Y116460D01*
X323437Y116879D01*
X320079Y120237D01*
X318261Y124625D01*
X318261Y129375D01*
X320079Y133763D01*
X323437Y137121D01*
X327825Y138939D01*
X332575Y138939D01*
X336963Y137121D01*
X340321Y133763D01*
X342139Y129375D01*
X342139Y124625D01*
X340321Y120237D01*
X336963Y116879D01*
X335551Y116294D01*
X335451Y116232D01*
X335351Y116172D01*
X335347Y116168D01*
X335342Y116164D01*
X335267Y116074D01*
X335191Y115986D01*
X335189Y115980D01*
X335185Y115975D01*
X335143Y115866D01*
X335099Y115757D01*
X335098Y115750D01*
X335097Y115745D01*
X335096Y115727D01*
X335081Y115591D01*
X335081Y110842D01*
X335084Y110822D01*
X335082Y110803D01*
X335104Y110701D01*
X335120Y110599D01*
X335130Y110582D01*
X335134Y110562D01*
X335187Y110473D01*
X335236Y110382D01*
X335250Y110368D01*
X335260Y110351D01*
X335339Y110284D01*
X335414Y110212D01*
X335432Y110204D01*
X335447Y110191D01*
X335543Y110152D01*
X335637Y110109D01*
X335657Y110107D01*
X335675Y110099D01*
X335842Y110081D01*
X602580Y110081D01*
X602670Y110095D01*
X602761Y110103D01*
X602791Y110115D01*
X602823Y110120D01*
X602904Y110163D01*
X602987Y110199D01*
X603020Y110225D01*
X603040Y110236D01*
X603062Y110259D01*
X603118Y110304D01*
X871435Y378620D01*
X871476Y378678D01*
X871526Y378730D01*
X871548Y378777D01*
X871578Y378819D01*
X871599Y378888D01*
X871629Y378953D01*
X871635Y379005D01*
X871650Y379055D01*
X871649Y379126D01*
X871656Y379197D01*
X871645Y379248D01*
X871644Y379300D01*
X871619Y379368D01*
X871604Y379438D01*
X871578Y379482D01*
X871560Y379531D01*
X871515Y379587D01*
X871478Y379649D01*
X871438Y379683D01*
X871406Y379723D01*
X871346Y379762D01*
X871291Y379809D01*
X871243Y379828D01*
X871199Y379856D01*
X871130Y379874D01*
X871063Y379901D01*
X870992Y379909D01*
X870960Y379917D01*
X870937Y379915D01*
X870896Y379919D01*
X722884Y379919D01*
X722864Y379916D01*
X722845Y379918D01*
X722743Y379896D01*
X722641Y379880D01*
X722624Y379870D01*
X722604Y379866D01*
X722515Y379813D01*
X722424Y379764D01*
X722410Y379750D01*
X722393Y379740D01*
X722326Y379661D01*
X722254Y379586D01*
X722246Y379568D01*
X722233Y379553D01*
X722194Y379457D01*
X722151Y379363D01*
X722149Y379343D01*
X722141Y379325D01*
X722123Y379158D01*
X722123Y376476D01*
X715724Y370077D01*
X708946Y370077D01*
X708875Y370066D01*
X708803Y370064D01*
X708754Y370046D01*
X708703Y370038D01*
X708640Y370004D01*
X708572Y369979D01*
X708532Y369947D01*
X708486Y369922D01*
X708436Y369871D01*
X708380Y369826D01*
X708352Y369782D01*
X708316Y369744D01*
X708286Y369679D01*
X708247Y369619D01*
X708235Y369568D01*
X708213Y369521D01*
X708205Y369450D01*
X708187Y369380D01*
X708191Y369328D01*
X708186Y369277D01*
X708201Y369206D01*
X708206Y369135D01*
X708227Y369087D01*
X708238Y369036D01*
X708275Y368975D01*
X708303Y368909D01*
X708347Y368853D01*
X708364Y368825D01*
X708382Y368810D01*
X708407Y368778D01*
X710440Y366746D01*
X710513Y366693D01*
X710583Y366633D01*
X710613Y366621D01*
X710639Y366602D01*
X710726Y366575D01*
X710811Y366541D01*
X710852Y366537D01*
X710874Y366530D01*
X710907Y366531D01*
X710978Y366523D01*
X715724Y366523D01*
X722123Y360124D01*
X722123Y351076D01*
X715724Y344677D01*
X706676Y344677D01*
X700277Y351076D01*
X700277Y360124D01*
X700946Y360793D01*
X700957Y360809D01*
X700973Y360821D01*
X701029Y360908D01*
X701089Y360992D01*
X701095Y361011D01*
X701106Y361028D01*
X701131Y361129D01*
X701161Y361227D01*
X701161Y361247D01*
X701166Y361267D01*
X701158Y361370D01*
X701155Y361473D01*
X701148Y361492D01*
X701147Y361512D01*
X701106Y361607D01*
X701071Y361704D01*
X701058Y361720D01*
X701050Y361738D01*
X700946Y361869D01*
X693118Y369696D01*
X689919Y372895D01*
X689919Y392105D01*
X914696Y616882D01*
X914749Y616955D01*
X914809Y617025D01*
X914821Y617055D01*
X914840Y617081D01*
X914867Y617168D01*
X914901Y617253D01*
X914905Y617294D01*
X914912Y617316D01*
X914911Y617349D01*
X914919Y617420D01*
X914919Y972105D01*
X929696Y986882D01*
X931435Y988620D01*
X931476Y988678D01*
X931526Y988730D01*
X931548Y988777D01*
X931578Y988819D01*
X931599Y988888D01*
X931629Y988953D01*
X931635Y989005D01*
X931650Y989055D01*
X931649Y989126D01*
X931656Y989197D01*
X931645Y989248D01*
X931644Y989300D01*
X931619Y989368D01*
X931604Y989438D01*
X931577Y989483D01*
X931560Y989531D01*
X931515Y989587D01*
X931478Y989649D01*
X931438Y989683D01*
X931406Y989723D01*
X931346Y989762D01*
X931291Y989809D01*
X931243Y989828D01*
X931199Y989856D01*
X931130Y989874D01*
X931063Y989901D01*
X930992Y989909D01*
X930960Y989917D01*
X930937Y989915D01*
X930896Y989919D01*
X285842Y989919D01*
X285822Y989916D01*
X285803Y989918D01*
X285701Y989896D01*
X285599Y989880D01*
X285582Y989870D01*
X285562Y989866D01*
X285473Y989813D01*
X285382Y989764D01*
X285368Y989750D01*
X285351Y989740D01*
X285284Y989661D01*
X285212Y989586D01*
X285204Y989568D01*
X285191Y989553D01*
X285152Y989457D01*
X285109Y989363D01*
X285107Y989343D01*
X285099Y989325D01*
X285081Y989158D01*
X285081Y976278D01*
X285100Y976163D01*
X285117Y976047D01*
X285119Y976041D01*
X285120Y976035D01*
X285175Y975932D01*
X285228Y975828D01*
X285233Y975823D01*
X285236Y975818D01*
X285321Y975737D01*
X285404Y975656D01*
X285410Y975652D01*
X285414Y975648D01*
X285431Y975641D01*
X285551Y975575D01*
X286163Y975321D01*
X289521Y971963D01*
X291339Y967575D01*
X291339Y962825D01*
X289521Y958437D01*
X286163Y955079D01*
X281775Y953261D01*
X277025Y953261D01*
X272637Y955079D01*
X269279Y958437D01*
X267461Y962825D01*
X267461Y967575D01*
X269279Y971963D01*
X272637Y975321D01*
X274449Y976072D01*
X274549Y976133D01*
X274649Y976193D01*
X274653Y976198D01*
X274658Y976201D01*
X274733Y976291D01*
X274809Y976380D01*
X274811Y976386D01*
X274815Y976391D01*
X274857Y976499D01*
X274901Y976608D01*
X274902Y976616D01*
X274903Y976620D01*
X274904Y976639D01*
X274919Y976775D01*
X274919Y997105D01*
X277895Y1000081D01*
X967105Y1000081D01*
X970304Y996882D01*
X981588Y985597D01*
X981646Y985556D01*
X981698Y985506D01*
X981745Y985484D01*
X981787Y985454D01*
X981856Y985433D01*
X981921Y985403D01*
X981973Y985397D01*
X982023Y985382D01*
X982094Y985383D01*
X982165Y985376D01*
X982216Y985387D01*
X982268Y985388D01*
X982336Y985413D01*
X982406Y985428D01*
X982451Y985455D01*
X982499Y985472D01*
X982555Y985517D01*
X982617Y985554D01*
X982651Y985594D01*
X982691Y985626D01*
X982730Y985686D01*
X982777Y985741D01*
X982796Y985789D01*
X982824Y985833D01*
X982842Y985902D01*
X982869Y985969D01*
X982877Y986040D01*
X982885Y986072D01*
X982883Y986095D01*
X982887Y986136D01*
X982887Y986415D01*
X983970Y989029D01*
X985971Y991030D01*
X988585Y992113D01*
X991415Y992113D01*
X994029Y991030D01*
X996030Y989029D01*
X997113Y986415D01*
X997113Y985388D01*
X997127Y985298D01*
X997135Y985207D01*
X997147Y985177D01*
X997152Y985145D01*
X997195Y985064D01*
X997231Y984981D01*
X997257Y984948D01*
X997268Y984928D01*
X997291Y984906D01*
X997336Y984850D01*
X1036588Y945597D01*
X1036646Y945556D01*
X1036698Y945506D01*
X1036745Y945484D01*
X1036787Y945454D01*
X1036856Y945433D01*
X1036921Y945403D01*
X1036973Y945397D01*
X1037023Y945382D01*
X1037094Y945383D01*
X1037165Y945376D01*
X1037216Y945387D01*
X1037268Y945388D01*
X1037336Y945413D01*
X1037406Y945428D01*
X1037451Y945455D01*
X1037499Y945472D01*
X1037555Y945517D01*
X1037617Y945554D01*
X1037651Y945594D01*
X1037691Y945626D01*
X1037730Y945686D01*
X1037777Y945741D01*
X1037796Y945789D01*
X1037824Y945833D01*
X1037842Y945902D01*
X1037869Y945969D01*
X1037877Y946040D01*
X1037885Y946072D01*
X1037883Y946095D01*
X1037887Y946136D01*
X1037887Y946415D01*
X1038970Y949029D01*
X1040971Y951030D01*
X1043585Y952113D01*
X1046415Y952113D01*
X1049029Y951030D01*
X1051030Y949029D01*
X1052113Y946415D01*
X1052113Y945388D01*
X1052127Y945298D01*
X1052135Y945207D01*
X1052147Y945177D01*
X1052152Y945145D01*
X1052195Y945064D01*
X1052231Y944981D01*
X1052257Y944948D01*
X1052268Y944928D01*
X1052291Y944906D01*
X1052336Y944850D01*
X1240081Y757105D01*
X1240081Y342895D01*
X1204946Y307760D01*
X1204893Y307687D01*
X1204833Y307617D01*
X1204821Y307587D01*
X1204802Y307561D01*
X1204775Y307474D01*
X1204741Y307389D01*
X1204737Y307348D01*
X1204730Y307326D01*
X1204731Y307293D01*
X1204723Y307222D01*
X1204723Y300276D01*
X1198324Y293877D01*
X1189276Y293877D01*
X1182877Y300276D01*
X1182877Y309324D01*
X1189276Y315723D01*
X1198222Y315723D01*
X1198312Y315737D01*
X1198403Y315745D01*
X1198433Y315757D01*
X1198465Y315762D01*
X1198546Y315805D01*
X1198629Y315841D01*
X1198662Y315867D01*
X1198682Y315878D01*
X1198704Y315901D01*
X1198760Y315946D01*
X1229696Y346882D01*
X1229742Y346945D01*
X1229762Y346966D01*
X1229766Y346975D01*
X1229809Y347025D01*
X1229821Y347055D01*
X1229840Y347081D01*
X1229867Y347168D01*
X1229901Y347253D01*
X1229905Y347294D01*
X1229912Y347316D01*
X1229911Y347349D01*
X1229919Y347420D01*
X1229919Y360896D01*
X1229908Y360967D01*
X1229906Y361039D01*
X1229888Y361088D01*
X1229880Y361139D01*
X1229846Y361202D01*
X1229821Y361270D01*
X1229789Y361310D01*
X1229764Y361356D01*
X1229712Y361406D01*
X1229668Y361462D01*
X1229624Y361490D01*
X1229586Y361526D01*
X1229521Y361556D01*
X1229461Y361595D01*
X1229410Y361607D01*
X1229363Y361629D01*
X1229292Y361637D01*
X1229222Y361655D01*
X1229170Y361651D01*
X1229119Y361656D01*
X1229048Y361641D01*
X1228977Y361636D01*
X1228929Y361615D01*
X1228878Y361604D01*
X1228817Y361567D01*
X1228751Y361539D01*
X1228695Y361495D01*
X1228667Y361478D01*
X1228652Y361460D01*
X1228620Y361435D01*
X1226882Y359696D01*
X1203854Y336669D01*
X1203843Y336653D01*
X1203827Y336641D01*
X1203771Y336553D01*
X1203711Y336469D01*
X1203705Y336450D01*
X1203694Y336434D01*
X1203669Y336333D01*
X1203639Y336234D01*
X1203639Y336214D01*
X1203634Y336195D01*
X1203642Y336092D01*
X1203645Y335989D01*
X1203652Y335970D01*
X1203653Y335950D01*
X1203694Y335855D01*
X1203729Y335757D01*
X1203742Y335742D01*
X1203750Y335724D01*
X1203854Y335593D01*
X1204723Y334724D01*
X1204723Y325676D01*
X1198324Y319277D01*
X1189276Y319277D01*
X1182877Y325676D01*
X1182877Y334724D01*
X1189276Y341123D01*
X1193622Y341123D01*
X1193712Y341137D01*
X1193803Y341145D01*
X1193833Y341157D01*
X1193865Y341162D01*
X1193945Y341205D01*
X1194029Y341241D01*
X1194062Y341267D01*
X1194082Y341278D01*
X1194104Y341301D01*
X1194160Y341346D01*
X1196193Y343378D01*
X1196234Y343436D01*
X1196284Y343488D01*
X1196306Y343535D01*
X1196336Y343577D01*
X1196357Y343646D01*
X1196387Y343711D01*
X1196393Y343763D01*
X1196408Y343813D01*
X1196407Y343884D01*
X1196414Y343955D01*
X1196403Y344006D01*
X1196402Y344058D01*
X1196377Y344126D01*
X1196362Y344196D01*
X1196335Y344241D01*
X1196318Y344289D01*
X1196273Y344345D01*
X1196236Y344407D01*
X1196196Y344441D01*
X1196164Y344481D01*
X1196104Y344520D01*
X1196049Y344567D01*
X1196001Y344586D01*
X1195957Y344614D01*
X1195888Y344632D01*
X1195821Y344659D01*
X1195750Y344667D01*
X1195718Y344675D01*
X1195695Y344673D01*
X1195654Y344677D01*
X1189276Y344677D01*
X1182877Y351076D01*
X1182877Y360124D01*
X1189276Y366523D01*
X1194022Y366523D01*
X1194112Y366537D01*
X1194203Y366545D01*
X1194233Y366557D01*
X1194265Y366562D01*
X1194345Y366605D01*
X1194429Y366641D01*
X1194462Y366667D01*
X1194482Y366678D01*
X1194504Y366701D01*
X1194560Y366746D01*
X1196593Y368778D01*
X1196634Y368836D01*
X1196684Y368888D01*
X1196706Y368935D01*
X1196736Y368977D01*
X1196757Y369046D01*
X1196787Y369111D01*
X1196793Y369163D01*
X1196808Y369213D01*
X1196807Y369284D01*
X1196814Y369355D01*
X1196803Y369406D01*
X1196802Y369458D01*
X1196777Y369526D01*
X1196762Y369596D01*
X1196735Y369641D01*
X1196718Y369689D01*
X1196673Y369745D01*
X1196636Y369807D01*
X1196596Y369841D01*
X1196564Y369881D01*
X1196504Y369920D01*
X1196449Y369967D01*
X1196401Y369986D01*
X1196357Y370014D01*
X1196288Y370032D01*
X1196221Y370059D01*
X1196150Y370067D01*
X1196118Y370075D01*
X1196095Y370073D01*
X1196054Y370077D01*
X1189276Y370077D01*
X1182877Y376476D01*
X1182877Y385524D01*
X1189276Y391923D01*
X1198324Y391923D01*
X1204723Y385524D01*
X1204723Y378746D01*
X1204734Y378675D01*
X1204736Y378603D01*
X1204754Y378554D01*
X1204762Y378503D01*
X1204796Y378440D01*
X1204821Y378372D01*
X1204853Y378332D01*
X1204878Y378286D01*
X1204930Y378236D01*
X1204974Y378180D01*
X1205018Y378152D01*
X1205056Y378116D01*
X1205121Y378086D01*
X1205181Y378047D01*
X1205232Y378035D01*
X1205279Y378013D01*
X1205350Y378005D01*
X1205420Y377987D01*
X1205472Y377991D01*
X1205523Y377986D01*
X1205594Y378001D01*
X1205665Y378006D01*
X1205713Y378027D01*
X1205764Y378038D01*
X1205825Y378075D01*
X1205891Y378103D01*
X1205947Y378147D01*
X1205975Y378164D01*
X1205990Y378182D01*
X1206022Y378207D01*
X1209696Y381882D01*
X1209739Y381941D01*
X1209780Y381984D01*
X1209787Y381999D01*
X1209809Y382025D01*
X1209821Y382055D01*
X1209840Y382081D01*
X1209867Y382168D01*
X1209875Y382189D01*
X1209883Y382207D01*
X1209884Y382211D01*
X1209901Y382253D01*
X1209905Y382294D01*
X1209912Y382316D01*
X1209911Y382349D01*
X1209919Y382420D01*
X1209919Y742580D01*
X1209905Y742670D01*
X1209897Y742761D01*
X1209885Y742791D01*
X1209880Y742823D01*
X1209837Y742904D01*
X1209801Y742987D01*
X1209775Y743020D01*
X1209764Y743040D01*
X1209741Y743062D01*
X1209696Y743118D01*
X966380Y986435D01*
X966322Y986476D01*
X966270Y986526D01*
X966223Y986548D01*
X966181Y986578D01*
X966112Y986599D01*
X966047Y986629D01*
X965995Y986635D01*
X965945Y986650D01*
X965874Y986649D01*
X965803Y986656D01*
X965752Y986645D01*
X965700Y986644D01*
X965632Y986619D01*
X965562Y986604D01*
X965518Y986578D01*
X965469Y986560D01*
X965413Y986515D01*
X965351Y986478D01*
X965317Y986438D01*
X965277Y986406D01*
X965238Y986346D01*
X965191Y986291D01*
X965172Y986243D01*
X965144Y986199D01*
X965126Y986130D01*
X965099Y986063D01*
X965091Y985992D01*
X965083Y985960D01*
X965085Y985937D01*
X965081Y985896D01*
X965081Y977900D01*
X965084Y977880D01*
X965082Y977861D01*
X965104Y977759D01*
X965120Y977657D01*
X965130Y977640D01*
X965134Y977620D01*
X965187Y977531D01*
X965236Y977440D01*
X965250Y977426D01*
X965260Y977409D01*
X965339Y977342D01*
X965414Y977270D01*
X965432Y977262D01*
X965447Y977249D01*
X965543Y977210D01*
X965637Y977167D01*
X965657Y977165D01*
X965675Y977157D01*
X965842Y977139D01*
X967575Y977139D01*
X971963Y975321D01*
X975321Y971963D01*
X977139Y967575D01*
X977139Y962825D01*
X975321Y958437D01*
X971963Y955079D01*
X967575Y953261D01*
X962825Y953261D01*
X958437Y955079D01*
X955079Y958437D01*
X953261Y962825D01*
X953261Y967575D01*
X954861Y971438D01*
X954876Y971501D01*
X954901Y971562D01*
X954910Y971645D01*
X954917Y971677D01*
X954916Y971696D01*
X954919Y971729D01*
X954919Y979158D01*
X954916Y979178D01*
X954918Y979197D01*
X954896Y979299D01*
X954880Y979401D01*
X954870Y979418D01*
X954866Y979438D01*
X954813Y979527D01*
X954764Y979618D01*
X954750Y979632D01*
X954740Y979649D01*
X954661Y979716D01*
X954586Y979788D01*
X954568Y979796D01*
X954553Y979809D01*
X954457Y979848D01*
X954363Y979891D01*
X954343Y979893D01*
X954325Y979901D01*
X954158Y979919D01*
X937420Y979919D01*
X937330Y979905D01*
X937239Y979897D01*
X937209Y979885D01*
X937177Y979880D01*
X937096Y979837D01*
X937013Y979801D01*
X936980Y979775D01*
X936960Y979764D01*
X936938Y979741D01*
X936882Y979696D01*
X934837Y977652D01*
X934780Y977573D01*
X934718Y977498D01*
X934709Y977473D01*
X934694Y977452D01*
X934665Y977359D01*
X934630Y977268D01*
X934629Y977242D01*
X934621Y977217D01*
X934624Y977120D01*
X934620Y977022D01*
X934627Y976997D01*
X934628Y976971D01*
X934661Y976880D01*
X934688Y976786D01*
X934703Y976765D01*
X934712Y976740D01*
X934773Y976664D01*
X934828Y976584D01*
X934849Y976569D01*
X934866Y976548D01*
X934948Y976495D01*
X935026Y976437D01*
X935051Y976429D01*
X935073Y976415D01*
X935167Y976391D01*
X935260Y976361D01*
X935286Y976361D01*
X935311Y976355D01*
X935408Y976363D01*
X935506Y976364D01*
X935537Y976373D01*
X935556Y976374D01*
X935587Y976387D01*
X935667Y976410D01*
X937425Y977139D01*
X942175Y977139D01*
X946563Y975321D01*
X949921Y971963D01*
X951739Y967575D01*
X951739Y962825D01*
X949921Y958437D01*
X946563Y955079D01*
X942175Y953261D01*
X940842Y953261D01*
X940822Y953258D01*
X940803Y953260D01*
X940701Y953238D01*
X940599Y953222D01*
X940582Y953212D01*
X940562Y953208D01*
X940473Y953155D01*
X940382Y953106D01*
X940368Y953092D01*
X940351Y953082D01*
X940284Y953003D01*
X940212Y952928D01*
X940204Y952910D01*
X940191Y952895D01*
X940152Y952799D01*
X940109Y952705D01*
X940107Y952685D01*
X940099Y952667D01*
X940081Y952500D01*
X940081Y612895D01*
X875304Y548118D01*
X875258Y548055D01*
X875236Y548031D01*
X875231Y548022D01*
X875191Y547975D01*
X875179Y547945D01*
X875160Y547919D01*
X875133Y547832D01*
X875099Y547747D01*
X875095Y547706D01*
X875088Y547684D01*
X875089Y547651D01*
X875081Y547580D01*
X875081Y384104D01*
X875092Y384033D01*
X875094Y383961D01*
X875112Y383912D01*
X875120Y383861D01*
X875154Y383798D01*
X875179Y383730D01*
X875211Y383690D01*
X875236Y383644D01*
X875288Y383594D01*
X875332Y383538D01*
X875376Y383510D01*
X875414Y383474D01*
X875479Y383444D01*
X875539Y383405D01*
X875590Y383393D01*
X875637Y383371D01*
X875708Y383363D01*
X875778Y383345D01*
X875830Y383349D01*
X875881Y383344D01*
X875952Y383359D01*
X876023Y383364D01*
X876071Y383385D01*
X876122Y383396D01*
X876183Y383433D01*
X876249Y383461D01*
X876305Y383505D01*
X876333Y383522D01*
X876348Y383540D01*
X876380Y383565D01*
X907664Y414850D01*
X907717Y414923D01*
X907777Y414993D01*
X907789Y415023D01*
X907808Y415049D01*
X907835Y415136D01*
X907869Y415221D01*
X907873Y415262D01*
X907880Y415284D01*
X907879Y415317D01*
X907887Y415388D01*
X907887Y416415D01*
X908970Y419029D01*
X910971Y421030D01*
X913585Y422113D01*
X916415Y422113D01*
X919029Y421030D01*
X921030Y419029D01*
X922113Y416415D01*
X922113Y413585D01*
X921030Y410971D01*
X919029Y408970D01*
X916415Y407887D01*
X915388Y407887D01*
X915298Y407873D01*
X915207Y407865D01*
X915177Y407853D01*
X915145Y407848D01*
X915064Y407805D01*
X914981Y407769D01*
X914948Y407743D01*
X914928Y407732D01*
X914906Y407709D01*
X914850Y407664D01*
X608565Y101380D01*
X608524Y101322D01*
X608474Y101270D01*
X608452Y101223D01*
X608422Y101181D01*
X608401Y101112D01*
X608371Y101047D01*
X608365Y100995D01*
X608350Y100945D01*
X608351Y100874D01*
X608344Y100803D01*
X608355Y100752D01*
X608356Y100700D01*
X608381Y100632D01*
X608396Y100562D01*
X608422Y100518D01*
X608440Y100469D01*
X608485Y100413D01*
X608522Y100351D01*
X608562Y100317D01*
X608594Y100277D01*
X608654Y100238D01*
X608709Y100191D01*
X608757Y100172D01*
X608801Y100144D01*
X608870Y100126D01*
X608937Y100099D01*
X609008Y100091D01*
X609040Y100083D01*
X609063Y100085D01*
X609104Y100081D01*
X632580Y100081D01*
X632670Y100095D01*
X632761Y100103D01*
X632791Y100115D01*
X632823Y100120D01*
X632904Y100163D01*
X632987Y100199D01*
X633020Y100225D01*
X633040Y100236D01*
X633062Y100259D01*
X633118Y100304D01*
X1182654Y649840D01*
X1182697Y649899D01*
X1182740Y649944D01*
X1182747Y649960D01*
X1182767Y649983D01*
X1182779Y650013D01*
X1182798Y650039D01*
X1182825Y650126D01*
X1182826Y650130D01*
X1182843Y650167D01*
X1182844Y650175D01*
X1182859Y650211D01*
X1182863Y650252D01*
X1182870Y650274D01*
X1182869Y650307D01*
X1182877Y650378D01*
X1182877Y654764D01*
X1189276Y661163D01*
X1198324Y661163D01*
X1204723Y654764D01*
X1204723Y645716D01*
X1198324Y639317D01*
X1189276Y639317D01*
X1188427Y640166D01*
X1188411Y640177D01*
X1188399Y640193D01*
X1188312Y640249D01*
X1188228Y640309D01*
X1188209Y640315D01*
X1188192Y640326D01*
X1188091Y640351D01*
X1187993Y640381D01*
X1187973Y640381D01*
X1187953Y640386D01*
X1187850Y640378D01*
X1187747Y640375D01*
X1187728Y640368D01*
X1187708Y640367D01*
X1187613Y640326D01*
X1187516Y640291D01*
X1187500Y640278D01*
X1187482Y640270D01*
X1187351Y640166D01*
X1123565Y576380D01*
X1123524Y576322D01*
X1123474Y576270D01*
X1123452Y576223D01*
X1123422Y576181D01*
X1123401Y576112D01*
X1123371Y576047D01*
X1123365Y575995D01*
X1123350Y575945D01*
X1123351Y575874D01*
X1123344Y575803D01*
X1123355Y575752D01*
X1123356Y575700D01*
X1123381Y575632D01*
X1123396Y575562D01*
X1123422Y575518D01*
X1123440Y575469D01*
X1123485Y575413D01*
X1123522Y575351D01*
X1123562Y575317D01*
X1123594Y575277D01*
X1123654Y575238D01*
X1123709Y575191D01*
X1123757Y575172D01*
X1123801Y575144D01*
X1123870Y575126D01*
X1123937Y575099D01*
X1124008Y575091D01*
X1124040Y575083D01*
X1124063Y575085D01*
X1124104Y575081D01*
X1182116Y575081D01*
X1182136Y575084D01*
X1182155Y575082D01*
X1182257Y575104D01*
X1182359Y575120D01*
X1182376Y575130D01*
X1182396Y575134D01*
X1182485Y575187D01*
X1182576Y575236D01*
X1182590Y575250D01*
X1182607Y575260D01*
X1182674Y575339D01*
X1182746Y575414D01*
X1182754Y575432D01*
X1182767Y575447D01*
X1182806Y575543D01*
X1182849Y575637D01*
X1182851Y575657D01*
X1182859Y575675D01*
X1182877Y575842D01*
X1182877Y578564D01*
X1189276Y584963D01*
X1198324Y584963D01*
X1204723Y578564D01*
X1204723Y569516D01*
X1198324Y563117D01*
X1189276Y563117D01*
X1187697Y564696D01*
X1187623Y564749D01*
X1187553Y564809D01*
X1187523Y564821D01*
X1187497Y564840D01*
X1187410Y564867D01*
X1187325Y564901D01*
X1187284Y564905D01*
X1187262Y564912D01*
X1187230Y564911D01*
X1187158Y564919D01*
X1176800Y564919D01*
X1176755Y564912D01*
X1176709Y564914D01*
X1176634Y564892D01*
X1176558Y564880D01*
X1176517Y564858D01*
X1176473Y564845D01*
X1176409Y564801D01*
X1176340Y564764D01*
X1176309Y564731D01*
X1176271Y564705D01*
X1176224Y564642D01*
X1176171Y564586D01*
X1176152Y564544D01*
X1176124Y564508D01*
X1176100Y564434D01*
X1176067Y564363D01*
X1176062Y564317D01*
X1176048Y564274D01*
X1176049Y564196D01*
X1176040Y564119D01*
X1176050Y564074D01*
X1176050Y564028D01*
X1176088Y563896D01*
X1176092Y563878D01*
X1176095Y563874D01*
X1176097Y563867D01*
X1177113Y561415D01*
X1177113Y558585D01*
X1176030Y555971D01*
X1174029Y553970D01*
X1171415Y552887D01*
X1170388Y552887D01*
X1170298Y552873D01*
X1170207Y552865D01*
X1170177Y552853D01*
X1170145Y552848D01*
X1170064Y552805D01*
X1169981Y552769D01*
X1169948Y552743D01*
X1169928Y552732D01*
X1169906Y552709D01*
X1169850Y552664D01*
X712336Y95150D01*
X712283Y95077D01*
X712223Y95007D01*
X712211Y94977D01*
X712192Y94951D01*
X712165Y94864D01*
X712131Y94779D01*
X712127Y94738D01*
X712120Y94716D01*
X712121Y94683D01*
X712113Y94612D01*
X712113Y93585D01*
X711030Y90971D01*
X709029Y88970D01*
X706415Y87887D01*
X703585Y87887D01*
X700971Y88970D01*
X698970Y90971D01*
X697887Y93585D01*
X697887Y96415D01*
X698970Y99029D01*
X700971Y101030D01*
X703585Y102113D01*
X704612Y102113D01*
X704702Y102127D01*
X704793Y102135D01*
X704823Y102147D01*
X704855Y102152D01*
X704936Y102195D01*
X705019Y102231D01*
X705052Y102257D01*
X705072Y102268D01*
X705094Y102291D01*
X705150Y102336D01*
X1162664Y559850D01*
X1162717Y559923D01*
X1162777Y559993D01*
X1162789Y560023D01*
X1162808Y560049D01*
X1162835Y560136D01*
X1162869Y560221D01*
X1162873Y560262D01*
X1162880Y560284D01*
X1162879Y560317D01*
X1162887Y560388D01*
X1162887Y561415D01*
X1163903Y563867D01*
X1163913Y563911D01*
X1163933Y563953D01*
X1163941Y564030D01*
X1163959Y564106D01*
X1163955Y564152D01*
X1163960Y564197D01*
X1163943Y564274D01*
X1163936Y564351D01*
X1163917Y564393D01*
X1163908Y564438D01*
X1163868Y564505D01*
X1163836Y564576D01*
X1163805Y564610D01*
X1163781Y564649D01*
X1163722Y564700D01*
X1163670Y564757D01*
X1163629Y564779D01*
X1163594Y564809D01*
X1163522Y564838D01*
X1163454Y564875D01*
X1163409Y564884D01*
X1163366Y564901D01*
X1163230Y564916D01*
X1163212Y564919D01*
X1163207Y564918D01*
X1163200Y564919D01*
X1127420Y564919D01*
X1127330Y564905D01*
X1127239Y564897D01*
X1127209Y564885D01*
X1127177Y564880D01*
X1127096Y564837D01*
X1127013Y564801D01*
X1126980Y564775D01*
X1126960Y564764D01*
X1126938Y564741D01*
X1126882Y564696D01*
X645304Y83118D01*
X643565Y81380D01*
X643524Y81322D01*
X643474Y81270D01*
X643452Y81223D01*
X643422Y81181D01*
X643401Y81112D01*
X643371Y81047D01*
X643365Y80995D01*
X643350Y80945D01*
X643351Y80874D01*
X643344Y80803D01*
X643355Y80752D01*
X643356Y80700D01*
X643381Y80632D01*
X643396Y80562D01*
X643423Y80517D01*
X643440Y80469D01*
X643485Y80413D01*
X643522Y80351D01*
X643562Y80317D01*
X643594Y80277D01*
X643654Y80238D01*
X643709Y80191D01*
X643757Y80172D01*
X643801Y80144D01*
X643870Y80126D01*
X643937Y80099D01*
X644008Y80091D01*
X644040Y80083D01*
X644063Y80085D01*
X644104Y80081D01*
X717580Y80081D01*
X717670Y80095D01*
X717761Y80103D01*
X717791Y80115D01*
X717823Y80120D01*
X717904Y80163D01*
X717987Y80199D01*
X718020Y80225D01*
X718040Y80236D01*
X718062Y80259D01*
X718118Y80304D01*
X1182654Y544840D01*
X1182707Y544913D01*
X1182767Y544983D01*
X1182779Y545013D01*
X1182798Y545039D01*
X1182825Y545126D01*
X1182859Y545211D01*
X1182863Y545252D01*
X1182870Y545274D01*
X1182869Y545307D01*
X1182877Y545378D01*
X1182877Y553164D01*
X1189276Y559563D01*
X1198324Y559563D01*
X1204723Y553164D01*
X1204723Y544116D01*
X1198324Y537717D01*
X1190218Y537717D01*
X1190128Y537703D01*
X1190037Y537695D01*
X1190007Y537683D01*
X1189975Y537678D01*
X1189894Y537635D01*
X1189810Y537599D01*
X1189778Y537573D01*
X1189758Y537562D01*
X1189748Y537553D01*
X1189747Y537552D01*
X1189733Y537537D01*
X1189680Y537494D01*
X725304Y73118D01*
X722105Y69919D01*
X102895Y69919D01*
G37*
%LPD*%
%LPC*%
G36*
X124625Y318261D02*
X124625Y318261D01*
X120237Y320079D01*
X116879Y323437D01*
X115061Y327825D01*
X115061Y332575D01*
X116879Y336963D01*
X120237Y340321D01*
X124625Y342139D01*
X129421Y342139D01*
X129428Y342137D01*
X129541Y342109D01*
X129547Y342109D01*
X129553Y342108D01*
X129671Y342119D01*
X129786Y342128D01*
X129792Y342130D01*
X129798Y342131D01*
X129907Y342179D01*
X130013Y342224D01*
X130018Y342229D01*
X130023Y342231D01*
X130037Y342244D01*
X130144Y342329D01*
X154696Y366882D01*
X154749Y366955D01*
X154809Y367025D01*
X154821Y367055D01*
X154840Y367081D01*
X154867Y367168D01*
X154901Y367253D01*
X154905Y367294D01*
X154912Y367316D01*
X154911Y367349D01*
X154919Y367420D01*
X154919Y462105D01*
X257276Y564462D01*
X257288Y564478D01*
X257304Y564490D01*
X257360Y564578D01*
X257420Y564661D01*
X257426Y564680D01*
X257437Y564697D01*
X257462Y564798D01*
X257492Y564897D01*
X257492Y564916D01*
X257497Y564936D01*
X257489Y565039D01*
X257486Y565142D01*
X257479Y565161D01*
X257478Y565181D01*
X257437Y565276D01*
X257402Y565373D01*
X257389Y565389D01*
X257381Y565407D01*
X257276Y565538D01*
X253118Y569696D01*
X249919Y572895D01*
X249919Y953459D01*
X249900Y953574D01*
X249883Y953690D01*
X249881Y953696D01*
X249880Y953702D01*
X249825Y953805D01*
X249772Y953909D01*
X249767Y953914D01*
X249764Y953919D01*
X249680Y953999D01*
X249596Y954082D01*
X249590Y954085D01*
X249586Y954089D01*
X249569Y954097D01*
X249449Y954163D01*
X247237Y955079D01*
X243879Y958437D01*
X242061Y962825D01*
X242061Y967575D01*
X243879Y971963D01*
X247237Y975321D01*
X251625Y977139D01*
X256375Y977139D01*
X260763Y975321D01*
X264121Y971963D01*
X265939Y967575D01*
X265939Y962825D01*
X264121Y958437D01*
X260763Y955079D01*
X260551Y954991D01*
X260452Y954930D01*
X260351Y954869D01*
X260347Y954865D01*
X260342Y954861D01*
X260267Y954772D01*
X260191Y954683D01*
X260189Y954677D01*
X260185Y954672D01*
X260143Y954564D01*
X260099Y954454D01*
X260098Y954447D01*
X260097Y954442D01*
X260096Y954424D01*
X260081Y954288D01*
X260081Y577420D01*
X260095Y577330D01*
X260103Y577239D01*
X260115Y577209D01*
X260120Y577177D01*
X260163Y577096D01*
X260199Y577013D01*
X260225Y576980D01*
X260236Y576960D01*
X260259Y576938D01*
X260304Y576882D01*
X264462Y572724D01*
X264478Y572712D01*
X264490Y572696D01*
X264578Y572640D01*
X264661Y572580D01*
X264680Y572574D01*
X264697Y572563D01*
X264798Y572538D01*
X264897Y572508D01*
X264916Y572508D01*
X264936Y572503D01*
X265039Y572511D01*
X265142Y572514D01*
X265161Y572521D01*
X265181Y572522D01*
X265276Y572563D01*
X265373Y572598D01*
X265389Y572611D01*
X265407Y572619D01*
X265538Y572724D01*
X269227Y576412D01*
X269239Y576429D01*
X269254Y576441D01*
X269310Y576528D01*
X269371Y576612D01*
X269377Y576631D01*
X269387Y576648D01*
X269413Y576748D01*
X269443Y576847D01*
X269443Y576867D01*
X269447Y576886D01*
X269439Y576989D01*
X269437Y577093D01*
X269430Y577112D01*
X269428Y577132D01*
X269388Y577226D01*
X269352Y577324D01*
X269340Y577340D01*
X269332Y577358D01*
X269290Y577410D01*
X267461Y581825D01*
X267461Y586575D01*
X269279Y590963D01*
X272637Y594321D01*
X277025Y596139D01*
X281775Y596139D01*
X286163Y594321D01*
X289521Y590963D01*
X291339Y586575D01*
X291339Y581825D01*
X289521Y577437D01*
X286163Y574079D01*
X281775Y572261D01*
X279762Y572261D01*
X279672Y572247D01*
X279581Y572239D01*
X279551Y572227D01*
X279519Y572222D01*
X279438Y572179D01*
X279355Y572143D01*
X279322Y572117D01*
X279302Y572106D01*
X279280Y572083D01*
X279224Y572038D01*
X165304Y458118D01*
X165251Y458045D01*
X165191Y457975D01*
X165179Y457945D01*
X165160Y457919D01*
X165133Y457832D01*
X165099Y457747D01*
X165095Y457706D01*
X165088Y457684D01*
X165089Y457651D01*
X165081Y457580D01*
X165081Y385317D01*
X165096Y385221D01*
X165106Y385124D01*
X165116Y385100D01*
X165120Y385075D01*
X165166Y384989D01*
X165206Y384900D01*
X165223Y384880D01*
X165236Y384857D01*
X165306Y384790D01*
X165372Y384719D01*
X165395Y384706D01*
X165414Y384688D01*
X165502Y384647D01*
X165588Y384600D01*
X165613Y384595D01*
X165637Y384584D01*
X165734Y384574D01*
X165830Y384556D01*
X165856Y384560D01*
X165881Y384557D01*
X165977Y384578D01*
X166073Y384592D01*
X166096Y384604D01*
X166122Y384609D01*
X166205Y384659D01*
X166292Y384704D01*
X166311Y384722D01*
X166333Y384736D01*
X166396Y384810D01*
X166464Y384879D01*
X166480Y384908D01*
X166493Y384923D01*
X166505Y384953D01*
X166545Y385026D01*
X167679Y387763D01*
X171037Y391121D01*
X175425Y392939D01*
X180175Y392939D01*
X184563Y391121D01*
X187921Y387763D01*
X189739Y383375D01*
X189739Y378625D01*
X187921Y374237D01*
X184563Y370879D01*
X180175Y369061D01*
X175425Y369061D01*
X171037Y370879D01*
X167679Y374237D01*
X166545Y376974D01*
X166494Y377057D01*
X166448Y377143D01*
X166430Y377161D01*
X166416Y377183D01*
X166340Y377245D01*
X166270Y377312D01*
X166246Y377323D01*
X166226Y377340D01*
X166135Y377375D01*
X166047Y377416D01*
X166021Y377419D01*
X165997Y377428D01*
X165899Y377432D01*
X165803Y377443D01*
X165777Y377437D01*
X165751Y377438D01*
X165657Y377411D01*
X165562Y377391D01*
X165540Y377377D01*
X165515Y377370D01*
X165435Y377314D01*
X165351Y377264D01*
X165334Y377245D01*
X165313Y377230D01*
X165254Y377151D01*
X165191Y377077D01*
X165181Y377053D01*
X165166Y377032D01*
X165136Y376940D01*
X165099Y376849D01*
X165096Y376817D01*
X165090Y376798D01*
X165090Y376765D01*
X165081Y376683D01*
X165081Y362895D01*
X138074Y335889D01*
X138007Y335795D01*
X137937Y335701D01*
X137935Y335695D01*
X137931Y335689D01*
X137897Y335578D01*
X137860Y335467D01*
X137860Y335460D01*
X137859Y335454D01*
X137862Y335338D01*
X137863Y335221D01*
X137865Y335214D01*
X137865Y335209D01*
X137871Y335191D01*
X137909Y335060D01*
X138939Y332575D01*
X138939Y327825D01*
X137121Y323437D01*
X133763Y320079D01*
X129375Y318261D01*
X124625Y318261D01*
G37*
%LPD*%
%LPC*%
G36*
X823585Y97887D02*
X823585Y97887D01*
X820971Y98970D01*
X818970Y100971D01*
X817887Y103585D01*
X817887Y106415D01*
X818970Y109029D01*
X820971Y111030D01*
X823585Y112113D01*
X824612Y112113D01*
X824702Y112127D01*
X824793Y112135D01*
X824823Y112147D01*
X824855Y112152D01*
X824936Y112195D01*
X825020Y112231D01*
X825052Y112257D01*
X825072Y112268D01*
X825095Y112291D01*
X825150Y112336D01*
X1182654Y469840D01*
X1182707Y469913D01*
X1182767Y469983D01*
X1182779Y470013D01*
X1182798Y470039D01*
X1182825Y470126D01*
X1182859Y470211D01*
X1182863Y470252D01*
X1182870Y470274D01*
X1182869Y470307D01*
X1182877Y470378D01*
X1182877Y476964D01*
X1189276Y483363D01*
X1198324Y483363D01*
X1204723Y476964D01*
X1204723Y467916D01*
X1198324Y461517D01*
X1189018Y461517D01*
X1188928Y461503D01*
X1188837Y461495D01*
X1188807Y461483D01*
X1188775Y461478D01*
X1188694Y461435D01*
X1188610Y461399D01*
X1188578Y461373D01*
X1188558Y461362D01*
X1188535Y461339D01*
X1188480Y461294D01*
X832336Y105150D01*
X832283Y105077D01*
X832223Y105007D01*
X832211Y104977D01*
X832192Y104951D01*
X832165Y104864D01*
X832131Y104779D01*
X832127Y104738D01*
X832120Y104716D01*
X832121Y104683D01*
X832113Y104612D01*
X832113Y103585D01*
X831030Y100971D01*
X829029Y98970D01*
X826415Y97887D01*
X823585Y97887D01*
G37*
%LPD*%
%LPC*%
G36*
X1445425Y343661D02*
X1445425Y343661D01*
X1441037Y345479D01*
X1437679Y348837D01*
X1435861Y353225D01*
X1435861Y357975D01*
X1436832Y360318D01*
X1436859Y360432D01*
X1436887Y360545D01*
X1436887Y360552D01*
X1436888Y360558D01*
X1436877Y360674D01*
X1436868Y360791D01*
X1436866Y360796D01*
X1436865Y360803D01*
X1436817Y360910D01*
X1436772Y361017D01*
X1436767Y361023D01*
X1436765Y361027D01*
X1436753Y361041D01*
X1436667Y361148D01*
X1433118Y364696D01*
X1429696Y368118D01*
X1424919Y372895D01*
X1424919Y417105D01*
X1428118Y420304D01*
X1435905Y428091D01*
X1435974Y428186D01*
X1436043Y428279D01*
X1436045Y428285D01*
X1436049Y428290D01*
X1436083Y428402D01*
X1436120Y428513D01*
X1436119Y428519D01*
X1436121Y428525D01*
X1436118Y428642D01*
X1436117Y428759D01*
X1436115Y428766D01*
X1436115Y428771D01*
X1436109Y428789D01*
X1436070Y428920D01*
X1435861Y429425D01*
X1435861Y434175D01*
X1437679Y438563D01*
X1441037Y441921D01*
X1445425Y443739D01*
X1449158Y443739D01*
X1449178Y443742D01*
X1449197Y443740D01*
X1449299Y443762D01*
X1449401Y443778D01*
X1449418Y443788D01*
X1449438Y443792D01*
X1449527Y443845D01*
X1449618Y443894D01*
X1449632Y443908D01*
X1449649Y443918D01*
X1449716Y443997D01*
X1449788Y444072D01*
X1449796Y444090D01*
X1449809Y444105D01*
X1449848Y444201D01*
X1449879Y444269D01*
X1449891Y444295D01*
X1449893Y444315D01*
X1449901Y444333D01*
X1449919Y444500D01*
X1449916Y444520D01*
X1449918Y444539D01*
X1449896Y444641D01*
X1449880Y444743D01*
X1449870Y444760D01*
X1449866Y444780D01*
X1449813Y444869D01*
X1449764Y444960D01*
X1449750Y444974D01*
X1449740Y444991D01*
X1449661Y445058D01*
X1449586Y445130D01*
X1449568Y445138D01*
X1449553Y445151D01*
X1449457Y445190D01*
X1449363Y445233D01*
X1449343Y445235D01*
X1449325Y445243D01*
X1449158Y445261D01*
X1445425Y445261D01*
X1441037Y447079D01*
X1437679Y450437D01*
X1435861Y454825D01*
X1435861Y459575D01*
X1437679Y463963D01*
X1441037Y467321D01*
X1445425Y469139D01*
X1449158Y469139D01*
X1449178Y469142D01*
X1449197Y469140D01*
X1449299Y469162D01*
X1449401Y469178D01*
X1449418Y469188D01*
X1449438Y469192D01*
X1449527Y469245D01*
X1449618Y469294D01*
X1449632Y469308D01*
X1449649Y469318D01*
X1449716Y469397D01*
X1449788Y469472D01*
X1449796Y469490D01*
X1449809Y469505D01*
X1449848Y469601D01*
X1449891Y469695D01*
X1449893Y469715D01*
X1449901Y469733D01*
X1449919Y469900D01*
X1449916Y469920D01*
X1449918Y469939D01*
X1449896Y470041D01*
X1449880Y470143D01*
X1449870Y470160D01*
X1449866Y470180D01*
X1449813Y470269D01*
X1449764Y470360D01*
X1449750Y470374D01*
X1449740Y470391D01*
X1449661Y470458D01*
X1449586Y470530D01*
X1449568Y470538D01*
X1449553Y470551D01*
X1449457Y470590D01*
X1449363Y470633D01*
X1449343Y470635D01*
X1449325Y470643D01*
X1449158Y470661D01*
X1445425Y470661D01*
X1441037Y472479D01*
X1437679Y475837D01*
X1435861Y480225D01*
X1435861Y484975D01*
X1437679Y489363D01*
X1441037Y492721D01*
X1445425Y494539D01*
X1450175Y494539D01*
X1454563Y492721D01*
X1457921Y489363D01*
X1459739Y484975D01*
X1459739Y480225D01*
X1459119Y478730D01*
X1459093Y478616D01*
X1459064Y478503D01*
X1459065Y478497D01*
X1459063Y478491D01*
X1459074Y478374D01*
X1459083Y478258D01*
X1459086Y478252D01*
X1459086Y478246D01*
X1459134Y478139D01*
X1459180Y478032D01*
X1459184Y478026D01*
X1459186Y478021D01*
X1459199Y478008D01*
X1459285Y477901D01*
X1460081Y477105D01*
X1460081Y462895D01*
X1459226Y462041D01*
X1459158Y461946D01*
X1459088Y461852D01*
X1459086Y461846D01*
X1459082Y461841D01*
X1459048Y461730D01*
X1459012Y461618D01*
X1459012Y461612D01*
X1459010Y461606D01*
X1459013Y461489D01*
X1459014Y461372D01*
X1459016Y461365D01*
X1459016Y461360D01*
X1459023Y461342D01*
X1459061Y461211D01*
X1459739Y459575D01*
X1459739Y454825D01*
X1459237Y453613D01*
X1459210Y453499D01*
X1459181Y453386D01*
X1459182Y453380D01*
X1459180Y453374D01*
X1459191Y453257D01*
X1459201Y453141D01*
X1459203Y453135D01*
X1459204Y453129D01*
X1459251Y453022D01*
X1459297Y452914D01*
X1459302Y452909D01*
X1459304Y452904D01*
X1459316Y452890D01*
X1459402Y452784D01*
X1460081Y452105D01*
X1460081Y437895D01*
X1459109Y436924D01*
X1459041Y436829D01*
X1458971Y436735D01*
X1458969Y436729D01*
X1458965Y436724D01*
X1458931Y436613D01*
X1458895Y436501D01*
X1458895Y436495D01*
X1458893Y436489D01*
X1458896Y436372D01*
X1458897Y436255D01*
X1458899Y436248D01*
X1458899Y436243D01*
X1458906Y436225D01*
X1458944Y436094D01*
X1459739Y434175D01*
X1459739Y429425D01*
X1457921Y425037D01*
X1454563Y421679D01*
X1450175Y419861D01*
X1445425Y419861D01*
X1443506Y420656D01*
X1443392Y420683D01*
X1443279Y420711D01*
X1443273Y420711D01*
X1443267Y420712D01*
X1443150Y420701D01*
X1443034Y420692D01*
X1443028Y420690D01*
X1443022Y420689D01*
X1442914Y420641D01*
X1442807Y420596D01*
X1442802Y420591D01*
X1442797Y420589D01*
X1442783Y420577D01*
X1442676Y420491D01*
X1435304Y413118D01*
X1435251Y413045D01*
X1435191Y412975D01*
X1435179Y412945D01*
X1435160Y412919D01*
X1435133Y412832D01*
X1435099Y412747D01*
X1435095Y412706D01*
X1435088Y412684D01*
X1435089Y412651D01*
X1435081Y412580D01*
X1435081Y410717D01*
X1435096Y410621D01*
X1435106Y410524D01*
X1435116Y410500D01*
X1435120Y410475D01*
X1435166Y410389D01*
X1435206Y410300D01*
X1435223Y410280D01*
X1435236Y410257D01*
X1435306Y410190D01*
X1435372Y410119D01*
X1435395Y410106D01*
X1435414Y410088D01*
X1435502Y410047D01*
X1435588Y410000D01*
X1435613Y409995D01*
X1435637Y409984D01*
X1435734Y409974D01*
X1435830Y409956D01*
X1435856Y409960D01*
X1435881Y409957D01*
X1435977Y409978D01*
X1436073Y409992D01*
X1436096Y410004D01*
X1436122Y410009D01*
X1436205Y410059D01*
X1436292Y410104D01*
X1436311Y410122D01*
X1436333Y410136D01*
X1436396Y410210D01*
X1436464Y410279D01*
X1436480Y410308D01*
X1436493Y410323D01*
X1436505Y410353D01*
X1436545Y410426D01*
X1437679Y413163D01*
X1441037Y416521D01*
X1445425Y418339D01*
X1450175Y418339D01*
X1454563Y416521D01*
X1457921Y413163D01*
X1459739Y408775D01*
X1459739Y404025D01*
X1457921Y399637D01*
X1454563Y396279D01*
X1450175Y394461D01*
X1445425Y394461D01*
X1443223Y395373D01*
X1443110Y395400D01*
X1442996Y395429D01*
X1442990Y395428D01*
X1442984Y395430D01*
X1442867Y395419D01*
X1442751Y395409D01*
X1442745Y395407D01*
X1442739Y395406D01*
X1442631Y395359D01*
X1442525Y395313D01*
X1442519Y395309D01*
X1442514Y395306D01*
X1442500Y395294D01*
X1442394Y395208D01*
X1435304Y388118D01*
X1435251Y388045D01*
X1435191Y387975D01*
X1435179Y387945D01*
X1435160Y387919D01*
X1435133Y387832D01*
X1435099Y387747D01*
X1435095Y387706D01*
X1435088Y387684D01*
X1435089Y387651D01*
X1435081Y387580D01*
X1435081Y385317D01*
X1435096Y385221D01*
X1435106Y385124D01*
X1435116Y385100D01*
X1435120Y385075D01*
X1435166Y384989D01*
X1435206Y384900D01*
X1435223Y384880D01*
X1435236Y384857D01*
X1435306Y384790D01*
X1435372Y384719D01*
X1435395Y384706D01*
X1435414Y384688D01*
X1435502Y384647D01*
X1435588Y384600D01*
X1435613Y384595D01*
X1435637Y384584D01*
X1435734Y384574D01*
X1435830Y384556D01*
X1435856Y384560D01*
X1435881Y384557D01*
X1435977Y384578D01*
X1436073Y384592D01*
X1436096Y384604D01*
X1436122Y384609D01*
X1436205Y384659D01*
X1436292Y384704D01*
X1436311Y384722D01*
X1436333Y384736D01*
X1436396Y384810D01*
X1436464Y384879D01*
X1436480Y384908D01*
X1436493Y384923D01*
X1436505Y384953D01*
X1436545Y385026D01*
X1437679Y387763D01*
X1441037Y391121D01*
X1445425Y392939D01*
X1450175Y392939D01*
X1454563Y391121D01*
X1457921Y387763D01*
X1459739Y383375D01*
X1459739Y378625D01*
X1457921Y374237D01*
X1454563Y370879D01*
X1450175Y369061D01*
X1445425Y369061D01*
X1445032Y369224D01*
X1444938Y369246D01*
X1444845Y369275D01*
X1444818Y369274D01*
X1444793Y369280D01*
X1444696Y369271D01*
X1444599Y369268D01*
X1444574Y369259D01*
X1444548Y369257D01*
X1444459Y369218D01*
X1444368Y369184D01*
X1444347Y369168D01*
X1444323Y369157D01*
X1444252Y369091D01*
X1444176Y369030D01*
X1444162Y369008D01*
X1444142Y368991D01*
X1444095Y368906D01*
X1444043Y368823D01*
X1444036Y368798D01*
X1444024Y368775D01*
X1444006Y368679D01*
X1443983Y368585D01*
X1443985Y368559D01*
X1443980Y368533D01*
X1443994Y368437D01*
X1444002Y368340D01*
X1444012Y368316D01*
X1444016Y368290D01*
X1444060Y368203D01*
X1444098Y368113D01*
X1444118Y368088D01*
X1444127Y368071D01*
X1444151Y368047D01*
X1444203Y367982D01*
X1444515Y367670D01*
X1444609Y367602D01*
X1444704Y367532D01*
X1444710Y367530D01*
X1444715Y367527D01*
X1444825Y367493D01*
X1444937Y367456D01*
X1444944Y367456D01*
X1444950Y367454D01*
X1445067Y367457D01*
X1445183Y367459D01*
X1445191Y367461D01*
X1445196Y367461D01*
X1445213Y367467D01*
X1445345Y367505D01*
X1445425Y367539D01*
X1450175Y367539D01*
X1454563Y365721D01*
X1457921Y362363D01*
X1459739Y357975D01*
X1459739Y353225D01*
X1457921Y348837D01*
X1454563Y345479D01*
X1450175Y343661D01*
X1445425Y343661D01*
G37*
%LPD*%
%LPC*%
G36*
X1293025Y343661D02*
X1293025Y343661D01*
X1288637Y345479D01*
X1285279Y348837D01*
X1283461Y353225D01*
X1283461Y357975D01*
X1285279Y362363D01*
X1288637Y365721D01*
X1289449Y366058D01*
X1289549Y366119D01*
X1289649Y366179D01*
X1289653Y366184D01*
X1289658Y366187D01*
X1289733Y366278D01*
X1289809Y366366D01*
X1289811Y366372D01*
X1289815Y366377D01*
X1289857Y366485D01*
X1289901Y366594D01*
X1289902Y366602D01*
X1289903Y366606D01*
X1289904Y366625D01*
X1289919Y366761D01*
X1289919Y369839D01*
X1289900Y369954D01*
X1289883Y370070D01*
X1289881Y370076D01*
X1289880Y370082D01*
X1289825Y370184D01*
X1289772Y370289D01*
X1289767Y370294D01*
X1289764Y370299D01*
X1289680Y370379D01*
X1289596Y370462D01*
X1289590Y370465D01*
X1289586Y370469D01*
X1289569Y370476D01*
X1289449Y370542D01*
X1288637Y370879D01*
X1285279Y374237D01*
X1283461Y378625D01*
X1283461Y383375D01*
X1283553Y383597D01*
X1283580Y383710D01*
X1283609Y383824D01*
X1283608Y383830D01*
X1283609Y383836D01*
X1283598Y383953D01*
X1283589Y384069D01*
X1283587Y384075D01*
X1283586Y384081D01*
X1283539Y384189D01*
X1283493Y384296D01*
X1283488Y384301D01*
X1283486Y384306D01*
X1283474Y384320D01*
X1283388Y384427D01*
X1279919Y387895D01*
X1279919Y397105D01*
X1284091Y401276D01*
X1284159Y401370D01*
X1284229Y401465D01*
X1284231Y401471D01*
X1284235Y401476D01*
X1284269Y401587D01*
X1284305Y401699D01*
X1284305Y401705D01*
X1284307Y401711D01*
X1284304Y401828D01*
X1284303Y401945D01*
X1284301Y401952D01*
X1284301Y401957D01*
X1284294Y401975D01*
X1284256Y402106D01*
X1283461Y404025D01*
X1283461Y408821D01*
X1283463Y408828D01*
X1283491Y408941D01*
X1283491Y408947D01*
X1283492Y408953D01*
X1283481Y409071D01*
X1283472Y409186D01*
X1283470Y409192D01*
X1283469Y409198D01*
X1283421Y409306D01*
X1283376Y409413D01*
X1283371Y409419D01*
X1283369Y409423D01*
X1283357Y409437D01*
X1283271Y409544D01*
X1279919Y412895D01*
X1279919Y422105D01*
X1284208Y426394D01*
X1284276Y426488D01*
X1284346Y426582D01*
X1284348Y426588D01*
X1284352Y426593D01*
X1284386Y426704D01*
X1284422Y426816D01*
X1284422Y426822D01*
X1284424Y426828D01*
X1284421Y426945D01*
X1284420Y427062D01*
X1284418Y427069D01*
X1284418Y427074D01*
X1284411Y427092D01*
X1284373Y427223D01*
X1283461Y429425D01*
X1283461Y434175D01*
X1285279Y438563D01*
X1288637Y441921D01*
X1293025Y443739D01*
X1297775Y443739D01*
X1298867Y443286D01*
X1298911Y443276D01*
X1298953Y443257D01*
X1299030Y443248D01*
X1299106Y443230D01*
X1299152Y443235D01*
X1299197Y443230D01*
X1299274Y443246D01*
X1299351Y443253D01*
X1299393Y443272D01*
X1299438Y443282D01*
X1299505Y443322D01*
X1299576Y443353D01*
X1299610Y443384D01*
X1299649Y443408D01*
X1299700Y443467D01*
X1299757Y443520D01*
X1299779Y443560D01*
X1299809Y443595D01*
X1299838Y443667D01*
X1299875Y443735D01*
X1299884Y443780D01*
X1299901Y443823D01*
X1299916Y443959D01*
X1299919Y443977D01*
X1299918Y443982D01*
X1299919Y443990D01*
X1299919Y445010D01*
X1299912Y445056D01*
X1299914Y445101D01*
X1299892Y445176D01*
X1299880Y445253D01*
X1299858Y445294D01*
X1299845Y445338D01*
X1299801Y445402D01*
X1299764Y445470D01*
X1299731Y445502D01*
X1299705Y445540D01*
X1299643Y445586D01*
X1299586Y445640D01*
X1299544Y445659D01*
X1299508Y445686D01*
X1299434Y445711D01*
X1299363Y445743D01*
X1299317Y445748D01*
X1299274Y445763D01*
X1299196Y445762D01*
X1299119Y445770D01*
X1299074Y445761D01*
X1299028Y445760D01*
X1298896Y445722D01*
X1298878Y445718D01*
X1298874Y445716D01*
X1298867Y445714D01*
X1297775Y445261D01*
X1293025Y445261D01*
X1288637Y447079D01*
X1285279Y450437D01*
X1283461Y454825D01*
X1283461Y459575D01*
X1285279Y463963D01*
X1288637Y467321D01*
X1293025Y469139D01*
X1297775Y469139D01*
X1302163Y467321D01*
X1305521Y463963D01*
X1307339Y459575D01*
X1307339Y455162D01*
X1307353Y455072D01*
X1307361Y454981D01*
X1307373Y454951D01*
X1307378Y454919D01*
X1307421Y454839D01*
X1307457Y454755D01*
X1307483Y454722D01*
X1307494Y454702D01*
X1307517Y454680D01*
X1307562Y454624D01*
X1308620Y453565D01*
X1308678Y453524D01*
X1308730Y453474D01*
X1308777Y453452D01*
X1308819Y453422D01*
X1308888Y453401D01*
X1308953Y453371D01*
X1309005Y453365D01*
X1309055Y453350D01*
X1309126Y453351D01*
X1309197Y453344D01*
X1309248Y453355D01*
X1309300Y453356D01*
X1309368Y453381D01*
X1309438Y453396D01*
X1309483Y453423D01*
X1309531Y453440D01*
X1309587Y453485D01*
X1309649Y453522D01*
X1309683Y453562D01*
X1309723Y453594D01*
X1309762Y453654D01*
X1309809Y453709D01*
X1309828Y453757D01*
X1309856Y453801D01*
X1309874Y453871D01*
X1309901Y453937D01*
X1309909Y454008D01*
X1309917Y454040D01*
X1309915Y454063D01*
X1309919Y454104D01*
X1309919Y462580D01*
X1309905Y462670D01*
X1309897Y462761D01*
X1309885Y462791D01*
X1309880Y462823D01*
X1309837Y462904D01*
X1309801Y462987D01*
X1309775Y463020D01*
X1309764Y463040D01*
X1309741Y463062D01*
X1309696Y463118D01*
X1301231Y471584D01*
X1301136Y471652D01*
X1301042Y471722D01*
X1301036Y471724D01*
X1301031Y471728D01*
X1300920Y471762D01*
X1300808Y471798D01*
X1300802Y471798D01*
X1300796Y471800D01*
X1300679Y471797D01*
X1300562Y471796D01*
X1300555Y471794D01*
X1300550Y471794D01*
X1300533Y471787D01*
X1300401Y471749D01*
X1297775Y470661D01*
X1293025Y470661D01*
X1288637Y472479D01*
X1285279Y475837D01*
X1283461Y480225D01*
X1283461Y484975D01*
X1285279Y489363D01*
X1288637Y492721D01*
X1293025Y494539D01*
X1297775Y494539D01*
X1302163Y492721D01*
X1305521Y489363D01*
X1307339Y484975D01*
X1307339Y480162D01*
X1307353Y480072D01*
X1307361Y479981D01*
X1307373Y479951D01*
X1307378Y479919D01*
X1307421Y479838D01*
X1307457Y479755D01*
X1307483Y479722D01*
X1307494Y479702D01*
X1307517Y479680D01*
X1307562Y479624D01*
X1320081Y467105D01*
X1320081Y447895D01*
X1307412Y435227D01*
X1307344Y435132D01*
X1307274Y435038D01*
X1307272Y435032D01*
X1307268Y435027D01*
X1307234Y434915D01*
X1307198Y434804D01*
X1307198Y434798D01*
X1307196Y434792D01*
X1307199Y434675D01*
X1307200Y434558D01*
X1307202Y434551D01*
X1307202Y434546D01*
X1307209Y434528D01*
X1307247Y434397D01*
X1307339Y434175D01*
X1307339Y429425D01*
X1305521Y425037D01*
X1302163Y421679D01*
X1297775Y419861D01*
X1293025Y419861D01*
X1292803Y419953D01*
X1292690Y419980D01*
X1292576Y420009D01*
X1292570Y420008D01*
X1292564Y420009D01*
X1292447Y419998D01*
X1292331Y419989D01*
X1292325Y419987D01*
X1292319Y419986D01*
X1292211Y419938D01*
X1292104Y419893D01*
X1292099Y419888D01*
X1292094Y419886D01*
X1292080Y419874D01*
X1291973Y419788D01*
X1291461Y419276D01*
X1291405Y419197D01*
X1291342Y419122D01*
X1291333Y419098D01*
X1291318Y419076D01*
X1291289Y418983D01*
X1291254Y418892D01*
X1291253Y418866D01*
X1291245Y418841D01*
X1291248Y418744D01*
X1291244Y418647D01*
X1291251Y418622D01*
X1291252Y418595D01*
X1291285Y418504D01*
X1291312Y418410D01*
X1291327Y418389D01*
X1291336Y418364D01*
X1291397Y418288D01*
X1291453Y418208D01*
X1291474Y418193D01*
X1291490Y418172D01*
X1291572Y418120D01*
X1291650Y418062D01*
X1291675Y418054D01*
X1291697Y418039D01*
X1291791Y418016D01*
X1291884Y417985D01*
X1291910Y417986D01*
X1291935Y417979D01*
X1292032Y417987D01*
X1292130Y417988D01*
X1292161Y417997D01*
X1292181Y417998D01*
X1292211Y418011D01*
X1292291Y418035D01*
X1293025Y418339D01*
X1297775Y418339D01*
X1302163Y416521D01*
X1305521Y413163D01*
X1307339Y408775D01*
X1307339Y404025D01*
X1305521Y399637D01*
X1302163Y396279D01*
X1297775Y394461D01*
X1293025Y394461D01*
X1292520Y394670D01*
X1292407Y394697D01*
X1292293Y394726D01*
X1292287Y394725D01*
X1292281Y394727D01*
X1292164Y394716D01*
X1292048Y394707D01*
X1292042Y394704D01*
X1292036Y394704D01*
X1291928Y394656D01*
X1291822Y394610D01*
X1291816Y394606D01*
X1291811Y394604D01*
X1291797Y394591D01*
X1291691Y394505D01*
X1290779Y393593D01*
X1290734Y393532D01*
X1290702Y393498D01*
X1290694Y393481D01*
X1290660Y393439D01*
X1290650Y393415D01*
X1290635Y393394D01*
X1290606Y393301D01*
X1290571Y393210D01*
X1290570Y393184D01*
X1290563Y393159D01*
X1290565Y393061D01*
X1290561Y392964D01*
X1290568Y392939D01*
X1290569Y392913D01*
X1290602Y392821D01*
X1290630Y392728D01*
X1290644Y392706D01*
X1290653Y392682D01*
X1290714Y392605D01*
X1290770Y392526D01*
X1290791Y392510D01*
X1290807Y392490D01*
X1290889Y392437D01*
X1290967Y392379D01*
X1290992Y392371D01*
X1291014Y392357D01*
X1291109Y392333D01*
X1291201Y392303D01*
X1291227Y392303D01*
X1291253Y392297D01*
X1291350Y392304D01*
X1291447Y392305D01*
X1291478Y392314D01*
X1291498Y392316D01*
X1291528Y392329D01*
X1291608Y392352D01*
X1293025Y392939D01*
X1297775Y392939D01*
X1302163Y391121D01*
X1305521Y387763D01*
X1307339Y383375D01*
X1307339Y378625D01*
X1305521Y374237D01*
X1302163Y370879D01*
X1300551Y370211D01*
X1300451Y370149D01*
X1300351Y370090D01*
X1300347Y370085D01*
X1300342Y370082D01*
X1300267Y369991D01*
X1300191Y369903D01*
X1300189Y369897D01*
X1300185Y369892D01*
X1300143Y369783D01*
X1300099Y369675D01*
X1300098Y369667D01*
X1300097Y369662D01*
X1300096Y369644D01*
X1300081Y369508D01*
X1300081Y367092D01*
X1300100Y366977D01*
X1300117Y366861D01*
X1300119Y366856D01*
X1300120Y366849D01*
X1300175Y366746D01*
X1300228Y366642D01*
X1300233Y366638D01*
X1300236Y366632D01*
X1300320Y366552D01*
X1300404Y366470D01*
X1300410Y366466D01*
X1300414Y366463D01*
X1300431Y366455D01*
X1300551Y366389D01*
X1302163Y365721D01*
X1305521Y362363D01*
X1307339Y357975D01*
X1307339Y353225D01*
X1305521Y348837D01*
X1302163Y345479D01*
X1297775Y343661D01*
X1293025Y343661D01*
G37*
%LPD*%
%LPC*%
G36*
X1293025Y165861D02*
X1293025Y165861D01*
X1288637Y167679D01*
X1285279Y171037D01*
X1283461Y175425D01*
X1283461Y180175D01*
X1285279Y184563D01*
X1288637Y187921D01*
X1293025Y189739D01*
X1297775Y189739D01*
X1298867Y189286D01*
X1298911Y189276D01*
X1298953Y189257D01*
X1299030Y189248D01*
X1299106Y189230D01*
X1299152Y189235D01*
X1299197Y189230D01*
X1299274Y189246D01*
X1299351Y189253D01*
X1299393Y189272D01*
X1299438Y189282D01*
X1299505Y189322D01*
X1299576Y189353D01*
X1299610Y189384D01*
X1299649Y189408D01*
X1299700Y189467D01*
X1299757Y189520D01*
X1299779Y189560D01*
X1299809Y189595D01*
X1299838Y189667D01*
X1299875Y189735D01*
X1299884Y189780D01*
X1299901Y189823D01*
X1299916Y189959D01*
X1299919Y189977D01*
X1299918Y189982D01*
X1299919Y189990D01*
X1299919Y191010D01*
X1299912Y191056D01*
X1299914Y191101D01*
X1299892Y191176D01*
X1299880Y191253D01*
X1299858Y191294D01*
X1299845Y191338D01*
X1299801Y191402D01*
X1299764Y191470D01*
X1299731Y191502D01*
X1299705Y191540D01*
X1299643Y191586D01*
X1299586Y191640D01*
X1299544Y191659D01*
X1299508Y191686D01*
X1299434Y191711D01*
X1299363Y191743D01*
X1299317Y191748D01*
X1299274Y191763D01*
X1299196Y191762D01*
X1299119Y191770D01*
X1299074Y191761D01*
X1299028Y191760D01*
X1298896Y191722D01*
X1298878Y191718D01*
X1298874Y191716D01*
X1298867Y191714D01*
X1297775Y191261D01*
X1293025Y191261D01*
X1288637Y193079D01*
X1285279Y196437D01*
X1283461Y200825D01*
X1283461Y205575D01*
X1284373Y207777D01*
X1284400Y207890D01*
X1284429Y208004D01*
X1284428Y208010D01*
X1284430Y208016D01*
X1284419Y208133D01*
X1284409Y208249D01*
X1284407Y208255D01*
X1284406Y208261D01*
X1284361Y208364D01*
X1284360Y208366D01*
X1284359Y208368D01*
X1284359Y208369D01*
X1284313Y208475D01*
X1284309Y208481D01*
X1284306Y208486D01*
X1284294Y208500D01*
X1284240Y208566D01*
X1284234Y208577D01*
X1284228Y208582D01*
X1284208Y208606D01*
X1279919Y212895D01*
X1279919Y222105D01*
X1283271Y225456D01*
X1283340Y225552D01*
X1283409Y225645D01*
X1283411Y225651D01*
X1283415Y225656D01*
X1283449Y225768D01*
X1283485Y225879D01*
X1283485Y225885D01*
X1283487Y225891D01*
X1283484Y226009D01*
X1283483Y226125D01*
X1283481Y226132D01*
X1283481Y226137D01*
X1283474Y226155D01*
X1283461Y226199D01*
X1283461Y230975D01*
X1284256Y232894D01*
X1284283Y233008D01*
X1284311Y233121D01*
X1284311Y233127D01*
X1284312Y233133D01*
X1284301Y233250D01*
X1284292Y233366D01*
X1284290Y233372D01*
X1284289Y233378D01*
X1284242Y233485D01*
X1284196Y233593D01*
X1284191Y233599D01*
X1284189Y233603D01*
X1284177Y233617D01*
X1284117Y233692D01*
X1284113Y233698D01*
X1284109Y233701D01*
X1284091Y233724D01*
X1283118Y234696D01*
X1279919Y237895D01*
X1279919Y247105D01*
X1283388Y250573D01*
X1283457Y250669D01*
X1283526Y250762D01*
X1283528Y250768D01*
X1283532Y250773D01*
X1283566Y250885D01*
X1283602Y250996D01*
X1283602Y251002D01*
X1283604Y251008D01*
X1283601Y251125D01*
X1283600Y251242D01*
X1283598Y251249D01*
X1283598Y251254D01*
X1283591Y251272D01*
X1283553Y251403D01*
X1283461Y251625D01*
X1283461Y256375D01*
X1285279Y260763D01*
X1288637Y264121D01*
X1289449Y264458D01*
X1289549Y264519D01*
X1289649Y264579D01*
X1289653Y264584D01*
X1289658Y264587D01*
X1289733Y264678D01*
X1289809Y264766D01*
X1289811Y264772D01*
X1289815Y264777D01*
X1289857Y264885D01*
X1289901Y264994D01*
X1289902Y265002D01*
X1289903Y265006D01*
X1289904Y265025D01*
X1289919Y265161D01*
X1289919Y268239D01*
X1289917Y268253D01*
X1289918Y268264D01*
X1289906Y268320D01*
X1289900Y268354D01*
X1289883Y268470D01*
X1289881Y268476D01*
X1289880Y268482D01*
X1289825Y268584D01*
X1289772Y268689D01*
X1289767Y268694D01*
X1289764Y268699D01*
X1289680Y268779D01*
X1289596Y268862D01*
X1289590Y268865D01*
X1289586Y268869D01*
X1289569Y268876D01*
X1289449Y268942D01*
X1288637Y269279D01*
X1285279Y272637D01*
X1283461Y277025D01*
X1283461Y281775D01*
X1285279Y286163D01*
X1288637Y289521D01*
X1289449Y289858D01*
X1289549Y289919D01*
X1289649Y289979D01*
X1289653Y289984D01*
X1289658Y289987D01*
X1289733Y290078D01*
X1289809Y290166D01*
X1289811Y290172D01*
X1289815Y290177D01*
X1289857Y290285D01*
X1289901Y290394D01*
X1289902Y290402D01*
X1289903Y290406D01*
X1289904Y290425D01*
X1289919Y290561D01*
X1289919Y293639D01*
X1289900Y293754D01*
X1289883Y293870D01*
X1289881Y293876D01*
X1289880Y293882D01*
X1289825Y293984D01*
X1289772Y294089D01*
X1289767Y294094D01*
X1289764Y294099D01*
X1289680Y294179D01*
X1289596Y294262D01*
X1289590Y294265D01*
X1289586Y294269D01*
X1289569Y294276D01*
X1289449Y294342D01*
X1288637Y294679D01*
X1285279Y298037D01*
X1283461Y302425D01*
X1283461Y307175D01*
X1285279Y311563D01*
X1288637Y314921D01*
X1293025Y316739D01*
X1297775Y316739D01*
X1302163Y314921D01*
X1305521Y311563D01*
X1307339Y307175D01*
X1307339Y302425D01*
X1305521Y298037D01*
X1302163Y294679D01*
X1300551Y294011D01*
X1300451Y293949D01*
X1300351Y293890D01*
X1300347Y293885D01*
X1300342Y293882D01*
X1300267Y293791D01*
X1300191Y293703D01*
X1300189Y293697D01*
X1300185Y293692D01*
X1300143Y293583D01*
X1300099Y293475D01*
X1300098Y293467D01*
X1300097Y293462D01*
X1300096Y293444D01*
X1300081Y293308D01*
X1300081Y290892D01*
X1300100Y290777D01*
X1300117Y290661D01*
X1300119Y290656D01*
X1300120Y290649D01*
X1300175Y290546D01*
X1300228Y290442D01*
X1300233Y290438D01*
X1300236Y290432D01*
X1300320Y290352D01*
X1300404Y290270D01*
X1300410Y290266D01*
X1300414Y290263D01*
X1300431Y290255D01*
X1300551Y290189D01*
X1302163Y289521D01*
X1305521Y286163D01*
X1307339Y281775D01*
X1307339Y277025D01*
X1305521Y272637D01*
X1302163Y269279D01*
X1300551Y268611D01*
X1300451Y268549D01*
X1300351Y268490D01*
X1300347Y268485D01*
X1300342Y268482D01*
X1300267Y268391D01*
X1300191Y268303D01*
X1300189Y268297D01*
X1300185Y268292D01*
X1300143Y268183D01*
X1300099Y268075D01*
X1300098Y268067D01*
X1300097Y268062D01*
X1300096Y268044D01*
X1300081Y267908D01*
X1300081Y265492D01*
X1300100Y265377D01*
X1300117Y265261D01*
X1300119Y265256D01*
X1300120Y265249D01*
X1300175Y265146D01*
X1300228Y265042D01*
X1300233Y265038D01*
X1300236Y265032D01*
X1300320Y264952D01*
X1300404Y264870D01*
X1300410Y264866D01*
X1300414Y264863D01*
X1300431Y264855D01*
X1300551Y264789D01*
X1302163Y264121D01*
X1305521Y260763D01*
X1307339Y256375D01*
X1307339Y251625D01*
X1305521Y247237D01*
X1302163Y243879D01*
X1297775Y242061D01*
X1293025Y242061D01*
X1291608Y242648D01*
X1291513Y242671D01*
X1291420Y242699D01*
X1291394Y242698D01*
X1291369Y242704D01*
X1291272Y242695D01*
X1291174Y242693D01*
X1291150Y242684D01*
X1291124Y242681D01*
X1291035Y242642D01*
X1290943Y242608D01*
X1290923Y242592D01*
X1290899Y242581D01*
X1290827Y242516D01*
X1290751Y242455D01*
X1290737Y242433D01*
X1290718Y242415D01*
X1290671Y242330D01*
X1290618Y242248D01*
X1290612Y242222D01*
X1290599Y242199D01*
X1290582Y242103D01*
X1290558Y242009D01*
X1290560Y241983D01*
X1290556Y241957D01*
X1290570Y241861D01*
X1290577Y241764D01*
X1290588Y241740D01*
X1290591Y241714D01*
X1290636Y241627D01*
X1290674Y241538D01*
X1290694Y241512D01*
X1290703Y241495D01*
X1290727Y241472D01*
X1290779Y241407D01*
X1291691Y240495D01*
X1291786Y240426D01*
X1291879Y240357D01*
X1291885Y240355D01*
X1291890Y240351D01*
X1292002Y240317D01*
X1292113Y240280D01*
X1292119Y240281D01*
X1292125Y240279D01*
X1292242Y240282D01*
X1292359Y240283D01*
X1292366Y240285D01*
X1292371Y240285D01*
X1292389Y240291D01*
X1292520Y240330D01*
X1293025Y240539D01*
X1297775Y240539D01*
X1302163Y238721D01*
X1305521Y235363D01*
X1307339Y230975D01*
X1307339Y226225D01*
X1305521Y221837D01*
X1302163Y218479D01*
X1297775Y216661D01*
X1293025Y216661D01*
X1292291Y216965D01*
X1292196Y216988D01*
X1292103Y217016D01*
X1292077Y217016D01*
X1292052Y217022D01*
X1291955Y217012D01*
X1291857Y217010D01*
X1291833Y217001D01*
X1291807Y216998D01*
X1291718Y216959D01*
X1291626Y216925D01*
X1291606Y216909D01*
X1291582Y216898D01*
X1291510Y216833D01*
X1291434Y216772D01*
X1291420Y216750D01*
X1291401Y216732D01*
X1291354Y216647D01*
X1291301Y216565D01*
X1291295Y216540D01*
X1291282Y216517D01*
X1291265Y216421D01*
X1291241Y216326D01*
X1291243Y216300D01*
X1291239Y216275D01*
X1291253Y216178D01*
X1291260Y216081D01*
X1291270Y216057D01*
X1291274Y216031D01*
X1291319Y215944D01*
X1291357Y215855D01*
X1291377Y215829D01*
X1291386Y215812D01*
X1291409Y215789D01*
X1291461Y215724D01*
X1291973Y215212D01*
X1292068Y215144D01*
X1292162Y215074D01*
X1292168Y215072D01*
X1292173Y215068D01*
X1292285Y215034D01*
X1292396Y214998D01*
X1292402Y214998D01*
X1292408Y214996D01*
X1292525Y214999D01*
X1292642Y215000D01*
X1292649Y215002D01*
X1292654Y215002D01*
X1292672Y215009D01*
X1292803Y215047D01*
X1293025Y215139D01*
X1297775Y215139D01*
X1302163Y213321D01*
X1305521Y209963D01*
X1307339Y205575D01*
X1307339Y200825D01*
X1307247Y200603D01*
X1307220Y200490D01*
X1307191Y200376D01*
X1307192Y200370D01*
X1307191Y200364D01*
X1307202Y200247D01*
X1307211Y200131D01*
X1307213Y200125D01*
X1307214Y200119D01*
X1307261Y200011D01*
X1307307Y199904D01*
X1307312Y199899D01*
X1307314Y199894D01*
X1307326Y199880D01*
X1307412Y199773D01*
X1310081Y197105D01*
X1310081Y182895D01*
X1307562Y180376D01*
X1307509Y180303D01*
X1307449Y180233D01*
X1307437Y180203D01*
X1307418Y180177D01*
X1307391Y180090D01*
X1307357Y180005D01*
X1307353Y179964D01*
X1307346Y179942D01*
X1307347Y179909D01*
X1307339Y179838D01*
X1307339Y175425D01*
X1305521Y171037D01*
X1302163Y167679D01*
X1297775Y165861D01*
X1293025Y165861D01*
G37*
%LPD*%
%LPC*%
G36*
X378625Y191261D02*
X378625Y191261D01*
X374237Y193079D01*
X370879Y196437D01*
X369061Y200825D01*
X369061Y205575D01*
X370879Y209963D01*
X374237Y213321D01*
X378625Y215139D01*
X383375Y215139D01*
X386142Y213992D01*
X386256Y213966D01*
X386370Y213937D01*
X386376Y213938D01*
X386382Y213936D01*
X386499Y213947D01*
X386615Y213956D01*
X386621Y213959D01*
X386627Y213959D01*
X386734Y214007D01*
X386841Y214053D01*
X386847Y214057D01*
X386852Y214059D01*
X386865Y214072D01*
X386972Y214157D01*
X499696Y326882D01*
X499749Y326955D01*
X499809Y327025D01*
X499821Y327055D01*
X499840Y327081D01*
X499867Y327168D01*
X499901Y327253D01*
X499905Y327294D01*
X499912Y327316D01*
X499911Y327349D01*
X499919Y327420D01*
X499919Y371881D01*
X499905Y371972D01*
X499897Y372062D01*
X499885Y372092D01*
X499880Y372124D01*
X499837Y372205D01*
X499801Y372289D01*
X499775Y372321D01*
X499764Y372342D01*
X499741Y372364D01*
X499696Y372420D01*
X497879Y374237D01*
X496061Y378625D01*
X496061Y383375D01*
X497879Y387763D01*
X501237Y391121D01*
X505625Y392939D01*
X510375Y392939D01*
X514763Y391121D01*
X518121Y387763D01*
X519939Y383375D01*
X519939Y378625D01*
X518121Y374237D01*
X514763Y370879D01*
X510551Y369134D01*
X510451Y369073D01*
X510351Y369013D01*
X510347Y369008D01*
X510342Y369005D01*
X510267Y368914D01*
X510191Y368826D01*
X510189Y368820D01*
X510185Y368815D01*
X510143Y368707D01*
X510099Y368598D01*
X510098Y368590D01*
X510097Y368585D01*
X510096Y368567D01*
X510081Y368431D01*
X510081Y322895D01*
X393162Y205976D01*
X393109Y205903D01*
X393049Y205833D01*
X393037Y205803D01*
X393018Y205777D01*
X392991Y205690D01*
X392957Y205605D01*
X392953Y205564D01*
X392946Y205542D01*
X392947Y205509D01*
X392939Y205438D01*
X392939Y200825D01*
X391121Y196437D01*
X387763Y193079D01*
X383375Y191261D01*
X378625Y191261D01*
G37*
%LPD*%
%LPC*%
G36*
X124625Y877061D02*
X124625Y877061D01*
X120237Y878879D01*
X119113Y880003D01*
X119060Y880042D01*
X119013Y880088D01*
X118940Y880128D01*
X118913Y880147D01*
X118894Y880153D01*
X118866Y880168D01*
X118525Y880310D01*
X118316Y880518D01*
X118285Y880541D01*
X118259Y880570D01*
X118118Y880661D01*
X117854Y880793D01*
X116648Y882184D01*
X116632Y882197D01*
X116611Y882223D01*
X103632Y895202D01*
X103632Y895203D01*
X100310Y898525D01*
X98569Y902726D01*
X98569Y952274D01*
X100310Y956475D01*
X116487Y972653D01*
X116503Y972674D01*
X116538Y972709D01*
X117593Y973998D01*
X118011Y974222D01*
X118033Y974239D01*
X118059Y974250D01*
X118190Y974355D01*
X118525Y974691D01*
X120064Y975328D01*
X120086Y975342D01*
X120132Y975360D01*
X121600Y976148D01*
X122072Y976195D01*
X122099Y976202D01*
X122127Y976202D01*
X122288Y976249D01*
X122726Y976431D01*
X122765Y976431D01*
X122829Y976441D01*
X122895Y976442D01*
X122975Y976465D01*
X123007Y976470D01*
X123024Y976480D01*
X123056Y976489D01*
X124625Y977139D01*
X129375Y977139D01*
X133763Y975321D01*
X137121Y971963D01*
X138939Y967575D01*
X138939Y962825D01*
X137121Y958437D01*
X133763Y955079D01*
X129603Y953356D01*
X129548Y953321D01*
X129487Y953296D01*
X129422Y953244D01*
X129394Y953226D01*
X129382Y953211D01*
X129356Y953191D01*
X121654Y945488D01*
X121608Y945425D01*
X121588Y945404D01*
X121584Y945395D01*
X121541Y945345D01*
X121529Y945315D01*
X121510Y945288D01*
X121483Y945202D01*
X121449Y945117D01*
X121445Y945076D01*
X121438Y945053D01*
X121439Y945021D01*
X121431Y944950D01*
X121431Y910050D01*
X121445Y909960D01*
X121453Y909869D01*
X121465Y909839D01*
X121470Y909807D01*
X121513Y909727D01*
X121549Y909643D01*
X121575Y909611D01*
X121586Y909590D01*
X121609Y909568D01*
X121654Y909512D01*
X130722Y900443D01*
X130775Y900405D01*
X130822Y900359D01*
X130895Y900319D01*
X130922Y900300D01*
X130940Y900294D01*
X130969Y900278D01*
X133763Y899121D01*
X137121Y895763D01*
X138939Y891375D01*
X138939Y886625D01*
X137121Y882237D01*
X133763Y878879D01*
X129375Y877061D01*
X124625Y877061D01*
G37*
%LPD*%
%LPC*%
G36*
X47158Y23139D02*
X47158Y23139D01*
X40123Y25024D01*
X33816Y28666D01*
X28666Y33816D01*
X25024Y40123D01*
X23139Y47158D01*
X23139Y54442D01*
X25024Y61477D01*
X28666Y67784D01*
X33816Y72934D01*
X40123Y76576D01*
X47158Y78461D01*
X54442Y78461D01*
X61477Y76576D01*
X67784Y72934D01*
X72934Y67784D01*
X76576Y61477D01*
X78461Y54442D01*
X78461Y47158D01*
X76576Y40123D01*
X72934Y33816D01*
X67784Y28666D01*
X61477Y25024D01*
X54442Y23139D01*
X47158Y23139D01*
G37*
%LPD*%
%LPC*%
G36*
X47158Y988339D02*
X47158Y988339D01*
X40123Y990224D01*
X33816Y993866D01*
X28666Y999016D01*
X25024Y1005323D01*
X23139Y1012358D01*
X23139Y1019642D01*
X25024Y1026677D01*
X28666Y1032984D01*
X33816Y1038134D01*
X40123Y1041776D01*
X47158Y1043661D01*
X54442Y1043661D01*
X61477Y1041776D01*
X67784Y1038134D01*
X72934Y1032984D01*
X76576Y1026677D01*
X78461Y1019642D01*
X78461Y1012358D01*
X76576Y1005323D01*
X72934Y999016D01*
X67784Y993866D01*
X61477Y990224D01*
X54442Y988339D01*
X47158Y988339D01*
G37*
%LPD*%
%LPC*%
G36*
X1545758Y23139D02*
X1545758Y23139D01*
X1538723Y25024D01*
X1532416Y28666D01*
X1527266Y33816D01*
X1523624Y40123D01*
X1521739Y47158D01*
X1521739Y54442D01*
X1523624Y61477D01*
X1527266Y67784D01*
X1532416Y72934D01*
X1538723Y76576D01*
X1545758Y78461D01*
X1553042Y78461D01*
X1560077Y76576D01*
X1566384Y72934D01*
X1571534Y67784D01*
X1575176Y61477D01*
X1577061Y54442D01*
X1577061Y47158D01*
X1575176Y40123D01*
X1571534Y33816D01*
X1566384Y28666D01*
X1560077Y25024D01*
X1553042Y23139D01*
X1545758Y23139D01*
G37*
%LPD*%
%LPC*%
G36*
X1545758Y988339D02*
X1545758Y988339D01*
X1538723Y990224D01*
X1532416Y993866D01*
X1527266Y999016D01*
X1523624Y1005323D01*
X1521739Y1012358D01*
X1521739Y1019642D01*
X1523624Y1026677D01*
X1527266Y1032984D01*
X1532416Y1038134D01*
X1538723Y1041776D01*
X1545758Y1043661D01*
X1553042Y1043661D01*
X1560077Y1041776D01*
X1566384Y1038134D01*
X1571534Y1032984D01*
X1575176Y1026677D01*
X1577061Y1019642D01*
X1577061Y1012358D01*
X1575176Y1005323D01*
X1571534Y999016D01*
X1566384Y993866D01*
X1560077Y990224D01*
X1553042Y988339D01*
X1545758Y988339D01*
G37*
%LPD*%
%LPC*%
G36*
X174116Y113559D02*
X174116Y113559D01*
X174083Y113559D01*
X173991Y113569D01*
X160827Y113569D01*
X160795Y113564D01*
X160724Y113562D01*
X159290Y113367D01*
X158616Y113544D01*
X158602Y113546D01*
X158589Y113551D01*
X158423Y113569D01*
X157726Y113569D01*
X156389Y114123D01*
X156358Y114130D01*
X156292Y114156D01*
X152947Y115036D01*
X152933Y115038D01*
X152920Y115043D01*
X152753Y115061D01*
X150025Y115061D01*
X145637Y116879D01*
X144170Y118346D01*
X144096Y118399D01*
X144026Y118459D01*
X143996Y118471D01*
X143970Y118490D01*
X143883Y118517D01*
X143798Y118551D01*
X143757Y118555D01*
X143735Y118562D01*
X143703Y118561D01*
X143632Y118569D01*
X135768Y118569D01*
X135678Y118555D01*
X135587Y118547D01*
X135558Y118535D01*
X135526Y118530D01*
X135445Y118487D01*
X135361Y118451D01*
X135329Y118425D01*
X135308Y118414D01*
X135286Y118391D01*
X135230Y118346D01*
X133763Y116879D01*
X129375Y115061D01*
X124625Y115061D01*
X120237Y116879D01*
X116879Y120237D01*
X115061Y124625D01*
X115061Y129375D01*
X116879Y133763D01*
X120237Y137121D01*
X121324Y137571D01*
X121380Y137606D01*
X121440Y137631D01*
X121505Y137683D01*
X121533Y137701D01*
X121545Y137716D01*
X121571Y137736D01*
X123525Y139690D01*
X127726Y141431D01*
X148269Y141431D01*
X148292Y141435D01*
X148316Y141432D01*
X148481Y141461D01*
X149002Y141612D01*
X150591Y141435D01*
X150620Y141437D01*
X150675Y141431D01*
X152274Y141431D01*
X152775Y141223D01*
X152798Y141218D01*
X152819Y141206D01*
X152983Y141170D01*
X153522Y141110D01*
X154922Y140339D01*
X154949Y140329D01*
X154998Y140302D01*
X156475Y139691D01*
X156859Y139307D01*
X156878Y139293D01*
X156893Y139275D01*
X157030Y139178D01*
X157506Y138916D01*
X158504Y137668D01*
X158525Y137649D01*
X158560Y137605D01*
X158854Y137312D01*
X158907Y137274D01*
X158954Y137228D01*
X159026Y137188D01*
X159053Y137168D01*
X159072Y137163D01*
X159101Y137147D01*
X159196Y137107D01*
X159222Y137089D01*
X159315Y137019D01*
X159322Y137016D01*
X159327Y137013D01*
X159345Y137008D01*
X159472Y136959D01*
X161384Y136456D01*
X161398Y136454D01*
X161411Y136449D01*
X161577Y136431D01*
X170032Y136431D01*
X170122Y136445D01*
X170213Y136453D01*
X170242Y136465D01*
X170274Y136470D01*
X170355Y136513D01*
X170439Y136549D01*
X170471Y136575D01*
X170492Y136586D01*
X170514Y136609D01*
X170570Y136654D01*
X171037Y137121D01*
X175425Y138939D01*
X176581Y138939D01*
X176646Y138949D01*
X176713Y138950D01*
X176791Y138973D01*
X176824Y138978D01*
X176841Y138988D01*
X176874Y138997D01*
X178377Y139624D01*
X178403Y139640D01*
X180610Y140554D01*
X180611Y140555D01*
X182714Y141431D01*
X184989Y141431D01*
X184990Y141431D01*
X184991Y141431D01*
X187348Y141436D01*
X187362Y141432D01*
X187380Y141434D01*
X187412Y141431D01*
X199804Y141431D01*
X199813Y141432D01*
X199828Y141431D01*
X201904Y141498D01*
X201953Y141480D01*
X202005Y141469D01*
X202055Y141449D01*
X202166Y141437D01*
X202194Y141431D01*
X202205Y141433D01*
X202221Y141431D01*
X202274Y141431D01*
X204192Y140636D01*
X204202Y140634D01*
X204215Y140627D01*
X206159Y139894D01*
X206197Y139858D01*
X206242Y139829D01*
X206280Y139791D01*
X206378Y139737D01*
X206402Y139721D01*
X206412Y139719D01*
X206427Y139710D01*
X206475Y139690D01*
X207943Y138222D01*
X207951Y138217D01*
X207961Y138205D01*
X208347Y137844D01*
X208391Y137814D01*
X208429Y137776D01*
X208527Y137723D01*
X208551Y137706D01*
X208561Y137704D01*
X208576Y137696D01*
X209963Y137121D01*
X213321Y133763D01*
X215139Y129375D01*
X215139Y124625D01*
X213321Y120237D01*
X209963Y116879D01*
X205575Y115061D01*
X200825Y115061D01*
X196437Y116879D01*
X194970Y118346D01*
X194896Y118399D01*
X194826Y118459D01*
X194796Y118471D01*
X194770Y118490D01*
X194683Y118517D01*
X194598Y118551D01*
X194557Y118555D01*
X194535Y118562D01*
X194503Y118561D01*
X194432Y118569D01*
X187438Y118569D01*
X187373Y118559D01*
X187307Y118558D01*
X187228Y118535D01*
X187196Y118530D01*
X187178Y118520D01*
X187146Y118511D01*
X185654Y117889D01*
X185599Y117855D01*
X185540Y117830D01*
X185474Y117777D01*
X185446Y117759D01*
X185434Y117745D01*
X185409Y117725D01*
X184563Y116879D01*
X182111Y115863D01*
X182055Y115829D01*
X181994Y115803D01*
X181929Y115751D01*
X181901Y115733D01*
X181889Y115719D01*
X181864Y115698D01*
X181475Y115309D01*
X180662Y114973D01*
X180659Y114971D01*
X180657Y114971D01*
X180510Y114889D01*
X179794Y114377D01*
X178562Y114092D01*
X178532Y114079D01*
X178442Y114053D01*
X177274Y113569D01*
X176393Y113569D01*
X176391Y113569D01*
X176388Y113569D01*
X176221Y113550D01*
X175364Y113351D01*
X174116Y113559D01*
G37*
%LPD*%
%LPC*%
G36*
X353225Y191261D02*
X353225Y191261D01*
X348837Y193079D01*
X345479Y196437D01*
X343661Y200825D01*
X343661Y203838D01*
X343647Y203928D01*
X343639Y204019D01*
X343627Y204049D01*
X343622Y204081D01*
X343579Y204162D01*
X343543Y204245D01*
X343517Y204278D01*
X343506Y204298D01*
X343483Y204320D01*
X343438Y204376D01*
X329919Y217895D01*
X329919Y257105D01*
X332895Y260081D01*
X344688Y260081D01*
X344802Y260099D01*
X344919Y260117D01*
X344924Y260119D01*
X344930Y260120D01*
X345033Y260175D01*
X345138Y260228D01*
X345142Y260233D01*
X345148Y260236D01*
X345228Y260320D01*
X345310Y260404D01*
X345314Y260410D01*
X345317Y260414D01*
X345325Y260431D01*
X345391Y260551D01*
X345479Y260763D01*
X348837Y264121D01*
X353225Y265939D01*
X357975Y265939D01*
X362363Y264121D01*
X365721Y260763D01*
X367539Y256375D01*
X367539Y251625D01*
X365721Y247237D01*
X362363Y243879D01*
X357975Y242061D01*
X353225Y242061D01*
X348837Y243879D01*
X345479Y247237D01*
X344563Y249449D01*
X344501Y249549D01*
X344441Y249649D01*
X344436Y249653D01*
X344433Y249658D01*
X344343Y249733D01*
X344254Y249809D01*
X344248Y249811D01*
X344243Y249815D01*
X344135Y249857D01*
X344026Y249901D01*
X344018Y249902D01*
X344014Y249903D01*
X343996Y249904D01*
X343859Y249919D01*
X340842Y249919D01*
X340822Y249916D01*
X340803Y249918D01*
X340701Y249896D01*
X340599Y249880D01*
X340582Y249870D01*
X340562Y249866D01*
X340473Y249813D01*
X340382Y249764D01*
X340368Y249750D01*
X340351Y249740D01*
X340284Y249661D01*
X340212Y249586D01*
X340204Y249568D01*
X340191Y249553D01*
X340152Y249457D01*
X340109Y249363D01*
X340107Y249343D01*
X340099Y249325D01*
X340081Y249158D01*
X340081Y222420D01*
X340095Y222330D01*
X340103Y222239D01*
X340115Y222209D01*
X340120Y222177D01*
X340163Y222096D01*
X340199Y222013D01*
X340225Y221980D01*
X340236Y221960D01*
X340259Y221938D01*
X340304Y221882D01*
X348497Y213689D01*
X348591Y213621D01*
X348685Y213551D01*
X348691Y213549D01*
X348696Y213545D01*
X348807Y213511D01*
X348919Y213475D01*
X348925Y213475D01*
X348931Y213473D01*
X349048Y213476D01*
X349165Y213477D01*
X349172Y213479D01*
X349177Y213479D01*
X349195Y213486D01*
X349326Y213524D01*
X353225Y215139D01*
X357975Y215139D01*
X362363Y213321D01*
X365721Y209963D01*
X367539Y205575D01*
X367539Y200825D01*
X365721Y196437D01*
X362363Y193079D01*
X357975Y191261D01*
X353225Y191261D01*
G37*
%LPD*%
%LPC*%
G36*
X1293025Y851661D02*
X1293025Y851661D01*
X1288637Y853479D01*
X1285279Y856837D01*
X1283461Y861225D01*
X1283461Y865975D01*
X1285279Y870363D01*
X1288346Y873430D01*
X1288399Y873504D01*
X1288459Y873574D01*
X1288471Y873604D01*
X1288490Y873630D01*
X1288517Y873717D01*
X1288551Y873802D01*
X1288555Y873843D01*
X1288562Y873865D01*
X1288561Y873897D01*
X1288569Y873968D01*
X1288569Y878632D01*
X1288555Y878722D01*
X1288547Y878813D01*
X1288535Y878842D01*
X1288530Y878874D01*
X1288487Y878955D01*
X1288451Y879039D01*
X1288425Y879071D01*
X1288414Y879092D01*
X1288391Y879114D01*
X1288346Y879170D01*
X1285279Y882237D01*
X1283461Y886625D01*
X1283461Y891375D01*
X1285279Y895763D01*
X1288637Y899121D01*
X1293025Y900939D01*
X1297775Y900939D01*
X1302163Y899121D01*
X1305521Y895763D01*
X1305722Y895278D01*
X1305770Y895200D01*
X1305812Y895119D01*
X1305839Y895089D01*
X1305851Y895069D01*
X1305876Y895049D01*
X1305925Y894995D01*
X1306001Y894929D01*
X1306035Y894909D01*
X1306063Y894881D01*
X1306123Y894848D01*
X1306128Y894844D01*
X1306139Y894839D01*
X1306210Y894800D01*
X1306475Y894690D01*
X1307782Y893383D01*
X1307799Y893371D01*
X1307821Y893347D01*
X1309216Y892134D01*
X1309344Y891877D01*
X1309367Y891845D01*
X1309383Y891809D01*
X1309487Y891678D01*
X1309690Y891475D01*
X1310398Y889767D01*
X1310409Y889750D01*
X1310420Y889718D01*
X1311245Y888064D01*
X1311265Y887777D01*
X1311274Y887739D01*
X1311274Y887700D01*
X1311321Y887539D01*
X1311431Y887274D01*
X1311431Y885425D01*
X1311434Y885405D01*
X1311433Y885372D01*
X1311561Y883527D01*
X1311470Y883255D01*
X1311464Y883217D01*
X1311449Y883180D01*
X1311431Y883013D01*
X1311431Y866814D01*
X1311435Y866786D01*
X1311433Y866757D01*
X1311464Y866593D01*
X1311598Y866153D01*
X1311434Y864481D01*
X1311436Y864455D01*
X1311431Y864407D01*
X1311431Y862726D01*
X1311255Y862302D01*
X1311248Y862274D01*
X1311235Y862248D01*
X1311227Y862212D01*
X1311224Y862204D01*
X1311222Y862186D01*
X1311201Y862084D01*
X1311156Y861627D01*
X1310365Y860145D01*
X1310357Y860120D01*
X1310334Y860078D01*
X1309690Y858525D01*
X1309366Y858200D01*
X1309349Y858177D01*
X1309327Y858158D01*
X1309232Y858020D01*
X1309016Y857615D01*
X1307718Y856547D01*
X1307701Y856528D01*
X1307663Y856498D01*
X1306475Y855310D01*
X1306050Y855134D01*
X1306026Y855119D01*
X1305999Y855110D01*
X1305858Y855018D01*
X1305503Y854727D01*
X1303896Y854237D01*
X1303872Y854226D01*
X1303826Y854212D01*
X1302379Y853613D01*
X1302323Y853578D01*
X1302262Y853552D01*
X1302197Y853500D01*
X1302169Y853483D01*
X1302168Y853481D01*
X1297775Y851661D01*
X1293025Y851661D01*
G37*
%LPD*%
%LPC*%
G36*
X556425Y572261D02*
X556425Y572261D01*
X552037Y574079D01*
X548679Y577437D01*
X546861Y581825D01*
X546861Y586575D01*
X548679Y590963D01*
X552037Y594321D01*
X556425Y596139D01*
X561175Y596139D01*
X565563Y594321D01*
X568921Y590963D01*
X570739Y586575D01*
X570739Y581825D01*
X568921Y577437D01*
X565563Y574079D01*
X561175Y572261D01*
X556425Y572261D01*
G37*
%LPD*%
%LPC*%
G36*
X480225Y572261D02*
X480225Y572261D01*
X475837Y574079D01*
X472479Y577437D01*
X470661Y581825D01*
X470661Y586575D01*
X472479Y590963D01*
X475837Y594321D01*
X480225Y596139D01*
X484975Y596139D01*
X489363Y594321D01*
X492721Y590963D01*
X494539Y586575D01*
X494539Y581825D01*
X492721Y577437D01*
X489363Y574079D01*
X484975Y572261D01*
X480225Y572261D01*
G37*
%LPD*%
%LPC*%
G36*
X353225Y572261D02*
X353225Y572261D01*
X348837Y574079D01*
X345479Y577437D01*
X343661Y581825D01*
X343661Y586575D01*
X345479Y590963D01*
X348837Y594321D01*
X353225Y596139D01*
X357975Y596139D01*
X362363Y594321D01*
X365721Y590963D01*
X367539Y586575D01*
X367539Y581825D01*
X365721Y577437D01*
X362363Y574079D01*
X357975Y572261D01*
X353225Y572261D01*
G37*
%LPD*%
%LPC*%
G36*
X531025Y572261D02*
X531025Y572261D01*
X526637Y574079D01*
X523279Y577437D01*
X521461Y581825D01*
X521461Y586575D01*
X523279Y590963D01*
X526637Y594321D01*
X531025Y596139D01*
X535775Y596139D01*
X540163Y594321D01*
X543521Y590963D01*
X545339Y586575D01*
X545339Y581825D01*
X543521Y577437D01*
X540163Y574079D01*
X535775Y572261D01*
X531025Y572261D01*
G37*
%LPD*%
%LPC*%
G36*
X429425Y572261D02*
X429425Y572261D01*
X425037Y574079D01*
X421679Y577437D01*
X419861Y581825D01*
X419861Y586575D01*
X421679Y590963D01*
X425037Y594321D01*
X429425Y596139D01*
X434175Y596139D01*
X438563Y594321D01*
X441921Y590963D01*
X443739Y586575D01*
X443739Y581825D01*
X441921Y577437D01*
X438563Y574079D01*
X434175Y572261D01*
X429425Y572261D01*
G37*
%LPD*%
%LPC*%
G36*
X505625Y572261D02*
X505625Y572261D01*
X501237Y574079D01*
X497879Y577437D01*
X496061Y581825D01*
X496061Y586575D01*
X497879Y590963D01*
X501237Y594321D01*
X505625Y596139D01*
X510375Y596139D01*
X514763Y594321D01*
X518121Y590963D01*
X519939Y586575D01*
X519939Y581825D01*
X518121Y577437D01*
X514763Y574079D01*
X510375Y572261D01*
X505625Y572261D01*
G37*
%LPD*%
%LPC*%
G36*
X302425Y115061D02*
X302425Y115061D01*
X298037Y116879D01*
X294679Y120237D01*
X292861Y124625D01*
X292861Y129375D01*
X294679Y133763D01*
X298037Y137121D01*
X302425Y138939D01*
X307175Y138939D01*
X311563Y137121D01*
X314921Y133763D01*
X316739Y129375D01*
X316739Y124625D01*
X314921Y120237D01*
X311563Y116879D01*
X307175Y115061D01*
X302425Y115061D01*
G37*
%LPD*%
%LPC*%
G36*
X404025Y953261D02*
X404025Y953261D01*
X399637Y955079D01*
X396279Y958437D01*
X394461Y962825D01*
X394461Y967575D01*
X396279Y971963D01*
X399637Y975321D01*
X404025Y977139D01*
X408775Y977139D01*
X413163Y975321D01*
X416521Y971963D01*
X418339Y967575D01*
X418339Y962825D01*
X416521Y958437D01*
X413163Y955079D01*
X408775Y953261D01*
X404025Y953261D01*
G37*
%LPD*%
%LPC*%
G36*
X556425Y953261D02*
X556425Y953261D01*
X552037Y955079D01*
X548679Y958437D01*
X546861Y962825D01*
X546861Y967575D01*
X548679Y971963D01*
X552037Y975321D01*
X556425Y977139D01*
X561175Y977139D01*
X565563Y975321D01*
X568921Y971963D01*
X570739Y967575D01*
X570739Y962825D01*
X568921Y958437D01*
X565563Y955079D01*
X561175Y953261D01*
X556425Y953261D01*
G37*
%LPD*%
%LPC*%
G36*
X378625Y115061D02*
X378625Y115061D01*
X374237Y116879D01*
X370879Y120237D01*
X369061Y124625D01*
X369061Y129375D01*
X370879Y133763D01*
X374237Y137121D01*
X378625Y138939D01*
X383375Y138939D01*
X387763Y137121D01*
X391121Y133763D01*
X392939Y129375D01*
X392939Y124625D01*
X391121Y120237D01*
X387763Y116879D01*
X383375Y115061D01*
X378625Y115061D01*
G37*
%LPD*%
%LPC*%
G36*
X835825Y953261D02*
X835825Y953261D01*
X831437Y955079D01*
X828079Y958437D01*
X826261Y962825D01*
X826261Y967575D01*
X828079Y971963D01*
X831437Y975321D01*
X835825Y977139D01*
X840575Y977139D01*
X844963Y975321D01*
X848321Y971963D01*
X850139Y967575D01*
X850139Y962825D01*
X848321Y958437D01*
X844963Y955079D01*
X840575Y953261D01*
X835825Y953261D01*
G37*
%LPD*%
%LPC*%
G36*
X429425Y369061D02*
X429425Y369061D01*
X425037Y370879D01*
X421679Y374237D01*
X419861Y378625D01*
X419861Y383375D01*
X421679Y387763D01*
X425037Y391121D01*
X429425Y392939D01*
X434175Y392939D01*
X438563Y391121D01*
X441921Y387763D01*
X443739Y383375D01*
X443739Y378625D01*
X441921Y374237D01*
X438563Y370879D01*
X434175Y369061D01*
X429425Y369061D01*
G37*
%LPD*%
%LPC*%
G36*
X404025Y369061D02*
X404025Y369061D01*
X399637Y370879D01*
X396279Y374237D01*
X394461Y378625D01*
X394461Y383375D01*
X396279Y387763D01*
X399637Y391121D01*
X404025Y392939D01*
X408775Y392939D01*
X413163Y391121D01*
X416521Y387763D01*
X418339Y383375D01*
X418339Y378625D01*
X416521Y374237D01*
X413163Y370879D01*
X408775Y369061D01*
X404025Y369061D01*
G37*
%LPD*%
%LPC*%
G36*
X277025Y115061D02*
X277025Y115061D01*
X272637Y116879D01*
X269279Y120237D01*
X267461Y124625D01*
X267461Y129375D01*
X269279Y133763D01*
X272637Y137121D01*
X277025Y138939D01*
X281775Y138939D01*
X286163Y137121D01*
X289521Y133763D01*
X291339Y129375D01*
X291339Y124625D01*
X289521Y120237D01*
X286163Y116879D01*
X281775Y115061D01*
X277025Y115061D01*
G37*
%LPD*%
%LPC*%
G36*
X302425Y572261D02*
X302425Y572261D01*
X298037Y574079D01*
X294679Y577437D01*
X292861Y581825D01*
X292861Y586575D01*
X294679Y590963D01*
X298037Y594321D01*
X302425Y596139D01*
X307175Y596139D01*
X311563Y594321D01*
X314921Y590963D01*
X316739Y586575D01*
X316739Y581825D01*
X314921Y577437D01*
X311563Y574079D01*
X307175Y572261D01*
X302425Y572261D01*
G37*
%LPD*%
%LPC*%
G36*
X277025Y369061D02*
X277025Y369061D01*
X272637Y370879D01*
X269279Y374237D01*
X267461Y378625D01*
X267461Y383375D01*
X269279Y387763D01*
X272637Y391121D01*
X277025Y392939D01*
X281775Y392939D01*
X286163Y391121D01*
X289521Y387763D01*
X291339Y383375D01*
X291339Y378625D01*
X289521Y374237D01*
X286163Y370879D01*
X281775Y369061D01*
X277025Y369061D01*
G37*
%LPD*%
%LPC*%
G36*
X124625Y165861D02*
X124625Y165861D01*
X120237Y167679D01*
X116879Y171037D01*
X115061Y175425D01*
X115061Y180175D01*
X116879Y184563D01*
X120237Y187921D01*
X124625Y189739D01*
X129375Y189739D01*
X133763Y187921D01*
X137121Y184563D01*
X138939Y180175D01*
X138939Y175425D01*
X137121Y171037D01*
X133763Y167679D01*
X129375Y165861D01*
X124625Y165861D01*
G37*
%LPD*%
%LPC*%
G36*
X404025Y572261D02*
X404025Y572261D01*
X399637Y574079D01*
X396279Y577437D01*
X394461Y581825D01*
X394461Y586575D01*
X396279Y590963D01*
X399637Y594321D01*
X404025Y596139D01*
X408775Y596139D01*
X413163Y594321D01*
X416521Y590963D01*
X418339Y586575D01*
X418339Y581825D01*
X416521Y577437D01*
X413163Y574079D01*
X408775Y572261D01*
X404025Y572261D01*
G37*
%LPD*%
%LPC*%
G36*
X226225Y191261D02*
X226225Y191261D01*
X221837Y193079D01*
X218479Y196437D01*
X216661Y200825D01*
X216661Y205575D01*
X218479Y209963D01*
X221837Y213321D01*
X226225Y215139D01*
X230975Y215139D01*
X235363Y213321D01*
X238721Y209963D01*
X240539Y205575D01*
X240539Y200825D01*
X238721Y196437D01*
X235363Y193079D01*
X230975Y191261D01*
X226225Y191261D01*
G37*
%LPD*%
%LPC*%
G36*
X200825Y191261D02*
X200825Y191261D01*
X196437Y193079D01*
X193079Y196437D01*
X191261Y200825D01*
X191261Y205575D01*
X193079Y209963D01*
X196437Y213321D01*
X200825Y215139D01*
X205575Y215139D01*
X209963Y213321D01*
X213321Y209963D01*
X215139Y205575D01*
X215139Y200825D01*
X213321Y196437D01*
X209963Y193079D01*
X205575Y191261D01*
X200825Y191261D01*
G37*
%LPD*%
%LPC*%
G36*
X327825Y369061D02*
X327825Y369061D01*
X323437Y370879D01*
X320079Y374237D01*
X318261Y378625D01*
X318261Y383375D01*
X320079Y387763D01*
X323437Y391121D01*
X327825Y392939D01*
X332575Y392939D01*
X336963Y391121D01*
X340321Y387763D01*
X342139Y383375D01*
X342139Y378625D01*
X340321Y374237D01*
X336963Y370879D01*
X332575Y369061D01*
X327825Y369061D01*
G37*
%LPD*%
%LPC*%
G36*
X378625Y216661D02*
X378625Y216661D01*
X374237Y218479D01*
X370879Y221837D01*
X369061Y226225D01*
X369061Y230975D01*
X370879Y235363D01*
X374237Y238721D01*
X378625Y240539D01*
X383375Y240539D01*
X387763Y238721D01*
X391121Y235363D01*
X392939Y230975D01*
X392939Y226225D01*
X391121Y221837D01*
X387763Y218479D01*
X383375Y216661D01*
X378625Y216661D01*
G37*
%LPD*%
%LPC*%
G36*
X353225Y216661D02*
X353225Y216661D01*
X348837Y218479D01*
X345479Y221837D01*
X343661Y226225D01*
X343661Y230975D01*
X345479Y235363D01*
X348837Y238721D01*
X353225Y240539D01*
X357975Y240539D01*
X362363Y238721D01*
X365721Y235363D01*
X367539Y230975D01*
X367539Y226225D01*
X365721Y221837D01*
X362363Y218479D01*
X357975Y216661D01*
X353225Y216661D01*
G37*
%LPD*%
%LPC*%
G36*
X353225Y369061D02*
X353225Y369061D01*
X348837Y370879D01*
X345479Y374237D01*
X343661Y378625D01*
X343661Y383375D01*
X345479Y387763D01*
X348837Y391121D01*
X353225Y392939D01*
X357975Y392939D01*
X362363Y391121D01*
X365721Y387763D01*
X367539Y383375D01*
X367539Y378625D01*
X365721Y374237D01*
X362363Y370879D01*
X357975Y369061D01*
X353225Y369061D01*
G37*
%LPD*%
%LPC*%
G36*
X556425Y369061D02*
X556425Y369061D01*
X552037Y370879D01*
X548679Y374237D01*
X546861Y378625D01*
X546861Y383375D01*
X548679Y387763D01*
X552037Y391121D01*
X556425Y392939D01*
X561175Y392939D01*
X565563Y391121D01*
X568921Y387763D01*
X570739Y383375D01*
X570739Y378625D01*
X568921Y374237D01*
X565563Y370879D01*
X561175Y369061D01*
X556425Y369061D01*
G37*
%LPD*%
%LPC*%
G36*
X327825Y572261D02*
X327825Y572261D01*
X323437Y574079D01*
X320079Y577437D01*
X318261Y581825D01*
X318261Y586575D01*
X320079Y590963D01*
X323437Y594321D01*
X327825Y596139D01*
X332575Y596139D01*
X336963Y594321D01*
X340321Y590963D01*
X342139Y586575D01*
X342139Y581825D01*
X340321Y577437D01*
X336963Y574079D01*
X332575Y572261D01*
X327825Y572261D01*
G37*
%LPD*%
%LPC*%
G36*
X378625Y242061D02*
X378625Y242061D01*
X374237Y243879D01*
X370879Y247237D01*
X369061Y251625D01*
X369061Y256375D01*
X370879Y260763D01*
X374237Y264121D01*
X378625Y265939D01*
X383375Y265939D01*
X387763Y264121D01*
X391121Y260763D01*
X392939Y256375D01*
X392939Y251625D01*
X391121Y247237D01*
X387763Y243879D01*
X383375Y242061D01*
X378625Y242061D01*
G37*
%LPD*%
%LPC*%
G36*
X124625Y242061D02*
X124625Y242061D01*
X120237Y243879D01*
X116879Y247237D01*
X115061Y251625D01*
X115061Y256375D01*
X116879Y260763D01*
X120237Y264121D01*
X124625Y265939D01*
X129375Y265939D01*
X133763Y264121D01*
X137121Y260763D01*
X138939Y256375D01*
X138939Y251625D01*
X137121Y247237D01*
X133763Y243879D01*
X129375Y242061D01*
X124625Y242061D01*
G37*
%LPD*%
%LPC*%
G36*
X378625Y369061D02*
X378625Y369061D01*
X374237Y370879D01*
X370879Y374237D01*
X369061Y378625D01*
X369061Y383375D01*
X370879Y387763D01*
X374237Y391121D01*
X378625Y392939D01*
X383375Y392939D01*
X387763Y391121D01*
X391121Y387763D01*
X392939Y383375D01*
X392939Y378625D01*
X391121Y374237D01*
X387763Y370879D01*
X383375Y369061D01*
X378625Y369061D01*
G37*
%LPD*%
%LPC*%
G36*
X200825Y369061D02*
X200825Y369061D01*
X196437Y370879D01*
X193079Y374237D01*
X191261Y378625D01*
X191261Y383375D01*
X193079Y387763D01*
X196437Y391121D01*
X200825Y392939D01*
X205575Y392939D01*
X209963Y391121D01*
X213321Y387763D01*
X215139Y383375D01*
X215139Y378625D01*
X213321Y374237D01*
X209963Y370879D01*
X205575Y369061D01*
X200825Y369061D01*
G37*
%LPD*%
%LPC*%
G36*
X226225Y369061D02*
X226225Y369061D01*
X221837Y370879D01*
X218479Y374237D01*
X216661Y378625D01*
X216661Y383375D01*
X218479Y387763D01*
X221837Y391121D01*
X226225Y392939D01*
X230975Y392939D01*
X235363Y391121D01*
X238721Y387763D01*
X240539Y383375D01*
X240539Y378625D01*
X238721Y374237D01*
X235363Y370879D01*
X230975Y369061D01*
X226225Y369061D01*
G37*
%LPD*%
%LPC*%
G36*
X353225Y267461D02*
X353225Y267461D01*
X348837Y269279D01*
X345479Y272637D01*
X343661Y277025D01*
X343661Y281775D01*
X345479Y286163D01*
X348837Y289521D01*
X353225Y291339D01*
X357975Y291339D01*
X362363Y289521D01*
X365721Y286163D01*
X367539Y281775D01*
X367539Y277025D01*
X365721Y272637D01*
X362363Y269279D01*
X357975Y267461D01*
X353225Y267461D01*
G37*
%LPD*%
%LPC*%
G36*
X124625Y267461D02*
X124625Y267461D01*
X120237Y269279D01*
X116879Y272637D01*
X115061Y277025D01*
X115061Y281775D01*
X116879Y286163D01*
X120237Y289521D01*
X124625Y291339D01*
X129375Y291339D01*
X133763Y289521D01*
X137121Y286163D01*
X138939Y281775D01*
X138939Y277025D01*
X137121Y272637D01*
X133763Y269279D01*
X129375Y267461D01*
X124625Y267461D01*
G37*
%LPD*%
%LPC*%
G36*
X251625Y267461D02*
X251625Y267461D01*
X247237Y269279D01*
X243879Y272637D01*
X242061Y277025D01*
X242061Y281775D01*
X243879Y286163D01*
X247237Y289521D01*
X251625Y291339D01*
X256375Y291339D01*
X260763Y289521D01*
X264121Y286163D01*
X265939Y281775D01*
X265939Y277025D01*
X264121Y272637D01*
X260763Y269279D01*
X256375Y267461D01*
X251625Y267461D01*
G37*
%LPD*%
%LPC*%
G36*
X454825Y572261D02*
X454825Y572261D01*
X450437Y574079D01*
X447079Y577437D01*
X445261Y581825D01*
X445261Y586575D01*
X447079Y590963D01*
X450437Y594321D01*
X454825Y596139D01*
X459575Y596139D01*
X463963Y594321D01*
X467321Y590963D01*
X469139Y586575D01*
X469139Y581825D01*
X467321Y577437D01*
X463963Y574079D01*
X459575Y572261D01*
X454825Y572261D01*
G37*
%LPD*%
%LPC*%
G36*
X531025Y369061D02*
X531025Y369061D01*
X526637Y370879D01*
X523279Y374237D01*
X521461Y378625D01*
X521461Y383375D01*
X523279Y387763D01*
X526637Y391121D01*
X531025Y392939D01*
X535775Y392939D01*
X540163Y391121D01*
X543521Y387763D01*
X545339Y383375D01*
X545339Y378625D01*
X543521Y374237D01*
X540163Y370879D01*
X535775Y369061D01*
X531025Y369061D01*
G37*
%LPD*%
%LPC*%
G36*
X378625Y572261D02*
X378625Y572261D01*
X374237Y574079D01*
X370879Y577437D01*
X369061Y581825D01*
X369061Y586575D01*
X370879Y590963D01*
X374237Y594321D01*
X378625Y596139D01*
X383375Y596139D01*
X387763Y594321D01*
X391121Y590963D01*
X392939Y586575D01*
X392939Y581825D01*
X391121Y577437D01*
X387763Y574079D01*
X383375Y572261D01*
X378625Y572261D01*
G37*
%LPD*%
%LPC*%
G36*
X454825Y369061D02*
X454825Y369061D01*
X450437Y370879D01*
X447079Y374237D01*
X445261Y378625D01*
X445261Y383375D01*
X447079Y387763D01*
X450437Y391121D01*
X454825Y392939D01*
X459575Y392939D01*
X463963Y391121D01*
X467321Y387763D01*
X469139Y383375D01*
X469139Y378625D01*
X467321Y374237D01*
X463963Y370879D01*
X459575Y369061D01*
X454825Y369061D01*
G37*
%LPD*%
%LPC*%
G36*
X480225Y369061D02*
X480225Y369061D01*
X475837Y370879D01*
X472479Y374237D01*
X470661Y378625D01*
X470661Y383375D01*
X472479Y387763D01*
X475837Y391121D01*
X480225Y392939D01*
X484975Y392939D01*
X489363Y391121D01*
X492721Y387763D01*
X494539Y383375D01*
X494539Y378625D01*
X492721Y374237D01*
X489363Y370879D01*
X484975Y369061D01*
X480225Y369061D01*
G37*
%LPD*%
%LPC*%
G36*
X302425Y369061D02*
X302425Y369061D01*
X298037Y370879D01*
X294679Y374237D01*
X292861Y378625D01*
X292861Y383375D01*
X294679Y387763D01*
X298037Y391121D01*
X302425Y392939D01*
X307175Y392939D01*
X311563Y391121D01*
X314921Y387763D01*
X316739Y383375D01*
X316739Y378625D01*
X314921Y374237D01*
X311563Y370879D01*
X307175Y369061D01*
X302425Y369061D01*
G37*
%LPD*%
%LPC*%
G36*
X1189276Y420877D02*
X1189276Y420877D01*
X1182877Y427276D01*
X1182877Y436324D01*
X1189276Y442723D01*
X1198324Y442723D01*
X1204723Y436324D01*
X1204723Y427276D01*
X1198324Y420877D01*
X1189276Y420877D01*
G37*
%LPD*%
%LPC*%
G36*
X706676Y319277D02*
X706676Y319277D01*
X700277Y325676D01*
X700277Y334724D01*
X706676Y341123D01*
X715724Y341123D01*
X722123Y334724D01*
X722123Y325676D01*
X715724Y319277D01*
X706676Y319277D01*
G37*
%LPD*%
%LPC*%
G36*
X1189276Y588517D02*
X1189276Y588517D01*
X1182877Y594916D01*
X1182877Y603964D01*
X1189276Y610363D01*
X1198324Y610363D01*
X1204723Y603964D01*
X1204723Y594916D01*
X1198324Y588517D01*
X1189276Y588517D01*
G37*
%LPD*%
%LPC*%
G36*
X706676Y598677D02*
X706676Y598677D01*
X700277Y605076D01*
X700277Y614124D01*
X706676Y620523D01*
X715724Y620523D01*
X722123Y614124D01*
X722123Y605076D01*
X715724Y598677D01*
X706676Y598677D01*
G37*
%LPD*%
%LPC*%
G36*
X706676Y573277D02*
X706676Y573277D01*
X700277Y579676D01*
X700277Y588724D01*
X706676Y595123D01*
X715724Y595123D01*
X722123Y588724D01*
X722123Y579676D01*
X715724Y573277D01*
X706676Y573277D01*
G37*
%LPD*%
%LPC*%
G36*
X706676Y547877D02*
X706676Y547877D01*
X700277Y554276D01*
X700277Y563324D01*
X706676Y569723D01*
X715724Y569723D01*
X722123Y563324D01*
X722123Y554276D01*
X715724Y547877D01*
X706676Y547877D01*
G37*
%LPD*%
%LPC*%
G36*
X1189276Y512317D02*
X1189276Y512317D01*
X1182877Y518716D01*
X1182877Y527764D01*
X1189276Y534163D01*
X1198324Y534163D01*
X1204723Y527764D01*
X1204723Y518716D01*
X1198324Y512317D01*
X1189276Y512317D01*
G37*
%LPD*%
%LPC*%
G36*
X1189276Y268477D02*
X1189276Y268477D01*
X1182877Y274876D01*
X1182877Y283924D01*
X1189276Y290323D01*
X1198324Y290323D01*
X1204723Y283924D01*
X1204723Y274876D01*
X1198324Y268477D01*
X1189276Y268477D01*
G37*
%LPD*%
%LPC*%
G36*
X1189276Y486917D02*
X1189276Y486917D01*
X1182877Y493316D01*
X1182877Y502364D01*
X1189276Y508763D01*
X1198324Y508763D01*
X1204723Y502364D01*
X1204723Y493316D01*
X1198324Y486917D01*
X1189276Y486917D01*
G37*
%LPD*%
%LPC*%
G36*
X1189276Y243077D02*
X1189276Y243077D01*
X1182877Y249476D01*
X1182877Y258524D01*
X1189276Y264923D01*
X1198324Y264923D01*
X1204723Y258524D01*
X1204723Y249476D01*
X1198324Y243077D01*
X1189276Y243077D01*
G37*
%LPD*%
%LPC*%
G36*
X706676Y420877D02*
X706676Y420877D01*
X700277Y427276D01*
X700277Y436324D01*
X706676Y442723D01*
X715724Y442723D01*
X722123Y436324D01*
X722123Y427276D01*
X715724Y420877D01*
X706676Y420877D01*
G37*
%LPD*%
%LPC*%
G36*
X1189276Y395477D02*
X1189276Y395477D01*
X1182877Y401876D01*
X1182877Y410924D01*
X1189276Y417323D01*
X1198324Y417323D01*
X1204723Y410924D01*
X1204723Y401876D01*
X1198324Y395477D01*
X1189276Y395477D01*
G37*
%LPD*%
%LPC*%
G36*
X1189276Y664717D02*
X1189276Y664717D01*
X1182877Y671116D01*
X1182877Y680164D01*
X1189276Y686563D01*
X1198324Y686563D01*
X1204723Y680164D01*
X1204723Y671116D01*
X1198324Y664717D01*
X1189276Y664717D01*
G37*
%LPD*%
%LPC*%
G36*
X1189276Y690117D02*
X1189276Y690117D01*
X1182877Y696516D01*
X1182877Y705564D01*
X1189276Y711963D01*
X1198324Y711963D01*
X1204723Y705564D01*
X1204723Y696516D01*
X1198324Y690117D01*
X1189276Y690117D01*
G37*
%LPD*%
%LPC*%
G36*
X1449323Y179323D02*
X1449323Y179323D01*
X1449323Y189646D01*
X1450596Y189445D01*
X1452383Y188864D01*
X1454057Y188011D01*
X1455578Y186906D01*
X1456906Y185578D01*
X1458011Y184057D01*
X1458864Y182383D01*
X1459445Y180596D01*
X1459646Y179323D01*
X1449323Y179323D01*
G37*
%LPD*%
%LPC*%
G36*
X128523Y687323D02*
X128523Y687323D01*
X128523Y697646D01*
X129796Y697445D01*
X131583Y696864D01*
X133257Y696011D01*
X134778Y694906D01*
X136106Y693578D01*
X137211Y692057D01*
X138064Y690383D01*
X138645Y688596D01*
X138846Y687323D01*
X128523Y687323D01*
G37*
%LPD*%
%LPC*%
G36*
X585723Y687323D02*
X585723Y687323D01*
X585723Y697646D01*
X586996Y697445D01*
X588783Y696864D01*
X590457Y696011D01*
X591978Y694906D01*
X593306Y693578D01*
X594411Y692057D01*
X595264Y690383D01*
X595845Y688596D01*
X596046Y687323D01*
X585723Y687323D01*
G37*
%LPD*%
%LPC*%
G36*
X611123Y966723D02*
X611123Y966723D01*
X611123Y977046D01*
X612396Y976845D01*
X614183Y976264D01*
X615857Y975411D01*
X617378Y974306D01*
X618706Y972978D01*
X619811Y971457D01*
X620664Y969783D01*
X621245Y967996D01*
X621446Y966723D01*
X611123Y966723D01*
G37*
%LPD*%
%LPC*%
G36*
X585723Y966723D02*
X585723Y966723D01*
X585723Y977046D01*
X586996Y976845D01*
X588783Y976264D01*
X590457Y975411D01*
X591978Y974306D01*
X593306Y972978D01*
X594411Y971457D01*
X595264Y969783D01*
X595845Y967996D01*
X596046Y966723D01*
X585723Y966723D01*
G37*
%LPD*%
%LPC*%
G36*
X1449323Y204723D02*
X1449323Y204723D01*
X1449323Y215046D01*
X1450596Y214845D01*
X1452383Y214264D01*
X1454057Y213411D01*
X1455578Y212306D01*
X1456906Y210978D01*
X1458011Y209457D01*
X1458864Y207783D01*
X1459445Y205996D01*
X1459646Y204723D01*
X1449323Y204723D01*
G37*
%LPD*%
%LPC*%
G36*
X1449323Y230123D02*
X1449323Y230123D01*
X1449323Y240446D01*
X1450596Y240245D01*
X1452383Y239664D01*
X1454057Y238811D01*
X1455578Y237706D01*
X1456906Y236378D01*
X1458011Y234857D01*
X1458864Y233183D01*
X1459445Y231396D01*
X1459646Y230123D01*
X1449323Y230123D01*
G37*
%LPD*%
%LPC*%
G36*
X1449323Y865123D02*
X1449323Y865123D01*
X1449323Y875446D01*
X1450596Y875245D01*
X1452383Y874664D01*
X1454057Y873811D01*
X1455578Y872706D01*
X1456906Y871378D01*
X1458011Y869857D01*
X1458864Y868183D01*
X1459445Y866396D01*
X1459646Y865123D01*
X1449323Y865123D01*
G37*
%LPD*%
%LPC*%
G36*
X534923Y966723D02*
X534923Y966723D01*
X534923Y977046D01*
X536196Y976845D01*
X537983Y976264D01*
X539657Y975411D01*
X541178Y974306D01*
X542506Y972978D01*
X543611Y971457D01*
X544464Y969783D01*
X545045Y967996D01*
X545246Y966723D01*
X534923Y966723D01*
G37*
%LPD*%
%LPC*%
G36*
X382523Y966723D02*
X382523Y966723D01*
X382523Y977046D01*
X383796Y976845D01*
X385583Y976264D01*
X387257Y975411D01*
X388778Y974306D01*
X390106Y972978D01*
X391211Y971457D01*
X392064Y969783D01*
X392645Y967996D01*
X392846Y966723D01*
X382523Y966723D01*
G37*
%LPD*%
%LPC*%
G36*
X738123Y966723D02*
X738123Y966723D01*
X738123Y977046D01*
X739396Y976845D01*
X741183Y976264D01*
X742857Y975411D01*
X744378Y974306D01*
X745706Y972978D01*
X746811Y971457D01*
X747664Y969783D01*
X748245Y967996D01*
X748446Y966723D01*
X738123Y966723D01*
G37*
%LPD*%
%LPC*%
G36*
X1449323Y255523D02*
X1449323Y255523D01*
X1449323Y265846D01*
X1450596Y265645D01*
X1452383Y265064D01*
X1454057Y264211D01*
X1455578Y263106D01*
X1456906Y261778D01*
X1458011Y260257D01*
X1458864Y258583D01*
X1459445Y256796D01*
X1459646Y255523D01*
X1449323Y255523D01*
G37*
%LPD*%
%LPC*%
G36*
X1449323Y280923D02*
X1449323Y280923D01*
X1449323Y291246D01*
X1450596Y291045D01*
X1452383Y290464D01*
X1454057Y289611D01*
X1455578Y288506D01*
X1456906Y287178D01*
X1458011Y285657D01*
X1458864Y283983D01*
X1459445Y282196D01*
X1459646Y280923D01*
X1449323Y280923D01*
G37*
%LPD*%
%LPC*%
G36*
X382523Y280923D02*
X382523Y280923D01*
X382523Y291246D01*
X383796Y291045D01*
X385583Y290464D01*
X387257Y289611D01*
X388778Y288506D01*
X390106Y287178D01*
X391211Y285657D01*
X392064Y283983D01*
X392645Y282196D01*
X392846Y280923D01*
X382523Y280923D01*
G37*
%LPD*%
%LPC*%
G36*
X1449323Y890523D02*
X1449323Y890523D01*
X1449323Y900846D01*
X1450596Y900645D01*
X1452383Y900064D01*
X1454057Y899211D01*
X1455578Y898106D01*
X1456906Y896778D01*
X1458011Y895257D01*
X1458864Y893583D01*
X1459445Y891796D01*
X1459646Y890523D01*
X1449323Y890523D01*
G37*
%LPD*%
%LPC*%
G36*
X153923Y966723D02*
X153923Y966723D01*
X153923Y977046D01*
X155196Y976845D01*
X156983Y976264D01*
X158657Y975411D01*
X160178Y974306D01*
X161506Y972978D01*
X162611Y971457D01*
X163464Y969783D01*
X164045Y967996D01*
X164246Y966723D01*
X153923Y966723D01*
G37*
%LPD*%
%LPC*%
G36*
X865123Y966723D02*
X865123Y966723D01*
X865123Y977046D01*
X866396Y976845D01*
X868183Y976264D01*
X869857Y975411D01*
X871378Y974306D01*
X872706Y972978D01*
X873811Y971457D01*
X874664Y969783D01*
X875245Y967996D01*
X875446Y966723D01*
X865123Y966723D01*
G37*
%LPD*%
%LPC*%
G36*
X128523Y306323D02*
X128523Y306323D01*
X128523Y316646D01*
X129796Y316445D01*
X131583Y315864D01*
X133257Y315011D01*
X134778Y313906D01*
X136106Y312578D01*
X137211Y311057D01*
X138064Y309383D01*
X138645Y307596D01*
X138846Y306323D01*
X128523Y306323D01*
G37*
%LPD*%
%LPC*%
G36*
X1449323Y306323D02*
X1449323Y306323D01*
X1449323Y316646D01*
X1450596Y316445D01*
X1452383Y315864D01*
X1454057Y315011D01*
X1455578Y313906D01*
X1456906Y312578D01*
X1458011Y311057D01*
X1458864Y309383D01*
X1459445Y307596D01*
X1459646Y306323D01*
X1449323Y306323D01*
G37*
%LPD*%
%LPC*%
G36*
X458723Y966723D02*
X458723Y966723D01*
X458723Y977046D01*
X459996Y976845D01*
X461783Y976264D01*
X463457Y975411D01*
X464978Y974306D01*
X466306Y972978D01*
X467411Y971457D01*
X468264Y969783D01*
X468845Y967996D01*
X469046Y966723D01*
X458723Y966723D01*
G37*
%LPD*%
%LPC*%
G36*
X484123Y128523D02*
X484123Y128523D01*
X484123Y138846D01*
X485396Y138645D01*
X487183Y138064D01*
X488857Y137211D01*
X490378Y136106D01*
X491706Y134778D01*
X492811Y133257D01*
X493664Y131583D01*
X494245Y129796D01*
X494446Y128523D01*
X484123Y128523D01*
G37*
%LPD*%
%LPC*%
G36*
X230123Y966723D02*
X230123Y966723D01*
X230123Y977046D01*
X231396Y976845D01*
X233183Y976264D01*
X234857Y975411D01*
X236378Y974306D01*
X237706Y972978D01*
X238811Y971457D01*
X239664Y969783D01*
X240245Y967996D01*
X240446Y966723D01*
X230123Y966723D01*
G37*
%LPD*%
%LPC*%
G36*
X560323Y128523D02*
X560323Y128523D01*
X560323Y138846D01*
X561596Y138645D01*
X563383Y138064D01*
X565057Y137211D01*
X566578Y136106D01*
X567906Y134778D01*
X569011Y133257D01*
X569864Y131583D01*
X570445Y129796D01*
X570646Y128523D01*
X560323Y128523D01*
G37*
%LPD*%
%LPC*%
G36*
X407923Y128523D02*
X407923Y128523D01*
X407923Y138846D01*
X409196Y138645D01*
X410983Y138064D01*
X412657Y137211D01*
X414178Y136106D01*
X415506Y134778D01*
X416611Y133257D01*
X417464Y131583D01*
X418045Y129796D01*
X418246Y128523D01*
X407923Y128523D01*
G37*
%LPD*%
%LPC*%
G36*
X433323Y966723D02*
X433323Y966723D01*
X433323Y977046D01*
X434596Y976845D01*
X436383Y976264D01*
X438057Y975411D01*
X439578Y974306D01*
X440906Y972978D01*
X442011Y971457D01*
X442864Y969783D01*
X443445Y967996D01*
X443646Y966723D01*
X433323Y966723D01*
G37*
%LPD*%
%LPC*%
G36*
X509523Y128523D02*
X509523Y128523D01*
X509523Y138846D01*
X510796Y138645D01*
X512583Y138064D01*
X514257Y137211D01*
X515778Y136106D01*
X517106Y134778D01*
X518211Y133257D01*
X519064Y131583D01*
X519645Y129796D01*
X519846Y128523D01*
X509523Y128523D01*
G37*
%LPD*%
%LPC*%
G36*
X534923Y128523D02*
X534923Y128523D01*
X534923Y138846D01*
X536196Y138645D01*
X537983Y138064D01*
X539657Y137211D01*
X541178Y136106D01*
X542506Y134778D01*
X543611Y133257D01*
X544464Y131583D01*
X545045Y129796D01*
X545246Y128523D01*
X534923Y128523D01*
G37*
%LPD*%
%LPC*%
G36*
X255523Y382523D02*
X255523Y382523D01*
X255523Y392846D01*
X256796Y392645D01*
X258583Y392064D01*
X260257Y391211D01*
X261778Y390106D01*
X263106Y388778D01*
X264211Y387257D01*
X265064Y385583D01*
X265645Y383796D01*
X265846Y382523D01*
X255523Y382523D01*
G37*
%LPD*%
%LPC*%
G36*
X419954Y966723D02*
X419954Y966723D01*
X420155Y967996D01*
X420736Y969783D01*
X421589Y971457D01*
X422694Y972978D01*
X424022Y974306D01*
X425543Y975411D01*
X427217Y976264D01*
X429004Y976845D01*
X430277Y977046D01*
X430277Y966723D01*
X419954Y966723D01*
G37*
%LPD*%
%LPC*%
G36*
X1435954Y204723D02*
X1435954Y204723D01*
X1436155Y205996D01*
X1436736Y207783D01*
X1437589Y209457D01*
X1438694Y210978D01*
X1440022Y212306D01*
X1441543Y213411D01*
X1443217Y214264D01*
X1445004Y214845D01*
X1446277Y215046D01*
X1446277Y204723D01*
X1435954Y204723D01*
G37*
%LPD*%
%LPC*%
G36*
X851754Y966723D02*
X851754Y966723D01*
X851955Y967996D01*
X852536Y969783D01*
X853389Y971457D01*
X854494Y972978D01*
X855822Y974306D01*
X857343Y975411D01*
X859017Y976264D01*
X860804Y976845D01*
X862077Y977046D01*
X862077Y966723D01*
X851754Y966723D01*
G37*
%LPD*%
%LPC*%
G36*
X1449323Y227077D02*
X1449323Y227077D01*
X1459646Y227077D01*
X1459445Y225804D01*
X1458864Y224017D01*
X1458011Y222343D01*
X1456906Y220822D01*
X1455578Y219494D01*
X1454057Y218389D01*
X1452383Y217536D01*
X1450596Y216955D01*
X1449323Y216754D01*
X1449323Y227077D01*
G37*
%LPD*%
%LPC*%
G36*
X509523Y125477D02*
X509523Y125477D01*
X519846Y125477D01*
X519645Y124204D01*
X519064Y122417D01*
X518211Y120743D01*
X517106Y119222D01*
X515778Y117894D01*
X514257Y116789D01*
X512583Y115936D01*
X510796Y115355D01*
X509523Y115154D01*
X509523Y125477D01*
G37*
%LPD*%
%LPC*%
G36*
X1449323Y201677D02*
X1449323Y201677D01*
X1459646Y201677D01*
X1459445Y200404D01*
X1458864Y198617D01*
X1458011Y196943D01*
X1456906Y195422D01*
X1455578Y194094D01*
X1454057Y192989D01*
X1452383Y192136D01*
X1450596Y191555D01*
X1449323Y191354D01*
X1449323Y201677D01*
G37*
%LPD*%
%LPC*%
G36*
X128523Y684277D02*
X128523Y684277D01*
X138846Y684277D01*
X138645Y683004D01*
X138064Y681217D01*
X137211Y679543D01*
X136106Y678022D01*
X134778Y676694D01*
X133257Y675589D01*
X131583Y674736D01*
X129796Y674155D01*
X128523Y673954D01*
X128523Y684277D01*
G37*
%LPD*%
%LPC*%
G36*
X1435954Y230123D02*
X1435954Y230123D01*
X1436155Y231396D01*
X1436736Y233183D01*
X1437589Y234857D01*
X1438694Y236378D01*
X1440022Y237706D01*
X1441543Y238811D01*
X1443217Y239664D01*
X1445004Y240245D01*
X1446277Y240446D01*
X1446277Y230123D01*
X1435954Y230123D01*
G37*
%LPD*%
%LPC*%
G36*
X1435954Y179323D02*
X1435954Y179323D01*
X1436155Y180596D01*
X1436736Y182383D01*
X1437589Y184057D01*
X1438694Y185578D01*
X1440022Y186906D01*
X1441543Y188011D01*
X1443217Y188864D01*
X1445004Y189445D01*
X1446277Y189646D01*
X1446277Y179323D01*
X1435954Y179323D01*
G37*
%LPD*%
%LPC*%
G36*
X534923Y125477D02*
X534923Y125477D01*
X545246Y125477D01*
X545045Y124204D01*
X544464Y122417D01*
X543611Y120743D01*
X542506Y119222D01*
X541178Y117894D01*
X539657Y116789D01*
X537983Y115936D01*
X536196Y115355D01*
X534923Y115154D01*
X534923Y125477D01*
G37*
%LPD*%
%LPC*%
G36*
X585723Y684277D02*
X585723Y684277D01*
X596046Y684277D01*
X595845Y683004D01*
X595264Y681217D01*
X594411Y679543D01*
X593306Y678022D01*
X591978Y676694D01*
X590457Y675589D01*
X588783Y674736D01*
X586996Y674155D01*
X585723Y673954D01*
X585723Y684277D01*
G37*
%LPD*%
%LPC*%
G36*
X1449323Y252477D02*
X1449323Y252477D01*
X1459646Y252477D01*
X1459445Y251204D01*
X1458864Y249417D01*
X1458011Y247743D01*
X1456906Y246222D01*
X1455578Y244894D01*
X1454057Y243789D01*
X1452383Y242936D01*
X1450596Y242355D01*
X1449323Y242154D01*
X1449323Y252477D01*
G37*
%LPD*%
%LPC*%
G36*
X560323Y125477D02*
X560323Y125477D01*
X570646Y125477D01*
X570445Y124204D01*
X569864Y122417D01*
X569011Y120743D01*
X567906Y119222D01*
X566578Y117894D01*
X565057Y116789D01*
X563383Y115936D01*
X561596Y115355D01*
X560323Y115154D01*
X560323Y125477D01*
G37*
%LPD*%
%LPC*%
G36*
X1449323Y176277D02*
X1449323Y176277D01*
X1459646Y176277D01*
X1459445Y175004D01*
X1458864Y173217D01*
X1458011Y171543D01*
X1456906Y170022D01*
X1455578Y168694D01*
X1454057Y167589D01*
X1452383Y166736D01*
X1450596Y166155D01*
X1449323Y165954D01*
X1449323Y176277D01*
G37*
%LPD*%
%LPC*%
G36*
X369154Y966723D02*
X369154Y966723D01*
X369355Y967996D01*
X369936Y969783D01*
X370789Y971457D01*
X371894Y972978D01*
X373222Y974306D01*
X374743Y975411D01*
X376417Y976264D01*
X378204Y976845D01*
X379477Y977046D01*
X379477Y966723D01*
X369154Y966723D01*
G37*
%LPD*%
%LPC*%
G36*
X407923Y125477D02*
X407923Y125477D01*
X418246Y125477D01*
X418045Y124204D01*
X417464Y122417D01*
X416611Y120743D01*
X415506Y119222D01*
X414178Y117894D01*
X412657Y116789D01*
X410983Y115936D01*
X409196Y115355D01*
X407923Y115154D01*
X407923Y125477D01*
G37*
%LPD*%
%LPC*%
G36*
X534923Y963677D02*
X534923Y963677D01*
X545246Y963677D01*
X545045Y962404D01*
X544464Y960617D01*
X543611Y958943D01*
X542506Y957422D01*
X541178Y956094D01*
X539657Y954989D01*
X537983Y954136D01*
X536196Y953555D01*
X534923Y953354D01*
X534923Y963677D01*
G37*
%LPD*%
%LPC*%
G36*
X484123Y125477D02*
X484123Y125477D01*
X494446Y125477D01*
X494245Y124204D01*
X493664Y122417D01*
X492811Y120743D01*
X491706Y119222D01*
X490378Y117894D01*
X488857Y116789D01*
X487183Y115936D01*
X485396Y115355D01*
X484123Y115154D01*
X484123Y125477D01*
G37*
%LPD*%
%LPC*%
G36*
X724754Y966723D02*
X724754Y966723D01*
X724955Y967996D01*
X725536Y969783D01*
X726389Y971457D01*
X727494Y972978D01*
X728822Y974306D01*
X730343Y975411D01*
X732017Y976264D01*
X733804Y976845D01*
X735077Y977046D01*
X735077Y966723D01*
X724754Y966723D01*
G37*
%LPD*%
%LPC*%
G36*
X597754Y966723D02*
X597754Y966723D01*
X597955Y967996D01*
X598536Y969783D01*
X599389Y971457D01*
X600494Y972978D01*
X601822Y974306D01*
X603343Y975411D01*
X605017Y976264D01*
X606804Y976845D01*
X608077Y977046D01*
X608077Y966723D01*
X597754Y966723D01*
G37*
%LPD*%
%LPC*%
G36*
X470754Y128523D02*
X470754Y128523D01*
X470955Y129796D01*
X471536Y131583D01*
X472389Y133257D01*
X473494Y134778D01*
X474822Y136106D01*
X476343Y137211D01*
X478017Y138064D01*
X479804Y138645D01*
X481077Y138846D01*
X481077Y128523D01*
X470754Y128523D01*
G37*
%LPD*%
%LPC*%
G36*
X496154Y128523D02*
X496154Y128523D01*
X496355Y129796D01*
X496936Y131583D01*
X497789Y133257D01*
X498894Y134778D01*
X500222Y136106D01*
X501743Y137211D01*
X503417Y138064D01*
X505204Y138645D01*
X506477Y138846D01*
X506477Y128523D01*
X496154Y128523D01*
G37*
%LPD*%
%LPC*%
G36*
X572354Y687323D02*
X572354Y687323D01*
X572555Y688596D01*
X573136Y690383D01*
X573989Y692057D01*
X575094Y693578D01*
X576422Y694906D01*
X577943Y696011D01*
X579617Y696864D01*
X581404Y697445D01*
X582677Y697646D01*
X582677Y687323D01*
X572354Y687323D01*
G37*
%LPD*%
%LPC*%
G36*
X115154Y687323D02*
X115154Y687323D01*
X115355Y688596D01*
X115936Y690383D01*
X116789Y692057D01*
X117894Y693578D01*
X119222Y694906D01*
X120743Y696011D01*
X122417Y696864D01*
X124204Y697445D01*
X125477Y697646D01*
X125477Y687323D01*
X115154Y687323D01*
G37*
%LPD*%
%LPC*%
G36*
X1435954Y255523D02*
X1435954Y255523D01*
X1436155Y256796D01*
X1436736Y258583D01*
X1437589Y260257D01*
X1438694Y261778D01*
X1440022Y263106D01*
X1441543Y264211D01*
X1443217Y265064D01*
X1445004Y265645D01*
X1446277Y265846D01*
X1446277Y255523D01*
X1435954Y255523D01*
G37*
%LPD*%
%LPC*%
G36*
X1449323Y862077D02*
X1449323Y862077D01*
X1459646Y862077D01*
X1459445Y860804D01*
X1458864Y859017D01*
X1458011Y857343D01*
X1456906Y855822D01*
X1455578Y854494D01*
X1454057Y853389D01*
X1452383Y852536D01*
X1450596Y851955D01*
X1449323Y851754D01*
X1449323Y862077D01*
G37*
%LPD*%
%LPC*%
G36*
X521554Y128523D02*
X521554Y128523D01*
X521755Y129796D01*
X522336Y131583D01*
X523189Y133257D01*
X524294Y134778D01*
X525622Y136106D01*
X527143Y137211D01*
X528817Y138064D01*
X530604Y138645D01*
X531877Y138846D01*
X531877Y128523D01*
X521554Y128523D01*
G37*
%LPD*%
%LPC*%
G36*
X1435954Y865123D02*
X1435954Y865123D01*
X1436155Y866396D01*
X1436736Y868183D01*
X1437589Y869857D01*
X1438694Y871378D01*
X1440022Y872706D01*
X1441543Y873811D01*
X1443217Y874664D01*
X1445004Y875245D01*
X1446277Y875446D01*
X1446277Y865123D01*
X1435954Y865123D01*
G37*
%LPD*%
%LPC*%
G36*
X1449323Y887477D02*
X1449323Y887477D01*
X1459646Y887477D01*
X1459445Y886204D01*
X1458864Y884417D01*
X1458011Y882743D01*
X1456906Y881222D01*
X1455578Y879894D01*
X1454057Y878789D01*
X1452383Y877936D01*
X1450596Y877355D01*
X1449323Y877154D01*
X1449323Y887477D01*
G37*
%LPD*%
%LPC*%
G36*
X458723Y963677D02*
X458723Y963677D01*
X469046Y963677D01*
X468845Y962404D01*
X468264Y960617D01*
X467411Y958943D01*
X466306Y957422D01*
X464978Y956094D01*
X463457Y954989D01*
X461783Y954136D01*
X459996Y953555D01*
X458723Y953354D01*
X458723Y963677D01*
G37*
%LPD*%
%LPC*%
G36*
X546954Y128523D02*
X546954Y128523D01*
X547155Y129796D01*
X547736Y131583D01*
X548589Y133257D01*
X549694Y134778D01*
X551022Y136106D01*
X552543Y137211D01*
X554217Y138064D01*
X556004Y138645D01*
X557277Y138846D01*
X557277Y128523D01*
X546954Y128523D01*
G37*
%LPD*%
%LPC*%
G36*
X1435954Y890523D02*
X1435954Y890523D01*
X1436155Y891796D01*
X1436736Y893583D01*
X1437589Y895257D01*
X1438694Y896778D01*
X1440022Y898106D01*
X1441543Y899211D01*
X1443217Y900064D01*
X1445004Y900645D01*
X1446277Y900846D01*
X1446277Y890523D01*
X1435954Y890523D01*
G37*
%LPD*%
%LPC*%
G36*
X611123Y963677D02*
X611123Y963677D01*
X621446Y963677D01*
X621245Y962404D01*
X620664Y960617D01*
X619811Y958943D01*
X618706Y957422D01*
X617378Y956094D01*
X615857Y954989D01*
X614183Y954136D01*
X612396Y953555D01*
X611123Y953354D01*
X611123Y963677D01*
G37*
%LPD*%
%LPC*%
G36*
X230123Y963677D02*
X230123Y963677D01*
X240446Y963677D01*
X240245Y962404D01*
X239664Y960617D01*
X238811Y958943D01*
X237706Y957422D01*
X236378Y956094D01*
X234857Y954989D01*
X233183Y954136D01*
X231396Y953555D01*
X230123Y953354D01*
X230123Y963677D01*
G37*
%LPD*%
%LPC*%
G36*
X738123Y963677D02*
X738123Y963677D01*
X748446Y963677D01*
X748245Y962404D01*
X747664Y960617D01*
X746811Y958943D01*
X745706Y957422D01*
X744378Y956094D01*
X742857Y954989D01*
X741183Y954136D01*
X739396Y953555D01*
X738123Y953354D01*
X738123Y963677D01*
G37*
%LPD*%
%LPC*%
G36*
X433323Y963677D02*
X433323Y963677D01*
X443646Y963677D01*
X443445Y962404D01*
X442864Y960617D01*
X442011Y958943D01*
X440906Y957422D01*
X439578Y956094D01*
X438057Y954989D01*
X436383Y954136D01*
X434596Y953555D01*
X433323Y953354D01*
X433323Y963677D01*
G37*
%LPD*%
%LPC*%
G36*
X242154Y382523D02*
X242154Y382523D01*
X242355Y383796D01*
X242936Y385583D01*
X243789Y387257D01*
X244894Y388778D01*
X246222Y390106D01*
X247743Y391211D01*
X249417Y392064D01*
X251204Y392645D01*
X252477Y392846D01*
X252477Y382523D01*
X242154Y382523D01*
G37*
%LPD*%
%LPC*%
G36*
X585723Y963677D02*
X585723Y963677D01*
X596046Y963677D01*
X595845Y962404D01*
X595264Y960617D01*
X594411Y958943D01*
X593306Y957422D01*
X591978Y956094D01*
X590457Y954989D01*
X588783Y954136D01*
X586996Y953555D01*
X585723Y953354D01*
X585723Y963677D01*
G37*
%LPD*%
%LPC*%
G36*
X445354Y966723D02*
X445354Y966723D01*
X445555Y967996D01*
X446136Y969783D01*
X446989Y971457D01*
X448094Y972978D01*
X449422Y974306D01*
X450943Y975411D01*
X452617Y976264D01*
X454404Y976845D01*
X455677Y977046D01*
X455677Y966723D01*
X445354Y966723D01*
G37*
%LPD*%
%LPC*%
G36*
X382523Y277877D02*
X382523Y277877D01*
X392846Y277877D01*
X392645Y276604D01*
X392064Y274817D01*
X391211Y273143D01*
X390106Y271622D01*
X388778Y270294D01*
X387257Y269189D01*
X385583Y268336D01*
X383796Y267755D01*
X382523Y267554D01*
X382523Y277877D01*
G37*
%LPD*%
%LPC*%
G36*
X255523Y379477D02*
X255523Y379477D01*
X265846Y379477D01*
X265645Y378204D01*
X265064Y376417D01*
X264211Y374743D01*
X263106Y373222D01*
X261778Y371894D01*
X260257Y370789D01*
X258583Y369936D01*
X256796Y369355D01*
X255523Y369154D01*
X255523Y379477D01*
G37*
%LPD*%
%LPC*%
G36*
X521554Y966723D02*
X521554Y966723D01*
X521755Y967996D01*
X522336Y969783D01*
X523189Y971457D01*
X524294Y972978D01*
X525622Y974306D01*
X527143Y975411D01*
X528817Y976264D01*
X530604Y976845D01*
X531877Y977046D01*
X531877Y966723D01*
X521554Y966723D01*
G37*
%LPD*%
%LPC*%
G36*
X1449323Y277877D02*
X1449323Y277877D01*
X1459646Y277877D01*
X1459445Y276604D01*
X1458864Y274817D01*
X1458011Y273143D01*
X1456906Y271622D01*
X1455578Y270294D01*
X1454057Y269189D01*
X1452383Y268336D01*
X1450596Y267755D01*
X1449323Y267554D01*
X1449323Y277877D01*
G37*
%LPD*%
%LPC*%
G36*
X115154Y306323D02*
X115154Y306323D01*
X115355Y307596D01*
X115936Y309383D01*
X116789Y311057D01*
X117894Y312578D01*
X119222Y313906D01*
X120743Y315011D01*
X122417Y315864D01*
X124204Y316445D01*
X125477Y316646D01*
X125477Y306323D01*
X115154Y306323D01*
G37*
%LPD*%
%LPC*%
G36*
X1435954Y306323D02*
X1435954Y306323D01*
X1436155Y307596D01*
X1436736Y309383D01*
X1437589Y311057D01*
X1438694Y312578D01*
X1440022Y313906D01*
X1441543Y315011D01*
X1443217Y315864D01*
X1445004Y316445D01*
X1446277Y316646D01*
X1446277Y306323D01*
X1435954Y306323D01*
G37*
%LPD*%
%LPC*%
G36*
X572354Y966723D02*
X572354Y966723D01*
X572555Y967996D01*
X573136Y969783D01*
X573989Y971457D01*
X575094Y972978D01*
X576422Y974306D01*
X577943Y975411D01*
X579617Y976264D01*
X581404Y976845D01*
X582677Y977046D01*
X582677Y966723D01*
X572354Y966723D01*
G37*
%LPD*%
%LPC*%
G36*
X382523Y963677D02*
X382523Y963677D01*
X392846Y963677D01*
X392645Y962404D01*
X392064Y960617D01*
X391211Y958943D01*
X390106Y957422D01*
X388778Y956094D01*
X387257Y954989D01*
X385583Y954136D01*
X383796Y953555D01*
X382523Y953354D01*
X382523Y963677D01*
G37*
%LPD*%
%LPC*%
G36*
X216754Y966723D02*
X216754Y966723D01*
X216955Y967996D01*
X217536Y969783D01*
X218389Y971457D01*
X219494Y972978D01*
X220822Y974306D01*
X222343Y975411D01*
X224017Y976264D01*
X225804Y976845D01*
X227077Y977046D01*
X227077Y966723D01*
X216754Y966723D01*
G37*
%LPD*%
%LPC*%
G36*
X394554Y128523D02*
X394554Y128523D01*
X394755Y129796D01*
X395336Y131583D01*
X396189Y133257D01*
X397294Y134778D01*
X398622Y136106D01*
X400143Y137211D01*
X401817Y138064D01*
X403604Y138645D01*
X404877Y138846D01*
X404877Y128523D01*
X394554Y128523D01*
G37*
%LPD*%
%LPC*%
G36*
X128523Y303277D02*
X128523Y303277D01*
X138846Y303277D01*
X138645Y302004D01*
X138064Y300217D01*
X137211Y298543D01*
X136106Y297022D01*
X134778Y295694D01*
X133257Y294589D01*
X131583Y293736D01*
X129796Y293155D01*
X128523Y292954D01*
X128523Y303277D01*
G37*
%LPD*%
%LPC*%
G36*
X140554Y966723D02*
X140554Y966723D01*
X140755Y967996D01*
X141336Y969783D01*
X142189Y971457D01*
X143294Y972978D01*
X144622Y974306D01*
X146143Y975411D01*
X147817Y976264D01*
X149604Y976845D01*
X150877Y977046D01*
X150877Y966723D01*
X140554Y966723D01*
G37*
%LPD*%
%LPC*%
G36*
X153923Y963677D02*
X153923Y963677D01*
X164246Y963677D01*
X164045Y962404D01*
X163464Y960617D01*
X162611Y958943D01*
X161506Y957422D01*
X160178Y956094D01*
X158657Y954989D01*
X156983Y954136D01*
X155196Y953555D01*
X153923Y953354D01*
X153923Y963677D01*
G37*
%LPD*%
%LPC*%
G36*
X1449323Y303277D02*
X1449323Y303277D01*
X1459646Y303277D01*
X1459445Y302004D01*
X1458864Y300217D01*
X1458011Y298543D01*
X1456906Y297022D01*
X1455578Y295694D01*
X1454057Y294589D01*
X1452383Y293736D01*
X1450596Y293155D01*
X1449323Y292954D01*
X1449323Y303277D01*
G37*
%LPD*%
%LPC*%
G36*
X1435954Y280923D02*
X1435954Y280923D01*
X1436155Y282196D01*
X1436736Y283983D01*
X1437589Y285657D01*
X1438694Y287178D01*
X1440022Y288506D01*
X1441543Y289611D01*
X1443217Y290464D01*
X1445004Y291045D01*
X1446277Y291246D01*
X1446277Y280923D01*
X1435954Y280923D01*
G37*
%LPD*%
%LPC*%
G36*
X369154Y280923D02*
X369154Y280923D01*
X369355Y282196D01*
X369936Y283983D01*
X370789Y285657D01*
X371894Y287178D01*
X373222Y288506D01*
X374743Y289611D01*
X376417Y290464D01*
X378204Y291045D01*
X379477Y291246D01*
X379477Y280923D01*
X369154Y280923D01*
G37*
%LPD*%
%LPC*%
G36*
X865123Y963677D02*
X865123Y963677D01*
X875446Y963677D01*
X875245Y962404D01*
X874664Y960617D01*
X873811Y958943D01*
X872706Y957422D01*
X871378Y956094D01*
X869857Y954989D01*
X868183Y954136D01*
X866396Y953555D01*
X865123Y953354D01*
X865123Y963677D01*
G37*
%LPD*%
%LPC*%
G36*
X606804Y953555D02*
X606804Y953555D01*
X605017Y954136D01*
X603343Y954989D01*
X601822Y956094D01*
X600494Y957422D01*
X599389Y958943D01*
X598536Y960617D01*
X597955Y962404D01*
X597754Y963677D01*
X608077Y963677D01*
X608077Y953354D01*
X606804Y953555D01*
G37*
%LPD*%
%LPC*%
G36*
X860804Y953555D02*
X860804Y953555D01*
X859017Y954136D01*
X857343Y954989D01*
X855822Y956094D01*
X854494Y957422D01*
X853389Y958943D01*
X852536Y960617D01*
X851955Y962404D01*
X851754Y963677D01*
X862077Y963677D01*
X862077Y953354D01*
X860804Y953555D01*
G37*
%LPD*%
%LPC*%
G36*
X581404Y953555D02*
X581404Y953555D01*
X579617Y954136D01*
X577943Y954989D01*
X576422Y956094D01*
X575094Y957422D01*
X573989Y958943D01*
X573136Y960617D01*
X572555Y962404D01*
X572354Y963677D01*
X582677Y963677D01*
X582677Y953354D01*
X581404Y953555D01*
G37*
%LPD*%
%LPC*%
G36*
X1445004Y293155D02*
X1445004Y293155D01*
X1443217Y293736D01*
X1441543Y294589D01*
X1440022Y295694D01*
X1438694Y297022D01*
X1437589Y298543D01*
X1436736Y300217D01*
X1436155Y302004D01*
X1435954Y303277D01*
X1446277Y303277D01*
X1446277Y292954D01*
X1445004Y293155D01*
G37*
%LPD*%
%LPC*%
G36*
X225804Y953555D02*
X225804Y953555D01*
X224017Y954136D01*
X222343Y954989D01*
X220822Y956094D01*
X219494Y957422D01*
X218389Y958943D01*
X217536Y960617D01*
X216955Y962404D01*
X216754Y963677D01*
X227077Y963677D01*
X227077Y953354D01*
X225804Y953555D01*
G37*
%LPD*%
%LPC*%
G36*
X124204Y293155D02*
X124204Y293155D01*
X122417Y293736D01*
X120743Y294589D01*
X119222Y295694D01*
X117894Y297022D01*
X116789Y298543D01*
X115936Y300217D01*
X115355Y302004D01*
X115154Y303277D01*
X125477Y303277D01*
X125477Y292954D01*
X124204Y293155D01*
G37*
%LPD*%
%LPC*%
G36*
X429004Y953555D02*
X429004Y953555D01*
X427217Y954136D01*
X425543Y954989D01*
X424022Y956094D01*
X422694Y957422D01*
X421589Y958943D01*
X420736Y960617D01*
X420155Y962404D01*
X419954Y963677D01*
X430277Y963677D01*
X430277Y953354D01*
X429004Y953555D01*
G37*
%LPD*%
%LPC*%
G36*
X1445004Y267755D02*
X1445004Y267755D01*
X1443217Y268336D01*
X1441543Y269189D01*
X1440022Y270294D01*
X1438694Y271622D01*
X1437589Y273143D01*
X1436736Y274817D01*
X1436155Y276604D01*
X1435954Y277877D01*
X1446277Y277877D01*
X1446277Y267554D01*
X1445004Y267755D01*
G37*
%LPD*%
%LPC*%
G36*
X454404Y953555D02*
X454404Y953555D01*
X452617Y954136D01*
X450943Y954989D01*
X449422Y956094D01*
X448094Y957422D01*
X446989Y958943D01*
X446136Y960617D01*
X445555Y962404D01*
X445354Y963677D01*
X455677Y963677D01*
X455677Y953354D01*
X454404Y953555D01*
G37*
%LPD*%
%LPC*%
G36*
X251204Y369355D02*
X251204Y369355D01*
X249417Y369936D01*
X247743Y370789D01*
X246222Y371894D01*
X244894Y373222D01*
X243789Y374743D01*
X242936Y376417D01*
X242355Y378204D01*
X242154Y379477D01*
X252477Y379477D01*
X252477Y369154D01*
X251204Y369355D01*
G37*
%LPD*%
%LPC*%
G36*
X378204Y267755D02*
X378204Y267755D01*
X376417Y268336D01*
X374743Y269189D01*
X373222Y270294D01*
X371894Y271622D01*
X370789Y273143D01*
X369936Y274817D01*
X369355Y276604D01*
X369154Y277877D01*
X379477Y277877D01*
X379477Y267554D01*
X378204Y267755D01*
G37*
%LPD*%
%LPC*%
G36*
X733804Y953555D02*
X733804Y953555D01*
X732017Y954136D01*
X730343Y954989D01*
X728822Y956094D01*
X727494Y957422D01*
X726389Y958943D01*
X725536Y960617D01*
X724955Y962404D01*
X724754Y963677D01*
X735077Y963677D01*
X735077Y953354D01*
X733804Y953555D01*
G37*
%LPD*%
%LPC*%
G36*
X378204Y953555D02*
X378204Y953555D01*
X376417Y954136D01*
X374743Y954989D01*
X373222Y956094D01*
X371894Y957422D01*
X370789Y958943D01*
X369936Y960617D01*
X369355Y962404D01*
X369154Y963677D01*
X379477Y963677D01*
X379477Y953354D01*
X378204Y953555D01*
G37*
%LPD*%
%LPC*%
G36*
X1445004Y877355D02*
X1445004Y877355D01*
X1443217Y877936D01*
X1441543Y878789D01*
X1440022Y879894D01*
X1438694Y881222D01*
X1437589Y882743D01*
X1436736Y884417D01*
X1436155Y886204D01*
X1435954Y887477D01*
X1446277Y887477D01*
X1446277Y877154D01*
X1445004Y877355D01*
G37*
%LPD*%
%LPC*%
G36*
X530604Y953555D02*
X530604Y953555D01*
X528817Y954136D01*
X527143Y954989D01*
X525622Y956094D01*
X524294Y957422D01*
X523189Y958943D01*
X522336Y960617D01*
X521755Y962404D01*
X521554Y963677D01*
X531877Y963677D01*
X531877Y953354D01*
X530604Y953555D01*
G37*
%LPD*%
%LPC*%
G36*
X1445004Y851955D02*
X1445004Y851955D01*
X1443217Y852536D01*
X1441543Y853389D01*
X1440022Y854494D01*
X1438694Y855822D01*
X1437589Y857343D01*
X1436736Y859017D01*
X1436155Y860804D01*
X1435954Y862077D01*
X1446277Y862077D01*
X1446277Y851754D01*
X1445004Y851955D01*
G37*
%LPD*%
%LPC*%
G36*
X479804Y115355D02*
X479804Y115355D01*
X478017Y115936D01*
X476343Y116789D01*
X474822Y117894D01*
X473494Y119222D01*
X472389Y120743D01*
X471536Y122417D01*
X470955Y124204D01*
X470754Y125477D01*
X481077Y125477D01*
X481077Y115154D01*
X479804Y115355D01*
G37*
%LPD*%
%LPC*%
G36*
X403604Y115355D02*
X403604Y115355D01*
X401817Y115936D01*
X400143Y116789D01*
X398622Y117894D01*
X397294Y119222D01*
X396189Y120743D01*
X395336Y122417D01*
X394755Y124204D01*
X394554Y125477D01*
X404877Y125477D01*
X404877Y115154D01*
X403604Y115355D01*
G37*
%LPD*%
%LPC*%
G36*
X556004Y115355D02*
X556004Y115355D01*
X554217Y115936D01*
X552543Y116789D01*
X551022Y117894D01*
X549694Y119222D01*
X548589Y120743D01*
X547736Y122417D01*
X547155Y124204D01*
X546954Y125477D01*
X557277Y125477D01*
X557277Y115154D01*
X556004Y115355D01*
G37*
%LPD*%
%LPC*%
G36*
X1445004Y242355D02*
X1445004Y242355D01*
X1443217Y242936D01*
X1441543Y243789D01*
X1440022Y244894D01*
X1438694Y246222D01*
X1437589Y247743D01*
X1436736Y249417D01*
X1436155Y251204D01*
X1435954Y252477D01*
X1446277Y252477D01*
X1446277Y242154D01*
X1445004Y242355D01*
G37*
%LPD*%
%LPC*%
G36*
X1445004Y166155D02*
X1445004Y166155D01*
X1443217Y166736D01*
X1441543Y167589D01*
X1440022Y168694D01*
X1438694Y170022D01*
X1437589Y171543D01*
X1436736Y173217D01*
X1436155Y175004D01*
X1435954Y176277D01*
X1446277Y176277D01*
X1446277Y165954D01*
X1445004Y166155D01*
G37*
%LPD*%
%LPC*%
G36*
X530604Y115355D02*
X530604Y115355D01*
X528817Y115936D01*
X527143Y116789D01*
X525622Y117894D01*
X524294Y119222D01*
X523189Y120743D01*
X522336Y122417D01*
X521755Y124204D01*
X521554Y125477D01*
X531877Y125477D01*
X531877Y115154D01*
X530604Y115355D01*
G37*
%LPD*%
%LPC*%
G36*
X1445004Y191555D02*
X1445004Y191555D01*
X1443217Y192136D01*
X1441543Y192989D01*
X1440022Y194094D01*
X1438694Y195422D01*
X1437589Y196943D01*
X1436736Y198617D01*
X1436155Y200404D01*
X1435954Y201677D01*
X1446277Y201677D01*
X1446277Y191354D01*
X1445004Y191555D01*
G37*
%LPD*%
%LPC*%
G36*
X124204Y674155D02*
X124204Y674155D01*
X122417Y674736D01*
X120743Y675589D01*
X119222Y676694D01*
X117894Y678022D01*
X116789Y679543D01*
X115936Y681217D01*
X115355Y683004D01*
X115154Y684277D01*
X125477Y684277D01*
X125477Y673954D01*
X124204Y674155D01*
G37*
%LPD*%
%LPC*%
G36*
X581404Y674155D02*
X581404Y674155D01*
X579617Y674736D01*
X577943Y675589D01*
X576422Y676694D01*
X575094Y678022D01*
X573989Y679543D01*
X573136Y681217D01*
X572555Y683004D01*
X572354Y684277D01*
X582677Y684277D01*
X582677Y673954D01*
X581404Y674155D01*
G37*
%LPD*%
%LPC*%
G36*
X1445004Y216955D02*
X1445004Y216955D01*
X1443217Y217536D01*
X1441543Y218389D01*
X1440022Y219494D01*
X1438694Y220822D01*
X1437589Y222343D01*
X1436736Y224017D01*
X1436155Y225804D01*
X1435954Y227077D01*
X1446277Y227077D01*
X1446277Y216754D01*
X1445004Y216955D01*
G37*
%LPD*%
%LPC*%
G36*
X505204Y115355D02*
X505204Y115355D01*
X503417Y115936D01*
X501743Y116789D01*
X500222Y117894D01*
X498894Y119222D01*
X497789Y120743D01*
X496936Y122417D01*
X496355Y124204D01*
X496154Y125477D01*
X506477Y125477D01*
X506477Y115154D01*
X505204Y115355D01*
G37*
%LPD*%
%LPC*%
G36*
X149604Y953555D02*
X149604Y953555D01*
X147817Y954136D01*
X146143Y954989D01*
X144622Y956094D01*
X143294Y957422D01*
X142189Y958943D01*
X141336Y960617D01*
X140755Y962404D01*
X140554Y963677D01*
X150877Y963677D01*
X150877Y953354D01*
X149604Y953555D01*
G37*
%LPD*%
%LPC*%
G36*
X712723Y458723D02*
X712723Y458723D01*
X712723Y468123D01*
X715724Y468123D01*
X722123Y461724D01*
X722123Y458723D01*
X712723Y458723D01*
G37*
%LPD*%
%LPC*%
G36*
X712723Y484123D02*
X712723Y484123D01*
X712723Y493523D01*
X715724Y493523D01*
X722123Y487124D01*
X722123Y484123D01*
X712723Y484123D01*
G37*
%LPD*%
%LPC*%
G36*
X1195323Y626363D02*
X1195323Y626363D01*
X1195323Y635763D01*
X1198324Y635763D01*
X1204723Y629364D01*
X1204723Y626363D01*
X1195323Y626363D01*
G37*
%LPD*%
%LPC*%
G36*
X1182877Y626363D02*
X1182877Y626363D01*
X1182877Y629364D01*
X1189276Y635763D01*
X1192277Y635763D01*
X1192277Y626363D01*
X1182877Y626363D01*
G37*
%LPD*%
%LPC*%
G36*
X700277Y484123D02*
X700277Y484123D01*
X700277Y487124D01*
X706676Y493523D01*
X709677Y493523D01*
X709677Y484123D01*
X700277Y484123D01*
G37*
%LPD*%
%LPC*%
G36*
X700277Y458723D02*
X700277Y458723D01*
X700277Y461724D01*
X706676Y468123D01*
X709677Y468123D01*
X709677Y458723D01*
X700277Y458723D01*
G37*
%LPD*%
%LPC*%
G36*
X712723Y446277D02*
X712723Y446277D01*
X712723Y455677D01*
X722123Y455677D01*
X722123Y452676D01*
X715724Y446277D01*
X712723Y446277D01*
G37*
%LPD*%
%LPC*%
G36*
X712723Y471677D02*
X712723Y471677D01*
X712723Y481077D01*
X722123Y481077D01*
X722123Y478076D01*
X715724Y471677D01*
X712723Y471677D01*
G37*
%LPD*%
%LPC*%
G36*
X1195323Y613917D02*
X1195323Y613917D01*
X1195323Y623317D01*
X1204723Y623317D01*
X1204723Y620316D01*
X1198324Y613917D01*
X1195323Y613917D01*
G37*
%LPD*%
%LPC*%
G36*
X1189276Y613917D02*
X1189276Y613917D01*
X1182877Y620316D01*
X1182877Y623317D01*
X1192277Y623317D01*
X1192277Y613917D01*
X1189276Y613917D01*
G37*
%LPD*%
%LPC*%
G36*
X706676Y446277D02*
X706676Y446277D01*
X700277Y452676D01*
X700277Y455677D01*
X709677Y455677D01*
X709677Y446277D01*
X706676Y446277D01*
G37*
%LPD*%
%LPC*%
G36*
X706676Y471677D02*
X706676Y471677D01*
X700277Y478076D01*
X700277Y481077D01*
X709677Y481077D01*
X709677Y471677D01*
X706676Y471677D01*
G37*
%LPD*%
%LPC*%
G36*
X228599Y965199D02*
X228599Y965199D01*
X228599Y965201D01*
X228601Y965201D01*
X228601Y965199D01*
X228599Y965199D01*
G37*
%LPD*%
%LPC*%
G36*
X584199Y965199D02*
X584199Y965199D01*
X584199Y965201D01*
X584201Y965201D01*
X584201Y965199D01*
X584199Y965199D01*
G37*
%LPD*%
%LPC*%
G36*
X380999Y965199D02*
X380999Y965199D01*
X380999Y965201D01*
X381001Y965201D01*
X381001Y965199D01*
X380999Y965199D01*
G37*
%LPD*%
%LPC*%
G36*
X380999Y279399D02*
X380999Y279399D01*
X380999Y279401D01*
X381001Y279401D01*
X381001Y279399D01*
X380999Y279399D01*
G37*
%LPD*%
%LPC*%
G36*
X1447799Y279399D02*
X1447799Y279399D01*
X1447799Y279401D01*
X1447801Y279401D01*
X1447801Y279399D01*
X1447799Y279399D01*
G37*
%LPD*%
%LPC*%
G36*
X126999Y304799D02*
X126999Y304799D01*
X126999Y304801D01*
X127001Y304801D01*
X127001Y304799D01*
X126999Y304799D01*
G37*
%LPD*%
%LPC*%
G36*
X1447799Y304799D02*
X1447799Y304799D01*
X1447799Y304801D01*
X1447801Y304801D01*
X1447801Y304799D01*
X1447799Y304799D01*
G37*
%LPD*%
%LPC*%
G36*
X253999Y380999D02*
X253999Y380999D01*
X253999Y381001D01*
X254001Y381001D01*
X254001Y380999D01*
X253999Y380999D01*
G37*
%LPD*%
%LPC*%
G36*
X1447799Y888999D02*
X1447799Y888999D01*
X1447799Y889001D01*
X1447801Y889001D01*
X1447801Y888999D01*
X1447799Y888999D01*
G37*
%LPD*%
%LPC*%
G36*
X1447799Y863599D02*
X1447799Y863599D01*
X1447799Y863601D01*
X1447801Y863601D01*
X1447801Y863599D01*
X1447799Y863599D01*
G37*
%LPD*%
%LPC*%
G36*
X863599Y965199D02*
X863599Y965199D01*
X863599Y965201D01*
X863601Y965201D01*
X863601Y965199D01*
X863599Y965199D01*
G37*
%LPD*%
%LPC*%
G36*
X584199Y685799D02*
X584199Y685799D01*
X584199Y685801D01*
X584201Y685801D01*
X584201Y685799D01*
X584199Y685799D01*
G37*
%LPD*%
%LPC*%
G36*
X1447799Y253999D02*
X1447799Y253999D01*
X1447799Y254001D01*
X1447801Y254001D01*
X1447801Y253999D01*
X1447799Y253999D01*
G37*
%LPD*%
%LPC*%
G36*
X152399Y965199D02*
X152399Y965199D01*
X152399Y965201D01*
X152401Y965201D01*
X152401Y965199D01*
X152399Y965199D01*
G37*
%LPD*%
%LPC*%
G36*
X507999Y126999D02*
X507999Y126999D01*
X507999Y127001D01*
X508001Y127001D01*
X508001Y126999D01*
X507999Y126999D01*
G37*
%LPD*%
%LPC*%
G36*
X482599Y126999D02*
X482599Y126999D01*
X482599Y127001D01*
X482601Y127001D01*
X482601Y126999D01*
X482599Y126999D01*
G37*
%LPD*%
%LPC*%
G36*
X406399Y126999D02*
X406399Y126999D01*
X406399Y127001D01*
X406401Y127001D01*
X406401Y126999D01*
X406399Y126999D01*
G37*
%LPD*%
%LPC*%
G36*
X558799Y126999D02*
X558799Y126999D01*
X558799Y127001D01*
X558801Y127001D01*
X558801Y126999D01*
X558799Y126999D01*
G37*
%LPD*%
%LPC*%
G36*
X533399Y126999D02*
X533399Y126999D01*
X533399Y127001D01*
X533401Y127001D01*
X533401Y126999D01*
X533399Y126999D01*
G37*
%LPD*%
%LPC*%
G36*
X1447799Y177799D02*
X1447799Y177799D01*
X1447799Y177801D01*
X1447801Y177801D01*
X1447801Y177799D01*
X1447799Y177799D01*
G37*
%LPD*%
%LPC*%
G36*
X711199Y457199D02*
X711199Y457199D01*
X711199Y457201D01*
X711201Y457201D01*
X711201Y457199D01*
X711199Y457199D01*
G37*
%LPD*%
%LPC*%
G36*
X533399Y965199D02*
X533399Y965199D01*
X533399Y965201D01*
X533401Y965201D01*
X533401Y965199D01*
X533399Y965199D01*
G37*
%LPD*%
%LPC*%
G36*
X609599Y965199D02*
X609599Y965199D01*
X609599Y965201D01*
X609601Y965201D01*
X609601Y965199D01*
X609599Y965199D01*
G37*
%LPD*%
%LPC*%
G36*
X736599Y965199D02*
X736599Y965199D01*
X736599Y965201D01*
X736601Y965201D01*
X736601Y965199D01*
X736599Y965199D01*
G37*
%LPD*%
%LPC*%
G36*
X711199Y482599D02*
X711199Y482599D01*
X711199Y482601D01*
X711201Y482601D01*
X711201Y482599D01*
X711199Y482599D01*
G37*
%LPD*%
%LPC*%
G36*
X457199Y965199D02*
X457199Y965199D01*
X457199Y965201D01*
X457201Y965201D01*
X457201Y965199D01*
X457199Y965199D01*
G37*
%LPD*%
%LPC*%
G36*
X1447799Y228599D02*
X1447799Y228599D01*
X1447799Y228601D01*
X1447801Y228601D01*
X1447801Y228599D01*
X1447799Y228599D01*
G37*
%LPD*%
%LPC*%
G36*
X1447799Y203199D02*
X1447799Y203199D01*
X1447799Y203201D01*
X1447801Y203201D01*
X1447801Y203199D01*
X1447799Y203199D01*
G37*
%LPD*%
%LPC*%
G36*
X431799Y965199D02*
X431799Y965199D01*
X431799Y965201D01*
X431801Y965201D01*
X431801Y965199D01*
X431799Y965199D01*
G37*
%LPD*%
%LPC*%
G36*
X1193799Y624839D02*
X1193799Y624839D01*
X1193799Y624841D01*
X1193801Y624841D01*
X1193801Y624839D01*
X1193799Y624839D01*
G37*
%LPD*%
%LPC*%
G36*
X126999Y685799D02*
X126999Y685799D01*
X126999Y685801D01*
X127001Y685801D01*
X127001Y685799D01*
X126999Y685799D01*
G37*
%LPD*%
D10*
X127000Y127000D03*
X152400Y127000D03*
X177800Y127000D03*
X203200Y127000D03*
X127000Y965200D03*
X152400Y965200D03*
X482600Y127000D03*
X508000Y127000D03*
X533400Y127000D03*
X558800Y127000D03*
X228600Y965200D03*
X254000Y965200D03*
X279400Y965200D03*
D11*
X1193800Y355600D03*
X711200Y381000D03*
X1193800Y330200D03*
X1193800Y304800D03*
X1193800Y279400D03*
X1193800Y254000D03*
X1193800Y381000D03*
X1193800Y406400D03*
X1193800Y431800D03*
X1193800Y472440D03*
X1193800Y497840D03*
X1193800Y523240D03*
X1193800Y548640D03*
X1193800Y574040D03*
X1193800Y599440D03*
X1193800Y624840D03*
X1193800Y650240D03*
X711200Y355600D03*
X711200Y330200D03*
X711200Y304800D03*
X711200Y279400D03*
X711200Y254000D03*
X711200Y431800D03*
X711200Y457200D03*
X711200Y482600D03*
X711200Y508000D03*
X711200Y533400D03*
X711200Y558800D03*
X1193800Y675640D03*
X1193800Y701040D03*
X711200Y584200D03*
X711200Y609600D03*
D10*
X381000Y203200D03*
X355600Y203200D03*
X381000Y228600D03*
X355600Y228600D03*
X381000Y254000D03*
X355600Y254000D03*
X381000Y279400D03*
X355600Y279400D03*
X203200Y279400D03*
X228600Y279400D03*
X254000Y279400D03*
X127000Y889000D03*
X584200Y889000D03*
X127000Y685800D03*
X584200Y685800D03*
X406400Y127000D03*
X381000Y127000D03*
X355600Y127000D03*
X330200Y127000D03*
X304800Y127000D03*
X279400Y127000D03*
X1295400Y177800D03*
X1295400Y203200D03*
X1295400Y228600D03*
X1295400Y254000D03*
X1295400Y279400D03*
X1295400Y304800D03*
X1447800Y177800D03*
X1447800Y203200D03*
X1447800Y228600D03*
X1447800Y254000D03*
X1447800Y279400D03*
X1447800Y304800D03*
X127000Y330200D03*
X127000Y304800D03*
X127000Y279400D03*
X127000Y254000D03*
X127000Y228600D03*
X127000Y203200D03*
X127000Y177800D03*
X203200Y203200D03*
X228600Y203200D03*
X279400Y584200D03*
X304800Y584200D03*
X330200Y584200D03*
X355600Y584200D03*
X381000Y584200D03*
X406400Y584200D03*
X431800Y584200D03*
X457200Y584200D03*
X482600Y584200D03*
X508000Y584200D03*
X533400Y584200D03*
X558800Y584200D03*
X177800Y381000D03*
X203200Y381000D03*
X228600Y381000D03*
X254000Y381000D03*
X279400Y381000D03*
X304800Y381000D03*
X330200Y381000D03*
X355600Y381000D03*
X381000Y381000D03*
X406400Y381000D03*
X431800Y381000D03*
X457200Y381000D03*
X482600Y381000D03*
X508000Y381000D03*
X533400Y381000D03*
X558800Y381000D03*
X685800Y965200D03*
X711200Y965200D03*
X736600Y965200D03*
X812800Y965200D03*
X838200Y965200D03*
X863600Y965200D03*
X939800Y965200D03*
X965200Y965200D03*
X381000Y965200D03*
X406400Y965200D03*
X431800Y965200D03*
X457200Y965200D03*
X533400Y965200D03*
X558800Y965200D03*
X584200Y965200D03*
X609600Y965200D03*
X1295400Y863600D03*
X1295400Y889000D03*
X1447800Y863600D03*
X1447800Y889000D03*
X1295400Y355600D03*
X1295400Y381000D03*
X1295400Y406400D03*
X1295400Y431800D03*
X1295400Y457200D03*
X1295400Y482600D03*
X1447800Y355600D03*
X1447800Y381000D03*
X1447800Y406400D03*
X1447800Y431800D03*
X1447800Y457200D03*
X1447800Y482600D03*
D12*
X160000Y365000D02*
X130000Y335000D01*
X160000Y365000D02*
X160000Y460000D01*
X265000Y565000D02*
X275000Y575000D01*
X265000Y565000D02*
X160000Y460000D01*
X275000Y575000D02*
X275000Y580000D01*
X130000Y335000D02*
X127000Y330200D01*
X275000Y580000D02*
X279400Y584200D01*
X1300000Y180000D02*
X1305000Y185000D01*
X1305000Y195000D01*
X1300000Y200000D01*
X1300000Y180000D02*
X1295400Y177800D01*
X1300000Y200000D02*
X1295400Y203200D01*
X1295000Y230000D02*
X1285000Y240000D01*
X1285000Y245000D01*
X1295000Y255000D01*
X1295000Y275000D01*
X1295400Y279400D01*
X1295000Y255000D02*
X1295400Y254000D01*
X1295000Y280000D02*
X1295000Y300000D01*
X1295400Y304800D01*
X1295000Y280000D02*
X1295400Y279400D01*
X1285000Y215000D02*
X1295000Y205000D01*
X1285000Y215000D02*
X1285000Y220000D01*
X1295000Y230000D01*
X1295000Y205000D02*
X1295400Y203200D01*
X1295400Y228600D02*
X1295000Y230000D01*
X810000Y605000D02*
X715000Y510000D01*
X810000Y845000D02*
X810000Y965000D01*
X810000Y845000D02*
X810000Y605000D01*
X715000Y510000D02*
X711200Y508000D01*
X810000Y965000D02*
X812800Y965200D01*
X810000Y845000D02*
X690000Y965000D01*
X685800Y965200D01*
X265000Y565000D02*
X255000Y575000D01*
X255000Y965000D01*
X254000Y965200D01*
D13*
X150000Y130000D02*
X130000Y130000D01*
X127000Y127000D01*
X150000Y130000D02*
X152400Y127000D01*
X160000Y125000D02*
X175000Y125000D01*
X177800Y127000D01*
X160000Y125000D02*
X152400Y127000D01*
X185000Y130000D02*
X200000Y130000D01*
X203200Y127000D01*
X185000Y130000D02*
X177800Y127000D01*
X1300000Y865000D02*
X1300000Y885000D01*
X1300000Y865000D02*
X1295400Y863600D01*
X1300000Y885000D02*
X1295400Y889000D01*
X125000Y890000D02*
X110000Y905000D01*
X110000Y950000D01*
X125000Y965000D01*
X125000Y890000D02*
X127000Y889000D01*
X125000Y965000D02*
X127000Y965200D01*
D12*
X500000Y280000D02*
X710000Y280000D01*
X711200Y279400D01*
D14*
X500000Y280000D03*
D12*
X630000Y170000D02*
X710000Y250000D01*
X630000Y170000D02*
X260000Y170000D01*
X710000Y250000D02*
X711200Y254000D01*
D14*
X260000Y170000D03*
D12*
X1195000Y305000D02*
X1235000Y345000D01*
X1235000Y755000D01*
X1045000Y945000D01*
X1193800Y304800D02*
X1195000Y305000D01*
D14*
X1045000Y945000D03*
D12*
X1225000Y365000D02*
X1195000Y335000D01*
X1225000Y365000D02*
X1225000Y750000D01*
X990000Y985000D01*
X1195000Y335000D02*
X1193800Y330200D01*
D14*
X990000Y985000D03*
D12*
X1215000Y380000D02*
X1195000Y360000D01*
X1215000Y380000D02*
X1215000Y745000D01*
X965000Y995000D01*
X280000Y995000D01*
X280000Y970000D01*
X1195000Y360000D02*
X1193800Y355600D01*
X279400Y965200D02*
X280000Y970000D01*
X505000Y325000D02*
X385000Y205000D01*
X505000Y325000D02*
X505000Y380000D01*
X385000Y205000D02*
X381000Y203200D01*
X505000Y380000D02*
X508000Y381000D01*
X605000Y105000D02*
X915000Y415000D01*
X605000Y105000D02*
X330000Y105000D01*
X330000Y125000D01*
X330200Y127000D01*
D14*
X915000Y415000D03*
D12*
X1190000Y470000D02*
X825000Y105000D01*
X1190000Y470000D02*
X1193800Y472440D01*
D14*
X825000Y105000D03*
D12*
X720000Y75000D02*
X1190000Y545000D01*
X720000Y75000D02*
X105000Y75000D01*
X105000Y210000D01*
X125000Y230000D01*
X1190000Y545000D02*
X1193800Y548640D01*
X127000Y228600D02*
X125000Y230000D01*
X705000Y95000D02*
X1170000Y560000D01*
D14*
X1170000Y560000D03*
X705000Y95000D03*
D12*
X1125000Y570000D02*
X1190000Y570000D01*
X1125000Y570000D02*
X640000Y85000D01*
X225000Y85000D01*
X225000Y135000D01*
X150000Y210000D01*
X125000Y210000D01*
X125000Y205000D01*
X1190000Y570000D02*
X1193800Y574040D01*
X127000Y203200D02*
X125000Y205000D01*
X590000Y410000D02*
X710000Y530000D01*
X590000Y410000D02*
X590000Y385000D01*
X710000Y530000D02*
X711200Y533400D01*
X355000Y255000D02*
X335000Y255000D01*
X335000Y220000D01*
X355000Y200000D01*
X355600Y254000D02*
X355000Y255000D01*
X355600Y203200D02*
X355000Y200000D01*
D14*
X590000Y385000D03*
D12*
X655000Y490000D02*
X605000Y540000D01*
X605000Y875000D01*
X590000Y890000D01*
X585000Y890000D01*
X584200Y889000D01*
D14*
X655000Y490000D03*
D12*
X715000Y300000D02*
X730000Y300000D01*
X730000Y250000D01*
X630000Y150000D01*
X360000Y150000D01*
X360000Y130000D01*
X711200Y304800D02*
X715000Y300000D01*
X360000Y130000D02*
X355600Y127000D01*
X695000Y375000D02*
X710000Y360000D01*
X695000Y375000D02*
X695000Y390000D01*
X920000Y615000D01*
X920000Y970000D01*
X935000Y985000D01*
X960000Y985000D01*
X960000Y970000D01*
X965000Y965000D01*
X710000Y360000D02*
X711200Y355600D01*
X965000Y965000D02*
X965200Y965200D01*
X870000Y385000D02*
X715000Y385000D01*
X870000Y385000D02*
X870000Y550000D01*
X935000Y615000D01*
X935000Y965000D01*
X715000Y385000D02*
X711200Y381000D01*
X935000Y965000D02*
X939800Y965200D01*
X580000Y435000D02*
X580000Y375000D01*
X385000Y180000D01*
X260000Y180000D01*
X260000Y235000D01*
X225000Y270000D01*
X225000Y275000D01*
X228600Y279400D01*
D14*
X580000Y435000D03*
D12*
X635000Y95000D02*
X1190000Y650000D01*
X635000Y95000D02*
X250000Y95000D01*
X250000Y220000D01*
X200000Y270000D01*
X200000Y275000D01*
X1190000Y650000D02*
X1193800Y650240D01*
X203200Y279400D02*
X200000Y275000D01*
X1295000Y360000D02*
X1295000Y380000D01*
X1295000Y360000D02*
X1295400Y355600D01*
X1285000Y395000D02*
X1295000Y405000D01*
X1285000Y395000D02*
X1285000Y390000D01*
X1295000Y380000D01*
X1295400Y381000D01*
X1285000Y420000D02*
X1295000Y430000D01*
X1285000Y420000D02*
X1285000Y415000D01*
X1295000Y405000D01*
X1295000Y430000D02*
X1295400Y431800D01*
X1295400Y406400D02*
X1295000Y405000D01*
X1305000Y450000D02*
X1300000Y455000D01*
X1305000Y450000D02*
X1305000Y440000D01*
X1300000Y435000D01*
X1300000Y455000D02*
X1295400Y457200D01*
X1300000Y435000D02*
X1295400Y431800D01*
X1315000Y465000D02*
X1300000Y480000D01*
X1315000Y465000D02*
X1315000Y450000D01*
X1305000Y440000D01*
X1300000Y480000D02*
X1295400Y482600D01*
X1450000Y460000D02*
X1455000Y465000D01*
X1455000Y475000D01*
X1450000Y480000D01*
X1450000Y460000D02*
X1447800Y457200D01*
X1450000Y480000D02*
X1447800Y482600D01*
X1435000Y370000D02*
X1445000Y360000D01*
X1435000Y370000D02*
X1435000Y375000D01*
X1445000Y385000D01*
X1445000Y360000D02*
X1447800Y355600D01*
X1447800Y381000D02*
X1445000Y385000D01*
X1430000Y390000D02*
X1445000Y405000D01*
X1430000Y390000D02*
X1430000Y375000D01*
X1435000Y370000D01*
X1445000Y405000D02*
X1447800Y406400D01*
X1430000Y415000D02*
X1445000Y430000D01*
X1430000Y415000D02*
X1430000Y390000D01*
X1445000Y430000D02*
X1447800Y431800D01*
X1455000Y450000D02*
X1447800Y457200D01*
X1455000Y450000D02*
X1455000Y440000D01*
X1450000Y435000D01*
X1447800Y431800D01*
M02*
