G04 EAGLE Gerber RS-274X export*
G75*
%MOMM*%
%FSLAX34Y34*%
%LPD*%
%IN*%
%IPPOS*%
%AMOC8*
5,1,8,0,0,1.08239X$1,22.5*%
G01*
%ADD10C,0.254000*%


D10*
X0Y0D02*
X1600000Y0D01*
X1600000Y1066800D01*
X0Y1066800D01*
X0Y0D01*
X68300Y50227D02*
X68225Y49084D01*
X68076Y47948D01*
X67852Y46824D01*
X67555Y45717D01*
X67187Y44632D01*
X66749Y43574D01*
X66242Y42546D01*
X65669Y41554D01*
X65032Y40601D01*
X64335Y39692D01*
X63579Y38831D01*
X62769Y38021D01*
X61908Y37265D01*
X60999Y36568D01*
X60046Y35931D01*
X59054Y35358D01*
X58026Y34851D01*
X56968Y34413D01*
X55883Y34045D01*
X54776Y33748D01*
X53652Y33525D01*
X52516Y33375D01*
X51373Y33300D01*
X50227Y33300D01*
X49084Y33375D01*
X47948Y33525D01*
X46824Y33748D01*
X45717Y34045D01*
X44632Y34413D01*
X43574Y34851D01*
X42546Y35358D01*
X41554Y35931D01*
X40601Y36568D01*
X39692Y37265D01*
X38831Y38021D01*
X38021Y38831D01*
X37265Y39692D01*
X36568Y40601D01*
X35931Y41554D01*
X35358Y42546D01*
X34851Y43574D01*
X34413Y44632D01*
X34045Y45717D01*
X33748Y46824D01*
X33525Y47948D01*
X33375Y49084D01*
X33300Y50227D01*
X33300Y51373D01*
X33375Y52516D01*
X33525Y53652D01*
X33748Y54776D01*
X34045Y55883D01*
X34413Y56968D01*
X34851Y58026D01*
X35358Y59054D01*
X35931Y60046D01*
X36568Y60999D01*
X37265Y61908D01*
X38021Y62769D01*
X38831Y63579D01*
X39692Y64335D01*
X40601Y65032D01*
X41554Y65669D01*
X42546Y66242D01*
X43574Y66749D01*
X44632Y67187D01*
X45717Y67555D01*
X46824Y67852D01*
X47948Y68076D01*
X49084Y68225D01*
X50227Y68300D01*
X51373Y68300D01*
X52516Y68225D01*
X53652Y68076D01*
X54776Y67852D01*
X55883Y67555D01*
X56968Y67187D01*
X58026Y66749D01*
X59054Y66242D01*
X60046Y65669D01*
X60999Y65032D01*
X61908Y64335D01*
X62769Y63579D01*
X63579Y62769D01*
X64335Y61908D01*
X65032Y60999D01*
X65669Y60046D01*
X66242Y59054D01*
X66749Y58026D01*
X67187Y56968D01*
X67555Y55883D01*
X67852Y54776D01*
X68076Y53652D01*
X68225Y52516D01*
X68300Y51373D01*
X68300Y50227D01*
X68300Y1015427D02*
X68225Y1014284D01*
X68076Y1013148D01*
X67852Y1012024D01*
X67555Y1010917D01*
X67187Y1009832D01*
X66749Y1008774D01*
X66242Y1007746D01*
X65669Y1006754D01*
X65032Y1005801D01*
X64335Y1004892D01*
X63579Y1004031D01*
X62769Y1003221D01*
X61908Y1002465D01*
X60999Y1001768D01*
X60046Y1001131D01*
X59054Y1000558D01*
X58026Y1000051D01*
X56968Y999613D01*
X55883Y999245D01*
X54776Y998948D01*
X53652Y998725D01*
X52516Y998575D01*
X51373Y998500D01*
X50227Y998500D01*
X49084Y998575D01*
X47948Y998725D01*
X46824Y998948D01*
X45717Y999245D01*
X44632Y999613D01*
X43574Y1000051D01*
X42546Y1000558D01*
X41554Y1001131D01*
X40601Y1001768D01*
X39692Y1002465D01*
X38831Y1003221D01*
X38021Y1004031D01*
X37265Y1004892D01*
X36568Y1005801D01*
X35931Y1006754D01*
X35358Y1007746D01*
X34851Y1008774D01*
X34413Y1009832D01*
X34045Y1010917D01*
X33748Y1012024D01*
X33525Y1013148D01*
X33375Y1014284D01*
X33300Y1015427D01*
X33300Y1016573D01*
X33375Y1017716D01*
X33525Y1018852D01*
X33748Y1019976D01*
X34045Y1021083D01*
X34413Y1022168D01*
X34851Y1023226D01*
X35358Y1024254D01*
X35931Y1025246D01*
X36568Y1026199D01*
X37265Y1027108D01*
X38021Y1027969D01*
X38831Y1028779D01*
X39692Y1029535D01*
X40601Y1030232D01*
X41554Y1030869D01*
X42546Y1031442D01*
X43574Y1031949D01*
X44632Y1032387D01*
X45717Y1032755D01*
X46824Y1033052D01*
X47948Y1033276D01*
X49084Y1033425D01*
X50227Y1033500D01*
X51373Y1033500D01*
X52516Y1033425D01*
X53652Y1033276D01*
X54776Y1033052D01*
X55883Y1032755D01*
X56968Y1032387D01*
X58026Y1031949D01*
X59054Y1031442D01*
X60046Y1030869D01*
X60999Y1030232D01*
X61908Y1029535D01*
X62769Y1028779D01*
X63579Y1027969D01*
X64335Y1027108D01*
X65032Y1026199D01*
X65669Y1025246D01*
X66242Y1024254D01*
X66749Y1023226D01*
X67187Y1022168D01*
X67555Y1021083D01*
X67852Y1019976D01*
X68076Y1018852D01*
X68225Y1017716D01*
X68300Y1016573D01*
X68300Y1015427D01*
X1566900Y1015427D02*
X1566825Y1014284D01*
X1566676Y1013148D01*
X1566452Y1012024D01*
X1566155Y1010917D01*
X1565787Y1009832D01*
X1565349Y1008774D01*
X1564842Y1007746D01*
X1564269Y1006754D01*
X1563632Y1005801D01*
X1562935Y1004892D01*
X1562179Y1004031D01*
X1561369Y1003221D01*
X1560508Y1002465D01*
X1559599Y1001768D01*
X1558646Y1001131D01*
X1557654Y1000558D01*
X1556626Y1000051D01*
X1555568Y999613D01*
X1554483Y999245D01*
X1553376Y998948D01*
X1552252Y998725D01*
X1551116Y998575D01*
X1549973Y998500D01*
X1548827Y998500D01*
X1547684Y998575D01*
X1546548Y998725D01*
X1545424Y998948D01*
X1544317Y999245D01*
X1543232Y999613D01*
X1542174Y1000051D01*
X1541146Y1000558D01*
X1540154Y1001131D01*
X1539201Y1001768D01*
X1538292Y1002465D01*
X1537431Y1003221D01*
X1536621Y1004031D01*
X1535865Y1004892D01*
X1535168Y1005801D01*
X1534531Y1006754D01*
X1533958Y1007746D01*
X1533451Y1008774D01*
X1533013Y1009832D01*
X1532645Y1010917D01*
X1532348Y1012024D01*
X1532125Y1013148D01*
X1531975Y1014284D01*
X1531900Y1015427D01*
X1531900Y1016573D01*
X1531975Y1017716D01*
X1532125Y1018852D01*
X1532348Y1019976D01*
X1532645Y1021083D01*
X1533013Y1022168D01*
X1533451Y1023226D01*
X1533958Y1024254D01*
X1534531Y1025246D01*
X1535168Y1026199D01*
X1535865Y1027108D01*
X1536621Y1027969D01*
X1537431Y1028779D01*
X1538292Y1029535D01*
X1539201Y1030232D01*
X1540154Y1030869D01*
X1541146Y1031442D01*
X1542174Y1031949D01*
X1543232Y1032387D01*
X1544317Y1032755D01*
X1545424Y1033052D01*
X1546548Y1033276D01*
X1547684Y1033425D01*
X1548827Y1033500D01*
X1549973Y1033500D01*
X1551116Y1033425D01*
X1552252Y1033276D01*
X1553376Y1033052D01*
X1554483Y1032755D01*
X1555568Y1032387D01*
X1556626Y1031949D01*
X1557654Y1031442D01*
X1558646Y1030869D01*
X1559599Y1030232D01*
X1560508Y1029535D01*
X1561369Y1028779D01*
X1562179Y1027969D01*
X1562935Y1027108D01*
X1563632Y1026199D01*
X1564269Y1025246D01*
X1564842Y1024254D01*
X1565349Y1023226D01*
X1565787Y1022168D01*
X1566155Y1021083D01*
X1566452Y1019976D01*
X1566676Y1018852D01*
X1566825Y1017716D01*
X1566900Y1016573D01*
X1566900Y1015427D01*
X1566900Y50227D02*
X1566825Y49084D01*
X1566676Y47948D01*
X1566452Y46824D01*
X1566155Y45717D01*
X1565787Y44632D01*
X1565349Y43574D01*
X1564842Y42546D01*
X1564269Y41554D01*
X1563632Y40601D01*
X1562935Y39692D01*
X1562179Y38831D01*
X1561369Y38021D01*
X1560508Y37265D01*
X1559599Y36568D01*
X1558646Y35931D01*
X1557654Y35358D01*
X1556626Y34851D01*
X1555568Y34413D01*
X1554483Y34045D01*
X1553376Y33748D01*
X1552252Y33525D01*
X1551116Y33375D01*
X1549973Y33300D01*
X1548827Y33300D01*
X1547684Y33375D01*
X1546548Y33525D01*
X1545424Y33748D01*
X1544317Y34045D01*
X1543232Y34413D01*
X1542174Y34851D01*
X1541146Y35358D01*
X1540154Y35931D01*
X1539201Y36568D01*
X1538292Y37265D01*
X1537431Y38021D01*
X1536621Y38831D01*
X1535865Y39692D01*
X1535168Y40601D01*
X1534531Y41554D01*
X1533958Y42546D01*
X1533451Y43574D01*
X1533013Y44632D01*
X1532645Y45717D01*
X1532348Y46824D01*
X1532125Y47948D01*
X1531975Y49084D01*
X1531900Y50227D01*
X1531900Y51373D01*
X1531975Y52516D01*
X1532125Y53652D01*
X1532348Y54776D01*
X1532645Y55883D01*
X1533013Y56968D01*
X1533451Y58026D01*
X1533958Y59054D01*
X1534531Y60046D01*
X1535168Y60999D01*
X1535865Y61908D01*
X1536621Y62769D01*
X1537431Y63579D01*
X1538292Y64335D01*
X1539201Y65032D01*
X1540154Y65669D01*
X1541146Y66242D01*
X1542174Y66749D01*
X1543232Y67187D01*
X1544317Y67555D01*
X1545424Y67852D01*
X1546548Y68076D01*
X1547684Y68225D01*
X1548827Y68300D01*
X1549973Y68300D01*
X1551116Y68225D01*
X1552252Y68076D01*
X1553376Y67852D01*
X1554483Y67555D01*
X1555568Y67187D01*
X1556626Y66749D01*
X1557654Y66242D01*
X1558646Y65669D01*
X1559599Y65032D01*
X1560508Y64335D01*
X1561369Y63579D01*
X1562179Y62769D01*
X1562935Y61908D01*
X1563632Y60999D01*
X1564269Y60046D01*
X1564842Y59054D01*
X1565349Y58026D01*
X1565787Y56968D01*
X1566155Y55883D01*
X1566452Y54776D01*
X1566676Y53652D01*
X1566825Y52516D01*
X1566900Y51373D01*
X1566900Y50227D01*
M02*
